<svg xmlns="http://www.w3.org/2000/svg" width="16" height="16" viewBox="0 0 16 16"><g><g><path fill="#fff" d="M16 1.599v12.8c0 .88-.72 1.6-1.6 1.6H1.6c-.88 0-1.6-.72-1.6-1.6v-12.8c0-.88.72-1.6 1.6-1.6h12.8c.88 0 1.6.72 1.6 1.6zm-11.2 6.4c0 1.76 1.44 3.2 3.2 3.2 1.76 0 3.2-1.44 3.2-3.2 0-1.76-1.44-3.2-3.2-3.2a3.21 3.21 0 0 0-3.2 3.2zm9.2 6.4c.24 0 .4-.16.4-.4v-6.8h-1.68c.08.24.08.56.08.8 0 2.64-2.16 4.8-4.8 4.8-2.64 0-4.8-2.16-4.8-4.8 0-.24 0-.56.08-.8H1.6v6.8c0 .24.16.4.4.4zm.4-12.4c0-.24-.16-.4-.4-.4h-1.6c-.24 0-.4.16-.4.4v1.6c0 .24.16.4.4.4H14c.24 0 .4-.16.4-.4z"/></g></g></svg>