<svg xmlns="http://www.w3.org/2000/svg" width="17" height="13" viewBox="0 0 17 13"><g><g><path fill="#fff" d="M16.562 1.588c-.27.147-1.078.444-1.832.518.483-.26 1.2-1.112 1.376-1.79-.465.296-1.532.728-2.06.728l.002.002A3.296 3.296 0 0 0 11.66.028 3.298 3.298 0 0 0 8.36 3.322c0 .253.03.499.085.734h-.001c-2.473-.063-5.363-1.3-6.992-3.417-1 1.729-.135 3.651 1 4.351-.387.031-1.104-.043-1.44-.37-.024 1.147.53 2.667 2.545 3.218-.388.21-1.074.15-1.374.104.106.97 1.465 2.237 2.95 2.237-.529.61-2.336 1.72-4.57 1.366a9.918 9.918 0 0 0 5.162 1.457c5.325 0 9.461-4.307 9.239-9.62l-.003-.018c0-.015.003-.03.003-.042 0-.016-.003-.032-.003-.05a5.68 5.68 0 0 0 1.601-1.684z"/></g></g></svg>