<?xml version="1.0" encoding="utf-8"?>
<svg version="1.1" xmlns:xlink="http://www.w3.org/1999/xlink" width="28px" height="26px" xmlns="http://www.w3.org/2000/svg">
  <g transform="matrix(1 0 0 1 -1056 -19 )">
    <path d="M 11.9729166666667 15.6649630891539  C 12.7020833333333 14.9267461669506  13.0666666666667 14.0359644141586  13.0666666666667 12.992617830778  C 13.0666666666667 11.9492712473973  12.7020833333333 11.0584894946053  11.9729166666667 10.320272572402  C 11.24375 9.58205565019875  10.3638888888889 9.21294718909711  9.33333333333333 9.21294718909711  C 8.30277777777778 9.21294718909711  7.42291666666667 9.58205565019875  6.69375 10.320272572402  C 5.96458333333333 11.0584894946053  5.6 11.9492712473973  5.6 12.992617830778  C 5.6 14.0359644141586  5.96458333333333 14.9267461669506  6.69375 15.6649630891539  C 7.42291666666667 16.4031800113572  8.30277777777778 16.7722884724588  9.33333333333333 16.7722884724588  C 10.3638888888889 16.7722884724588  11.24375 16.4031800113572  11.9729166666667 15.6649630891539  Z M 23.7197916666667 21.8881317433277  C 24.084375 21.519023282226  24.2666666666667 21.07363240583  24.2666666666667 20.5519591141397  C 24.2666666666667 20.0401287147454  24.0819444444444 19.5971985614234  23.7125 19.2231686541738  C 23.3430555555556 18.8491387469241  22.9055555555556 18.6621237932993  22.4 18.6621237932993  C 21.8944444444444 18.6621237932993  21.4569444444444 18.8491387469241  21.0875 19.2231686541738  C 20.7180555555556 19.5971985614234  20.5333333333333 20.0401287147454  20.5333333333333 20.5519591141397  C 20.5333333333333 21.07363240583  20.715625 21.519023282226  21.0802083333333 21.8881317433277  C 21.4447916666667 22.2572402044293  21.8847222222222 22.4417944349801  22.4 22.4417944349801  C 22.9152777777778 22.4417944349801  23.3552083333333 22.2572402044293  23.7197916666667 21.8881317433277  Z M 23.7197916666667 6.7694491766042  C 24.084375 6.40034071550256  24.2666666666667 5.95494983910657  24.2666666666667 5.43327654741624  C 24.2666666666667 4.92144614802196  24.0819444444444 4.47851599469998  23.7125 4.10448608745031  C 23.3430555555556 3.73045618020064  22.9055555555556 3.54344122657581  22.4 3.54344122657581  C 21.8944444444444 3.54344122657581  21.4569444444444 3.73045618020064  21.0875 4.10448608745031  C 20.7180555555556 4.47851599469998  20.5333333333333 4.92144614802196  20.5333333333333 5.43327654741624  C 20.5333333333333 5.95494983910657  20.715625 6.40034071550256  21.0802083333333 6.7694491766042  C 21.4447916666667 7.13855763770585  21.8847222222222 7.32311186825667  22.4 7.32311186825667  C 22.9152777777778 7.32311186825667  23.3552083333333 7.13855763770585  23.7197916666667 6.7694491766042  Z M 18.5645833333333 11.3611584327087  C 18.6326388888889 11.4448230172251  18.6666666666667 11.5407912171115  18.6666666666667 11.649063032368  L 18.6666666666667 14.3804656445202  C 18.6666666666667 14.4788945674806  18.6326388888889 14.574862767367  18.5645833333333 14.6683702441794  C 18.4965277777778 14.7618777209919  18.41875 14.8135529055461  18.33125 14.8233957978421  L 16.0708333333333 15.1777399204997  C 15.9638888888889 15.5222411508613  15.8083333333333 15.8962710581109  15.6041666666667 16.2998296422487  C 15.9347222222222 16.7722884724588  16.3722222222222 17.3382547794814  16.9166666666667 17.9977285633163  C 16.9847222222222 18.1060003785728  17.01875 18.2044293015332  17.01875 18.2930153321976  C 17.01875 18.4111300397501  16.9847222222222 18.5046375165626  16.9166666666667 18.5735377626349  C 16.6930555555556 18.8688245315162  16.2920138888889 19.3092939617641  15.7135416666667 19.8949460533788  C 15.1350694444444 20.4805981449934  14.7534722222222 20.7734241908007  14.56875 20.7734241908007  C 14.4618055555556 20.7734241908007  14.3597222222222 20.7389740677645  14.2625 20.6700738216922  L 12.5854166666667 19.3412833617263  C 12.2256944444444 19.5282983153511  11.8513888888889 19.6808631459398  11.4625 19.7989778534923  C 11.3555555555556 20.8620102214651  11.24375 21.6248343744085  11.1270833333333 22.0874503123225  C 11.0590277777778 22.3236797274276  10.9131944444444 22.4417944349801  10.6895833333333 22.4417944349801  L 7.97708333333333 22.4417944349801  C 7.87013888888889 22.4417944349801  7.77291666666667 22.40488358887  7.68541666666667 22.3310618966496  C 7.59791666666667 22.2572402044293  7.54930555555556 22.1711148968389  7.53958333333333 22.0726859738785  L 7.20416666666667 19.8137421919364  C 6.87361111111111 19.715313268976  6.50902777777778 19.5627484383873  6.11041666666667 19.3560477001704  L 4.38958333333333 20.6700738216922  C 4.32152777777778 20.7389740677645  4.22430555555556 20.7734241908007  4.09791666666667 20.7734241908007  C 3.99097222222222 20.7734241908007  3.88888888888889 20.7340526216165  3.79166666666667 20.6553094832482  C 2.39166666666667 19.3462048078743  1.69166666666667 18.5587734241908  1.69166666666667 18.2930153321976  C 1.69166666666667 18.2044293015332  1.72569444444444 18.1109218247208  1.79375 18.0124929017604  C 1.89097222222222 17.8746924096157  2.09027777777778 17.6138557637706  2.39166666666667 17.2299829642249  C 2.69305555555556 16.8461101646792  2.92152777777778 16.5459019496498  3.07708333333333 16.3293583191369  C 2.85347222222222 15.8962710581109  2.68333333333333 15.4927124739731  2.56666666666667 15.1186825667235  L 0.35 14.7643384440659  C 0.252777777777778 14.7544955517698  0.170138888888889 14.7077418133636  0.102083333333333 14.6240772288472  C 0.0340277777777778 14.5404126443309  0 14.4444444444444  0 14.336172629188  L 0 11.6047700170358  C 0 11.5063410940753  0.0340277777777778 11.4103728941889  0.102083333333333 11.3168654173765  C 0.170138888888889 11.2233579405641  0.247916666666667 11.1716827560098  0.335416666666667 11.1618398637138  L 2.59583333333333 10.8074957410562  C 2.70277777777778 10.4629945106947  2.85833333333333 10.088964603445  3.0625 9.68540601930721  C 2.73194444444444 9.21294718909711  2.29444444444444 8.64698088207458  1.75 7.98750709823964  C 1.68194444444444 7.87923528298315  1.64791666666667 7.78080636002271  1.64791666666667 7.69222032935832  C 1.64791666666667 7.57410562180579  1.68194444444444 7.47567669884535  1.75 7.396933560477  C 1.96388888888889 7.10164679159568  2.3625 6.66363808442173  2.94583333333333 6.08290743895514  C 3.52916666666667 5.50217679348855  3.91319444444445 5.21181147075525  4.09791666666667 5.21181147075525  C 4.20486111111111 5.21181147075525  4.30694444444444 5.24626159379141  4.40416666666667 5.31516183986372  L 6.08125 6.64395229982964  C 6.41180555555556 6.46678023850085  6.78611111111111 6.30929396176415  7.20416666666667 6.17149346961953  C 7.31111111111111 5.10846110164679  7.42291666666667 4.35055839485141  7.53958333333333 3.89778534923339  C 7.60763888888889 3.66155593412834  7.75347222222222 3.54344122657581  7.97708333333333 3.54344122657581  L 10.6895833333333 3.54344122657581  C 10.7965277777778 3.54344122657581  10.89375 3.58035207268598  10.98125 3.6541737649063  C 11.06875 3.72799545712663  11.1173611111111 3.81412076471702  11.1270833333333 3.91254968767746  L 11.4625 6.17149346961953  C 11.7930555555556 6.26992239257997  12.1576388888889 6.42248722316865  12.55625 6.62918796138558  L 14.2770833333333 5.31516183986372  C 14.3548611111111 5.24626159379141  14.4520833333333 5.21181147075525  14.56875 5.21181147075525  C 14.6756944444444 5.21181147075525  14.7777777777778 5.25118303993943  14.875 5.32992617830778  C 16.275 6.63903085368162  16.975 7.42646223736513  16.975 7.69222032935832  C 16.975 7.77096346772667  16.9409722222222 7.86447094453908  16.8729166666667 7.97274275979557  C 16.75625 8.13022903653227  16.5520833333333 8.39598712852546  16.2604166666667 8.77001703577513  C 15.96875 9.1440469430248  15.75 9.43933371190611  15.6041666666667 9.65587734241908  C 15.8277777777778 10.1283361726292  15.9930555555556 10.531894756767  16.1 10.8665530948325  L 18.3166666666667 11.206132879046  C 18.4138888888889 11.2258186636381  18.4965277777778 11.2774938481923  18.5645833333333 11.3611584327087  Z M 25.8270833333333 19.060760931289  C 27.2756944444444 19.2084043157297  28 19.3609691463184  28 19.5184554230551  L 28 21.5854628052243  C 28 21.742949081961  27.2756944444444 21.8955139125497  25.8270833333333 22.0431572969903  C 25.7104166666667 22.3089153889835  25.5645833333333 22.5648305886807  25.3895833333333 22.8109028960818  C 25.8854166666667 23.9231497255347  26.1333333333333 24.6023092939618  26.1333333333333 24.8483816013629  C 26.1333333333333 24.887753170547  26.1138888888889 24.9222032935832  26.075 24.9517319704713  C 24.8888888888889 25.6505773234904  24.2861111111111 26  24.2666666666667 26  C 24.1888888888889 26  23.9652777777778 25.768692031043  23.5958333333333 25.3060760931289  C 23.2263888888889 24.8434601552148  22.9736111111111 24.5088018171493  22.8375 24.3021010789324  C 22.6430555555556 24.3217868635245  22.4972222222222 24.3316297558206  22.4 24.3316297558206  C 22.3027777777778 24.3316297558206  22.1569444444444 24.3217868635245  21.9625 24.3021010789324  C 21.8263888888889 24.5088018171493  21.5736111111111 24.8434601552148  21.2041666666667 25.3060760931289  C 20.8347222222222 25.768692031043  20.6111111111111 26  20.5333333333333 26  C 20.5138888888889 26  19.9111111111111 25.6505773234904  18.725 24.9517319704713  C 18.6861111111111 24.9222032935832  18.6666666666667 24.887753170547  18.6666666666667 24.8483816013629  C 18.6666666666667 24.6023092939618  18.9145833333333 23.9231497255347  19.4104166666667 22.8109028960818  C 19.2354166666667 22.5648305886807  19.0895833333333 22.3089153889835  18.9729166666667 22.0431572969903  C 17.5243055555556 21.8955139125497  16.8 21.742949081961  16.8 21.5854628052243  L 16.8 19.5184554230551  C 16.8 19.3609691463184  17.5243055555556 19.2084043157297  18.9729166666667 19.060760931289  C 19.0993055555556 18.7753170547038  19.2451388888889 18.5194018550066  19.4104166666667 18.2930153321976  C 18.9145833333333 17.1807685027447  18.6666666666667 16.5016089343176  18.6666666666667 16.2555366269165  C 18.6666666666667 16.2161650577323  18.6861111111111 16.1817149346962  18.725 16.1521862578081  C 18.7638888888889 16.132500473216  18.9340277777778 16.0340715502555  19.2354166666667 15.8568994889267  C 19.5368055555556 15.679727427598  19.8236111111111 15.5123982585652  20.0958333333333 15.3549119818285  C 20.3680555555556 15.1974257050918  20.5138888888889 15.1186825667235  20.5333333333333 15.1186825667235  C 20.6111111111111 15.1186825667235  20.8347222222222 15.3475298126065  21.2041666666667 15.8052243043725  C 21.5736111111111 16.2629187961386  21.8263888888889 16.59511641113  21.9625 16.801817149347  C 22.1569444444444 16.7821313647549  22.3027777777778 16.7722884724588  22.4 16.7722884724588  C 22.4972222222222 16.7722884724588  22.6430555555556 16.7821313647549  22.8375 16.801817149347  C 23.3333333333333 16.1029717963278  23.7805555555556 15.5517698277494  24.1791666666667 15.1482112436116  L 24.2666666666667 15.1186825667235  C 24.3055555555556 15.1186825667235  24.9083333333333 15.463183797085  26.075 16.1521862578081  C 26.1138888888889 16.1817149346962  26.1333333333333 16.2161650577323  26.1333333333333 16.2555366269165  C 26.1333333333333 16.5016089343176  25.8854166666667 17.1807685027447  25.3895833333333 18.2930153321976  C 25.5548611111111 18.5194018550066  25.7006944444444 18.7753170547038  25.8270833333333 19.060760931289  Z M 25.8270833333333 3.94207836456559  C 27.2756944444444 4.08972174900625  28 4.24228657959493  28 4.39977285633163  L 28 6.46678023850085  C 28 6.62426651523755  27.2756944444444 6.77683134582623  25.8270833333333 6.92447473026689  C 25.7104166666667 7.19023282226008  25.5645833333333 7.44614802195722  25.3895833333333 7.69222032935832  C 25.8854166666667 8.80446715881128  26.1333333333333 9.48362672723831  26.1333333333333 9.72969903463941  C 26.1333333333333 9.76907060382358  26.1138888888889 9.80352072685974  26.075 9.83304940374787  C 24.8888888888889 10.531894756767  24.2861111111111 10.8813174332765  24.2666666666667 10.8813174332765  C 24.1888888888889 10.8813174332765  23.9652777777778 10.6500094643195  23.5958333333333 10.1873935264055  C 23.2263888888889 9.72477758849139  22.9736111111111 9.39011925042589  22.8375 9.18341851220897  C 22.6430555555556 9.20310429680106  22.4972222222222 9.21294718909711  22.4 9.21294718909711  C 22.3027777777778 9.21294718909711  22.1569444444444 9.20310429680106  21.9625 9.18341851220897  C 21.8263888888889 9.39011925042589  21.5736111111111 9.72477758849139  21.2041666666667 10.1873935264055  C 20.8347222222222 10.6500094643195  20.6111111111111 10.8813174332765  20.5333333333333 10.8813174332765  C 20.5138888888889 10.8813174332765  19.9111111111111 10.531894756767  18.725 9.83304940374787  C 18.6861111111111 9.80352072685974  18.6666666666667 9.76907060382358  18.6666666666667 9.72969903463941  C 18.6666666666667 9.48362672723831  18.9145833333333 8.80446715881128  19.4104166666667 7.69222032935832  C 19.2354166666667 7.44614802195722  19.0895833333333 7.19023282226008  18.9729166666667 6.92447473026689  C 17.5243055555556 6.77683134582623  16.8 6.62426651523755  16.8 6.46678023850085  L 16.8 4.39977285633163  C 16.8 4.24228657959493  17.5243055555556 4.08972174900625  18.9729166666667 3.94207836456559  C 19.0993055555556 3.65663448798031  19.2451388888889 3.40071928828317  19.4104166666667 3.17433276547416  C 18.9145833333333 2.0620859360212  18.6666666666667 1.38292636759417  18.6666666666667 1.13685406019307  C 18.6666666666667 1.0974824910089  18.6861111111111 1.06303236797274  18.725 1.03350369108461  C 18.7638888888889 1.01381790649252  18.9340277777778 0.915388983532085  19.2354166666667 0.738216922203294  C 19.5368055555556 0.561044860874504  19.8236111111111 0.393715691841753  20.0958333333333 0.236229415105054  C 20.3680555555556 0.0787431383683495  20.5138888888889 0  20.5333333333333 0  C 20.6111111111111 0  20.8347222222222 0.22884724588302  21.2041666666667 0.686541737649062  C 21.5736111111111 1.1442362294151  21.8263888888889 1.47643384440659  21.9625 1.68313458262351  C 22.1569444444444 1.66344879803142  22.3027777777778 1.65360590573538  22.4 1.65360590573538  C 22.4972222222222 1.65360590573538  22.6430555555556 1.66344879803142  22.8375 1.68313458262351  C 23.3333333333333 0.984289229604388  23.7805555555556 0.433087261025931  24.1791666666667 0.0295286768881318  L 24.2666666666667 0  C 24.3055555555556 0  24.9083333333333 0.344501230361535  26.075 1.03350369108461  C 26.1138888888889 1.06303236797274  26.1333333333333 1.0974824910089  26.1333333333333 1.13685406019307  C 26.1333333333333 1.38292636759417  25.8854166666667 2.0620859360212  25.3895833333333 3.17433276547416  C 25.5548611111111 3.40071928828317  25.7006944444444 3.65663448798031  25.8270833333333 3.94207836456559  Z " fill-rule="nonzero" fill="#797979" stroke="none" transform="matrix(1 0 0 1 1056 19 )" />
  </g>
</svg>