<?xml version="1.0" encoding="utf-8"?>
<svg version="1.1" xmlns:xlink="http://www.w3.org/1999/xlink" width="26px" height="20px" xmlns="http://www.w3.org/2000/svg">
  <g transform="matrix(1 0 0 1 -1006 -22 )">
    <path d="M 24.0050223214286 18.046875  C 24.096912202381 17.9569128787879  24.1428571428571 17.8503787878788  24 17.7272727272727  L 24 6.81818181818182  C 23.8333333333333 7.15909090909091  23.4996279761905 7.47159090909091  23.1417410714286 7.75568181818182  C 20.5494791666667 9.70643939393939  18.4892113095238 11.3068181818182  16.9609375 12.5568181818182  C 16.4676339285714 12.9640151515151  16.0662202380952 13.28125  15.7566964285714 13.5085227272727  C 15.4471726190476 13.7357954545455  15.0288318452381 13.9654356060606  14.5016741071429 14.1974431818182  C 13.9745163690476 14.4294507575758  13.4787946428571 14.5454545454545  13.0145089285714 14.5454545454545  L 13 14.5454545454545  L 12.9854910714286 14.5454545454545  C 12.5212053571429 14.5454545454545  12.0254836309524 14.4294507575758  11.4983258928571 14.1974431818182  C 10.9711681547619 13.9654356060606  10.5528273809524 13.7357954545455  10.2433035714286 13.5085227272727  C 9.93377976190476 13.28125  9.53236607142857 12.9640151515151  9.0390625 12.5568181818182  C 7.51078869047619 11.3068181818182  5.45052083333333 9.70643939393939  2.85825892857143 7.75568181818182  C 2.50037202380952 7.47159090909091  2.16666666666667 7.15909090909091  2 6.81818181818182  L 2 17.7272727272727  C 1.85714285714286 17.8503787878788  1.90308779761905 17.9569128787879  1.99497767857143 18.046875  C 2.08686755952381 18.1368371212121  2.19568452380952 18.1818181818182  2.32142857142857 18  L 23.6785714285714 18  C 23.8043154761905 18.1818181818182  23.9131324404762 18.1368371212121  24.0050223214286 18.046875  Z M 23.4681919642857 4.66619318181818  C 23.91796875 3.97964015151515  24.1428571428571 3.35700757575758  24.1428571428571 2.79829545454545  L 24.1428571428571 2.64204545454545  L 24.1428571428571 2.45028409090909  C 24.1428571428571 2.45028409090909  24.1404389880952 2.38873106060606  24.1356026785714 2.265625  C 24.1307663690476 2.14251893939394  24.1162574404762 2.08333333333333  24.0920758928571 2.08806818181818  C 24.0678943452381 2.09280303030303  24.0412946428571 2.05018939393939  24.0122767857143 1.96022727272727  C 23.9832589285714 1.87026515151515  23.9397321428571 1.83475378787879  23.8816964285714 1.85369318181818  C 23.8236607142857 1.87263257575758  23.7559523809524 1.86079545454545  23.6785714285714 2  L 2.32142857142857 2  C 2.19568452380952 1.81818181818182  2.08686755952381 1.86316287878788  1.99497767857143 1.953125  C 1.90308779761905 2.04308712121212  1.85714285714286 2.14962121212121  1.85714285714286 2.27272727272727  C 1.85714285714286 3.86363636363636  2.56808035714286 5.20833333333333  3.98995535714286 6.30681818181818  C 5.85677083333333 7.74621212121212  7.79613095238095 9.24715909090909  9.80803571428571 10.8096590909091  C 9.86607142857143 10.8570075757576  10.0353422619048 10.9966856060606  10.3158482142857 11.2286931818182  C 10.5963541666667 11.4607007575758  10.8188244047619 11.6382575757576  10.9832589285714 11.7613636363636  C 11.147693452381 11.8844696969697  11.3629092261905 12.0336174242424  11.62890625 12.2088068181818  C 11.8949032738095 12.3839962121212  12.1391369047619 12.5142045454545  12.3616071428571 12.5994318181818  C 12.5840773809524 12.6846590909091  12.7920386904762 12.7272727272727  12.9854910714286 12.7272727272727  L 13 12.7272727272727  L 13.0145089285714 12.7272727272727  C 13.2079613095238 12.7272727272727  13.4159226190476 12.6846590909091  13.6383928571429 12.5994318181818  C 13.8608630952381 12.5142045454545  14.1050967261905 12.3839962121212  14.37109375 12.2088068181818  C 14.6370907738095 12.0336174242424  14.852306547619 11.8844696969697  15.0167410714286 11.7613636363636  C 15.1811755952381 11.6382575757576  15.4036458333333 11.4607007575758  15.6841517857143 11.2286931818182  C 15.9646577380952 10.9966856060606  16.1339285714286 10.8570075757576  16.1919642857143 10.8096590909091  C 18.203869047619 9.24715909090909  20.1432291666667 7.74621212121212  22.0100446428571 6.30681818181818  C 22.5323660714286 5.89962121212121  23.0184151785714 5.35274621212121  23.4681919642857 4.66619318181818  Z M 25.3180803571429 0.667613636363635  C 25.772693452381 1.11268939393939  26 1.64772727272727  26 2.27272727272727  L 26 17.7272727272727  C 26 18.3522727272727  25.772693452381 18.8873106060606  25.3180803571429 19.3323863636364  C 24.8634672619048 19.7774621212121  24.3169642857143 20  23.6785714285714 20  L 2.32142857142857 20  C 1.68303571428571 20  1.13653273809524 19.7774621212121  0.681919642857143 19.3323863636364  C 0.227306547619048 18.8873106060606  0 18.3522727272727  0 17.7272727272727  L 0 2.27272727272727  C 0 1.64772727272727  0.227306547619048 1.11268939393939  0.681919642857143 0.667613636363635  C 1.13653273809524 0.222537878787876  1.68303571428571 0  2.32142857142857 0  L 23.6785714285714 0  C 24.3169642857143 0  24.8634672619048 0.222537878787876  25.3180803571429 0.667613636363635  Z " fill-rule="nonzero" fill="#797979" stroke="none" transform="matrix(1 0 0 1 1006 22 )" />
  </g>
</svg>