<svg xmlns="http://www.w3.org/2000/svg" width="15" height="16" viewBox="0 0 15 16"><g><g><path fill="#fff" d="M8.498 14.823c-2.112 1.862-8.535 1.612-8.535-1.842S4.796 9.474 5.19 9.474c.39 0 .457-.109.13-.46-.328-.349-.851-1.028-.24-1.773-1.09.044-4.094-.547-4.094-3.31 0-2.758 2.896-3.94 3.94-3.94h5.204s-.238.197-.783.502C8.802.8 7.779.648 7.779.648s1.415.874 1.415 2.584-.827 2.454-1.872 3.374c-1.046.92-.435 1.468 1.198 2.628 1.632 1.16 2.09 3.728-.022 5.59zM4.709.516c-3.049 0-1.873 6.045.719 6.045 3.44 0 1.654-6.133-.719-6.045zm3.832 12.29c0-1.492-1.424-2.236-2.22-2.85-2.94 0-4.509.79-4.509 2.39s1.155 2.672 3.308 2.672c2.153 0 3.421-.722 3.421-2.212zM13.015.03v1.966h1.959v1.02h-1.96v1.97h-1.017v-1.97h-1.992v-1.02h1.992V.03z"/></g></g></svg>