<svg xmlns="http://www.w3.org/2000/svg" width="52.49" height="36.334" viewBox="0 0 52.49 36.334">
    <g id="Composant_225_2" data-name="Composant 225 – 2" transform="translate(1.879 1.42)">
        <g id="Groupe_9765" data-name="Groupe 9765" transform="rotate(-24 44.8 8.934)">
            <path id="Tracé_24013" fill="none" stroke="#1e1240" stroke-linecap="round" stroke-miterlimit="10" stroke-width="1.5px" d="M22.828 1.341a4.315 4.315 0 0 1-2.019-.505C16.3-1.483 10.348.24 7.131 5.225c-1.052 1.63-2.641 5.751-7.248 5.651 8.7 9.717 19.483 3.38 21.721-5a1.443 1.443 0 0 1 1.356-1.1h.084a1.365 1.365 0 0 1 1.333 1.067C26.434 14.179 37.082 20.28 46 10.37c-4.611.2-6.111-3.886-7.128-5.493-3.115-4.916-9.03-6.509-13.592-4.09a4.45 4.45 0 0 1-2.03.55z" data-name="Tracé 24013"/>
            <path id="Tracé_24014" fill="#ff4747" d="M9.217 8.254a11.7 11.7 0 0 1-4.1-4.705c-.156-.281-.291-.524-.4-.7a9.43 9.43 0 0 0-2.805-2.87 16.874 16.874 0 0 1-.724 6.377A13.138 13.138 0 0 1-.1 9.245a8.837 8.837 0 0 0 3.85.865 9.88 9.88 0 0 0 5.467-1.856z" data-name="Tracé 24014" transform="translate(32.364 3.224)"/>
        </g>
    </g>
</svg>
