<svg xmlns="http://www.w3.org/2000/svg" width="28.342" height="51.022"><defs><style>.cls-1,.cls-2{fill:none;stroke:#1e1240;stroke-miterlimit:10;stroke-width:1.5px}.cls-1{stroke-linecap:round}</style></defs><g id="Composant_227_2" data-name="Composant 227 – 2" transform="translate(.755 .75)"><g id="Groupe_5131" data-name="Groupe 5131" transform="translate(7.282)"><path id="Tracé_20535" d="M1239.047 693.733v-.975a1.748 1.748 0 00-1.76-1.735 1.748 1.748 0 00-1.76 1.735v.975" class="cls-1" data-name="Tracé 20535" transform="translate(-1231.152 -691.023)"/><path id="Tracé_20536" d="M1231.727 699.885v-.611a1.059 1.059 0 011.067-1.052h4.29a1.06 1.06 0 011.067 1.052v.611" class="cls-1" data-name="Tracé 20536" transform="translate(-1228.805 -695.511)"/><path id="Tracé_20537" d="M1224.078 725.4v-.54c0-4.378 2.33-10.1 2.33-10.1 2.333-5.345 2.144-7.955 2.144-7.955v-4.419" class="cls-2" data-name="Tracé 20537" transform="translate(-1224.078 -698.111)"/><path id="Tracé_20538" d="M1244.474 702.391v4.419s-.189 2.61 2.144 7.955c0 0 2.33 5.717 2.33 10.1v.54" class="cls-2" data-name="Tracé 20538" transform="translate(-1236.679 -698.111)"/></g><path id="Tracé_20539" d="M1218.435 763.5h-11.911a1.354 1.354 0 00-1.481 1.493l3.323 19.444a1.8 1.8 0 001.834 1.3h16.47a1.8 1.8 0 001.834-1.3l3.323-19.444a1.354 1.354 0 00-1.481-1.493z" class="cls-1" data-name="Tracé 20539" transform="translate(-1205.019 -736.213)"/><path id="Tracé_20540" d="M1250.331 723.316a13.254 13.254 0 019.52 12.655" class="cls-1" data-name="Tracé 20540" transform="translate(-1233.018 -711.157)"/><path id="Tracé_20541" d="M1205.019 735.971a13.254 13.254 0 019.52-12.655" class="cls-1" data-name="Tracé 20541" transform="translate(-1205.019 -711.157)"/><path id="Tracé_20542" fill="#b3b5f0" d="M1216.969 807.951l.618 3.615h16.465l.617-3.615a56.511 56.511 0 01-17.7 0z" data-name="Tracé 20542" transform="translate(-1212.404 -763.926)"/></g></svg>