<svg xmlns="http://www.w3.org/2000/svg" width="23.003" height="41.511"><defs><style>.cls-1{fill:none;stroke:#1e1240;stroke-linecap:round;stroke-miterlimit:10;stroke-width:1.5px}</style></defs><g id="picto_vieux_millesime_positif" data-name="picto/vieux millesime/positif" transform="translate(.805 .75)"><path id="Tracé_20471" d="M308.255 302.188v3.766c0 4.043-2.657 5.089-3.9 6.145-1.571 1.329-4.352 2.894-4.171 7.162l.784 10.766a7.858 7.858 0 01-.455 3.263 11.393 11.393 0 00-.538 2.045 1.972 1.972 0 001.634 2.257 72.577 72.577 0 0018.074 0 1.972 1.972 0 001.634-2.257 11.388 11.388 0 00-.538-2.045 7.846 7.846 0 01-.455-3.263l.784-10.766c.181-4.268-2.6-5.832-4.171-7.162-1.248-1.056-3.9-2.1-3.9-6.145v-3.766" class="cls-1" data-name="Tracé 20471" transform="translate(-299.945 -298.145)"/><path id="Tracé_20472" d="M325.238 289.438h-3.918l.383 3.291a.973.973 0 00.97.753h4.849a.973.973 0 00.97-.753l.664-3.291z" class="cls-1" data-name="Tracé 20472" transform="translate(-314.542 -289.438)"/><circle id="Ellipse_111" cx="6.248" cy="6.248" r="6.248" class="cls-1" data-name="Ellipse 111" transform="rotate(-76.602 20.77 13.143)"/><path id="Tracé_20473" fill="#ff6161" d="M324.32 360.448a4.532 4.532 0 013.967 2.348 4.345 4.345 0 10-7.935 0 4.533 4.533 0 013.968-2.348z" data-name="Tracé 20473" transform="translate(-313.623 -335.36)"/><path id="Tracé_20474" d="M350.341 357.245a10.339 10.339 0 005.177-1.224" class="cls-1" data-name="Tracé 20474" transform="translate(-334.359 -334.905)"/><path id="Tracé_20475" d="M349.72 379.257a10.868 10.868 0 004.865-1.19" class="cls-1" data-name="Tracé 20475" transform="translate(-333.935 -349.959)"/><path id="Tracé_20476" d="M307.156 379.257a10.869 10.869 0 01-4.865-1.19" class="cls-1" data-name="Tracé 20476" transform="translate(-301.548 -349.959)"/><path id="Tracé_20477" d="M305.862 357.245a10.339 10.339 0 01-5.177-1.224" class="cls-1" data-name="Tracé 20477" transform="translate(-300.451 -334.905)"/></g></svg>