<svg width="27" height="58" viewBox="0 0 27 58" fill="none" xmlns="http://www.w3.org/2000/svg">
<path d="M2.3773 55.6089C10.8097 49.7221 16.3819 42.4039 18.9936 32.4322C20.5793 26.3775 21.0706 20.7052 21.0706 14.4735C21.0706 13.4434 21.0706 12.4134 21.0706 11.3833C21.0706 10.0046 20.3945 9.59458 20.1334 8.41972C19.713 6.52789 17.5455 4.72791 16.5113 3.17648" stroke="black" stroke-width="3" stroke-linecap="round"/>
<path d="M16.4381 3.10992C16.0635 4.34405 15.7201 5.56754 15.5753 6.87077C15.5333 7.24802 15.2915 7.68829 15.1528 8.03711C14.9536 8.53808 14.9018 9.00571 14.7481 9.50098C14.6692 9.7553 14.3863 10.8304 14.1888 10.9291" stroke="black" stroke-width="3" stroke-linecap="round"/>
<path d="M16.7595 2.25302C17.6149 2.41597 18.4143 2.52043 19.2826 2.58031C19.8702 2.62084 20.3061 2.74695 20.8297 3.00876C21.9435 3.56564 23.3164 4.39527 24.5787 4.39527" stroke="black" stroke-width="3" stroke-linecap="round"/>
</svg>
