<svg width="104" height="40" viewBox="0 0 104 40" fill="none" xmlns="http://www.w3.org/2000/svg">
<path d="M2.2717 16.316C2.2717 11.4688 4.90828 6.42238 8.22512 3.10553C9.00719 2.32346 8.54287 2.11927 9.35497 3.2359C10.2244 4.43137 12.1048 4.73788 13.3963 5.36523C15.9904 6.62518 18.8957 8.10293 21.8267 8.10293" stroke="black" stroke-width="3" stroke-linecap="round"/>
<path d="M8.13821 5.36523C9.45124 8.77909 10.9043 13.2157 13.5267 15.838C18.5293 20.8407 24.5481 25.7454 30.9959 28.6357C38.3019 31.9109 45.1127 35.3374 53.1365 36.6316C62.1035 38.0779 70.2554 38.2248 79.2099 37.4572C85.3962 36.927 91.5133 34.4629 97.5265 32.9596C99.1843 32.5451 100.682 31.9601 102.394 31.9601" stroke="black" stroke-width="3" stroke-linecap="round"/>
</svg>
