<svg width="24" height="71" viewBox="0 0 24 71" fill="none" xmlns="http://www.w3.org/2000/svg">
<path d="M10.9393 70.0607C11.5251 70.6464 12.4749 70.6464 13.0607 70.0607L22.6066 60.5147C23.1924 59.9289 23.1924 58.9792 22.6066 58.3934C22.0208 57.8076 21.0711 57.8076 20.4853 58.3934L12 66.8787L3.51472 58.3934C2.92893 57.8076 1.97918 57.8076 1.3934 58.3934C0.807612 58.9792 0.807612 59.9289 1.3934 60.5147L10.9393 70.0607ZM10.5 0L10.5 69H13.5L13.5 0L10.5 0Z" fill="black"/>
<line x1="2" y1="58.5" x2="22" y2="58.5" stroke="black"/>
<path d="M15.38 60.2571C15.38 60.7294 15.3982 61.1833 15.2152 61.6317C15.198 61.6737 15.0989 61.8816 15.0214 61.8472C14.9874 61.8321 14.9148 61.6841 14.9634 61.6733C15.0132 61.6623 15.0942 61.8456 15.1011 61.8635C15.2193 62.1696 15.0874 62.4692 14.9834 62.7599C14.9471 62.8614 14.789 63.5081 14.6302 63.5169C14.5648 63.5206 14.5972 63.034 14.5976 62.999C14.6015 62.6665 14.6579 62.3586 14.8077 62.0591C14.8369 62.0006 14.9888 61.6421 14.9888 61.8671C14.9888 62.1421 14.9331 62.3957 14.8294 62.6513C14.739 62.8742 14.6212 63.0882 14.5071 63.2996C14.4545 63.3969 14.3889 63.5584 14.2861 63.6184C14.2133 63.6608 14.2517 63.4534 14.2354 63.6003C14.1919 63.9917 14.0845 64.3876 13.904 64.7376C13.8647 64.8139 13.8144 64.9368 13.7319 64.9839C13.7171 64.9923 13.9394 64.6677 13.9982 64.609C14.2813 64.3259 14.6478 64.1422 14.9671 63.9045C15.4003 63.5819 15.8218 63.2623 16.271 62.9628C16.6003 62.7433 16.8123 62.5038 17.0425 62.1913C17.1742 62.0125 17.2012 61.7522 17.3286 61.561C17.4433 61.3891 17.7551 61.4011 17.8756 61.2097C17.939 61.1089 17.8928 60.9402 17.9716 60.8457C18.023 60.784 17.6126 60.9614 17.6039 60.967C16.7718 61.5092 16.0124 62.2711 15.3474 63.0026C14.9185 63.4743 14.5579 63.991 14.1756 64.4985C14.028 64.6945 13.8334 64.8371 13.6559 65.0038C13.5006 65.1496 13.3774 65.338 13.2158 65.4747C12.8415 65.7914 13.7735 64.6652 14.0978 64.2975C14.5565 63.7773 15.0361 63.2817 15.5357 62.8016C15.8182 62.5302 16.1319 62.161 16.2565 61.7784C16.3995 61.3391 16.0399 60.6823 15.7349 60.3875C15.549 60.2077 15.3362 60.0852 15.1047 59.98C15.0607 59.96 15.0147 59.9708 14.9725 59.9474C14.9027 59.9086 15.051 59.9307 15.0757 59.9311C15.3715 59.9359 15.6605 60.0238 15.9595 60.0362C16.3155 60.0509 16.6751 60.0749 17.0316 60.0597C17.2499 60.0504 17.4572 59.9882 17.6727 59.9655C17.9457 59.9368 18.2523 59.9424 18.5239 59.971C18.7169 59.9913 18.9077 59.9963 19.1016 59.9963C19.2765 59.9963 18.753 60.0253 18.5782 60.0307C18.1602 60.0438 17.7374 60.0849 17.3214 60.1267C16.5931 60.1999 15.865 60.1919 15.1337 60.1919C14.7678 60.1919 14.402 60.1919 14.0362 60.1919C13.9697 60.1919 13.79 60.2316 13.837 60.1847C13.8781 60.1435 14.0171 60.1596 14.0615 60.1593C14.3585 60.1572 14.6556 60.1593 14.9526 60.1593C16.0018 60.1593 17.051 60.1593 18.1001 60.1593C18.4689 60.1593 18.8542 60.1963 19.2194 60.1521C19.3555 60.1356 19.764 60.0941 19.6268 60.0941C19.0493 60.0941 18.4737 60.2006 17.91 60.3169C17.3013 60.4424 16.7045 60.6093 16.108 60.7823C15.9089 60.8401 15.7101 60.9066 15.5049 60.9399C15.487 60.9428 15.3754 60.9951 15.3945 60.9924C15.5704 60.9673 15.756 60.8812 15.9269 60.8366C16.3667 60.7218 16.8123 60.6297 17.2598 60.5505C17.899 60.4373 18.5438 60.3645 19.1886 60.2915C19.4125 60.2662 19.6103 60.2602 19.817 60.1756C19.8453 60.164 20.0823 60.0398 20.0488 60.0398C19.887 60.0398 19.6828 60.169 19.5272 60.2173C19.5157 60.2208 19.7275 60.008 19.5852 60.2571" stroke="black" stroke-width="3" stroke-linecap="round"/>
<path d="M10.1316 64.7883C10.3258 64.1027 10.3508 63.5236 10.137 62.8287C10.1052 62.7252 10.038 62.5914 10.0338 62.481C10.0291 62.3592 10.0346 62.5009 10.0338 62.5462C10.0309 62.712 9.95203 62.6749 9.84726 62.5752C9.50331 62.248 9.2249 61.8899 8.84033 61.5991C8.65848 61.4615 8.4711 61.3389 8.26623 61.2387C8.20762 61.21 8.05829 61.1482 8.22277 61.1843C8.51326 61.2481 8.80979 61.4259 9.06309 61.5755C9.27912 61.7031 9.91889 62.0509 9.66978 62.021C9.51278 62.0022 9.3515 61.8914 9.20435 61.8399C8.97156 61.7585 8.73097 61.712 8.48718 61.6787C8.37868 61.664 8.14965 61.6178 8.15757 61.8001C8.16154 61.8912 8.30306 62.0016 8.35678 62.0536C8.53799 62.2293 8.73453 62.3811 8.95805 62.4991C9.07139 62.559 9.4934 62.6725 9.53757 62.8161C9.57115 62.9252 9.37471 62.986 9.3112 62.9917C8.59615 63.0567 8.24636 62.314 8.0308 61.7458C7.94058 61.5079 7.84255 61.3291 7.61426 61.2097C7.42358 61.11 7.20716 61.0954 7.01844 60.9906C6.91022 60.9304 6.81575 60.8782 6.70151 60.8113C6.56534 60.7314 6.48012 60.6346 6.36103 60.5632C6.13263 60.4261 5.8828 60.4284 5.64025 60.3368C5.47517 60.2744 5.17469 60.2842 5.04442 60.1756C4.96514 60.1095 4.77235 60.0846 5.02812 60.1339C5.15819 60.159 5.27965 60.2188 5.40843 60.2498C5.6699 60.3129 5.93803 60.318 6.20529 60.3295C6.6968 60.3508 7.18817 60.343 7.67946 60.3621C8.43123 60.3915 9.18496 60.3562 9.936 60.3875C10.071 60.3931 10.2062 60.4408 10.338 60.4672C10.6049 60.5205 10.1689 60.4588 10.1153 60.4454C9.44075 60.2768 8.80264 60.2245 8.11049 60.2245C7.71255 60.2245 7.32723 60.2903 6.92607 60.2245C6.4856 60.1523 6.03668 60.2208 5.59316 60.1847C5.29332 60.1602 5.016 60.0339 4.71843 59.9999C4.54532 59.9801 4.8104 60.0085 4.84339 60.0144C5.19048 60.0767 5.5344 60.0834 5.88473 60.114C6.48691 60.1666 7.08497 60.2768 7.68671 60.3404C8.20839 60.3956 8.73029 60.4505 9.25143 60.5106C9.54702 60.5447 9.90332 60.5371 10.1895 60.6229C10.4059 60.6878 10.6063 60.7211 10.8053 60.8276C10.9184 60.8881 11.3825 60.9639 11.1421 61.0974C11.0897 61.1266 11.0703 61.1617 11.0045 61.1499C10.4984 61.0596 10.0024 60.8364 9.51584 60.6773C8.74398 60.4248 7.97643 60.2293 7.176 60.0941C7.05184 60.0731 6.82547 59.9816 6.69426 60.0434C6.49921 60.1352 6.23533 60.102 6.02237 60.0923C5.54076 60.0704 5.07598 59.8659 4.58985 59.8659C4.45485 59.8659 4.32949 59.8707 4.19867 59.8333" stroke="black" stroke-width="3" stroke-linecap="round"/>
</svg>
