<?xml version="1.0" encoding="utf-8"?>
<svg version="1.1" xmlns:xlink="http://www.w3.org/1999/xlink" width="19px" height="19px" xmlns="http://www.w3.org/2000/svg">
  <g transform="matrix(1 0 0 1 -101 -1952 )">
    <path d="M 14.1634114583333 11.5595703125  C 14.2046440972222 11.5966796875  14.2252604166667 11.6440972222222  14.2252604166667 11.7018229166667  L 14.2252604166667 13.0501302083333  C 14.2252604166667 13.4624565972222  14.0747612847222 13.8294270833333  13.7737630208333 14.1510416666667  C 13.4727647569444 14.47265625  13.0851779513889 14.7221137152778  12.6110026041667 14.8994140625  C 12.1368272569444 15.0767144097222  11.6502821180556 15.2107204861111  11.1513671875 15.3014322916667  C 10.6524522569444 15.3921440972222  10.16796875 15.4375  9.69791666666667 15.4375  C 8.00737847222222 15.4375  6.59516059027778 14.8643663194444  5.46126302083333 13.7180989583333  C 4.32736545138889 12.5718315972222  3.76041666666667 11.1451822916667  3.76041666666667 9.43815104166667  C 3.76041666666667 7.76410590277778  4.32118055555556 6.36631944444444  5.44270833333333 5.24479166666667  C 6.56423611111111 4.12326388888889  7.96202256944444 3.5625  9.63606770833333 3.5625  C 9.91644965277778 3.5625  10.2277560763889 3.5810546875  10.5699869791667 3.6181640625  C 10.9122178819444 3.6552734375  11.2956814236111 3.7294921875  11.7203776041667 3.8408203125  C 12.1450737847222 3.9521484375  12.5264756944444 4.09233940972222  12.8645833333333 4.26139322916667  C 13.2026909722222 4.43044704861111  13.4871961805556 4.66341145833333  13.7180989583333 4.96028645833333  C 13.9490017361111 5.25716145833333  14.064453125 5.59114583333333  14.064453125 5.96223958333333  L 14.064453125 7.310546875  C 14.064453125 7.44249131944444  13.9984809027778 7.50846354166667  13.8665364583333 7.50846354166667  L 12.4069010416667 7.50846354166667  C 12.2749565972222 7.50846354166667  12.208984375 7.44249131944444  12.208984375 7.310546875  L 12.208984375 6.44466145833333  C 12.208984375 6.09006076388889  11.9389105902778 5.81174045138889  11.3987630208333 5.60970052083333  C 10.8586154513889 5.40766059027778  10.2916666666667 5.306640625  9.69791666666667 5.306640625  C 8.54340277777778 5.306640625  7.60123697916667 5.68391927083333  6.87141927083333 6.4384765625  C 6.1416015625 7.19303385416667  5.77669270833333 8.17230902777778  5.77669270833333 9.37630208333333  C 5.77669270833333 10.6215277777778  6.15397135416667 11.6502821180556  6.90852864583333 12.4625651041667  C 7.6630859375 13.2748480902778  8.62586805555556 13.6809895833333  9.796875 13.6809895833333  C 10.3576388888889 13.6809895833333  10.9266493055556 13.58203125  11.50390625 13.3841145833333  C 12.0811631944444 13.1861979166667  12.3697916666667 12.9140625  12.3697916666667 12.5677083333333  L 12.3697916666667 11.7018229166667  C 12.3697916666667 11.6440972222222  12.3883463541667 11.5966796875  12.4254557291667 11.5595703125  C 12.4625651041667 11.5224609375  12.505859375 11.50390625  12.5553385416667 11.50390625  L 14.02734375 11.50390625  C 14.0768229166667 11.50390625  14.1221788194444 11.5224609375  14.1634114583333 11.5595703125  Z M 12.5738932291667 2.21419270833333  C 11.5966796875 1.79361979166667  10.5720486111111 1.58333333333333  9.5 1.58333333333333  C 8.42795138888889 1.58333333333333  7.4033203125 1.79361979166667  6.42610677083333 2.21419270833333  C 5.44889322916667 2.634765625  4.60774739583333 3.19759114583333  3.90266927083333 3.90266927083333  C 3.19759114583333 4.60774739583333  2.634765625 5.44889322916667  2.21419270833333 6.42610677083333  C 1.79361979166667 7.4033203125  1.58333333333333 8.42795138888889  1.58333333333333 9.5  C 1.58333333333333 10.5720486111111  1.79361979166667 11.5966796875  2.21419270833333 12.5738932291667  C 2.634765625 13.5511067708333  3.19759114583333 14.3922526041667  3.90266927083333 15.0973307291667  C 4.60774739583333 15.8024088541667  5.44889322916667 16.365234375  6.42610677083333 16.7858072916667  C 7.4033203125 17.2063802083333  8.42795138888889 17.4166666666667  9.5 17.4166666666667  C 10.5720486111111 17.4166666666667  11.5966796875 17.2063802083333  12.5738932291667 16.7858072916667  C 13.5511067708333 16.365234375  14.3922526041667 15.8024088541667  15.0973307291667 15.0973307291667  C 15.8024088541667 14.3922526041667  16.365234375 13.5511067708333  16.7858072916667 12.5738932291667  C 17.2063802083333 11.5966796875  17.4166666666667 10.5720486111111  17.4166666666667 9.5  C 17.4166666666667 8.42795138888889  17.2063802083333 7.4033203125  16.7858072916667 6.42610677083333  C 16.365234375 5.44889322916667  15.8024088541667 4.60774739583333  15.0973307291667 3.90266927083333  C 14.3922526041667 3.19759114583333  13.5511067708333 2.634765625  12.5738932291667 2.21419270833333  Z M 17.7259114583333 4.7314453125  C 18.5753038194444 6.18695746527778  19 7.77647569444444  19 9.5  C 19 11.2235243055556  18.5753038194444 12.8130425347222  17.7259114583333 14.2685546875  C 16.8765190972222 15.7240668402778  15.7240668402778 16.8765190972222  14.2685546875 17.7259114583333  C 12.8130425347222 18.5753038194444  11.2235243055556 19  9.5 19  C 7.77647569444444 19  6.18695746527778 18.5753038194444  4.7314453125 17.7259114583333  C 3.27593315972222 16.8765190972222  2.12348090277778 15.7240668402778  1.27408854166667 14.2685546875  C 0.424696180555555 12.8130425347222  0 11.2235243055556  0 9.5  C 0 7.77647569444444  0.424696180555555 6.18695746527778  1.27408854166667 4.7314453125  C 2.12348090277778 3.27593315972222  3.27593315972222 2.12348090277778  4.7314453125 1.27408854166667  C 6.18695746527778 0.424696180555554  7.77647569444444 0  9.5 0  C 11.2235243055556 0  12.8130425347222 0.424696180555554  14.2685546875 1.27408854166667  C 15.7240668402778 2.12348090277778  16.8765190972222 3.27593315972222  17.7259114583333 4.7314453125  Z " fill-rule="nonzero" fill="#c6c6c6" stroke="none" transform="matrix(1 0 0 1 101 1952 )" />
  </g>
</svg>