<svg xmlns="http://www.w3.org/2000/svg" width="22" height="20"><path fill="#1e1240" d="M17.5 18a2.503 2.503 0 01-2.5-2.5c0-1.378 1.122-2.5 2.5-2.5s2.5 1.122 2.5 2.5-1.122 2.5-2.5 2.5zm-13-5A2.503 2.503 0 012 10.5C2 9.122 3.122 8 4.5 8S7 9.122 7 10.5 5.878 13 4.5 13zm13-11C18.878 2 20 3.122 20 4.5S18.878 7 17.5 7A2.503 2.503 0 0115 4.5C15 3.122 16.122 2 17.5 2zm0 10c-1.308 0-2.437.73-3.038 1.796l-6.555-2.522c.057-.25.093-.507.093-.774 0-.346-.066-.674-.16-.99l6.73-3.107A3.495 3.495 0 0017.5 8C19.43 8 21 6.43 21 4.5S19.43 1 17.5 1 14 2.57 14 4.5c0 .346.066.674.16.99L7.43 8.597A3.495 3.495 0 004.5 7C2.57 7 1 8.57 1 10.5S2.57 14 4.5 14c1.308 0 2.437-.73 3.038-1.796l6.555 2.522c-.057.25-.093.507-.093.774 0 1.93 1.57 3.5 3.5 3.5s3.5-1.57 3.5-3.5-1.57-3.5-3.5-3.5z"/><path fill="none" stroke="#1e1240" stroke-miterlimit="20" d="M17.5 18a2.503 2.503 0 01-2.5-2.5c0-1.378 1.122-2.5 2.5-2.5s2.5 1.122 2.5 2.5-1.122 2.5-2.5 2.5zm-13-5A2.503 2.503 0 012 10.5C2 9.122 3.122 8 4.5 8S7 9.122 7 10.5 5.878 13 4.5 13zm13-11C18.878 2 20 3.122 20 4.5S18.878 7 17.5 7A2.503 2.503 0 0115 4.5C15 3.122 16.122 2 17.5 2zm0 10c-1.308 0-2.437.73-3.038 1.796l-6.555-2.522c.057-.25.093-.507.093-.774 0-.346-.066-.674-.16-.99l6.73-3.107A3.495 3.495 0 0017.5 8C19.43 8 21 6.43 21 4.5S19.43 1 17.5 1 14 2.57 14 4.5c0 .346.066.674.16.99L7.43 8.597A3.495 3.495 0 004.5 7C2.57 7 1 8.57 1 10.5S2.57 14 4.5 14c1.308 0 2.437-.73 3.038-1.796l6.555 2.522c-.057.25-.093.507-.093.774 0 1.93 1.57 3.5 3.5 3.5s3.5-1.57 3.5-3.5-1.57-3.5-3.5-3.5z"/></svg>