<svg width="14" height="14" viewBox="0 0 14 14" fill="none" xmlns="http://www.w3.org/2000/svg">
<path fill-rule="evenodd" clip-rule="evenodd" d="M13.3646 2.05C13.7551 1.65948 13.7551 1.02631 13.3646 0.635789C12.974 0.245264 12.3409 0.245264 11.9504 0.635789L7.00064 5.5855L2.05094 0.635789C1.66041 0.245264 1.02725 0.245264 0.636724 0.635789C0.246199 1.02631 0.246199 1.65948 0.636724 2.05L5.58643 6.99971L0.636643 11.9495C0.246119 12.34 0.246119 12.9732 0.636643 13.3637C1.02717 13.7542 1.66033 13.7542 2.05086 13.3637L7.00064 8.41392L11.9504 13.3637C12.341 13.7542 12.9741 13.7542 13.3646 13.3637C13.7552 12.9732 13.7552 12.34 13.3646 11.9495L8.41486 6.99971L13.3646 2.05Z" fill="#1D2229"/>
<path fill-rule="evenodd" clip-rule="evenodd" d="M13.3646 2.05C13.7551 1.65948 13.7551 1.02631 13.3646 0.635789C12.974 0.245264 12.3409 0.245264 11.9504 0.635789L7.00064 5.5855L2.05094 0.635789C1.66041 0.245264 1.02725 0.245264 0.636724 0.635789C0.246199 1.02631 0.246199 1.65948 0.636724 2.05L5.58643 6.99971L0.636643 11.9495C0.246119 12.34 0.246119 12.9732 0.636643 13.3637C1.02717 13.7542 1.66033 13.7542 2.05086 13.3637L7.00064 8.41392L11.9504 13.3637C12.341 13.7542 12.9741 13.7542 13.3646 13.3637C13.7552 12.9732 13.7552 12.34 13.3646 11.9495L8.41486 6.99971L13.3646 2.05Z" fill="black" fill-opacity="0.2"/>
</svg>
