<svg width="25" height="24" viewBox="0 0 25 24" fill="none" xmlns="http://www.w3.org/2000/svg">
<path fill-rule="evenodd" clip-rule="evenodd" d="M6 0C2.96243 0 0.5 2.46243 0.5 5.5V18.5C0.5 21.5376 2.96243 24 6 24H19C22.0376 24 24.5 21.5376 24.5 18.5V5.5C24.5 2.46243 22.0376 0 19 0H6ZM9.48828 6.66667L9.53704 6.66667H15.463L15.5117 6.66667C16.1684 6.66663 16.7342 6.6666 17.1873 6.72925C17.6728 6.7964 18.1383 6.94783 18.5158 7.33614C18.8933 7.72445 19.0405 8.2032 19.1058 8.70264C19.1667 9.16867 19.1667 9.75063 19.1667 10.4261L19.1667 10.4762V13.5238L19.1667 13.5739C19.1667 14.2494 19.1667 14.8313 19.1058 15.2974C19.0405 15.7968 18.8933 16.2755 18.5158 16.6639C18.1383 17.0522 17.6728 17.2036 17.1873 17.2707C16.7342 17.3334 16.1684 17.3334 15.5117 17.3333H15.463H9.53704H9.48827C8.83162 17.3334 8.26583 17.3334 7.81275 17.2707C7.32718 17.2036 6.86174 17.0522 6.48421 16.6639C6.10668 16.2755 5.95946 15.7968 5.89418 15.2974C5.83327 14.8313 5.8333 14.2494 5.83334 13.574L5.83334 13.5238V10.4762L5.83334 10.426C5.8333 9.75062 5.83327 9.16866 5.89418 8.70264C5.95946 8.2032 6.10668 7.72445 6.48421 7.33614C6.86174 6.94783 7.32718 6.7964 7.81275 6.72925C8.26583 6.6666 8.83162 6.66663 9.48828 6.66667ZM8.01015 8.23947C7.68887 8.2839 7.58816 8.35564 7.53178 8.41364C7.47539 8.47163 7.40565 8.57521 7.36245 8.90568C7.34892 9.00923 7.33922 9.12365 7.33228 9.25239L12.1687 11.7397C12.3773 11.847 12.6227 11.847 12.8313 11.7397L17.6677 9.25239C17.6608 9.12365 17.6511 9.00923 17.6375 8.90568C17.5944 8.57521 17.5246 8.47163 17.4682 8.41364C17.4118 8.35564 17.3111 8.2839 16.9898 8.23947C16.6472 8.1921 16.1823 8.19048 15.463 8.19048H9.53704C8.81772 8.19048 8.35275 8.1921 8.01015 8.23947ZM7.31482 13.5238V10.9471L11.5062 13.1026C12.1318 13.4244 12.8682 13.4244 13.4938 13.1026L17.6852 10.9471V13.5238C17.6852 14.2637 17.6836 14.7419 17.6375 15.0943C17.5944 15.4248 17.5246 15.5284 17.4682 15.5864C17.4118 15.6444 17.3111 15.7161 16.9898 15.7605C16.6472 15.8079 16.1823 15.8095 15.463 15.8095H9.53704C8.81772 15.8095 8.35275 15.8079 8.01015 15.7605C7.68887 15.7161 7.58816 15.6444 7.53178 15.5864C7.47539 15.5284 7.40565 15.4248 7.36245 15.0943C7.31639 14.7419 7.31482 14.2637 7.31482 13.5238Z" fill="#37404D"/>
</svg>
