<svg width="23" height="24" viewBox="0 0 23 24" fill="none" xmlns="http://www.w3.org/2000/svg">
<path d="M11.5006 8.18161C9.39794 8.18161 7.68204 9.89751 7.68204 12.0001C7.68204 14.1028 9.39794 15.8187 11.5006 15.8187C13.6032 15.8187 15.3191 14.1028 15.3191 12.0001C15.3191 9.89751 13.6032 8.18161 11.5006 8.18161ZM22.9533 12.0001C22.9533 10.4189 22.9676 8.85193 22.8788 7.27353C22.79 5.44018 22.3718 3.81308 21.0311 2.47244C19.6876 1.12894 18.0634 0.713573 16.23 0.62477C14.6488 0.535967 13.0818 0.550291 11.5034 0.550291C9.92217 0.550291 8.35523 0.535967 6.77683 0.62477C4.94348 0.713573 3.31638 1.13181 1.97574 2.47244C0.632238 3.81595 0.216869 5.44018 0.128066 7.27353C0.0392633 8.85479 0.0535864 10.4217 0.0535864 12.0001C0.0535864 13.5785 0.0392633 15.1483 0.128066 16.7267C0.216869 18.5601 0.635102 20.1872 1.97574 21.5278C3.31924 22.8713 4.94348 23.2867 6.77683 23.3755C8.35809 23.4643 9.92503 23.45 11.5034 23.45C13.0847 23.45 14.6516 23.4643 16.23 23.3755C18.0634 23.2867 19.6905 22.8685 21.0311 21.5278C22.3746 20.1843 22.79 18.5601 22.8788 16.7267C22.9705 15.1483 22.9533 13.5814 22.9533 12.0001ZM11.5006 17.8754C8.24923 17.8754 5.62525 15.2515 5.62525 12.0001C5.62525 8.7488 8.24923 6.12482 11.5006 6.12482C14.7519 6.12482 17.3759 8.7488 17.3759 12.0001C17.3759 15.2515 14.7519 17.8754 11.5006 17.8754ZM17.6165 7.25634C16.8574 7.25634 16.2444 6.64331 16.2444 5.88419C16.2444 5.12507 16.8574 4.51205 17.6165 4.51205C18.3756 4.51205 18.9887 5.12507 18.9887 5.88419C18.9889 6.06445 18.9535 6.24298 18.8847 6.40956C18.8158 6.57614 18.7147 6.72749 18.5873 6.85495C18.4598 6.98241 18.3085 7.08348 18.1419 7.15235C17.9753 7.22123 17.7968 7.25657 17.6165 7.25634Z" fill="#37404D"/>
</svg>
