<svg width="55" height="56" viewBox="0 0 55 56" fill="none" xmlns="http://www.w3.org/2000/svg">
<path fill-rule="evenodd" clip-rule="evenodd" d="M0 28C0 12.8122 12.3122 0.5 27.5 0.5C42.6878 0.5 55 12.8122 55 28C55 43.1878 42.6878 55.5 27.5 55.5C12.3122 55.5 0 43.1878 0 28ZM27.5 5.5C15.0736 5.5 5 15.5736 5 28C5 40.4264 15.0736 50.5 27.5 50.5C39.9264 50.5 50 40.4264 50 28C50 15.5736 39.9264 5.5 27.5 5.5ZM41.7678 18.7322C42.7441 19.7085 42.7441 21.2915 41.7678 22.2678L24.2678 39.7678C23.2915 40.7441 21.7085 40.7441 20.7322 39.7678L13.2322 32.2678C12.2559 31.2915 12.2559 29.7085 13.2322 28.7322C14.2085 27.7559 15.7915 27.7559 16.7678 28.7322L22.5 34.4645L38.2322 18.7322C39.2085 17.7559 40.7915 17.7559 41.7678 18.7322Z" fill="#098507"/>
</svg>