<svg width="26" height="22" viewBox="0 0 26 22" fill="none" xmlns="http://www.w3.org/2000/svg">
<path d="M25.8333 2.96918C24.8847 3.39815 23.8785 3.67972 22.8482 3.80454C23.9214 3.14797 24.7454 2.10827 25.1334 0.869486C24.1132 1.48745 22.997 1.92285 21.833 2.15686C20.8849 1.12585 19.5342 0.481506 18.0393 0.481506C15.1689 0.481506 12.8417 2.85686 12.8417 5.78656C12.8417 6.20242 12.8877 6.60726 12.9763 6.99565C8.65674 6.77434 4.82705 4.66232 2.26354 1.45262C1.81624 2.23615 1.55994 3.14757 1.55994 4.11969C1.55994 5.9603 2.47758 7.58403 3.8721 8.53545C3.04674 8.50906 2.23954 8.28152 1.51789 7.87181C1.51759 7.89403 1.51759 7.91626 1.51759 7.93858C1.51759 10.509 3.30913 12.6532 5.6867 13.1406C4.92135 13.3531 4.11854 13.3842 3.33961 13.2315C4.00095 15.3392 5.92044 16.8729 8.1947 16.9159C6.41593 18.3387 4.17482 19.1869 1.73985 19.1869C1.32027 19.1869 0.90662 19.1617 0.5 19.1127C2.80009 20.618 5.53203 21.4963 8.46714 21.4963C18.0272 21.4963 23.2549 13.4123 23.2549 6.40181C23.2549 6.17171 23.2499 5.94292 23.2398 5.71545C24.2574 4.96462 25.1356 4.03465 25.8333 2.96918Z" fill="#37404D"/>
</svg>
