<svg width="26" height="20" viewBox="0 0 26 20" fill="none" xmlns="http://www.w3.org/2000/svg">
<g clip-path="url(#clip0_657_4667)">
<rect x="1" y="1.5" width="24" height="17" rx="3" fill="white"/>
<path fill-rule="evenodd" clip-rule="evenodd" d="M1 1.5H11.2857V9.43333H1V1.5Z" fill="#1A47B8"/>
<path fill-rule="evenodd" clip-rule="evenodd" d="M11.2857 1.5V2.63333H25V1.5H11.2857ZM11.2857 3.76667V4.9H25V3.76667H11.2857ZM11.2857 6.03333V7.16667H25V6.03333H11.2857ZM11.2857 8.3V9.43333H25V8.3H11.2857ZM1 10.5667V11.7H25V10.5667H1ZM1 12.8333V13.9667H25V12.8333H1ZM1 15.1V16.2333H25V15.1H1ZM1 17.3667V18.5H25V17.3667H1Z" fill="#F93939"/>
<path fill-rule="evenodd" clip-rule="evenodd" d="M2.14307 2.6333V3.76663H3.28592V2.6333H2.14307ZM4.42878 2.6333V3.76663H5.57164V2.6333H4.42878ZM6.7145 2.6333V3.76663H7.85735V2.6333H6.7145ZM9.00021 2.6333V3.76663H10.1431V2.6333H9.00021ZM7.85735 3.76663V4.89997H9.00021V3.76663H7.85735ZM5.57164 3.76663V4.89997H6.7145V3.76663H5.57164ZM3.28592 3.76663V4.89997H4.42878V3.76663H3.28592ZM2.14307 4.89997V6.0333H3.28592V4.89997H2.14307ZM4.42878 4.89997V6.0333H5.57164V4.89997H4.42878ZM6.7145 4.89997V6.0333H7.85735V4.89997H6.7145ZM9.00021 4.89997V6.0333H10.1431V4.89997H9.00021ZM2.14307 7.16663V8.29997H3.28592V7.16663H2.14307ZM4.42878 7.16663V8.29997H5.57164V7.16663H4.42878ZM6.7145 7.16663V8.29997H7.85735V7.16663H6.7145ZM9.00021 7.16663V8.29997H10.1431V7.16663H9.00021ZM7.85735 6.0333V7.16663H9.00021V6.0333H7.85735ZM5.57164 6.0333V7.16663H6.7145V6.0333H5.57164ZM3.28592 6.0333V7.16663H4.42878V6.0333H3.28592Z" fill="white"/>
</g>
<rect x="0.5" y="1" width="25" height="18" rx="3.5" stroke="#C5D0E3"/>
<defs>
<clipPath id="clip0_657_4667">
<rect x="1" y="1.5" width="24" height="17" rx="3" fill="white"/>
</clipPath>
</defs>
</svg>
