<svg width="26" height="20" viewBox="0 0 26 20" fill="none" xmlns="http://www.w3.org/2000/svg">
<g clip-path="url(#clip0_396_6106)">
<rect x="1" y="1.5" width="24" height="17" rx="3" fill="white"/>
<path fill-rule="evenodd" clip-rule="evenodd" d="M1 1.5H11.2857V9.43333H1V1.5Z" fill="#1A47B8"/>
<path fill-rule="evenodd" clip-rule="evenodd" d="M11.2857 1.5V2.63333H25V1.5H11.2857ZM11.2857 3.76667V4.9H25V3.76667H11.2857ZM11.2857 6.03333V7.16667H25V6.03333H11.2857ZM11.2857 8.3V9.43333H25V8.3H11.2857ZM1 10.5667V11.7H25V10.5667H1ZM1 12.8333V13.9667H25V12.8333H1ZM1 15.1V16.2333H25V15.1H1ZM1 17.3667V18.5H25V17.3667H1Z" fill="#F93939"/>
<path fill-rule="evenodd" clip-rule="evenodd" d="M2.14258 2.6333V3.76663H3.28544V2.6333H2.14258ZM4.42829 2.6333V3.76663H5.57115V2.6333H4.42829ZM6.71401 2.6333V3.76663H7.85686V2.6333H6.71401ZM8.99972 2.6333V3.76663H10.1426V2.6333H8.99972ZM7.85686 3.76663V4.89997H8.99972V3.76663H7.85686ZM5.57115 3.76663V4.89997H6.71401V3.76663H5.57115ZM3.28544 3.76663V4.89997H4.42829V3.76663H3.28544ZM2.14258 4.89997V6.0333H3.28544V4.89997H2.14258ZM4.42829 4.89997V6.0333H5.57115V4.89997H4.42829ZM6.71401 4.89997V6.0333H7.85686V4.89997H6.71401ZM8.99972 4.89997V6.0333H10.1426V4.89997H8.99972ZM2.14258 7.16663V8.29997H3.28544V7.16663H2.14258ZM4.42829 7.16663V8.29997H5.57115V7.16663H4.42829ZM6.71401 7.16663V8.29997H7.85686V7.16663H6.71401ZM8.99972 7.16663V8.29997H10.1426V7.16663H8.99972ZM7.85686 6.0333V7.16663H8.99972V6.0333H7.85686ZM5.57115 6.0333V7.16663H6.71401V6.0333H5.57115ZM3.28544 6.0333V7.16663H4.42829V6.0333H3.28544Z" fill="white"/>
</g>
<rect x="0.5" y="1" width="25" height="18" rx="3.5" stroke="#3C7CE6"/>
<defs>
<clipPath id="clip0_396_6106">
<rect x="1" y="1.5" width="24" height="17" rx="3" fill="white"/>
</clipPath>
</defs>
</svg>
