<svg id="icons_logo" data-name="icons/logo" xmlns="http://www.w3.org/2000/svg" width="96.277" height="33.889"><defs><style>.cls-1{fill:#1e1240}.cls-2{fill:#ff4747}</style></defs><path id="Tracé_20" data-name="Tracé 20" class="cls-1" d="M61.97 48.209a25.4 25.4 0 00-3.794 2.237c-6.689 4.7-11.089 11.283-20.935 7.207a13.154 13.154 0 01-1.651-.826l3.052 8.361a7.029 7.029 0 006.611 4.62h.434a7.029 7.029 0 006.611-4.62l.256-.716.261.716a7.029 7.029 0 006.611 4.646h.418a7.029 7.029 0 006.611-4.62l3.36-9.229 3.658-10.07c-3.11-.408-8.205.752-11.503 2.294z" transform="translate(-31.079 -35.945)"/><path id="Tracé_21" data-name="Tracé 21" class="cls-1" d="M168.688 27.871a16.864 16.864 0 00-21.912 18.484v.125a17.826 17.826 0 006.585 3.658c11.283 3.021 19.712-5.325 26.49-10.232a16.948 16.948 0 00-11.163-12.035z" transform="translate(-84.075 -26.972)"/><path id="Tracé_22" data-name="Tracé 22" class="cls-2" d="M180.045 51.67c-6.794 4.907-15.207 13.253-26.49 10.232a17.825 17.825 0 01-6.585-3.658 16.906 16.906 0 0016.681 14.329h16.88v-16.9a16.907 16.907 0 00-.486-4.003z" transform="translate(-84.253 -38.73)"/><path id="Tracé_23" data-name="Tracé 23" class="cls-2" d="M125.7 51.01c-4.7-3.919-8.712-4.7-11.272-4.662v16.635a7.034 7.034 0 0014.063 0v-9.344a32.563 32.563 0 00-2.791-2.629z" transform="translate(-68.72 -36.189)"/><path id="Tracé_24" data-name="Tracé 24" class="cls-2" d="M65.3 27.511l-.481-.172a6.951 6.951 0 00-2.4-.429 7.034 7.034 0 00-6.611 4.63l-.287.784v-.047A7.129 7.129 0 0055 30.9l-.068-.125c-.047-.089-.094-.178-.146-.267a7.024 7.024 0 00-6.125-3.585h-.381a7.024 7.024 0 00-6.14 3.585c-.052.089-.1.178-.146.272l-.063.12a6.793 6.793 0 00-.523 1.38v.047l-.314-.784a7.034 7.034 0 00-6.637-4.63 6.93 6.93 0 00-2.4.429l-.481.172a7.034 7.034 0 00-4.181 9.015l3.423 9.407.679 1.86a13.153 13.153 0 001.651.826c9.825 4.076 14.22-2.524 20.914-7.207a25.4 25.4 0 013.794-2.237c3.3-1.568 8.393-2.7 11.523-2.294l.131-.355a7.034 7.034 0 00-4.21-9.018z" transform="translate(-26.96 -26.91)"/><path id="Tracé_25" data-name="Tracé 25" class="cls-1" d="M121.454 27.05a7.05 7.05 0 00-7.034 7.029v3.057c2.561-.047 6.559.742 11.272 4.662a32.564 32.564 0 012.791 2.613V34.079a7.029 7.029 0 00-7.029-7.029z" transform="translate(-68.714 -26.978)"/></svg>