<svg xmlns="http://www.w3.org/2000/svg" width="38" height="41" viewBox="0 0 38 41"><g><g><g><path fill="#ff6161" d="M18.902 21.448a2.58 2.58 0 0 1 2.647-.392c-.023-.031-.045-.064-.07-.095a2.295 2.295 0 0 0-3.23-.301 2.3 2.3 0 0 0-.301 3.232c.026.03.053.058.08.087-.194-.91.11-1.896.874-2.53z"/></g><g><path fill="#ff6161" d="M32.567 21.448a2.581 2.581 0 0 0-2.647-.392c.024-.031.045-.064.07-.095a2.295 2.295 0 0 1 3.23-.301 2.3 2.3 0 0 1 .301 3.232c-.025.03-.053.058-.08.087a2.588 2.588 0 0 0-.874-2.53z"/></g><g><path fill="#ff6161" d="M33.253 14.3a2.583 2.583 0 0 0-2.648-.391c.024-.032.046-.064.071-.095a2.295 2.295 0 0 1 3.23-.301 2.3 2.3 0 0 1 .3 3.232c-.025.03-.052.058-.08.087a2.587 2.587 0 0 0-.873-2.531z"/></g><g><path fill="none" stroke="#1e1240" stroke-miterlimit="20" stroke-width="1.5" d="M28.637 19.798a4.187 4.187 0 0 1 7.088 3.017 4.187 4.187 0 0 1-4.185 4.189"/></g><g><path fill="none" stroke="#1e1240" stroke-miterlimit="20" stroke-width="1.5" d="M21.55 22.816a4.187 4.187 0 0 1 4.185-4.189 4.187 4.187 0 0 1 4.185 4.189 4.187 4.187 0 0 1-4.185 4.188 4.187 4.187 0 0 1-4.185-4.188z"/></g><g><path fill="none" stroke="#1e1240" stroke-miterlimit="20" stroke-width="1.5" d="M19.929 27.004a4.187 4.187 0 0 1-4.185-4.189 4.187 4.187 0 0 1 7.088-3.016"/></g><g><path fill="none" stroke="#1e1240" stroke-miterlimit="20" stroke-width="1.5" d="M21.868 34.346a4.189 4.189 0 0 1-3.482-4.13 4.187 4.187 0 0 1 4.701-4.157"/></g><g><path fill="none" stroke="#1e1240" stroke-miterlimit="20" stroke-width="1.5" d="M28.424 26.054a4.187 4.187 0 0 1 4.66 4.162 4.189 4.189 0 0 1-3.482 4.13"/></g><g><path fill="none" stroke="#1e1240" stroke-miterlimit="20" stroke-width="1.5" d="M24.768 40.024a4.186 4.186 0 0 1-3.105-5.04 4.186 4.186 0 0 1 5.039-3.11 4.186 4.186 0 0 1 3.104 5.041 4.186 4.186 0 0 1-5.038 3.109z"/></g><g><path fill="none" stroke="#1e1240" stroke-miterlimit="20" stroke-width="1.5" d="M22.776 17.398a4.185 4.185 0 1 1 5.918-5.919 4.185 4.185 0 0 1-5.918 5.919z"/></g><g><path fill="#ff6161" d="M25.735 13.167c.993 0 1.855.564 2.287 1.39.002-.04.006-.079.006-.119a2.297 2.297 0 0 0-2.293-2.295 2.297 2.297 0 0 0-2.294 2.295c0 .04.004.079.006.118a2.584 2.584 0 0 1 2.288-1.39z"/></g><g><path fill="#ff6161" d="M25.735 21.544c.993 0 1.855.565 2.287 1.39.002-.04.006-.079.006-.119a2.297 2.297 0 0 0-2.293-2.295 2.297 2.297 0 0 0-2.294 2.295c0 .04.004.079.006.118a2.584 2.584 0 0 1 2.288-1.39z"/></g><g><path fill="#ff6161" d="M25.735 34.56c.993 0 1.855.565 2.287 1.39.002-.04.006-.078.006-.118a2.297 2.297 0 0 0-2.293-2.295 2.297 2.297 0 0 0-2.294 2.295c0 .04.004.079.006.118a2.584 2.584 0 0 1 2.288-1.39z"/></g><g><path fill="#ff6161" d="M21.613 28.957a2.581 2.581 0 0 1 2.647-.392c-.024-.031-.045-.063-.07-.094a2.295 2.295 0 0 0-3.23-.302 2.3 2.3 0 0 0-.302 3.233c.026.03.053.058.08.086-.193-.91.11-1.896.875-2.53z"/></g><g><path fill="#ff6161" d="M29.856 28.957a2.58 2.58 0 0 0-2.646-.392c.023-.031.045-.063.07-.094a2.295 2.295 0 0 1 3.23-.302 2.3 2.3 0 0 1 .3 3.233c-.024.03-.052.058-.079.086a2.586 2.586 0 0 0-.875-2.53z"/></g><g><path fill="none" stroke="#1e1240" stroke-miterlimit="20" stroke-width="1.5" d="M17.234 19.613a4.189 4.189 0 0 1-2.342-3.762 4.187 4.187 0 0 1 4.185-4.189c1.088 0 2.079.416 2.823 1.097"/></g><g><path fill="none" stroke="#1e1240" stroke-miterlimit="20" stroke-width="1.5" d="M29.474 12.56a4.17 4.17 0 0 1 2.919-1.186 4.187 4.187 0 0 1 4.185 4.189 4.19 4.19 0 0 1-2.556 3.86"/></g><g><path fill="#ff6161" d="M18.217 14.411a2.582 2.582 0 0 1 2.647-.392c-.024-.031-.045-.064-.07-.094a2.295 2.295 0 0 0-3.23-.302 2.3 2.3 0 0 0-.301 3.232c.025.031.053.059.08.087-.194-.91.11-1.896.874-2.53z"/></g><g><path fill="none" stroke="#1e1240" stroke-linecap="round" stroke-miterlimit="20" stroke-width="1.5" d="M25.734 27.005v2.817"/></g><g><path fill="none" stroke="#1e1240" stroke-linecap="round" stroke-miterlimit="20" stroke-width="1.5" d="M20.069 11.501v0s-2.027-4.098-9.262-3.293l1.403 1.467v0s-2.995-.49-6.21.9l4.298 2.201a.23.23 0 0 1-.058.423c-1.423.345-5.109 1.627-7.472 5.958l2.151.647c-2.372 2.24-3.333 5.537-3.333 5.537v0s4.082.41 9.294-2.8c.042-.025.08.041.04.069-1.15.77-4.336 3.367-4.51 8.6l3.112-2.164c.021-.014.048.008.035.03-.344.608-2.248 4.19-1.256 7.34 0 0 2.954-.893 6.218-4.262.036-.038.1-.008.09.044l-.476 2.862v0s1.825-.86 2.897-1.934"/></g><g><path fill="none" stroke="#1e1240" stroke-linecap="round" stroke-miterlimit="20" stroke-width="1.5" d="M36.652 1v0s-4.228.453-8.176 1.918c-5.983 2.22-12.017.365-12.017.365v0"/></g><g><path fill="none" stroke="#1e1240" stroke-linecap="round" stroke-miterlimit="20" stroke-width="1.5" d="M25.727 8.413v0l-.044-.932c.051-3.77 2.792-4.564 2.792-4.564v0"/></g></g></g></svg>