<svg xmlns="http://www.w3.org/2000/svg" width="27.595" height="39.554" viewBox="0 0 27.595 39.554">
    <g id="prefix__picto_regions_positif" data-name="picto/regions/positif" transform="translate(.75 .75)">
        <g id="prefix__Groupe_4515" data-name="Groupe 4515">
            <path id="prefix__Tracé_20022" fill="none" stroke="#1e1240" stroke-linecap="round" stroke-miterlimit="10" stroke-width="1.5px" d="M508.034 340.507a13.053 13.053 0 0 0-13.047 13.059c0 7.212 13.047 24.5 13.047 24.5s13.048-17.288 13.048-24.5a13.053 13.053 0 0 0-13.048-13.059zm0 20.854a7.955 7.955 0 1 1 7.948-7.955 7.951 7.951 0 0 1-7.948 7.955z" data-name="Tracé 20022" transform="translate(-494.987 -340.507)"/>
        </g>
        <path id="prefix__Tracé_20023" fill="#ff6161" d="M604.567 403.514h-.144a7.058 7.058 0 0 1 0 10.121h.144a5.064 5.064 0 0 0 0-10.128z" data-name="Tracé 20023" transform="translate(-590.826 -395.68)"/>
    </g>
</svg>
