<svg xmlns="http://www.w3.org/2000/svg" width="60" height="47" viewBox="0 0 60 47"><g><g><path fill="#1e1240" d="M47.34 23.27h1.01c2.911 0 5.543 1.13 7.908 3.387 2.366 2.258 3.55 5.074 3.55 8.448 0 3.267-1.184 6.016-3.55 8.248C53.893 45.584 50.97 46.7 47.5 46.7c-3.84 0-7.017-1.567-9.502-4.675-2.5-3.108-3.735-7.438-3.735-12.99 0-3.998.651-7.757 1.94-11.29 1.303-3.533 2.977-6.6 5.024-9.218 2.047-2.63 4.253-4.701 6.619-6.23C50.21.77 52.325 0 54.199 0c1.714 0 3.017.478 3.934 1.434.903.97 1.355 2.245 1.355 3.853 0 2.337-1.01 4.024-3.03 5.06-2.858 1.607-5.01 3.387-6.473 5.34-1.448 1.939-2.339 4.475-2.644 7.583zm-33.332 0c2.964 0 5.622 1.13 7.988 3.387 2.366 2.258 3.535 5.074 3.535 8.448 0 3.32-1.17 6.056-3.535 8.208-2.366 2.152-5.29 3.228-8.759 3.228-3.8 0-6.95-1.515-9.462-4.556C1.249 38.957 0 34.627 0 29.035c0-5.14 1.103-9.948 3.31-14.438 2.206-4.49 4.904-8.049 8.093-10.665C14.593 1.315 17.437 0 19.936 0c1.661 0 2.95.492 3.894 1.475.93.996 1.396 2.257 1.396 3.812 0 2.284-1.01 3.97-3.044 5.06-2.751 1.514-4.931 3.268-6.54 5.3-1.607 2.019-2.51 4.569-2.724 7.623z"/></g></g></svg>