<svg xmlns="http://www.w3.org/2000/svg" width="30.565" height="35.251"><defs><style>.cls-1{fill:none;stroke:#1e1240;stroke-linecap:round;stroke-linejoin:round;stroke-width:1.25px}</style></defs><g id="illus_confiture" data-name="illus/confiture" transform="translate(.625 .625)"><path id="Tracé_20079" d="M316.047 1088.978s1.166 10.411-4.261 17.3a2.728 2.728 0 01-2.14 1.042h-12.769a2.728 2.728 0 01-2.14-1.042c-5.427-6.884-4.261-17.3-4.261-17.3" class="cls-1" data-name="Tracé 20079" transform="translate(-288.691 -1073.314)"/><path id="Tracé_20080" d="M296.434 1067.745a35.86 35.86 0 0021.09 0" class="cls-1" data-name="Tracé 20080" transform="translate(-292.409 -1060.297)"/><path id="Tracé_20081" d="M317.523 1055.937v-3.912a3 3 0 00-2.581-2.97 56.32 56.32 0 00-7.966-.567 56.316 56.316 0 00-7.966.567 3 3 0 00-2.581 2.97v3.912" class="cls-1" data-name="Tracé 20081" transform="translate(-292.406 -1048.488)"/><path id="Tracé_20082" d="M319.1 1062.184a34.064 34.064 0 01-15.7 0" class="cls-1" data-name="Tracé 20082" transform="translate(-296.682 -1056.887)"/><path id="Tracé_20083" fill="#ff4747" stroke="rgba(0,0,0,0)" stroke-width="1.25" d="M5.74 28.19a15.408 15.408 0 002.011 3.423.552.552 0 00.435.215h12.768a.553.553 0 00.435-.216c2.777-3.522 3.616-8.2 3.83-11.533-5.789 7.605-15.428 8.22-19.479 8.111z" data-name="Tracé 20083"/><g id="Groupe_2798" data-name="Groupe 2798" transform="translate(0 7.299)"><path id="Tracé_20084" d="M290.169 1067.357s-4.141 1.828-4.141 4.993a3.8 3.8 0 006.568 2.613 4.29 4.29 0 008.086.525" class="cls-1" data-name="Tracé 20084" transform="translate(-286.028 -1067.357)"/></g><g id="Groupe_2799" data-name="Groupe 2799" transform="translate(14.662 7.299)"><path id="Tracé_20085" d="M334.443 1067.357s4.141 1.828 4.141 4.993a3.8 3.8 0 01-6.568 2.613 4.291 4.291 0 01-8.087.525" class="cls-1" data-name="Tracé 20085" transform="translate(-323.931 -1067.357)"/></g></g></svg>