<svg xmlns="http://www.w3.org/2000/svg" width="41" height="36"><path fill="none" stroke="#1e1240" stroke-linecap="round" stroke-miterlimit="20" stroke-width="1.25" d="M32.493 20.005c2.224.85 4.321-.608 4.321-.608v0l-2.349-1.553c-.031-.017-.02-.066.016-.068 3.122-.155 5-1.529 5-1.529-1.178-1.447-3.717-2.35-4.411-2.474-.044-.008-.047-.069-.004-.082l2.413-.72c-2.53-1.72-4.025-1.675-5.655-1.622-.035 0-.052-.038-.02-.051 3.678-1.553 4.582-3.48 4.582-3.48v0s-2.202-.904-4.442-.587l.58-1.446a8.866 8.866 0 00-2.318-.106c-2.449.217-4.663 1.61-5.962 3.697a4.628 4.628 0 00-.151.259M7.988 20.005c-2.224.85-4.32-.608-4.32-.608v0l2.348-1.553c.032-.017.02-.066-.016-.068-3.122-.155-5-1.529-5-1.529 1.178-1.447 3.718-2.35 4.412-2.474.043-.008.047-.069.003-.082l-2.413-.72c2.531-1.72 4.026-1.675 5.655-1.622.035 0 .052-.038.02-.051C5 9.745 4.096 7.818 4.096 7.818v0s2.202-.904 4.443-.587l-.581-1.446a8.864 8.864 0 012.318-.106c2.449.217 4.663 1.61 5.963 3.697.054.086.104.173.15.259M31.935.973v0s-4.364.334-8.472 1.717c-6.223 2.096-12.373.003-12.373.003v0"/><path fill="none" stroke="#1e1240" stroke-linecap="round" stroke-miterlimit="20" stroke-width="1.25" d="M20.45 8.891v0-1.596c.17-3.875 3.013-4.605 3.013-4.605v0"/><path fill="none" stroke="#1e1240" stroke-linecap="round" stroke-linejoin="round" stroke-miterlimit="20" stroke-width="1.25" d="M20.212 11.187c-19.116 0-10.157 14.743-10.157 14.743 6.142 9.218 10.157 9.044 10.157 9.044v0s4.016.174 10.158-9.044c0 0 8.959-14.743-10.158-14.743z"/><path fill="none" stroke="#1e1240" stroke-linecap="round" stroke-linejoin="round" stroke-miterlimit="20" stroke-width="1.25" d="M20.212 11.187c-19.116 0-10.157 14.743-10.157 14.743 6.142 9.218 10.157 9.044 10.157 9.044v0s4.016.174 10.158-9.044c0 0 8.959-14.743-10.158-14.743z"/><path fill="none" stroke="#1e1240" stroke-linecap="round" stroke-linejoin="round" stroke-miterlimit="20" stroke-width="1.25" d="M12.193 19.1a.135.135 0 11-.27.001.135.135 0 01.27 0zm2.686 2.75a.135.135 0 11.27 0 .135.135 0 01-.27 0zm2.481-2.884a.135.135 0 11.27 0 .135.135 0 01-.27 0zm3.226 2.748a.135.135 0 11-.27 0 .135.135 0 01.27 0zm2.21-2.884a.135.135 0 11.27 0 .135.135 0 01-.27 0zm2.956 2.75a.135.135 0 11.27 0 .135.135 0 01-.27 0zm-10.873-5.963a.135.135 0 11.27 0 .135.135 0 01-.27 0zm5.707-.136a.135.135 0 11-.27 0 .135.135 0 01.27 0zm5.166-.135a.135.135 0 11.27 0 .135.135 0 01-.27 0zm2.481 3.349a.135.135 0 11.27 0 .135.135 0 01-.27 0z"/><path fill="none" stroke="#1e1240" stroke-linecap="round" stroke-linejoin="round" stroke-miterlimit="20" stroke-width="1.25" d="M12.193 19.1a.135.135 0 11-.27.001.135.135 0 01.27 0zm2.686 2.75a.135.135 0 11.27 0 .135.135 0 01-.27 0zm2.481-2.884a.135.135 0 11.27 0 .135.135 0 01-.27 0zm3.226 2.748a.135.135 0 11-.27 0 .135.135 0 01.27 0zm2.21-2.884a.135.135 0 11.27 0 .135.135 0 01-.27 0zm2.956 2.75a.135.135 0 11.27 0 .135.135 0 01-.27 0zm-10.873-5.963a.135.135 0 11.27 0 .135.135 0 01-.27 0zm5.707-.136a.135.135 0 11-.27 0 .135.135 0 01.27 0zm5.166-.135a.135.135 0 11.27 0 .135.135 0 01-.27 0zm2.481 3.349a.135.135 0 11.27 0 .135.135 0 01-.27 0z"/><path fill="#ff4747" d="M20.212 32.624c.467-.1 3.296-.944 7.598-7.096-3.097 1.85-7.723 3.705-13.013 2.843 3.064 3.59 5.032 4.171 5.415 4.253z"/><path fill="none" stroke="#000" stroke-miterlimit="20" stroke-width="1.25" d="M20.212 32.624c.467-.1 3.296-.944 7.598-7.096-3.097 1.85-7.723 3.705-13.013 2.843 3.064 3.59 5.032 4.171 5.415 4.253z"/></svg>