<svg width="66" height="72" viewBox="0 0 66 72" fill="none" xmlns="http://www.w3.org/2000/svg">
<path d="M2.22355 68.4407C2.39665 66.2049 2.56974 63.969 2.78357 61.3161C3.55561 61.8796 4.09832 62.2389 4.60538 62.7314C15.5108 72.6429 29.5776 74.2012 42.5201 66.971C50.8079 62.2737 56.326 55.1938 60.5701 46.774C65.2982 37.3428 66.1256 27.3657 64.6114 17.1177C63.8238 11.8429 61.4259 7.2778 58.2892 3.08527C57.4433 2.00274 56.5795 0.986761 55.2647 0.0639156C55.4839 0.835848 55.6012 1.72311 56.0904 2.28211C67.5694 16.4126 64.4043 41.7391 50.3387 56.8702C44.8409 62.8144 38.0843 66.567 30.0918 67.7775C20.698 69.183 10.0452 64.6882 4.72471 56.9864C8.02669 56.5874 11.5836 58.6816 14.8778 55.927C10.6024 54.924 6.74239 53.961 2.93075 53.0824C1.65427 52.8116 0.48229 53.2108 0.492573 54.4973C0.447028 58.907 0.551804 63.2856 0.740654 67.6155C0.735581 67.8994 1.29612 68.1922 1.57386 68.4806C1.68852 68.5827 1.98916 68.5206 2.22355 68.4407Z" fill="white"/>
</svg>
