<svg width="143" height="103" viewBox="0 0 143 103" fill="none" xmlns="http://www.w3.org/2000/svg">
<path d="M141.883 9.58889C137.962 8.85101 134.041 8.11313 129.385 7.25227C129.998 8.85102 130.366 9.95782 130.978 11.0646C142.986 34.5539 139.187 59.6418 120.809 78.7038C108.924 90.8788 94.2209 97.1508 77.8027 100.594C59.4241 104.407 41.9032 101.209 24.9949 93.8303C16.2957 90.0179 9.55685 83.7459 3.79823 76.3671C2.32794 74.3994 0.980159 72.4318 -3.44557e-05 69.7262C1.22522 70.4641 2.69549 71.079 3.43063 72.1858C22.4219 98.6265 67.3882 104.899 99.857 87.5583C112.6 80.7944 122.156 70.833 127.915 57.5512C134.654 41.9327 131.836 21.395 121.054 8.60505C118.848 14.1391 120.809 21.272 114.56 25.6993C114.805 17.8286 114.928 10.6957 115.173 3.68583C115.295 1.34921 116.52 -0.495487 118.726 0.119419C126.322 2.0871 133.796 4.30075 141.148 6.63737C141.638 6.76035 141.883 7.86718 142.25 8.48208C142.373 8.72803 142.128 9.21995 141.883 9.58889Z" fill="white"/>
</svg>
