<svg width="775" height="328" viewBox="0 0 775 328" fill="none" xmlns="http://www.w3.org/2000/svg">
<path d="M776.021 228.939C775.537 228.65 774.708 228.534 774.182 228.675C773.655 228.816 773.168 228.719 773.099 228.46C773.029 228.201 772.455 228.128 771.817 228.299C771.096 228.492 770.589 228.34 770.472 227.903C770.355 227.465 769.848 227.313 769.127 227.506C768.489 227.677 767.915 227.604 767.846 227.345C767.776 227.086 767.313 226.983 766.809 227.118C765.797 227.389 762.103 226.824 761.715 226.338C761.576 226.168 760.964 226.161 760.349 226.325C759.735 226.49 759.174 226.413 759.105 226.154C759.035 225.895 758.549 225.799 758.022 225.94C757.495 226.081 756.666 225.965 756.182 225.676C755.694 225.388 754.791 225.291 754.177 225.456C753.557 225.622 752.997 225.545 752.927 225.286C752.858 225.027 752.38 224.928 751.863 225.067C751.345 225.205 750.72 225.035 750.467 224.684C750.219 224.331 749.515 224.182 748.905 224.345C748.3 224.508 747.744 224.429 747.674 224.17C747.605 223.912 747.03 223.838 746.392 224.009C745.755 224.18 745.18 224.107 745.111 223.848C745.041 223.589 744.61 223.478 744.148 223.601C743.69 223.724 742.826 223.623 742.229 223.374C741.632 223.125 740.665 223.046 740.075 223.194C739.481 223.343 739.077 223.219 739.164 222.918C739.252 222.617 738.847 222.493 738.253 222.642C737.664 222.79 736.696 222.711 736.1 222.463C735.503 222.214 734.638 222.112 734.181 222.235C733.719 222.359 733.287 222.247 733.218 221.988C733.149 221.729 732.593 221.651 731.987 221.813C731.377 221.977 730.673 221.827 730.425 221.475C730.172 221.124 729.547 220.953 729.029 221.092C728.512 221.231 728.034 221.131 727.965 220.872C727.896 220.613 727.215 220.569 726.452 220.773C725.689 220.978 725.009 220.933 724.939 220.674C724.87 220.415 724.411 220.311 723.921 220.442C723.431 220.573 722.635 220.449 722.146 220.161C721.663 219.871 720.834 219.755 720.307 219.896C719.78 220.038 719.293 219.941 719.224 219.682C719.155 219.423 718.668 219.326 718.141 219.468C717.614 219.609 716.785 219.493 716.302 219.203C715.813 218.915 714.901 218.822 714.268 218.991C713.621 219.165 713.187 219.059 713.278 218.752C713.412 218.292 712.433 218.337 711.24 218.839C711.08 218.907 710.671 218.673 710.334 218.325C709.998 217.976 709.316 217.795 708.821 217.928C708.326 218.06 707.863 217.957 707.794 217.698C707.724 217.439 707.15 217.366 706.512 217.537C705.874 217.708 705.3 217.635 705.23 217.376C705.161 217.117 704.6 217.04 703.981 217.206C703.366 217.371 702.463 217.274 701.975 216.986C701.491 216.697 700.663 216.581 700.136 216.722C699.609 216.864 699.122 216.767 699.053 216.508C698.983 216.249 698.409 216.176 697.771 216.347C697.05 216.54 696.544 216.388 696.426 215.95C696.309 215.512 695.802 215.36 695.081 215.553C694.444 215.724 693.869 215.651 693.8 215.392C693.73 215.133 693.156 215.06 692.518 215.231C691.88 215.402 691.302 215.315 691.229 215.041C691.155 214.768 690.934 214.717 690.738 214.931C690.542 215.14 690.194 215.137 689.962 214.917C689.729 214.696 689.14 214.622 688.645 214.755C688.151 214.887 687.692 214.783 687.622 214.524C687.553 214.265 686.978 214.192 686.341 214.363C685.703 214.534 685.128 214.461 685.059 214.202C684.989 213.943 684.503 213.846 683.976 213.987C683.449 214.128 682.62 214.012 682.136 213.723C681.648 213.435 680.745 213.339 680.131 213.504C679.511 213.67 678.951 213.593 678.881 213.334C678.812 213.075 678.335 212.976 677.817 213.114C677.299 213.253 676.674 213.082 676.421 212.731C676.173 212.379 675.469 212.229 674.859 212.393C674.254 212.555 673.698 212.477 673.628 212.218C673.559 211.959 672.984 211.886 672.347 212.057C671.709 212.228 671.141 212.178 671.079 211.947C671.017 211.717 670.2 211.587 669.267 211.656C668.333 211.719 667.511 211.576 667.445 211.326C667.379 211.082 666.807 211.018 666.169 211.189C665.531 211.36 664.957 211.286 664.887 211.027C664.818 210.769 664.341 210.669 663.823 210.808C663.305 210.947 662.68 210.776 662.427 210.425C662.166 210.061 661.397 209.944 660.634 210.149C659.899 210.345 659.242 210.295 659.172 210.036C659.103 209.777 658.547 209.699 657.941 209.861C657.331 210.024 656.627 209.875 656.379 209.522C656.128 209.176 655.395 209.029 654.753 209.201C654.11 209.373 653.526 209.303 653.457 209.044C653.388 208.785 652.707 208.74 651.944 208.944C651.181 209.149 650.501 209.104 650.431 208.845C650.362 208.586 649.811 208.507 649.205 208.669C648.599 208.831 647.76 208.713 647.343 208.411C646.925 208.109 645.979 208.02 645.249 208.215C644.514 208.412 643.861 208.36 643.792 208.101C643.722 207.842 642.977 207.815 642.135 208.04C641.294 208.266 640.12 208.247 639.523 207.998C638.927 207.749 637.557 207.778 636.473 208.059C635.389 208.339 634.448 208.359 634.379 208.1C634.309 207.841 633.231 207.903 631.978 208.238C630.615 208.604 629.574 208.64 629.367 208.328C629.162 208.009 627.725 208.081 625.66 208.508C623.806 208.894 622.243 209.03 622.185 208.814C622.08 208.423 616.748 209.509 602.572 212.807C597.446 213.999 595.037 214.731 595.125 215.06C595.211 215.38 593.126 216.126 589.248 217.165C585.944 218.05 583.289 218.958 583.349 219.184C583.41 219.41 581.781 220.155 579.729 220.836C577.495 221.576 575.987 222.308 575.969 222.666C575.95 223.019 574.857 223.544 573.202 223.987C571.686 224.394 570.523 224.933 570.592 225.192C570.661 225.451 569.928 225.874 568.957 226.134C567.991 226.393 566.877 227.025 566.485 227.539C566.093 228.052 564.994 228.685 564.044 228.95C563.094 229.214 562.371 229.64 562.441 229.899C562.51 230.158 561.753 230.588 560.755 230.855C559.761 231.122 558.934 231.585 558.915 231.883C558.902 232.185 558.037 232.785 557.005 233.223C555.967 233.657 555.17 234.194 555.23 234.42C555.291 234.646 554.508 235.052 553.491 235.325C552.474 235.597 551.699 236.032 551.768 236.291C551.838 236.55 551.206 236.947 550.365 237.172C549.523 237.397 548.516 238 548.123 238.514C547.731 239.028 546.739 239.632 545.914 239.863C545.089 240.094 544.472 240.492 544.541 240.751C544.611 241.01 543.863 241.437 542.874 241.702C541.848 241.977 540.916 242.55 540.697 243.043C540.487 243.518 539.61 244.091 538.751 244.321C537.891 244.551 537.245 244.952 537.314 245.211C537.384 245.47 536.738 245.87 535.874 246.101C535.014 246.332 533.8 246.995 533.173 247.577C532.552 248.162 531.573 248.762 531 248.916C530.428 249.074 530.018 249.411 530.088 249.67C530.157 249.929 529.28 250.391 528.134 250.698C526.987 251.006 526.11 251.468 526.18 251.727C526.249 251.986 525.562 252.397 524.656 252.64C523.745 252.884 522.776 253.481 522.502 253.974C522.223 254.467 521.281 255.058 520.412 255.291C519.539 255.525 518.884 255.927 518.953 256.186C519.022 256.445 518.335 256.857 517.429 257.099C516.518 257.343 515.55 257.946 515.275 258.434C514.996 258.927 514.054 259.518 513.185 259.75C512.312 259.984 511.657 260.387 511.726 260.646C511.795 260.905 511.02 261.34 510.003 261.612C508.986 261.885 508.205 262.296 508.267 262.527C508.327 262.753 507.478 263.339 506.383 263.819C505.284 264.3 504.441 264.889 504.507 265.134C504.572 265.379 503.793 265.8 502.776 266.072C501.759 266.344 500.984 266.779 501.054 267.038C501.123 267.297 500.491 267.694 499.65 267.919C498.809 268.144 497.801 268.748 497.409 269.261C497.016 269.775 496.024 270.379 495.199 270.61C494.374 270.842 493.757 271.239 493.827 271.498C493.896 271.757 493.25 272.157 492.386 272.389C491.526 272.619 490.312 273.283 489.685 273.864C489.064 274.45 488.085 275.05 487.512 275.203C486.94 275.362 486.53 275.699 486.6 275.958C486.669 276.217 485.792 276.679 484.646 276.986C483.5 277.293 482.615 277.727 482.676 277.953C482.736 278.179 481.836 278.738 480.671 279.197C479.51 279.654 478.545 280.286 478.528 280.593C478.513 280.905 477.682 281.375 476.689 281.641C475.69 281.909 474.933 282.339 475.003 282.598C475.072 282.857 474.491 283.239 473.71 283.449C472.929 283.658 472.061 284.229 471.787 284.721C471.508 285.215 470.566 285.805 469.697 286.038C468.824 286.272 468.169 286.675 468.238 286.933C468.308 287.192 467.62 287.604 466.714 287.846C465.804 288.09 464.834 288.688 464.56 289.181C464.281 289.674 463.339 290.265 462.47 290.498C461.597 290.732 460.942 291.134 461.011 291.393C461.081 291.652 460.305 292.087 459.288 292.359C458.272 292.632 457.496 293.067 457.566 293.326C457.635 293.585 457.003 293.981 456.162 294.207C455.321 294.432 454.313 295.035 453.921 295.549C453.528 296.063 452.328 296.723 451.249 297.022C450.17 297.321 449.345 297.774 449.414 298.033C449.484 298.292 448.867 298.69 448.042 298.921C447.217 299.152 446.225 299.756 445.832 300.27C445.44 300.784 444.317 301.418 443.332 301.681C442.26 301.969 441.71 302.318 441.956 302.555C442.21 302.8 441.472 303.189 440.03 303.575C438.745 303.92 437.746 304.405 437.811 304.649C437.877 304.894 436.722 305.577 435.244 306.16C433.765 306.743 432.605 307.407 432.666 307.633C432.726 307.859 431.528 308.377 430.002 308.786C428.463 309.198 427.284 309.736 427.355 310C427.424 310.259 426.279 310.793 424.796 311.19C423.15 311.631 421.835 312.271 421.399 312.842C420.912 313.482 419.492 314.1 416.878 314.81C414.657 315.416 413.122 316.044 413.195 316.317C413.277 316.623 407.081 318.46 395.526 321.556C383.97 324.653 377.686 326.16 377.604 325.854C377.533 325.59 376.117 325.742 374.354 326.205C372.345 326.733 370.844 326.863 370.148 326.575C369.545 326.322 368.081 326.387 366.842 326.719C365.618 327.047 364.569 327.126 364.507 326.895C364.444 326.66 363.583 326.573 362.596 326.696C359.503 327.08 356.116 327.009 355.994 326.557C355.93 326.317 355.148 326.32 354.261 326.557C353.373 326.795 352.586 326.779 352.517 326.52C352.447 326.261 351.961 326.164 351.434 326.306C350.907 326.447 350.077 326.326 349.594 326.041C349.106 325.753 348.203 325.657 347.588 325.822C346.969 325.988 346.409 325.911 346.339 325.652C346.27 325.393 345.695 325.32 345.057 325.491C344.336 325.684 343.83 325.532 343.713 325.094C343.595 324.656 343.089 324.504 342.368 324.698C341.73 324.868 341.156 324.795 341.086 324.536C341.017 324.277 340.535 324.179 340.017 324.318C339.134 324.555 338.624 324.409 336.576 323.348C336.133 323.118 335.342 323.048 334.815 323.189C334.288 323.33 333.808 323.257 333.746 323.026C333.684 322.795 333.075 322.61 332.398 322.62C331.716 322.626 331.108 322.426 331.04 322.172C330.972 321.917 330.486 321.825 329.964 321.965C329.442 322.105 329.084 321.974 329.172 321.673C329.262 321.361 328.82 321.263 328.149 321.442C327.498 321.617 326.911 321.552 326.842 321.298C326.774 321.044 326.166 320.843 325.484 320.849C324.803 320.86 324.198 320.674 324.136 320.443C324.075 320.213 323.608 320.136 323.1 320.272C322.591 320.408 322.125 320.331 322.063 320.101C322.001 319.87 321.396 319.684 320.716 319.695C320.034 319.701 319.425 319.5 319.357 319.246C319.289 318.992 318.716 318.924 318.078 319.094C317.44 319.265 316.865 319.192 316.796 318.933C316.727 318.674 316.277 318.568 315.796 318.696C315.316 318.825 314.713 318.648 314.465 318.296C314.213 317.945 313.587 317.774 313.07 317.913C312.552 318.052 312.081 317.976 312.019 317.745C311.957 317.515 311.403 317.33 310.786 317.339C310.168 317.343 309.095 317.04 308.395 316.663C307.699 316.284 306.7 316.087 306.182 316.226C305.665 316.365 305.183 316.267 305.113 316.008C305.044 315.749 304.566 315.65 304.049 315.788C303.531 315.927 302.904 315.752 302.653 315.405C302.405 315.053 301.803 314.876 301.322 315.005C300.841 315.134 300.392 315.027 300.322 314.768C300.253 314.509 299.679 314.436 299.041 314.607C298.32 314.8 297.813 314.648 297.696 314.21C297.579 313.772 297.072 313.621 296.351 313.814C295.713 313.985 295.139 313.911 295.069 313.653C295 313.394 294.647 313.261 294.287 313.358C293.464 313.578 290.379 312.77 290.252 312.294C290.195 312.102 289.736 312.054 289.228 312.19C288.72 312.326 288.247 312.226 288.177 311.967C288.108 311.708 287.635 311.607 287.127 311.744C286.618 311.88 286.147 311.784 286.079 311.53C286.011 311.276 285.402 311.075 284.72 311.081C284.039 311.092 283.435 310.906 283.373 310.675C283.311 310.445 282.743 310.395 282.105 310.566C281.384 310.759 280.877 310.607 280.76 310.169C280.655 309.778 280.159 309.573 279.646 309.711C279.138 309.847 278.665 309.746 278.596 309.488C278.526 309.229 277.952 309.155 277.314 309.326C276.676 309.497 276.108 309.448 276.046 309.217C275.984 308.986 275.38 308.8 274.699 308.811C274.017 308.817 273.408 308.617 273.34 308.362C273.272 308.108 272.902 307.985 272.523 308.087C272.144 308.188 271.773 308.061 271.704 307.802C271.634 307.543 271.06 307.47 270.422 307.64C269.784 307.811 269.211 307.743 269.143 307.489C269.075 307.234 268.466 307.034 267.784 307.04C267.108 307.05 266.499 306.865 266.437 306.634C266.375 306.403 265.932 306.32 265.451 306.449C264.97 306.578 264.367 306.397 264.12 306.049C263.869 305.702 263.242 305.527 262.724 305.666C262.207 305.805 261.729 305.705 261.66 305.446C261.591 305.187 261.016 305.114 260.378 305.285C259.74 305.456 259.167 305.388 259.099 305.133C259.031 304.879 258.418 304.68 257.74 304.685C257.06 304.696 256.455 304.51 256.393 304.279C256.331 304.048 255.865 303.971 255.356 304.108C254.848 304.244 254.381 304.167 254.32 303.936C254.258 303.705 253.653 303.519 252.972 303.53C252.29 303.536 251.682 303.336 251.614 303.082C251.545 302.827 251.176 302.704 250.797 302.806C250.418 302.908 250.047 302.78 249.977 302.521C249.908 302.262 249.333 302.189 248.695 302.36C248.058 302.531 247.484 302.462 247.416 302.208C247.348 301.954 246.74 301.753 246.058 301.76C245.377 301.77 244.772 301.584 244.71 301.353C244.648 301.123 244.182 301.046 243.674 301.182C243.165 301.318 242.699 301.241 242.637 301.011C242.575 300.78 241.966 300.595 241.289 300.605C240.607 300.611 239.999 300.411 239.931 300.156C239.863 299.902 239.289 299.834 238.652 300.004C238.014 300.175 237.446 300.126 237.384 299.895C237.322 299.664 236.717 299.478 236.036 299.489C235.354 299.495 234.746 299.295 234.678 299.041C234.61 298.786 234.124 298.694 233.602 298.834C233.08 298.974 232.722 298.843 232.81 298.542C232.9 298.23 232.458 298.132 231.787 298.311C231.136 298.486 230.561 298.468 230.505 298.276C230.377 297.801 227.292 296.992 226.47 297.213C226.109 297.309 225.756 297.177 225.687 296.918C225.618 296.659 225.14 296.56 224.623 296.698C224.105 296.837 223.478 296.662 223.227 296.315C222.98 295.968 222.275 295.813 221.665 295.977C221.059 296.139 220.503 296.061 220.434 295.802C220.365 295.543 220.021 295.408 219.67 295.502C219.319 295.596 218.688 295.422 218.27 295.12C217.852 294.819 217.114 294.673 216.638 294.801C216.158 294.929 215.713 294.822 215.643 294.563C215.574 294.304 215.203 294.176 214.824 294.277C214.445 294.379 214.074 294.251 214.004 293.992C213.935 293.733 213.457 293.634 212.94 293.773C212.422 293.912 211.796 293.736 211.544 293.39C211.297 293.042 210.592 292.888 209.982 293.052C209.377 293.214 208.821 293.136 208.751 292.877C208.682 292.618 208.232 292.511 207.751 292.64C207.271 292.769 206.667 292.587 206.421 292.24C206.169 291.893 205.543 291.718 205.025 291.857C204.507 291.995 204.03 291.896 203.96 291.637C203.891 291.378 203.317 291.305 202.679 291.476C201.958 291.669 201.451 291.517 201.334 291.079C201.217 290.641 200.71 290.489 199.989 290.683C199.351 290.854 198.791 290.832 198.738 290.634C198.685 290.437 197.664 290.084 196.473 289.854C193.017 289.18 192.35 288.98 192.247 288.599C192.194 288.401 191.634 288.38 190.996 288.551C190.358 288.721 189.785 288.653 189.717 288.399C189.649 288.144 189.04 287.944 188.358 287.95C187.677 287.961 187.073 287.775 187.011 287.544C186.949 287.314 186.381 287.264 185.743 287.435C185.105 287.606 184.532 287.537 184.464 287.283C184.396 287.029 183.782 286.83 183.105 286.835C182.424 286.845 181.82 286.659 181.758 286.429C181.696 286.198 181.229 286.121 180.721 286.257C180.213 286.393 179.746 286.317 179.684 286.086C179.622 285.855 179.018 285.669 178.337 285.68C177.655 285.686 177.046 285.486 176.978 285.231C176.91 284.977 176.337 284.909 175.699 285.08C175.061 285.25 174.487 285.177 174.417 284.918C174.348 284.659 173.871 284.56 173.353 284.699C172.835 284.838 172.209 284.662 171.957 284.316C171.709 283.963 170.991 283.818 170.367 283.985C169.73 284.156 169.304 284.048 169.395 283.741C169.487 283.434 169.061 283.326 168.423 283.496C167.799 283.664 167.08 283.513 166.834 283.165C166.581 282.814 165.956 282.644 165.438 282.782C164.92 282.921 164.443 282.822 164.374 282.563C164.304 282.304 163.73 282.231 163.092 282.402C162.454 282.573 161.879 282.5 161.81 282.241C161.741 281.982 161.37 281.854 160.991 281.956C160.612 282.057 160.242 281.934 160.174 281.68C160.105 281.426 159.492 281.227 158.815 281.231C158.134 281.242 157.529 281.056 157.468 280.825C157.406 280.595 156.962 280.512 156.482 280.64C156.001 280.769 155.398 280.588 155.151 280.24C154.898 279.889 154.273 279.718 153.755 279.857C153.237 279.996 152.774 279.948 152.721 279.751C152.668 279.553 151.693 279.244 150.557 279.069C149.42 278.894 148.432 278.533 148.362 278.274C148.293 278.015 147.82 277.915 147.312 278.051C146.803 278.187 146.33 278.087 146.261 277.828C146.192 277.569 145.82 277.441 145.441 277.543C145.062 277.644 144.66 277.399 144.551 276.994C144.443 276.589 144.198 276.433 144.001 276.642C143.805 276.851 143.248 276.788 142.759 276.5C142.271 276.212 141.672 276.03 141.427 276.095C141.182 276.161 140.773 275.927 140.526 275.58C140.275 275.233 139.75 275.031 139.362 275.135C138.973 275.239 138.598 275.112 138.528 274.853C138.459 274.594 138.166 274.446 137.88 274.522C137.593 274.599 136.469 274.103 135.391 273.423C134.306 272.74 133.206 272.242 132.948 272.311C132.689 272.381 131.817 272.049 131.005 271.57C130.199 271.095 129.317 270.761 129.053 270.832C128.785 270.903 128.508 270.736 128.433 270.458C128.285 269.907 126.8 268.912 126.32 269.041C125.839 269.17 124.354 268.175 124.206 267.624C124.131 267.346 123.747 267.207 123.35 267.313C122.952 267.42 122.701 267.26 122.789 266.959C122.877 266.658 122.626 266.498 122.229 266.605C121.831 266.711 121.448 266.576 121.375 266.303C121.303 266.035 120.579 265.422 119.773 264.946C118.961 264.467 118.248 263.876 118.181 263.627C118.115 263.382 116.472 262.243 114.531 261.097C112.589 259.952 110.915 258.695 110.811 258.309C110.708 257.923 110.414 257.659 110.16 257.727C109.905 257.795 109.612 257.53 109.508 257.144C109.405 256.758 109.005 256.522 108.626 256.624C108.247 256.725 107.846 256.489 107.743 256.103C107.64 255.717 107.346 255.453 107.092 255.521C106.837 255.589 106.516 255.221 106.377 254.703C106.237 254.18 105.815 253.844 105.431 253.947C105.052 254.049 104.665 253.86 104.577 253.53C104.488 253.201 103.917 252.733 103.309 252.497C102.701 252.262 102.132 251.803 102.046 251.483C101.962 251.168 101.262 250.533 100.491 250.078C99.72 249.624 98.8248 248.834 98.499 248.321C98.172 247.803 97.7168 247.435 97.4764 247.5C97.2407 247.563 96.9873 247.394 96.9141 247.12C96.8422 246.852 96.1226 246.237 95.3119 245.763C94.5 245.284 93.7792 244.665 93.7035 244.383C93.6278 244.1 93.0868 243.634 92.5031 243.342C91.9193 243.049 91.1683 242.372 90.8316 241.837C90.4902 241.302 90.0254 240.917 89.785 240.981C89.5493 241.045 89.2668 240.767 89.1583 240.362C89.0498 239.957 88.7889 239.815 88.5775 240.043C88.3662 240.272 88.1052 240.13 87.9967 239.725C87.8882 239.32 87.6058 239.042 87.37 239.105C87.1297 239.17 86.6745 238.802 86.3475 238.284C86.0217 237.771 85.1265 236.981 84.3557 236.527C83.5849 236.072 82.8847 235.437 82.8001 235.122C82.7143 234.802 82.1457 234.343 81.5376 234.108C80.9295 233.872 80.3583 233.404 80.27 233.075C80.1817 232.745 79.7988 232.555 79.4152 232.658C78.9807 232.774 78.602 232.396 78.3988 231.638C78.2159 230.955 77.9112 230.613 77.6919 230.849C77.4805 231.077 77.2246 230.954 77.1249 230.582C77.024 230.205 76.5936 229.856 76.1755 229.812C75.7515 229.764 75.3181 229.385 75.2071 228.971C75.0974 228.561 74.0929 227.715 72.9712 227.097C71.8553 226.483 70.8449 225.633 70.7314 225.209C70.6178 224.786 70.3178 224.498 70.0635 224.566C69.8093 224.634 69.5155 224.369 69.4121 223.983C69.3086 223.597 68.9131 223.36 68.5295 223.463C68.1458 223.566 67.7504 223.329 67.6469 222.942C67.5435 222.556 67.2497 222.292 66.9954 222.36C66.7412 222.428 66.4449 222.154 66.3377 221.754C66.2304 221.354 65.4886 220.674 64.6951 220.246C63.8958 219.814 63.18 219.214 63.098 218.908C63.016 218.602 62.2944 217.998 61.5009 217.57C60.7015 217.138 59.9883 216.547 59.9101 216.255C59.8306 215.958 59.5582 215.774 59.304 215.842C59.0498 215.91 58.7535 215.636 58.6463 215.236C58.539 214.836 57.7972 214.156 57.0037 213.728C56.2044 213.296 55.505 212.757 55.4432 212.526C55.3801 212.291 54.6547 211.673 53.8334 211.141C53.0089 210.615 52.3032 210.052 52.2603 209.892C52.2174 209.732 51.7832 209.369 51.2949 209.081C50.8065 208.793 50.4749 208.332 50.5538 208.053C50.6328 207.775 50.3776 207.636 49.9801 207.742C49.5826 207.849 49.1733 207.616 49.0698 207.229C48.9664 206.843 48.7188 206.566 48.5247 206.619C48.3259 206.672 47.5778 206.08 46.8536 205.3C46.1307 204.525 45.3674 203.932 45.1502 203.99C44.9375 204.047 44.7013 203.868 44.6269 203.59C44.5525 203.313 44.1536 202.859 43.7375 202.582C42.098 201.492 41.4491 200.975 41.3746 200.697C41.3317 200.537 40.9593 200.183 40.5433 199.906C38.8743 198.798 38.2536 198.294 38.1728 197.992C38.1249 197.813 37.4381 197.321 36.6388 196.889C35.8453 196.461 35.1035 195.782 34.9962 195.381C34.889 194.981 34.5927 194.707 34.3385 194.776C34.0842 194.844 33.7904 194.579 33.687 194.193C33.5835 193.807 33.1881 193.57 32.8044 193.673C32.4208 193.775 31.9988 193.439 31.8588 192.917C31.72 192.399 31.3984 192.031 31.1442 192.099C30.89 192.167 30.6176 191.983 30.5382 191.686C30.4599 191.394 29.7467 190.803 28.9474 190.371C28.1493 189.944 27.4121 189.264 27.3048 188.863C27.1976 188.463 26.9013 188.189 26.647 188.257C26.3928 188.325 26.099 188.061 25.9956 187.675C25.8921 187.289 25.4966 187.052 25.113 187.154C24.7294 187.257 24.3339 187.02 24.2304 186.634C24.127 186.248 23.8332 185.983 23.579 186.052C23.3247 186.12 23.0234 185.827 22.9098 185.403C22.7975 184.984 22.0553 184.285 21.2559 183.853C20.4578 183.426 19.7408 182.821 19.6588 182.515C19.5768 182.209 18.8564 181.609 18.0617 181.176C17.2636 180.749 16.5541 180.172 16.4822 179.904C16.4091 179.631 16.1418 179.465 15.8875 179.533C15.6333 179.601 15.3118 179.233 15.173 178.716C15.0329 178.193 14.611 177.857 14.2273 177.96C13.8483 178.061 13.4495 177.83 13.3448 177.439C13.24 177.048 12.9475 176.789 12.6933 176.857C12.4391 176.925 12.1175 176.557 11.9787 176.039C11.84 175.521 11.523 175.152 11.2734 175.219C11.0238 175.285 10.5485 174.843 10.2139 174.241C9.8826 173.633 9.42237 173.191 9.19588 173.252C8.96939 173.313 8.63941 172.821 8.46152 172.157C8.27859 171.474 7.97386 171.132 7.75455 171.367C7.53524 171.603 7.22798 171.251 7.03874 170.545C6.8558 169.862 6.31145 169.069 5.82436 168.786C5.34062 168.497 4.74623 167.536 4.50904 166.65C4.27059 165.76 3.8683 165.091 3.61408 165.159C3.33213 165.235 2.54249 163.009 1.57482 159.397C0.607156 155.786 0.178055 153.464 0.46001 153.388C0.714231 153.32 0.722893 152.52 0.480661 151.616C0.238428 150.712 0.242468 149.914 0.492067 149.847C0.741666 149.78 0.931901 149.159 0.920836 148.47C0.903886 147.779 1.08152 147.166 1.308 147.105C1.53449 147.044 1.57808 146.467 1.40397 145.818C1.22735 145.159 1.35665 144.569 1.69408 144.478C2.0315 144.388 2.38682 143.495 2.49588 142.497C2.60367 141.494 2.87244 140.63 3.09893 140.569C3.3208 140.51 3.72623 140.119 3.99509 139.698C5.15034 137.89 5.57424 137.383 6.02722 137.261C6.29068 137.191 6.45115 136.921 6.38176 136.662C6.31237 136.403 6.64849 136.086 7.1292 135.957C7.60991 135.828 8.0418 135.369 8.08164 134.945C8.12483 134.514 8.68741 134.025 9.3299 133.853C9.97239 133.681 10.4425 133.328 10.3732 133.069C10.3038 132.81 11.1807 132.348 12.327 132.041C13.4733 131.734 14.3502 131.272 14.2808 131.013C14.2076 130.74 15.6199 130.149 17.6213 129.613C19.6227 129.077 21.141 128.882 21.2141 129.155C21.2835 129.414 22.4866 129.319 23.8825 128.945C25.283 128.569 26.4815 128.475 26.5509 128.734C26.6203 128.993 26.9867 129.122 27.3704 129.019C27.754 128.917 28.0069 128.622 27.9375 128.363C27.8682 128.104 28.0887 127.818 28.4261 127.727C28.7636 127.637 29.1757 126.956 29.3449 126.219C29.5128 125.478 30.0556 124.767 30.5548 124.633C31.0586 124.498 31.8048 123.733 32.2223 122.925C32.6352 122.118 33.2982 121.375 33.6911 121.27C34.084 121.165 34.3507 120.866 34.2814 120.607C34.212 120.348 34.867 119.945 35.736 119.713C36.605 119.48 37.3285 119.018 37.3448 118.691C37.3632 118.353 38.6095 117.661 40.1865 117.112C41.7265 116.573 42.9404 115.945 42.8798 115.719C42.8193 115.493 43.5083 115.107 44.4143 114.864C45.3942 114.601 45.9947 114.642 45.8994 114.971C45.7986 115.316 46.8021 115.234 48.5724 114.759C50.4767 114.249 51.6987 114.169 52.2884 114.52C52.7767 114.808 53.8874 114.849 54.7564 114.616C55.63 114.382 56.3986 114.403 56.468 114.662C56.5373 114.921 56.9916 115.026 57.4816 114.895C58.4291 114.641 61.7255 115.277 62.1362 115.793C62.2757 115.962 62.7854 115.997 63.2708 115.867C63.7607 115.736 64.2087 115.818 64.2705 116.049C64.3323 116.279 64.9417 116.464 65.6178 116.455C66.2999 116.448 66.9084 116.649 66.9765 116.903C67.0446 117.157 67.5716 117.238 68.1448 117.085C68.7226 116.93 69.7236 117.227 70.3738 117.749C71.0286 118.27 71.9464 118.589 72.4179 118.463C72.8894 118.336 73.3344 118.444 73.4038 118.703C73.4732 118.962 73.7518 119.115 74.0245 119.042C74.2972 118.969 74.881 119.095 75.3239 119.324C77.0676 120.23 77.8308 120.545 78.1035 120.472C78.2607 120.43 78.7473 120.582 79.1903 120.812C81.0949 121.8 81.7157 122.027 82.1686 121.906C82.4321 121.835 82.6973 121.956 82.7553 122.173C82.8146 122.394 83.6942 122.774 84.7175 123.025C85.7362 123.276 86.6166 123.641 86.6709 123.844C86.7239 124.041 87.0823 124.122 87.4613 124.02C87.8404 123.919 88.2392 124.15 88.3439 124.541C88.4486 124.932 88.8475 125.163 89.2265 125.061C89.6055 124.96 89.9766 125.087 90.046 125.346C90.1154 125.605 90.5096 125.727 90.9256 125.615C91.3416 125.504 92.567 125.973 93.6459 126.653C94.7294 127.331 95.9132 127.811 96.2738 127.715C96.6389 127.617 97.4656 127.966 98.1191 128.482C98.7693 129.004 99.5624 129.357 99.8859 129.27C100.205 129.185 100.533 129.354 100.612 129.651C100.788 130.305 102.48 131.058 103.323 130.857C104.068 130.678 105.568 131.507 105.755 132.204C105.829 132.482 106.107 132.65 106.375 132.578C106.639 132.507 107.52 132.837 108.327 133.317C109.138 133.791 109.997 134.131 110.242 134.065C110.482 134.001 112.269 134.884 114.211 136.03C116.153 137.175 117.977 138.048 118.264 137.972C118.55 137.895 119.674 138.391 120.753 139.071C121.836 139.749 122.854 140.274 123.016 140.231C123.496 140.102 124.983 141.102 125.129 141.648C125.204 141.926 125.528 142.081 125.847 141.996C126.17 141.909 126.964 142.266 127.613 142.784C128.268 143.305 129.08 143.652 129.426 143.56C129.768 143.468 132.308 144.72 135.07 146.337C137.828 147.96 140.316 149.221 140.598 149.145C140.876 149.071 141.989 149.565 143.069 150.249C144.152 150.928 145.17 151.453 145.332 151.409C145.72 151.305 147.286 152.233 147.391 152.624C147.496 153.015 149.067 153.941 149.45 153.838C149.612 153.795 150.108 153.945 150.551 154.174C152.254 155.055 153.058 155.395 153.298 155.331C153.442 155.292 155.123 156.204 157.041 157.356C158.96 158.507 160.756 159.388 161.038 159.312C161.316 159.238 162.861 159.959 164.475 160.915C166.088 161.87 167.528 162.62 167.676 162.58C167.824 162.541 168.344 162.745 168.832 163.033C169.321 163.321 169.877 163.383 170.074 163.174C170.271 162.965 170.516 163.122 170.624 163.526C170.733 163.931 171.043 164.202 171.315 164.128C171.958 163.956 173.452 164.838 173.628 165.492C173.702 165.77 174.077 165.912 174.456 165.81C174.835 165.709 175.206 165.836 175.276 166.095C175.345 166.354 175.725 166.479 176.118 166.374C176.511 166.269 177.457 166.581 178.218 167.073C178.982 167.56 179.841 167.9 180.128 167.823C180.419 167.745 180.712 167.894 180.781 168.153C180.85 168.412 181.323 168.512 181.832 168.376C182.345 168.238 182.841 168.444 182.945 168.834C183.049 169.22 183.356 169.481 183.629 169.408C183.902 169.335 184.486 169.461 184.929 169.691C186.655 170.586 187.435 170.911 187.694 170.842C187.842 170.802 188.524 171.074 189.208 171.446C189.893 171.817 190.829 172.021 191.291 171.897C191.749 171.774 192.214 171.993 192.317 172.379C192.42 172.765 192.821 173.001 193.2 172.9C193.579 172.798 193.95 172.926 194.019 173.185C194.088 173.444 194.538 173.55 195.019 173.421C195.5 173.293 196.103 173.474 196.35 173.822C196.602 174.173 197.228 174.343 197.745 174.205C198.263 174.066 198.74 174.165 198.81 174.424C198.879 174.683 199.158 174.836 199.431 174.762C199.703 174.689 200.287 174.816 200.73 175.045C202.635 176.034 203.255 176.261 203.708 176.14C203.972 176.069 204.246 176.223 204.315 176.482C204.385 176.741 204.862 176.84 205.38 176.701C205.897 176.562 206.524 176.738 206.775 177.084C207.023 177.436 207.727 177.586 208.337 177.422C208.943 177.26 209.499 177.338 209.568 177.597C209.638 177.856 210.004 177.985 210.388 177.882C210.767 177.781 211.622 178.016 212.281 178.404C213.27 178.987 213.406 179.254 213.065 179.941C212.165 181.741 211.873 182.501 211.955 182.807C212.002 182.981 211.519 183.988 210.884 185.042C210.245 186.096 209.703 187.457 209.679 188.069C209.656 188.686 209.442 189.238 209.202 189.302C208.966 189.366 208.858 189.738 208.961 190.124C209.065 190.51 208.943 190.886 208.688 190.954C208.434 191.022 208.321 191.451 208.433 191.905C208.545 192.36 208.445 193.225 208.205 193.829C207.966 194.433 207.874 195.31 207.999 195.776C208.125 196.247 208.019 196.684 207.765 196.752C207.511 196.821 207.53 197.724 207.808 198.76C208.085 199.796 208.132 200.691 207.91 200.751C207.688 200.81 207.705 202.168 207.951 203.768C208.196 205.368 208.195 206.73 207.954 206.795C207.238 206.987 209.373 214.161 210.65 215.838C211.277 216.664 212.024 218.194 212.304 219.24C212.584 220.285 213.021 221.081 213.275 221.013C213.529 220.945 213.908 221.525 214.116 222.302C214.324 223.079 214.702 223.659 214.956 223.591C215.211 223.523 215.525 223.862 215.656 224.352C215.786 224.837 216.278 225.417 216.743 225.635C217.208 225.854 217.671 226.325 217.767 226.683C217.863 227.041 218.149 227.277 218.403 227.209C218.657 227.141 219.007 227.613 219.181 228.262C219.377 228.997 219.76 229.369 220.189 229.254C220.568 229.152 220.969 229.388 221.072 229.774C221.175 230.16 221.469 230.425 221.723 230.357C221.978 230.288 222.299 230.657 222.438 231.174C222.578 231.697 223 232.033 223.384 231.93C223.763 231.829 224.134 231.956 224.203 232.215C224.331 232.691 232.975 237.939 233.432 237.817C233.571 237.78 234.044 237.936 234.487 238.165C236.316 239.113 237.003 239.383 237.354 239.289C237.558 239.235 238.258 239.612 238.908 240.134C239.563 240.655 240.481 240.975 240.952 240.848C241.424 240.722 241.869 240.83 241.938 241.089C242.008 241.348 242.379 241.475 242.758 241.374C243.137 241.272 243.507 241.395 243.575 241.65C243.643 241.904 244.252 242.104 244.934 242.098C245.61 242.088 246.219 242.273 246.281 242.504C246.343 242.735 246.809 242.812 247.318 242.675C247.826 242.539 248.292 242.616 248.354 242.847C248.416 243.078 249.021 243.264 249.702 243.253C250.379 243.248 250.992 243.447 251.06 243.701C251.128 243.956 251.702 244.024 252.339 243.853C252.977 243.682 253.552 243.755 253.621 244.014C253.691 244.273 254.251 244.35 254.871 244.184C255.485 244.019 256.389 244.12 256.876 244.404C257.36 244.693 258.189 244.809 258.716 244.668C259.243 244.527 259.729 244.623 259.799 244.882C259.868 245.141 260.601 245.177 261.431 244.965C262.261 244.752 263.422 244.779 264.019 245.028C264.616 245.277 265.79 245.296 266.631 245.07C267.472 244.845 268.218 244.872 268.287 245.131C268.357 245.39 269.634 245.275 271.15 244.869C272.883 244.404 274.006 244.325 274.225 244.66C274.602 245.236 281.969 244.054 288.122 242.425C293.215 241.076 300.779 238.116 300.815 237.455C300.834 237.137 302.266 236.531 304.272 235.993C306.251 235.463 307.649 234.877 307.576 234.604C307.507 234.345 308.652 233.811 310.135 233.413C311.781 232.972 313.096 232.332 313.532 231.761C313.991 231.164 315.356 230.526 317.36 229.979C319.118 229.497 320.42 228.921 320.35 228.658C320.278 228.389 321.592 227.82 323.408 227.334C325.816 226.688 326.615 226.287 326.672 225.702C326.731 225.111 327.536 224.713 330 224.053C331.858 223.555 333.195 222.98 333.123 222.712C333.053 222.448 334.231 221.91 335.77 221.498C337.296 221.089 338.494 220.571 338.435 220.35C338.376 220.129 340.005 219.369 342.055 218.663C344.11 217.956 345.801 217.13 345.819 216.827C345.835 216.515 347.037 215.956 348.581 215.542C350.097 215.136 351.26 214.597 351.191 214.338C351.12 214.074 352.364 213.519 354.037 213.071C356.062 212.528 357.166 211.99 357.513 211.382C357.859 210.77 358.969 210.235 361.054 209.677C362.769 209.217 364.037 208.66 363.965 208.392C363.894 208.128 365.116 207.569 366.722 207.128C368.347 206.683 370.033 205.913 370.583 205.357C371.121 204.814 372.752 204.044 374.212 203.648C375.67 203.247 376.808 202.705 376.738 202.446C376.665 202.173 378.077 201.583 380.079 201.046C381.983 200.536 383.496 199.934 383.437 199.713C383.376 199.487 384.693 198.816 386.365 198.216C388.034 197.623 389.415 196.879 389.432 196.572C389.449 196.229 390.814 195.647 392.889 195.091C394.868 194.56 396.266 193.974 396.193 193.701C396.123 193.442 397.268 192.908 398.752 192.51C400.398 192.069 401.712 191.429 402.149 190.858C402.63 190.23 404.028 189.608 406.439 188.952C408.507 188.388 409.964 187.78 409.891 187.507C409.811 187.21 412.663 186.26 417.53 184.955C422.536 183.614 425.426 182.643 425.662 182.227C425.9 181.804 427.091 181.405 429.05 181.097C430.713 180.833 435.479 179.818 439.644 178.833C443.978 177.813 447.268 177.24 447.337 177.499C447.403 177.743 448.894 177.561 450.656 177.089C452.652 176.554 453.973 176.417 454.175 176.726C454.351 176.997 455.711 177.006 457.191 176.741C458.674 176.469 459.934 176.44 459.994 176.666C460.056 176.896 461.058 176.825 462.218 176.514C463.48 176.176 464.688 176.155 465.213 176.468C465.7 176.752 466.705 176.825 467.45 176.626C468.194 176.427 468.861 176.475 468.93 176.734C469 176.993 469.787 177.009 470.674 176.771C471.562 176.534 472.349 176.55 472.418 176.809C472.487 177.068 473.173 177.111 473.945 176.904C474.763 176.685 475.534 176.791 475.803 177.164C476.08 177.553 476.852 177.639 477.785 177.389C478.626 177.164 479.45 177.185 479.617 177.439C479.792 177.704 481.233 177.555 483.003 177.096C486.387 176.21 487.177 175.352 488.011 171.677C488.433 169.797 487.718 166.149 486.965 166.35C486.715 166.417 486.24 165.974 485.905 165.373C485.574 164.765 485.151 164.313 484.966 164.363C484.781 164.412 484.214 163.999 483.698 163.441C483.182 162.883 482.486 162.504 482.149 162.594C481.811 162.685 481.477 162.547 481.408 162.288C481.338 162.029 480.852 161.933 480.325 162.074C479.798 162.215 478.969 162.099 478.485 161.81C477.998 161.526 477.094 161.425 476.48 161.59C475.86 161.756 475.3 161.679 475.23 161.42C475.161 161.161 474.374 161.145 473.486 161.383C472.599 161.621 471.819 161.633 471.759 161.407C471.698 161.181 470.781 161.084 469.72 161.191C468.657 161.294 467.733 161.173 467.665 160.919C467.596 160.66 466.606 160.703 465.46 161.01C464.314 161.317 463.323 161.356 463.254 161.097C463.185 160.838 462.31 160.845 461.311 161.113C460.313 161.38 459.1 161.367 458.612 161.079C458.041 160.742 456.828 160.8 455.155 161.248C453.741 161.627 452.524 161.726 452.454 161.467C452.384 161.204 451.045 161.33 449.434 161.752C447.805 162.178 445.959 162.355 445.206 162.148C444.206 161.876 442.024 162.274 436.558 163.728C431.803 164.987 429.303 165.476 429.406 165.12C429.51 164.769 427.898 165.019 424.916 165.818C422.124 166.566 420.317 167.253 420.392 167.535C420.472 167.832 417.741 168.75 413.109 169.991C407.567 171.476 405.327 172.268 404.23 173.127C403.407 173.772 401.359 174.654 399.579 175.13C397.768 175.616 396.454 176.185 396.526 176.453C396.595 176.712 395.436 177.25 393.934 177.653C392.441 178.053 390.558 178.9 389.746 179.532C388.94 180.166 387.231 180.962 385.951 181.306C384.67 181.649 383.683 182.14 383.752 182.399C383.825 182.672 382.427 183.259 380.448 183.789C378.563 184.294 377.008 184.928 376.986 185.196C376.968 185.463 375.642 186.187 374.032 186.8C372.423 187.413 370.963 188.158 370.784 188.453C370.606 188.748 369.043 189.368 367.314 189.832C365.526 190.311 364.225 190.876 364.297 191.145C364.367 191.404 363.222 191.938 361.738 192.335C360.092 192.776 358.778 193.416 358.341 193.987C357.882 194.585 356.517 195.223 354.514 195.77C352.755 196.251 351.453 196.827 351.524 197.091C351.596 197.359 350.277 197.929 348.451 198.419C346.367 198.977 345.246 199.489 345.221 199.895C345.203 200.273 343.922 200.929 341.92 201.592C340.122 202.185 338.702 202.858 338.764 203.088C338.826 203.319 337.314 203.926 335.41 204.436C333.505 204.947 331.993 205.554 332.054 205.78C332.116 206.01 330.799 206.661 329.127 207.225C327.337 207.831 326.077 208.506 326.059 208.865C326.039 209.253 324.943 209.764 323.061 210.268C321.393 210.715 320.149 211.271 320.22 211.534C320.292 211.803 319.024 212.359 317.309 212.819C315.225 213.377 314.115 213.912 313.769 214.525C313.421 215.132 312.317 215.671 310.292 216.213C308.619 216.661 307.376 217.217 307.446 217.48C307.518 217.749 306.2 218.319 304.374 218.808C302.576 219.29 301.168 219.894 301.15 220.197C301.134 220.489 299.651 221.26 297.853 221.908C296.056 222.561 294.631 223.271 294.692 223.497C294.751 223.718 293.029 224.371 290.87 224.95C288.559 225.569 286.993 226.196 287.067 226.473C287.139 226.742 285.807 227.316 283.958 227.811C282.109 228.307 280.668 228.476 280.596 228.207C280.522 227.929 278.852 228.17 276.541 228.789C274.23 229.408 272.561 229.649 272.486 229.371C272.417 229.112 271.417 229.153 270.266 229.461C268.829 229.846 268.03 229.823 267.715 229.388C267.406 228.956 266.611 228.927 265.229 229.297C264.115 229.596 263.143 229.629 263.073 229.37C263.004 229.111 262.466 229.028 261.879 229.185C261.292 229.343 260.326 229.268 259.729 229.019C259.133 228.771 258.179 228.688 257.604 228.832C257.028 228.976 256.503 228.885 256.434 228.626C256.364 228.367 255.878 228.27 255.351 228.411C254.824 228.553 253.995 228.436 253.511 228.147C253.024 227.864 252.227 227.734 251.737 227.866C251.247 227.997 250.788 227.893 250.718 227.634C250.649 227.375 250.278 227.247 249.899 227.349C249.52 227.45 249.149 227.323 249.079 227.064C249.01 226.805 248.435 226.732 247.798 226.903C247.077 227.096 246.57 226.944 246.453 226.506C246.346 226.106 245.848 225.911 245.311 226.055C244.789 226.195 244.432 226.063 244.52 225.762C244.607 225.461 244.343 225.305 243.936 225.414C243.529 225.523 242.57 225.215 241.809 224.722C241.044 224.236 240.19 223.895 239.908 223.97C239.242 224.149 234.111 221.123 233.93 220.445C233.853 220.157 233.141 219.571 232.341 219.139C231.548 218.711 230.806 218.032 230.699 217.631C230.592 217.231 230.295 216.957 230.041 217.026C229.787 217.094 229.493 216.829 229.39 216.443C229.286 216.057 229.016 215.786 228.789 215.847C228.563 215.908 228.046 215.254 227.636 214.39C227.221 213.527 226.69 212.877 226.445 212.943C226.191 213.011 225.301 210.428 224.303 206.704C223.305 202.979 222.785 200.298 223.039 200.23C223.284 200.164 223.419 199.336 223.346 198.381C223.269 197.428 223.39 196.603 223.616 196.542C223.843 196.482 223.912 195.999 223.77 195.472C223.628 194.94 223.877 193.798 224.328 192.93C224.773 192.059 225.071 191.081 224.984 190.756C224.897 190.431 225.033 190.107 225.287 190.039C225.541 189.971 225.664 189.595 225.56 189.209C225.457 188.823 225.588 188.444 225.856 188.372C226.12 188.302 226.717 187.572 227.177 186.757C227.641 185.936 228.276 185.201 228.586 185.118C228.9 185.034 229.346 184.46 229.572 183.844C229.799 183.228 230.254 182.652 230.577 182.566C230.901 182.479 231.113 182.2 231.045 181.946C230.977 181.691 231.408 181.212 231.998 180.878C232.592 180.547 233.023 180.083 232.961 179.853C232.899 179.622 233.242 179.328 233.723 179.2C234.203 179.071 234.635 178.612 234.675 178.187C234.718 177.757 235.175 177.297 235.692 177.158C236.21 177.019 236.574 176.695 236.504 176.436C236.435 176.177 236.896 175.826 237.534 175.655C238.172 175.484 238.633 175.134 238.563 174.875C238.494 174.616 238.918 174.275 239.505 174.118C240.092 173.96 240.891 173.413 241.284 172.899C241.676 172.385 242.668 171.781 243.493 171.55C244.318 171.319 244.935 170.922 244.866 170.663C244.796 170.404 245.636 169.951 246.732 169.658C247.827 169.364 249.043 168.706 249.435 168.192C249.827 167.678 251.134 166.99 252.338 166.657C253.542 166.324 254.473 165.843 254.404 165.584C254.332 165.315 255.599 164.759 257.314 164.299C259.399 163.741 260.509 163.206 260.855 162.593C261.168 162.04 262.228 161.468 263.638 161.091C264.891 160.755 265.86 160.268 265.791 160.009C265.72 159.746 266.973 159.188 268.669 158.733C270.324 158.29 271.623 157.74 271.562 157.514C271.5 157.283 272.817 156.633 274.489 156.069C276.279 155.463 277.539 154.787 277.557 154.429C277.58 154.034 278.725 153.516 280.786 152.963C282.612 152.474 283.93 151.904 283.859 151.635C283.788 151.372 284.971 150.833 286.52 150.418C288.572 149.868 289.326 149.464 289.386 148.893C289.441 148.323 290.19 147.92 292.187 147.385C293.694 146.981 294.853 146.444 294.783 146.185C294.711 145.917 296.03 145.346 297.856 144.857C299.852 144.322 301.065 143.78 301.085 143.411C301.102 143.089 302.275 142.401 303.689 141.891C305.109 141.384 306.216 140.78 306.155 140.554C306.093 140.323 307.292 139.805 308.817 139.397C310.343 138.988 311.54 138.465 311.48 138.239C311.419 138.013 312.633 137.385 314.173 136.846C315.75 136.298 316.996 135.605 317.015 135.267C317.035 134.899 318.101 134.386 319.779 133.936C321.295 133.53 322.459 132.991 322.389 132.732C322.32 132.473 323.275 131.99 324.519 131.657C325.956 131.272 326.91 130.744 327.158 130.193C327.407 129.642 328.36 129.114 329.798 128.728C331.041 128.395 331.997 127.912 331.927 127.653C331.858 127.394 332.929 126.88 334.306 126.511C335.809 126.108 336.822 125.6 336.84 125.242C336.859 124.908 337.78 124.314 338.884 123.922C339.986 123.526 340.906 122.981 340.921 122.705C340.942 122.432 341.977 121.932 343.225 121.598C344.478 121.262 345.45 120.805 345.389 120.579C345.329 120.353 346.229 119.794 347.394 119.335C348.555 118.878 349.52 118.246 349.537 117.939C349.552 117.627 350.484 117.13 351.607 116.829C352.731 116.528 353.594 116.069 353.524 115.81C353.455 115.551 354.23 115.117 355.247 114.844C356.264 114.572 357.035 114.123 356.962 113.85C356.889 113.577 357.072 113.427 357.369 113.519C357.666 113.611 357.849 113.461 357.776 113.188C357.702 112.914 358.372 112.493 359.26 112.255C360.147 112.017 360.821 111.61 360.751 111.351C360.682 111.092 361.642 110.607 362.885 110.274C364.378 109.874 365.174 109.424 365.218 108.958C365.256 108.564 365.871 108.086 366.578 107.897C367.285 107.707 367.882 107.29 367.898 106.978C367.915 106.656 368.929 106.132 370.2 105.791C371.453 105.455 372.417 104.97 372.348 104.711C372.279 104.452 372.726 104.105 373.345 103.939C373.96 103.774 374.692 103.235 374.972 102.746C375.247 102.254 376.114 101.683 376.895 101.474C377.677 101.264 378.258 100.882 378.188 100.623C378.119 100.364 378.894 99.9288 379.911 99.6563C381.247 99.2984 381.707 98.9632 381.571 98.4547C381.438 97.9603 381.871 97.6171 382.999 97.3149C383.887 97.0771 384.56 96.6696 384.491 96.4106C384.421 96.1516 385.095 95.7441 385.982 95.5063C386.87 95.2685 387.551 94.8892 387.49 94.6631C387.43 94.4371 388.176 93.894 389.149 93.4568C390.12 93.0148 390.86 92.4481 390.792 92.1939C390.723 91.9349 391.398 91.5321 392.285 91.2943C393.172 91.0565 393.846 90.6489 393.777 90.3899C393.707 90.131 394.154 89.7841 394.774 89.6181C395.388 89.4534 396.121 88.914 396.401 88.4251C396.675 87.9328 397.335 87.4179 397.862 87.2767C398.389 87.1355 398.762 86.8084 398.692 86.5495C398.623 86.2905 399.273 85.8891 400.133 85.6588C401.104 85.3987 401.734 84.9421 401.779 84.4608C401.825 84.0044 402.44 83.5267 403.258 83.3074C404.03 83.1006 404.602 82.7203 404.533 82.4613C404.463 82.2024 404.924 81.8518 405.562 81.6808C406.2 81.5099 406.661 81.1593 406.591 80.9004C406.522 80.6414 406.969 80.2945 407.588 80.1286C408.203 79.9638 408.937 79.4292 409.216 78.9356C409.491 78.4479 410.15 77.9283 410.677 77.7871C411.204 77.646 411.577 77.3189 411.507 77.0599C411.438 76.801 411.917 76.4454 412.569 76.2708C413.225 76.0949 413.985 75.5481 414.261 75.0604C414.54 74.5668 415.167 74.0606 415.657 73.9293C416.147 73.7981 416.493 73.4784 416.423 73.2195C416.354 72.9605 416.921 72.5814 417.684 72.3771C418.446 72.1727 419.015 71.7983 418.947 71.5441C418.879 71.2898 419.305 70.8121 419.899 70.4764C420.489 70.1466 420.925 69.6818 420.863 69.4511C420.801 69.2204 421.375 68.8648 422.137 68.6605C422.9 68.4561 423.473 68.1006 423.412 67.8699C423.35 67.6391 423.78 67.1755 424.375 66.8445C424.964 66.5101 425.396 66.0311 425.328 65.7769C425.26 65.5226 425.722 65.1767 426.36 65.0058C426.998 64.8349 427.459 64.4843 427.389 64.2253C427.32 63.9664 427.781 63.6158 428.419 63.4448C429.056 63.2739 429.519 62.928 429.45 62.6738C429.382 62.4195 429.809 61.9418 430.403 61.6061C430.993 61.2763 431.428 60.8115 431.367 60.5808C431.305 60.3501 431.772 60.023 432.41 59.8521C433.048 59.6812 433.511 59.34 433.446 59.0952C433.379 58.8456 434.018 58.3109 434.859 57.8989C435.701 57.4916 436.344 56.971 436.282 56.7403C436.221 56.5096 436.688 56.1826 437.326 56.0116C437.964 55.8407 438.425 55.4901 438.355 55.2312C438.286 54.9722 438.659 54.6451 439.186 54.504C439.713 54.3628 440.372 53.8479 440.647 53.3555C440.926 52.8619 441.659 52.3272 442.274 52.1625C442.893 51.9966 443.34 51.6497 443.271 51.3907C443.202 51.1318 443.575 50.8047 444.102 50.6635C444.629 50.5223 445.288 50.0074 445.563 49.5151C445.843 49.0262 446.575 48.4868 447.19 48.3221C447.809 48.1561 448.256 47.8092 448.187 47.5503C448.117 47.2913 448.791 46.8837 449.678 46.6459C450.566 46.4081 451.239 46.0006 451.17 45.7416C451.101 45.4826 451.538 45.1382 452.144 44.976C452.749 44.8138 453.417 44.2917 453.628 43.8214C453.838 43.3464 454.613 42.8005 455.343 42.6048C456.078 42.4079 456.617 42.0363 456.548 41.7773C456.479 41.5183 457.06 41.1355 457.841 40.9262C458.622 40.7169 459.489 40.1416 459.764 39.654C460.043 39.1604 460.878 38.5984 461.622 38.399C462.367 38.1996 462.92 37.8243 462.851 37.5653C462.781 37.3063 463.427 36.9062 464.287 36.6758C465.146 36.4455 466.023 35.8724 466.233 35.3974C466.444 34.9271 467.319 34.3493 468.179 34.1189C469.039 33.8885 469.685 33.4884 469.615 33.2294C469.546 32.9705 470.414 32.5109 471.541 32.2087C472.669 31.9065 473.666 31.4122 473.754 31.1112C473.842 30.8101 474.612 30.3765 475.472 30.1461C476.327 29.917 477.255 29.3303 477.534 28.8367C477.832 28.3027 478.889 27.7168 480.15 27.3787C481.311 27.0678 482.206 26.6008 482.137 26.3418C482.067 26.0829 482.963 25.6158 484.123 25.305C485.385 24.9669 486.441 24.3809 486.739 23.8469C487.052 23.2939 488.112 22.722 489.522 22.3443C490.775 22.0087 491.744 21.5218 491.675 21.2629C491.601 20.9898 493 20.4031 494.978 19.873C496.864 19.3677 498.416 18.7248 498.435 18.447C498.449 18.1658 500.348 17.2836 502.655 16.4836C504.963 15.6837 506.8 14.8483 506.74 14.627C506.681 14.4057 509.961 13.3351 514.029 12.2452C518.651 11.0067 521.376 10.0846 521.298 9.79271C521.219 9.49608 524.255 8.49578 529.492 7.09254C534.438 5.76732 537.861 5.04684 537.932 5.31052C538 5.56477 541.038 5.05338 544.925 4.13817C552.881 2.26886 560.046 1.16642 560.923 1.68346C561.258 1.88125 562.735 1.71762 564.21 1.32253C565.689 0.926198 566.947 0.816056 567.017 1.07502C567.086 1.33399 568.294 1.23748 569.699 0.860969C571.548 0.365558 572.382 0.354002 572.712 0.810497C573.03 1.25535 573.844 1.26412 575.43 0.839309C576.673 0.506149 577.747 0.445546 577.816 0.704511C577.886 0.963477 578.788 0.948717 579.824 0.671289C580.882 0.387668 582.093 0.39623 582.588 0.687701C583.076 0.975712 584.08 1.04471 584.824 0.845307C585.569 0.645916 586.236 0.694297 586.305 0.953262C586.374 1.21223 587.161 1.22843 588.049 0.990638C588.936 0.752845 589.723 0.769032 589.793 1.028C589.862 1.28696 590.557 1.32793 591.338 1.11862C592.119 0.909312 593.156 0.969641 593.64 1.25889C594.127 1.54219 595.146 1.61218 595.904 1.40907C596.708 1.19356 597.219 1.2687 597.126 1.58639C597.03 1.91471 597.636 1.95442 598.625 1.68938C599.674 1.40824 600.451 1.4777 600.741 1.8792C601.002 2.24324 601.772 2.36006 602.535 2.15569C603.269 1.95878 603.927 2.00964 603.997 2.26861C604.066 2.52758 604.747 2.57226 605.509 2.36791C606.272 2.16354 606.952 2.20352 607.02 2.45778C607.088 2.71203 607.696 2.91232 608.378 2.90622C609.059 2.89538 609.664 3.08155 609.726 3.31226C609.788 3.54298 610.462 3.56412 611.225 3.35977C611.987 3.1554 612.662 3.17655 612.724 3.40726C612.785 3.63797 613.39 3.82415 614.071 3.81333C614.753 3.8072 615.361 4.00749 615.43 4.26175C615.498 4.51601 616.071 4.58446 616.709 4.41356C617.347 4.24265 617.921 4.31581 617.99 4.57478C618.06 4.83374 618.634 4.90691 619.272 4.73599C619.993 4.54277 620.5 4.69475 620.617 5.13264C620.734 5.57052 621.241 5.72248 621.962 5.52927C622.6 5.35836 623.16 5.37973 623.213 5.57749C623.266 5.77524 624.287 6.12748 625.478 6.35833C628.934 7.03224 629.601 7.23181 629.704 7.6132C629.757 7.81095 630.317 7.83233 630.955 7.6614C631.676 7.4682 632.182 7.62016 632.3 8.05805C632.405 8.44885 632.9 8.65409 633.414 8.51661C633.922 8.38037 634.395 8.48079 634.464 8.73975C634.533 8.99872 634.9 9.12762 635.284 9.02483C635.667 8.92202 636.032 9.04623 636.101 9.30048C636.169 9.55474 636.777 9.75503 637.459 9.7489C638.14 9.73808 638.745 9.92426 638.807 10.155C638.868 10.3857 639.141 10.5146 639.413 10.4415C639.686 10.3684 640.27 10.4946 640.713 10.7241C642.617 11.7126 643.238 11.9399 643.691 11.8185C643.955 11.7479 644.229 11.9016 644.298 12.1606C644.367 12.4195 644.812 12.5274 645.284 12.4011C645.755 12.2747 646.674 12.5987 647.328 13.115C647.978 13.6372 648.979 13.9342 649.557 13.7793C650.13 13.6258 650.662 13.7254 650.737 14.0032C650.912 14.6577 652.407 15.5391 653.049 15.3669C653.322 15.2939 653.597 15.4322 653.661 15.6723C653.727 15.9171 654.281 16.137 654.894 16.1695C655.512 16.2008 657.14 16.9152 658.524 17.7554C659.904 18.5969 661.455 19.1705 661.972 19.0317C662.49 18.893 662.976 19.0051 663.05 19.2829C663.198 19.8338 664.683 20.8286 665.164 20.6998C665.645 20.571 667.13 21.5659 667.277 22.1168C667.352 22.3946 667.842 22.5054 668.365 22.3654C668.887 22.2255 669.244 22.3569 669.156 22.6579C669.069 22.959 669.426 23.0904 669.948 22.9505C670.484 22.8068 670.982 23.0014 671.09 23.4016C671.193 23.7877 671.505 24.0472 671.783 23.9729C672.06 23.8985 673.453 24.5497 674.874 25.4154C676.3 26.2799 677.67 26.9373 677.924 26.8691C678.174 26.8023 679.041 27.1352 679.853 27.614C680.66 28.0941 681.541 28.4233 681.804 28.3527C682.072 28.2809 682.35 28.4487 682.425 28.7265C682.57 29.2679 684.057 30.2722 684.524 30.1471C684.797 30.0741 685.56 30.3894 687.304 31.2948C687.747 31.5243 688.233 31.6765 688.391 31.6344C688.548 31.5923 689.379 31.9398 690.236 32.4016C691.099 32.8668 691.984 33.1947 692.215 33.1328C692.442 33.0721 693.249 33.4211 694.014 33.9124C694.776 34.4048 695.721 34.7167 696.114 34.6114C696.507 34.5061 696.887 34.6313 696.957 34.8903C697.026 35.1493 697.393 35.2782 697.776 35.1754C698.16 35.0726 698.514 35.1544 698.567 35.3521C698.621 35.5546 699.501 35.9192 700.52 36.1711C701.539 36.423 702.423 36.8017 702.482 37.023C702.54 37.2396 703.106 37.2798 703.744 37.1089C704.465 36.9157 704.971 37.0677 705.089 37.5056C705.193 37.8964 705.689 38.1016 706.202 37.9641C706.711 37.8279 707.183 37.9283 707.253 38.1873C707.322 38.4462 707.689 38.5751 708.072 38.4723C708.456 38.3695 708.816 38.4749 708.878 38.7056C708.94 38.9363 709.544 39.1225 710.225 39.1117C710.907 39.1055 711.516 39.3058 711.584 39.5601C711.652 39.8144 712.225 39.8828 712.863 39.7119C713.501 39.541 714.075 39.6141 714.145 39.8731C714.214 40.1321 714.692 40.2312 715.209 40.0925C715.727 39.9538 716.354 40.1291 716.605 40.4756C716.853 40.828 717.571 40.9738 718.195 40.8066C718.833 40.6356 719.258 40.7437 719.167 41.0507C719.076 41.3578 719.501 41.4659 720.139 41.295C720.763 41.1278 721.482 41.2783 721.729 41.626C721.981 41.9771 722.722 42.1167 723.383 41.9396C724.063 41.7575 724.51 41.8547 724.42 42.1665C724.33 42.4782 724.772 42.5766 725.443 42.397C726.094 42.2224 726.68 42.2824 726.746 42.5273C726.813 42.7768 727.634 42.9202 728.568 42.8566C729.501 42.7883 730.318 42.9175 730.38 43.1482C730.442 43.3789 731.01 43.4285 731.648 43.2576C732.286 43.0867 732.86 43.1599 732.93 43.4188C732.999 43.6778 733.555 43.7559 734.16 43.5937C734.771 43.4302 735.476 43.5844 735.722 43.9321C735.974 44.2786 736.6 44.4538 737.118 44.3151C737.636 44.1764 738.113 44.2756 738.183 44.5346C738.252 44.7935 738.813 44.8704 739.432 44.7044C740.047 44.5397 740.951 44.6407 741.438 44.924C741.921 45.2132 742.75 45.3293 743.277 45.1881C743.804 45.0469 744.291 45.1436 744.36 45.4026C744.429 45.6615 745.004 45.7347 745.642 45.5638C746.28 45.3929 746.854 45.466 746.923 45.725C746.993 45.984 747.416 46.1027 747.862 45.9932C748.309 45.8837 749.16 45.9936 749.757 46.2425C750.354 46.4914 751.32 46.5656 751.907 46.4083C752.494 46.251 753.032 46.334 753.101 46.593C753.17 46.852 753.745 46.9251 754.383 46.7542C755.104 46.561 755.61 46.713 755.727 47.1509C755.845 47.5888 756.351 47.7407 757.072 47.5475C757.71 47.3766 758.285 47.4497 758.354 47.7087C758.423 47.9677 758.998 48.0409 759.636 47.8699C760.274 47.699 760.852 47.7863 760.925 48.0594C760.998 48.3325 761.231 48.3709 761.443 48.1427C761.654 47.9145 761.887 47.953 761.96 48.226C762.034 48.4991 762.612 48.5864 763.25 48.4155C763.888 48.2446 764.462 48.3178 764.531 48.5767C764.601 48.8357 765.175 48.9089 765.813 48.738C766.451 48.567 767.025 48.6402 767.095 48.8992C767.164 49.1581 767.587 49.2769 768.034 49.1674C768.48 49.0579 769.332 49.1678 769.929 49.4167C770.525 49.6655 771.39 49.767 771.847 49.6444C772.31 49.5205 772.741 49.6321 772.81 49.891C772.88 50.15 773.463 50.2207 774.106 50.0485C774.748 49.8764 775.481 50.0231 775.732 50.3696C775.98 50.722 776.684 50.8715 777.294 50.7081C777.9 50.5458 778.456 50.6239 778.525 50.8829C778.595 51.1418 779.081 51.2386 779.608 51.0974C780.135 50.9562 780.965 51.0769 781.448 51.3615C781.935 51.6448 782.732 51.7742 783.222 51.6429C783.712 51.5117 784.171 51.6158 784.241 51.8747C784.31 52.1337 784.884 52.2069 785.522 52.036C786.16 51.8651 786.735 51.9382 786.804 52.1972C786.873 52.4562 787.457 52.5268 788.1 52.3547C788.742 52.1825 789.475 52.3293 789.726 52.6758C789.974 53.0282 790.678 53.1777 791.288 53.0142C791.894 52.852 792.45 52.9301 792.519 53.1891C792.589 53.448 793.02 53.5596 793.482 53.4357C793.94 53.3131 794.804 53.4146 795.401 53.6634C795.998 53.9123 796.849 54.0222 797.296 53.9127C797.742 53.8032 798.165 53.9219 798.234 54.1809C798.304 54.4399 798.878 54.513 799.516 54.3421C800.154 54.1712 800.726 54.235 800.792 54.4798C800.858 54.7294 801.68 54.8727 802.614 54.8091C803.547 54.7408 804.364 54.87 804.426 55.1007C804.488 55.3314 804.848 55.4368 805.231 55.334C805.615 55.2312 806.011 55.4684 806.114 55.8545C806.218 56.2406 806.511 56.505 806.766 56.4369C807.02 56.3688 807.33 56.6944 807.456 57.1653C807.581 57.6314 808.099 58.3454 808.609 58.7489C809.118 59.1524 809.722 60.1665 809.957 61.0068C810.192 61.8471 810.589 62.4776 810.843 62.4095C811.134 62.3315 812.169 65.5109 813.647 71.0245C815.176 76.7312 815.799 79.7032 815.448 79.5954C815.107 79.4898 815.232 80.6374 815.783 82.695C816.275 84.5313 816.552 86.7836 816.418 87.8388C816.283 88.8691 816.406 90.5671 816.686 91.6124C816.966 92.6577 816.987 93.5656 816.732 93.6337C816.478 93.7019 816.549 94.7982 816.891 96.0742C817.232 97.3454 817.309 98.5208 817.066 98.6868C816.817 98.8494 816.741 99.9144 816.886 101.046C817.036 102.182 816.98 103.156 816.758 103.215C816.536 103.275 816.583 104.17 816.861 105.206C817.138 106.242 817.157 107.145 816.903 107.214C816.649 107.282 816.629 108.039 816.859 108.896C817.088 109.753 817.081 110.946 816.842 111.55C816.602 112.154 816.586 113.334 816.803 114.179C817.02 115.025 816.991 115.769 816.737 115.837C816.483 115.905 816.412 116.474 816.581 117.105C816.749 117.731 816.663 118.648 816.384 119.141C816.104 119.63 816.054 120.683 816.267 121.479C816.48 122.275 816.446 122.98 816.192 123.048C815.938 123.116 815.895 123.789 816.098 124.547C816.3 125.3 816.273 126.05 816.037 126.204C815.802 126.362 815.663 127.157 815.737 127.969C815.805 128.779 815.69 129.567 815.472 129.716C815.255 129.87 815.214 130.492 815.377 131.099C815.541 131.711 815.502 132.398 815.291 132.626C815.079 132.854 815.047 133.564 815.218 134.205C815.39 134.845 815.253 135.573 814.91 135.827C814.565 136.075 814.424 136.789 814.591 137.411C814.756 138.028 814.685 138.592 814.43 138.66C814.176 138.728 814.14 139.424 814.35 140.21C814.574 141.044 814.476 141.827 814.112 142.096C813.768 142.345 813.627 143.059 813.794 143.68C813.959 144.297 813.887 144.861 813.633 144.929C813.379 144.997 813.312 145.581 813.486 146.23C813.66 146.88 813.617 147.457 813.39 147.518C813.164 147.578 813.043 148.403 813.12 149.356C813.193 150.311 813.058 151.139 812.813 151.205C812.573 151.269 812.515 151.85 812.689 152.5C812.863 153.149 812.797 153.733 812.542 153.801C812.288 153.869 812.195 154.353 812.336 154.88C812.478 155.408 812.316 156.042 811.972 156.295C811.628 156.544 811.459 157.154 811.59 157.644C811.722 158.133 811.621 158.589 811.367 158.658C811.113 158.726 811.041 159.29 811.206 159.907C811.373 160.528 811.232 161.242 810.887 161.491C810.544 161.744 810.382 162.378 810.523 162.906C810.665 163.433 810.571 163.917 810.317 163.985C810.063 164.053 809.996 164.636 810.17 165.286C810.345 165.936 810.282 166.518 810.033 166.585C809.783 166.652 809.592 167.268 809.604 167.961C809.621 168.653 809.443 169.266 809.217 169.327C808.99 169.387 808.919 169.861 809.058 170.379C809.197 170.896 809.125 171.37 808.899 171.43C808.672 171.491 808.495 172.104 808.512 172.796C808.524 173.489 808.332 174.105 808.083 174.172C807.833 174.239 807.714 174.609 807.819 175C807.924 175.391 807.8 175.762 807.546 175.83C807.292 175.898 807.225 176.481 807.399 177.131C807.596 177.866 807.451 178.379 807.021 178.494C806.638 178.597 806.44 179.099 806.58 179.621C806.719 180.139 806.625 180.619 806.371 180.687C806.116 180.755 805.993 181.126 806.098 181.517C806.202 181.908 806.079 182.279 805.825 182.347C805.57 182.415 805.504 182.998 805.678 183.648C805.875 184.383 805.73 184.896 805.3 185.011C804.916 185.114 804.719 185.616 804.859 186.139C804.998 186.656 804.903 187.136 804.649 187.204C804.395 187.272 804.271 187.643 804.376 188.034C804.481 188.425 804.256 188.823 803.872 188.926C803.442 189.041 803.297 189.555 803.494 190.289C803.668 190.939 803.634 191.513 803.421 191.57C803.204 191.629 802.839 192.524 802.601 193.556C802.362 194.589 802.012 195.481 801.813 195.534C801.619 195.586 801.516 195.85 801.588 196.119C801.661 196.392 801.356 197.322 800.905 198.189C800.455 199.062 800.136 199.945 800.194 200.161C800.251 200.373 799.755 201.444 799.098 202.539C798.438 203.629 797.963 204.776 798.045 205.082C798.126 205.383 797.807 206.266 797.33 207.035C796.853 207.809 796.507 208.588 796.556 208.771C796.694 209.285 795.744 210.786 795.189 210.934C794.916 211.007 794.783 211.396 794.891 211.801C795 212.206 794.845 212.46 794.548 212.368C794.251 212.276 794.072 212.44 794.15 212.732C794.332 213.41 793.488 214.923 792.837 215.097C792.564 215.17 792.403 215.456 792.477 215.733C792.652 216.388 791.799 217.898 791.156 218.071C790.884 218.144 790.75 218.533 790.859 218.938C790.967 219.343 790.812 219.596 790.515 219.504C790.218 219.412 790.063 219.666 790.171 220.071C790.28 220.475 790.146 220.864 789.874 220.938C789.601 221.011 789.158 221.412 788.89 221.832C787.734 223.64 787.31 224.148 786.858 224.269C786.594 224.34 786.434 224.61 786.503 224.869C786.572 225.128 786.199 225.455 785.672 225.596C785.145 225.737 784.486 226.252 784.211 226.744C783.855 227.375 782.714 227.903 780.305 228.548C777.897 229.193 776.645 229.307 776.021 228.939Z" fill="white"/>
</svg>
