<svg width="214" height="214" viewBox="0 0 214 214" fill="none" xmlns="http://www.w3.org/2000/svg">
<path d="M105.243 213.57C163.367 213.57 210.486 166.394 210.486 108.2C210.486 87.4952 204.522 68.1855 194.22 51.8988C191.251 51.7911 189.979 54.1269 188.617 55.3516C198.301 70.6342 203.909 88.7613 203.909 108.2C203.909 162.757 159.735 206.984 105.243 206.984C50.7517 206.984 6.5777 162.757 6.5777 108.2C6.5777 53.6426 50.7517 9.41539 105.243 9.41539C124.543 9.41539 142.548 14.9634 157.755 24.5534C159.943 24.1069 160.609 22.3881 161.588 19.1872C145.298 8.82878 125.97 2.82977 105.243 2.82977C47.119 2.82977 0 50.0055 0 108.2C0 166.394 47.119 213.57 105.243 213.57Z" fill="url(#paint0_linear_6036_155)"/>
<path d="M180.657 54.0491C181.841 49.6744 185.106 46.7814 189.608 45.6525C194.11 44.5235 195.246 44.208 195.246 44.208L213.569 39.5137L193.343 34.1936C193.343 34.1936 192.991 34.137 188.621 32.9516C184.252 31.7662 181.362 28.4978 180.234 23.9905C179.107 19.4832 178.792 18.3457 178.792 18.3457L174.103 0L168.789 20.2508C168.789 20.2508 168.733 20.6036 167.549 24.9783C166.365 29.353 163.1 32.246 158.599 33.375C154.097 34.5039 152.961 34.8194 152.961 34.8194L134.637 39.5137L154.863 44.8338C154.863 44.8338 155.216 44.8904 159.585 46.0758C163.955 47.2612 166.844 50.5297 167.972 55.037C169.099 59.5443 169.414 60.6818 169.414 60.6818L174.103 79.0274L179.417 58.7767C179.417 58.7767 179.473 58.4239 180.657 54.0491Z" fill="url(#paint1_linear_6036_155)"/>
<path d="M152.162 169.34C152.951 166.424 155.128 164.495 158.129 163.743C161.13 162.99 161.888 162.78 161.888 162.78L174.104 159.65L160.619 156.103C160.619 156.103 160.384 156.066 157.471 155.275C154.558 154.485 152.632 152.306 151.88 149.301C151.129 146.296 150.919 145.538 150.919 145.538L147.793 133.308L144.25 146.808C144.25 146.808 144.213 147.043 143.423 149.96C142.634 152.876 140.458 154.805 137.456 155.558C134.455 156.31 133.698 156.521 133.698 156.521L121.482 159.65L134.966 163.197C134.966 163.197 135.201 163.235 138.114 164.025C141.027 164.815 142.953 166.994 143.705 169.999C144.457 173.004 144.667 173.762 144.667 173.762L147.793 185.993L151.335 172.492C151.335 172.492 151.373 172.257 152.162 169.34Z" fill="url(#paint2_linear_6036_155)"/>
<path d="M114.39 26.255C65.3764 34.8667 32.4079 63.9786 23.4575 117.358C19.4127 62.1596 59.3666 22.7101 114.39 26.255Z" fill="url(#paint3_linear_6036_155)"/>
<path d="M131.665 93.0064C130.836 84.3755 123.39 81.482 113.99 80.6579L113.99 68.686L106.707 68.6867L106.708 80.3432C104.793 80.3434 102.837 80.3812 100.892 80.4201L100.893 68.6865L93.6151 68.6863L93.6124 80.6548C92.0357 80.687 90.4874 80.7163 88.9776 80.7173L88.9767 80.6802L78.9326 80.6768L78.9345 88.4598C78.9345 88.4598 84.3122 88.3572 84.2228 88.4563C87.1726 88.4572 88.1326 90.1708 88.4118 91.6495L88.4125 105.288C88.616 105.289 88.8816 105.298 89.1822 105.339C88.9396 105.339 88.6799 105.338 88.4129 105.34L88.4111 124.446C88.2817 125.375 87.736 126.856 85.6751 126.86C85.7683 126.942 80.3815 126.858 80.3815 126.858L78.9345 135.561L88.4114 135.561C90.175 135.563 91.9102 135.593 93.6138 135.604L93.6168 147.712L100.891 147.713L100.891 135.733C102.888 135.774 104.821 135.79 106.708 135.788L106.705 147.713L113.988 147.713L113.99 135.626C126.233 134.923 134.802 131.836 135.866 120.332C136.725 111.068 132.37 106.934 125.42 105.264C129.643 103.113 132.282 99.322 131.665 93.0064ZM121.477 118.897C121.481 127.945 105.998 126.916 101.062 126.921L101.064 110.878C106.001 110.879 121.477 109.459 121.477 118.897ZM118.09 96.2627C118.087 104.495 105.175 103.534 101.064 103.535L101.064 88.9847C105.175 88.9844 118.089 87.6762 118.09 96.2627Z" fill="url(#paint4_linear_6036_155)"/>
<defs>
<linearGradient id="paint0_linear_6036_155" x1="105.243" y1="2.82977" x2="105.243" y2="213.57" gradientUnits="userSpaceOnUse">
<stop stop-color="#1AC5EC"/>
<stop offset="0.501419" stop-color="#5475FD"/>
<stop offset="1" stop-color="#091C48"/>
</linearGradient>
<linearGradient id="paint1_linear_6036_155" x1="174.103" y1="0" x2="174.103" y2="79.0274" gradientUnits="userSpaceOnUse">
<stop stop-color="#1AC5EC"/>
<stop offset="0.9999" stop-color="#5475FD"/>
<stop offset="1" stop-color="#091C48"/>
</linearGradient>
<linearGradient id="paint2_linear_6036_155" x1="147.793" y1="133.308" x2="147.793" y2="185.993" gradientUnits="userSpaceOnUse">
<stop stop-color="#5475FD"/>
<stop offset="0.9999" stop-color="#091C48"/>
<stop offset="1" stop-color="#091C48"/>
</linearGradient>
<linearGradient id="paint3_linear_6036_155" x1="68.7829" y1="26.0338" x2="68.7829" y2="117.358" gradientUnits="userSpaceOnUse">
<stop stop-color="#1AC5EC"/>
<stop offset="1" stop-color="#5475FD"/>
</linearGradient>
<linearGradient id="paint4_linear_6036_155" x1="93.9978" y1="68.5908" x2="94.0793" y2="147.713" gradientUnits="userSpaceOnUse">
<stop stop-color="#FAAC48"/>
<stop offset="1" stop-color="#F87E2D"/>
</linearGradient>
</defs>
</svg>
