<svg width="19" height="14" viewBox="0 0 19 14" fill="none" xmlns="http://www.w3.org/2000/svg">
<path d="M16.544 1.9916C14.2522 0.276598 12.0564 0.324798 12.0564 0.324798L11.832 0.581198C14.5566 1.3986 15.8228 2.6006 15.8228 2.6006C11.9246 0.454398 6.95939 0.469798 2.90479 2.6006C2.90479 2.6006 4.21899 1.3344 7.10399 0.516998L6.94379 0.324598C6.94379 0.324598 4.76399 0.276598 2.45619 1.9914C2.45619 1.9914 0.148193 6.1424 0.148193 11.2552C0.148193 11.2552 1.49459 13.5632 5.03659 13.6754C5.03659 13.6754 5.62959 12.9702 6.11039 12.3612C4.07499 11.7522 3.30559 10.486 3.30559 10.486C4.58439 11.2862 5.87739 11.787 7.48879 12.1048C10.1104 12.6444 13.3714 12.0896 15.807 10.486C15.807 10.486 15.0056 11.7842 12.906 12.3772C13.3868 12.9702 13.9638 13.6594 13.9638 13.6594C17.5058 13.5472 18.852 11.2392 18.852 11.2554C18.8518 6.1426 16.544 1.9916 16.544 1.9916ZM6.51099 9.7648C5.61339 9.7648 4.87619 8.9794 4.87619 8.0018C4.94179 5.6604 8.09659 5.6676 8.14579 8.0018C8.14579 8.9794 7.42439 9.7648 6.51099 9.7648ZM12.3608 9.7648C11.4632 9.7648 10.726 8.9794 10.726 8.0018C10.798 5.665 13.9134 5.664 13.9956 8.0018C13.9956 8.9794 13.2744 9.7648 12.3608 9.7648Z" fill="white"/>
</svg>
