<svg width="331" height="137" viewBox="0 0 331 137" fill="none" xmlns="http://www.w3.org/2000/svg">
<path d="M331.826 136.224C331.648 136.04 331.298 135.892 331.05 135.892C330.802 135.892 330.6 135.792 330.6 135.67C330.6 135.548 330.356 135.448 330.056 135.448C329.717 135.448 329.513 135.322 329.513 135.116C329.513 134.91 329.308 134.783 328.969 134.783C328.669 134.783 328.425 134.683 328.425 134.561C328.425 134.44 328.234 134.34 327.997 134.34C327.521 134.34 325.966 133.657 325.853 133.398C325.812 133.307 325.544 133.231 325.255 133.231C324.966 133.231 324.729 133.132 324.729 133.01C324.729 132.888 324.527 132.788 324.279 132.788C324.031 132.788 323.681 132.639 323.503 132.455C323.322 132.271 322.937 132.123 322.648 132.123C322.357 132.123 322.12 132.023 322.12 131.901C322.12 131.779 321.922 131.68 321.678 131.68C321.435 131.68 321.18 131.531 321.111 131.347C321.043 131.163 320.752 131.015 320.465 131.015C320.18 131.015 319.945 130.915 319.945 130.793C319.945 130.671 319.702 130.571 319.402 130.571C319.101 130.571 318.858 130.471 318.858 130.349C318.858 130.228 318.682 130.128 318.464 130.128C318.249 130.128 317.882 129.982 317.649 129.802C317.416 129.622 317.001 129.474 316.725 129.469C316.447 129.465 316.283 129.363 316.357 129.241C316.431 129.119 316.268 129.017 315.99 129.013C315.714 129.008 315.298 128.86 315.066 128.68C314.833 128.501 314.466 128.354 314.25 128.354C314.033 128.354 313.857 128.255 313.857 128.133C313.857 128.011 313.622 127.911 313.337 127.911C313.05 127.911 312.759 127.762 312.691 127.578C312.622 127.394 312.367 127.246 312.124 127.246C311.88 127.246 311.682 127.146 311.682 127.024C311.682 126.902 311.389 126.803 311.03 126.803C310.671 126.803 310.378 126.703 310.378 126.581C310.378 126.459 310.189 126.359 309.958 126.359C309.728 126.359 309.393 126.211 309.212 126.027C309.034 125.843 308.684 125.694 308.436 125.694C308.188 125.694 307.986 125.594 307.986 125.472C307.986 125.351 307.784 125.251 307.536 125.251C307.288 125.251 306.938 125.102 306.759 124.918C306.579 124.734 306.19 124.586 305.892 124.586C305.587 124.586 305.409 124.488 305.485 124.364C305.598 124.178 305.163 124.083 304.581 124.162C304.502 124.173 304.35 124.023 304.244 123.83C304.137 123.637 303.859 123.477 303.626 123.477C303.393 123.477 303.202 123.378 303.202 123.256C303.202 123.134 302.959 123.034 302.658 123.034C302.358 123.034 302.115 122.934 302.115 122.812C302.115 122.69 301.878 122.591 301.586 122.591C301.297 122.591 300.912 122.442 300.732 122.258C300.554 122.074 300.204 121.926 299.956 121.926C299.708 121.926 299.506 121.826 299.506 121.704C299.506 121.582 299.262 121.482 298.962 121.482C298.623 121.482 298.418 121.356 298.418 121.15C298.418 120.943 298.214 120.817 297.875 120.817C297.575 120.817 297.331 120.717 297.331 120.595C297.331 120.474 297.088 120.374 296.788 120.374C296.487 120.374 296.244 120.267 296.244 120.139C296.244 120.01 296.153 119.961 296.042 120.032C295.931 120.101 295.779 120.059 295.702 119.935C295.626 119.811 295.376 119.709 295.144 119.709C294.911 119.709 294.722 119.609 294.722 119.487C294.722 119.365 294.478 119.265 294.178 119.265C293.878 119.265 293.635 119.166 293.635 119.044C293.635 118.922 293.432 118.822 293.185 118.822C292.937 118.822 292.587 118.673 292.408 118.489C292.228 118.305 291.843 118.157 291.554 118.157C291.262 118.157 291.025 118.057 291.025 117.935C291.025 117.813 290.827 117.714 290.584 117.714C290.34 117.714 290.086 117.565 290.016 117.381C289.949 117.197 289.658 117.049 289.371 117.049C289.086 117.049 288.851 116.949 288.851 116.827C288.851 116.705 288.607 116.605 288.307 116.605C288.007 116.605 287.764 116.516 287.764 116.408C287.764 116.299 287.42 116.146 287.003 116.066C286.585 115.984 286.242 115.825 286.242 115.707C286.242 115.592 285.998 115.497 285.698 115.497C285.398 115.497 285.154 115.397 285.154 115.275C285.154 115.153 284.956 115.053 284.713 115.053C284.469 115.053 284.215 114.905 284.145 114.721C284.074 114.53 283.75 114.388 283.391 114.388C283.045 114.388 282.762 114.289 282.762 114.167C282.762 114.045 282.528 113.945 282.243 113.945C281.956 113.945 281.664 113.796 281.597 113.612C281.527 113.431 281.223 113.28 280.921 113.28C280.618 113.28 280.371 113.18 280.371 113.058C280.371 112.936 280.077 112.837 279.718 112.837C279.359 112.837 279.066 112.737 279.066 112.615C279.066 112.493 278.833 112.393 278.548 112.393C278.264 112.393 277.909 112.242 277.761 112.061C277.613 111.879 277.209 111.728 276.865 111.728C276.52 111.728 276.239 111.628 276.239 111.506C276.239 111.385 275.915 111.285 275.519 111.285C275.124 111.285 274.611 111.138 274.378 110.959C274.145 110.779 273.541 110.631 273.032 110.626C272.523 110.622 272.108 110.52 272.108 110.398C272.108 110.276 271.627 110.176 271.038 110.176C270.397 110.176 269.936 110.07 269.881 109.908C269.829 109.744 269.19 109.607 268.233 109.551C267.374 109.502 266.672 109.378 266.672 109.276C266.672 109.092 264.204 108.942 257.594 108.722C255.204 108.642 254.06 108.68 254.06 108.835C254.06 108.986 253.058 109.068 251.233 109.068C249.679 109.068 248.407 109.154 248.407 109.261C248.407 109.367 247.604 109.502 246.624 109.56C245.556 109.622 244.808 109.766 244.758 109.921C244.708 110.074 244.166 110.176 243.388 110.176C242.675 110.176 242.101 110.276 242.101 110.398C242.101 110.52 241.729 110.62 241.272 110.62C240.818 110.62 240.255 110.766 240.022 110.946C239.789 111.125 239.233 111.274 238.785 111.278C238.337 111.283 237.969 111.385 237.969 111.506C237.969 111.628 237.587 111.728 237.117 111.728C236.649 111.728 236.232 111.835 236.188 111.963C236.147 112.094 235.697 112.256 235.193 112.327C234.686 112.395 234.273 112.537 234.273 112.644C234.273 112.75 233.881 112.837 233.403 112.837C232.925 112.837 232.533 112.936 232.533 113.058C232.533 113.18 232.209 113.28 231.814 113.28C231.418 113.28 230.905 113.426 230.672 113.606C230.439 113.785 229.933 113.934 229.543 113.938C229.154 113.943 228.837 114.045 228.837 114.167C228.837 114.289 228.458 114.388 227.993 114.388C227.51 114.388 227.034 114.53 226.88 114.721C226.732 114.905 226.28 115.053 225.875 115.053C225.471 115.053 225.14 115.153 225.14 115.275C225.14 115.397 224.81 115.497 224.403 115.497C223.999 115.497 223.388 115.645 223.044 115.827C222.703 116.011 222.203 116.16 221.933 116.16C221.663 116.162 221.444 116.262 221.444 116.383C221.444 116.505 221.004 116.605 220.465 116.605C219.926 116.605 219.487 116.705 219.487 116.827C219.487 116.949 219.137 117.049 218.71 117.049C218.282 117.049 217.786 117.197 217.608 117.381C217.428 117.565 216.945 117.714 216.536 117.714C216.125 117.714 215.79 117.813 215.79 117.935C215.79 118.057 215.44 118.157 215.014 118.157C214.586 118.157 214.09 118.308 213.911 118.489C213.731 118.673 213.248 118.822 212.839 118.822C212.429 118.822 212.094 118.922 212.094 119.044C212.094 119.166 211.702 119.265 211.224 119.265C210.746 119.265 210.354 119.354 210.354 119.463C210.354 119.569 209.913 119.726 209.376 119.808C208.836 119.89 208.397 120.05 208.397 120.165C208.397 120.281 208.006 120.374 207.527 120.374C207.049 120.374 206.658 120.474 206.658 120.595C206.658 120.717 206.334 120.817 205.938 120.817C205.542 120.817 205.029 120.963 204.796 121.143C204.564 121.323 204.057 121.471 203.668 121.476C203.279 121.48 202.961 121.582 202.961 121.704C202.961 121.826 202.631 121.926 202.224 121.926C201.819 121.926 201.208 122.074 200.865 122.256C200.524 122.44 200.023 122.588 199.754 122.588C199.484 122.591 199.265 122.69 199.265 122.812C199.265 122.934 198.825 123.034 198.286 123.034C197.747 123.034 197.308 123.12 197.308 123.227C197.308 123.333 196.847 123.473 196.281 123.537C195.718 123.601 195.22 123.766 195.177 123.899C195.133 124.034 194.713 124.142 194.246 124.142C193.776 124.142 193.394 124.242 193.394 124.364C193.394 124.486 193.094 124.586 192.726 124.586C192.359 124.586 191.911 124.734 191.732 124.918C191.552 125.102 191.069 125.251 190.66 125.251C190.249 125.251 189.915 125.351 189.915 125.472C189.915 125.594 189.564 125.694 189.138 125.694C188.71 125.694 188.214 125.843 188.036 126.027C187.855 126.211 187.373 126.359 186.964 126.359C186.553 126.359 186.218 126.459 186.218 126.581C186.218 126.703 185.827 126.803 185.348 126.803C184.87 126.803 184.478 126.902 184.478 127.024C184.478 127.146 184.154 127.246 183.759 127.246C183.363 127.246 182.85 127.392 182.617 127.572C182.384 127.751 181.78 127.9 181.271 127.904C180.762 127.909 180.347 128.011 180.347 128.133C180.347 128.255 180.03 128.357 179.64 128.361C179.251 128.365 178.744 128.514 178.512 128.694C178.279 128.873 177.712 129.019 177.248 129.019C176.744 129.019 176.461 129.108 176.542 129.241C176.624 129.379 176.255 129.463 175.576 129.463C174.972 129.463 174.476 129.558 174.476 129.673C174.476 129.789 173.889 129.953 173.171 130.035C172.454 130.117 171.867 130.272 171.867 130.378C171.867 130.485 171.28 130.571 170.562 130.571C169.838 130.571 169.257 130.669 169.257 130.793C169.257 130.915 168.692 131.015 167.994 131.015C167.22 131.015 166.568 131.141 166.309 131.34C166.02 131.564 165.324 131.668 164.093 131.673C163.047 131.677 162.299 131.773 162.299 131.901C162.299 132.045 159.364 132.123 153.928 132.123C148.492 132.123 145.556 132.045 145.556 131.901C145.556 131.777 144.917 131.677 144.088 131.673C143.145 131.668 142.471 131.549 142.199 131.34C141.964 131.159 141.314 131.015 140.731 131.015C140.155 131.015 139.685 130.926 139.685 130.817C139.685 130.706 139.318 130.567 138.87 130.505C137.467 130.31 135.989 129.88 135.989 129.667C135.989 129.554 135.645 129.463 135.228 129.463C134.81 129.463 134.467 129.363 134.467 129.241C134.467 129.119 134.264 129.019 134.017 129.019C133.769 129.019 133.419 128.869 133.24 128.687C133.06 128.503 132.675 128.354 132.386 128.354C132.094 128.354 131.857 128.255 131.857 128.133C131.857 128.011 131.614 127.911 131.314 127.911C130.975 127.911 130.77 127.785 130.77 127.578C130.77 127.372 130.566 127.246 130.227 127.246C129.926 127.246 129.683 127.146 129.683 127.024C129.683 126.902 129.483 126.803 129.239 126.803C128.824 126.803 128.617 126.678 127.843 125.971C127.676 125.818 127.337 125.694 127.089 125.694C126.841 125.694 126.639 125.605 126.639 125.497C126.639 125.388 126.393 125.235 126.095 125.16C125.795 125.082 125.552 124.923 125.552 124.803C125.552 124.683 125.349 124.586 125.104 124.586C124.858 124.586 124.717 124.486 124.79 124.364C124.867 124.238 124.684 124.142 124.369 124.142C124.062 124.142 123.812 124.045 123.812 123.925C123.812 123.805 123.568 123.646 123.268 123.568C122.968 123.493 122.725 123.34 122.725 123.231C122.725 123.123 122.529 123.034 122.29 123.034C122.051 123.034 121.855 122.945 121.855 122.837C121.855 122.728 121.611 122.575 121.311 122.5C121.011 122.422 120.768 122.262 120.768 122.143C120.768 122.023 120.524 121.926 120.224 121.926C119.924 121.926 119.681 121.826 119.681 121.704C119.681 121.582 119.496 121.482 119.27 121.482C119.043 121.482 118.8 121.334 118.733 121.15C118.663 120.966 118.409 120.817 118.165 120.817C117.921 120.817 117.724 120.728 117.724 120.62C117.724 120.511 117.502 120.365 117.23 120.296C116.958 120.225 116.523 119.966 116.26 119.718C115.999 119.469 115.584 119.265 115.34 119.265C115.097 119.265 114.897 119.166 114.897 119.044C114.897 118.922 114.699 118.822 114.455 118.822C114.212 118.822 113.957 118.671 113.888 118.489C113.82 118.305 113.577 118.157 113.351 118.157C113.125 118.157 112.94 118.057 112.94 117.935C112.94 117.813 112.696 117.714 112.396 117.714C112.057 117.714 111.853 117.587 111.853 117.381C111.853 117.175 111.648 117.049 111.309 117.049C111.009 117.049 110.765 116.949 110.765 116.827C110.765 116.705 110.626 116.605 110.457 116.605C110.07 116.605 108.811 115.887 108.811 115.663C108.808 115.572 108.613 115.497 108.374 115.497C108.134 115.497 107.939 115.397 107.939 115.275C107.939 115.153 107.743 115.053 107.504 115.053C107.265 115.053 107.069 114.956 107.069 114.836C107.069 114.716 106.825 114.557 106.525 114.479C106.225 114.404 105.982 114.251 105.982 114.142C105.982 114.034 105.738 113.945 105.438 113.945C105.099 113.945 104.894 113.819 104.894 113.612C104.894 113.428 104.701 113.28 104.46 113.28C104.22 113.28 104.025 113.18 104.025 113.058C104.025 112.936 103.781 112.837 103.481 112.837C103.181 112.837 102.937 112.748 102.937 112.639C102.937 112.531 102.694 112.378 102.394 112.302C102.094 112.225 101.85 112.065 101.85 111.945C101.85 111.826 101.702 111.728 101.524 111.728C101.346 111.728 101.198 111.628 101.198 111.506C101.198 111.385 100.954 111.285 100.654 111.285C100.354 111.285 100.111 111.187 100.111 111.068C100.111 110.948 99.8672 110.788 99.5671 110.711C99.2692 110.635 99.0235 110.482 99.0235 110.374C99.0235 110.265 98.8387 110.176 98.6125 110.176C98.3864 110.176 98.1429 110.026 98.0755 109.844C98.0059 109.662 97.7515 109.511 97.5079 109.511C97.2644 109.511 97.0665 109.412 97.0665 109.29C97.0665 109.168 96.823 109.068 96.5229 109.068C96.2229 109.068 95.9793 108.97 95.9793 108.851C95.9793 108.731 95.7336 108.571 95.4357 108.494C95.1357 108.418 94.8921 108.265 94.8921 108.157C94.8921 108.048 94.6964 107.96 94.4572 107.96C94.218 107.96 94.0223 107.871 94.0223 107.762C94.0223 107.654 93.7788 107.501 93.4787 107.425C93.1787 107.348 92.9351 107.188 92.9351 107.068C92.9351 106.949 92.7873 106.851 92.609 106.851C92.4307 106.851 92.2828 106.751 92.2828 106.629C92.2828 106.507 92.0393 106.408 91.7392 106.408C91.4391 106.408 91.1956 106.31 91.1956 106.19C91.1956 106.071 90.9521 105.911 90.652 105.834C90.3519 105.758 90.1084 105.605 90.1084 105.497C90.1084 105.388 89.9127 105.299 89.6735 105.299C89.4343 105.299 89.2386 105.211 89.2386 105.102C89.2386 104.993 88.9929 104.84 88.695 104.765C88.3949 104.687 88.1514 104.528 88.1514 104.408C88.1514 104.288 87.9079 104.191 87.6078 104.191C87.3077 104.191 87.0642 104.102 87.0642 103.994C87.0642 103.885 86.8206 103.732 86.5206 103.657C86.2205 103.579 85.977 103.419 85.977 103.3C85.977 103.18 85.7747 103.083 85.529 103.083C85.2833 103.083 85.142 102.983 85.2159 102.861C85.292 102.734 85.1094 102.639 84.7941 102.639C84.4875 102.639 84.2374 102.564 84.2353 102.473C84.2353 102.249 82.9763 101.531 82.5892 101.531C82.4196 101.531 82.2804 101.431 82.2804 101.309C82.2804 101.187 82.0826 101.087 81.839 101.087C81.5955 101.087 81.3411 100.937 81.2715 100.755C81.2041 100.573 80.9127 100.422 80.6257 100.422C80.3409 100.422 80.106 100.323 80.106 100.201C80.106 100.079 79.9712 99.9789 79.8059 99.9789C79.6407 99.9789 79.3841 99.8282 79.2363 99.6464C79.0884 99.4646 78.7818 99.3139 78.5578 99.3139C78.3317 99.3139 78.149 99.2141 78.149 99.0922C78.149 98.9703 78.0012 98.8705 77.8229 98.8705C77.6446 98.8705 77.4967 98.7708 77.4967 98.6488C77.4967 98.5269 77.2988 98.4272 77.0553 98.4272C76.8118 98.4272 76.5574 98.2764 76.4878 98.0946C76.4204 97.9129 76.129 97.7621 75.842 97.7621C75.5571 97.7621 75.3223 97.6624 75.3223 97.5404C75.3223 97.4185 75.1375 97.3187 74.9113 97.3187C74.6852 97.3187 74.4416 97.168 74.3742 96.9862C74.3047 96.8044 74.0502 96.6537 73.8067 96.6537C73.5632 96.6537 73.3653 96.5539 73.3653 96.432C73.3653 96.3101 73.1218 96.2103 72.8217 96.2103C72.4825 96.2103 72.2781 96.084 72.2781 95.8778C72.2781 95.6716 72.0737 95.5453 71.7345 95.5453C71.4344 95.5453 71.1909 95.4699 71.1909 95.3768C71.1909 95.2837 70.7843 95.0088 70.2885 94.7672C68.8512 94.0644 68.5816 93.8982 68.5816 93.7186C68.5816 93.6255 68.338 93.5501 68.038 93.5501C67.7379 93.5501 67.4944 93.4526 67.4944 93.3329C67.4944 93.2132 67.2508 93.0536 66.9507 92.976C66.6507 92.9006 66.4071 92.7477 66.4071 92.639C66.4071 92.5304 66.1636 92.4417 65.8635 92.4417C65.5635 92.4417 65.3199 92.3442 65.3199 92.2245C65.3199 92.1048 65.0742 91.9452 64.7763 91.8676C64.4762 91.7922 64.2327 91.6392 64.2327 91.5306C64.2327 91.422 64.037 91.3333 63.7978 91.3333C63.5586 91.3333 63.3629 91.2446 63.3629 91.136C63.3629 91.0274 63.1194 90.8744 62.8193 90.7991C62.5193 90.7215 62.2757 90.5619 62.2757 90.4422C62.2757 90.3224 62.0322 90.2249 61.7321 90.2249C61.4321 90.2249 61.1885 90.1251 61.1885 90.0032C61.1885 89.8813 60.9906 89.7815 60.7471 89.7815C60.5036 89.7815 60.2492 89.6308 60.1796 89.449C60.1122 89.265 59.8143 89.1165 59.5207 89.1165C59.2207 89.1165 59.0467 89.0189 59.1228 88.8948C59.1989 88.7707 59.025 88.6731 58.7249 88.6731C58.4313 88.6731 58.1335 88.5224 58.066 88.3406C57.9965 88.1566 57.7421 88.0081 57.4985 88.0081C57.255 88.0081 57.0571 87.9083 57.0571 87.7864C57.0571 87.6645 56.8136 87.5647 56.5135 87.5647C56.2134 87.5647 55.9699 87.465 55.9699 87.343C55.9699 87.2211 55.822 87.1213 55.6437 87.1213C55.4654 87.1213 55.3176 87.0238 55.3176 86.9041C55.3176 86.7844 55.0719 86.6248 54.774 86.5472C54.4739 86.4718 54.2304 86.3189 54.2304 86.2102C54.2304 86.1016 54.0455 86.0129 53.8194 86.0129C53.5933 86.0129 53.3497 85.8622 53.2823 85.6804C53.2127 85.4964 52.9583 85.3479 52.7148 85.3479C52.4712 85.3479 52.2734 85.2725 52.2734 85.1794C52.2734 85.0863 51.882 84.8358 51.4036 84.6252C50.9252 84.4146 50.5338 84.1397 50.5338 84.0178C50.5338 83.8959 50.3381 83.7961 50.0989 83.7961C49.8598 83.7961 49.6641 83.6963 49.6641 83.5744C49.6641 83.4525 49.5162 83.3527 49.3379 83.3527C49.1596 83.3527 49.0117 83.1976 49.0117 83.0069C49.0117 82.8163 48.9226 82.7187 48.8117 82.7874C48.7008 82.8562 48.4638 82.7631 48.2833 82.5791C48.1028 82.3951 47.8615 82.2443 47.7462 82.2443C47.631 82.2443 47.4788 82.0936 47.4114 81.9118C47.3418 81.73 47.1352 81.5793 46.9526 81.5793C46.7699 81.5793 46.6199 81.4795 46.6199 81.3576C46.6199 81.2357 46.509 81.1359 46.3742 81.1359C46.2393 81.1359 45.8045 80.7856 45.4109 80.36C45.0151 79.9322 44.5911 79.5841 44.4694 79.5841C44.3476 79.5841 44.004 79.3358 43.704 79.0299C43.4061 78.7262 43.0582 78.4757 42.9342 78.4757C42.8081 78.4757 42.7059 78.3693 42.7059 78.2385C42.7059 77.9791 42.171 77.3673 41.9449 77.3673C41.7187 77.3673 41.1838 76.7555 41.1838 76.4961C41.1838 76.3653 41.0316 76.2589 40.8446 76.2589C40.6576 76.2589 40.5663 76.1591 40.6402 76.0372C40.7141 75.9153 40.6228 75.8155 40.4358 75.8155C40.2488 75.8155 40.0966 75.7113 40.0966 75.5828C40.0966 75.4564 39.8509 75.1017 39.553 74.798C39.2529 74.4921 39.0094 74.1485 39.0094 74.031C39.0094 73.9157 38.4223 73.2218 37.7047 72.4903C36.9872 71.7587 36.4001 71.0094 36.4001 70.8277C36.4001 70.6459 36.3022 70.4951 36.1826 70.4951C36.063 70.4951 35.9652 70.3444 35.9652 70.1626C35.9652 69.9808 35.8173 69.8301 35.639 69.8301C35.4607 69.8301 35.3129 69.6793 35.3129 69.4976C35.3129 69.3158 35.215 69.165 35.0954 69.165C34.9758 69.165 34.878 68.9655 34.878 68.7217C34.878 68.4756 34.7323 68.2783 34.5518 68.2783C34.3735 68.2783 34.2256 68.1497 34.2256 67.9946C34.2256 67.8394 34.0299 67.5667 33.7908 67.3916C33.5516 67.2164 33.3559 66.9482 33.3559 66.7975C33.3559 66.6489 33.1232 66.2876 32.8384 65.9972C32.5535 65.7068 32.2534 65.2546 32.1708 64.9908C32.0882 64.7247 31.9316 64.5097 31.8185 64.5097C31.7077 64.5097 31.6163 64.4055 31.6163 64.2769C31.6163 64.1506 31.3728 63.7959 31.0727 63.4922C30.7727 63.1862 30.5291 62.8293 30.5291 62.6963C30.5291 62.5633 30.3465 62.2951 30.1247 62.0978C29.9029 61.9005 29.6528 61.5148 29.568 61.2399C29.481 60.965 29.3223 60.7411 29.2092 60.7411C29.0983 60.7411 29.007 60.5859 29.007 60.3953C29.007 60.2046 28.9092 60.1115 28.7896 60.1869C28.67 60.2623 28.5721 60.1691 28.5721 59.9785C28.5721 59.7878 28.4808 59.6327 28.3699 59.6327C28.2568 59.6327 28.1003 59.4176 28.0177 59.1516C27.935 58.8878 27.635 58.4356 27.3501 58.1452C27.0653 57.8548 26.8326 57.4934 26.8326 57.3449C26.8326 57.1942 26.6369 56.9259 26.3977 56.7508C26.1585 56.5757 25.9628 56.303 25.9628 56.1478C25.9628 55.9926 25.8171 55.8641 25.6367 55.8641C25.4323 55.8641 25.3105 55.6535 25.3105 55.2966C25.3105 54.9751 25.217 54.7889 25.0931 54.8665C24.9735 54.9419 24.8756 54.8576 24.8756 54.6825C24.8756 54.5051 24.7277 54.3012 24.5494 54.2325C24.369 54.1615 24.2233 53.9443 24.2233 53.7492C24.2233 53.5564 23.8819 53.0664 23.4622 52.663C23.0447 52.2617 22.7012 51.7696 22.7012 51.5701C22.7012 51.3706 22.6033 51.2087 22.4837 51.2087C22.3641 51.2087 22.2663 51.058 22.2663 50.8762C22.2663 50.6944 22.1206 50.5437 21.9401 50.5437C21.7597 50.5437 21.614 50.3929 21.614 50.2112C21.614 50.0294 21.5161 49.8786 21.3965 49.8786C21.2769 49.8786 21.1791 49.7235 21.1791 49.535C21.1791 49.3466 20.9334 48.9609 20.6355 48.6793C20.3354 48.3956 20.0919 48.0475 20.0919 47.9034C20.0919 47.7593 19.8462 47.4091 19.5483 47.1275C19.2482 46.8438 19.0047 46.5002 19.0047 46.3627C19.0047 46.2231 18.9068 46.11 18.7872 46.11C18.6676 46.11 18.5698 45.9548 18.5698 45.7664C18.5698 45.578 18.3241 45.1923 18.0262 44.9107C17.7261 44.627 17.4826 44.3077 17.4826 44.1991C17.4826 44.0883 17.2369 43.7314 16.939 43.4011C16.6389 43.073 16.3953 42.7427 16.3953 42.6673C16.3953 42.5919 16.2475 42.3813 16.067 42.1973C15.8865 42.0133 15.7952 41.7717 15.8626 41.6586C15.93 41.5456 15.8343 41.4547 15.6473 41.4547C15.4603 41.4547 15.3081 41.3039 15.3081 41.1222C15.3081 40.9404 15.232 40.7896 15.1407 40.7896C15.0472 40.7896 14.7884 40.4416 14.5623 40.0137C14.3362 39.5881 14.0709 39.2379 13.9687 39.2379C13.8687 39.2379 13.786 39.1314 13.786 39.0007C13.786 38.8699 13.6643 38.6238 13.5142 38.4531C12.9228 37.7814 12.6988 37.4777 12.6988 37.3469C12.6988 37.2715 12.5771 37.072 12.427 36.9013C11.8247 36.2185 11.6116 35.9237 11.6116 35.7818C11.6116 35.6976 11.3681 35.4005 11.068 35.1168C10.7701 34.8352 10.5244 34.4495 10.5244 34.2611C10.5244 34.0726 10.4266 33.9175 10.307 33.9175C10.1874 33.9175 10.0895 33.7667 10.0895 33.5849C10.0895 33.4032 9.94383 33.2524 9.76335 33.2524C9.58287 33.2524 9.43719 33.0551 9.43719 32.8091C9.43719 32.5652 9.33934 32.3657 9.21975 32.3657C9.10015 32.3657 9.0023 32.2526 9.0023 32.113C9.0023 31.9755 8.75877 31.6319 8.4587 31.3482C8.15863 31.0666 7.91509 30.6809 7.91509 30.4925C7.91509 30.304 7.81724 30.1489 7.69765 30.1489C7.57805 30.1489 7.48021 29.9981 7.48021 29.8163C7.48021 29.6346 7.33452 29.4838 7.15404 29.4838C6.97356 29.4838 6.82788 29.3331 6.82788 29.1513C6.82788 28.9695 6.73003 28.8188 6.61044 28.8188C6.49084 28.8188 6.39299 28.6547 6.39299 28.4552C6.39299 28.2579 6.14946 27.8633 5.84939 27.5796C5.54932 27.298 5.30578 26.9478 5.30578 26.8037C5.30578 26.6596 5.06007 26.3115 4.76217 26.0278C4.4621 25.7462 4.21857 25.4093 4.21857 25.2829C4.21857 25.1543 4.12072 25.0502 4.00112 25.0502C3.88153 25.0502 3.78368 24.8506 3.78368 24.6068C3.78368 24.3607 3.638 24.1634 3.45752 24.1634C3.27921 24.1634 3.13135 24.0149 3.13135 23.8309C3.13135 23.6469 3.0335 23.4984 2.91391 23.4984C2.79432 23.4984 2.69647 23.2989 2.69647 23.055C2.69647 22.8112 2.60079 22.6116 2.48338 22.6116C2.36596 22.6116 2.2094 22.3611 2.13329 22.0574C2.05936 21.7515 1.90933 21.5032 1.80278 21.5032C1.69623 21.5032 1.60926 21.2483 1.60926 20.9357C1.60926 20.6143 1.51576 20.4281 1.39181 20.5057C1.26787 20.5832 1.17437 20.3926 1.17437 20.0601C1.17437 19.7386 1.02868 19.3263 0.848207 19.1445C0.669904 18.9605 0.522043 18.4684 0.522043 18.0516C0.522043 17.6327 0.424194 17.2913 0.304601 17.2913C0.171961 17.2913 0.0871582 16.2205 0.0871582 14.5202C0.0871582 12.8199 0.171961 11.7492 0.304601 11.7492C0.424194 11.7492 0.522043 11.3989 0.522043 10.9733C0.522043 10.5477 0.617718 10.1974 0.735137 10.1974C0.852556 10.1974 1.00911 9.94691 1.08522 9.6432C1.15915 9.33728 1.30919 9.08899 1.41573 9.08899C1.52228 9.08899 1.60926 8.84071 1.60926 8.53479C1.60926 8.22443 1.73537 7.98058 1.89411 7.98058C2.05284 7.98058 2.31377 7.63032 2.47903 7.20469C2.64428 6.77684 2.8639 6.4288 2.97045 6.4288C3.07482 6.4288 3.29878 6.30466 3.46622 6.1517C4.18595 5.4933 4.43166 5.32039 4.64475 5.32039C4.7687 5.32039 4.87089 5.22063 4.87089 5.0987C4.87089 4.97678 5.05572 4.87702 5.28186 4.87702C5.508 4.87702 5.75154 4.72628 5.81894 4.5445C5.88853 4.3605 6.19295 4.21197 6.49519 4.21197C6.79744 4.21197 7.04532 4.11222 7.04532 3.99029C7.04532 3.86836 7.48455 3.76861 8.02381 3.76861C8.56307 3.76861 9.0023 3.66885 9.0023 3.54692C9.0023 3.41835 9.6916 3.32524 10.6331 3.32524C11.5746 3.32524 12.2639 3.41835 12.2639 3.54692C12.2639 3.66885 12.8032 3.76861 13.4599 3.76861C14.1187 3.76861 14.6558 3.86836 14.6558 3.99029C14.6558 4.11222 14.8015 4.21197 14.982 4.21197C15.1625 4.21197 15.3081 4.11222 15.3081 3.99029C15.3081 3.86836 15.4386 3.76861 15.5973 3.76861C15.7561 3.76861 16.017 3.51811 16.1779 3.2144C16.3388 2.90848 16.6606 2.66019 16.8955 2.66019C17.1325 2.66019 17.55 2.41191 17.8283 2.10599C18.1044 1.80006 18.4828 1.55178 18.6676 1.55178C18.8524 1.55178 19.0047 1.45202 19.0047 1.3301C19.0047 1.20817 19.3395 1.10841 19.7483 1.10841C20.1571 1.10841 20.5289 0.990922 20.5746 0.849045C20.6224 0.702734 21.2508 0.54534 22.0075 0.489919C22.7468 0.434498 23.3535 0.301489 23.3535 0.195081C23.3535 0.0886731 23.7014 0 24.1276 0C24.5886 0 24.8473 0.0886731 24.7669 0.221683C24.6821 0.361343 25.1322 0.443366 25.965 0.443366C26.8609 0.443366 27.4066 0.55199 27.6241 0.77589C27.8046 0.959887 28.2873 1.10841 28.6961 1.10841C29.107 1.10841 29.4419 1.20817 29.4419 1.3301C29.4419 1.45202 29.6289 1.55178 29.8594 1.55178C30.3051 1.55178 31.6772 2.21904 31.7968 2.49393C31.8381 2.58482 32.0577 2.66019 32.2861 2.66019C32.5165 2.66019 32.7035 2.74887 32.7035 2.85749C32.7035 2.96612 32.9493 3.11908 33.2471 3.19445C33.5472 3.27204 33.7908 3.43165 33.7908 3.55136C33.7908 3.67107 34.0125 3.76861 34.2822 3.76861C34.554 3.76861 34.9584 4.01689 35.1824 4.32281C35.4085 4.62874 35.7738 4.87702 35.9956 4.87702C36.2174 4.87702 36.4001 4.97678 36.4001 5.0987C36.4001 5.22063 36.5044 5.32039 36.6327 5.32039C36.761 5.32039 37.0024 5.44453 37.1698 5.59749C37.8287 6.20047 38.1266 6.4288 38.2548 6.4288C38.3288 6.4288 38.5245 6.55294 38.6919 6.7059C39.4116 7.3643 39.6574 7.53722 39.8704 7.53722C39.9944 7.53722 40.0966 7.62145 40.0966 7.72343C40.0966 7.82762 40.438 8.09807 40.8576 8.32862C41.2751 8.55917 41.6187 8.82298 41.6187 8.9183C41.6187 9.01141 41.7665 9.08899 41.9449 9.08899C42.1232 9.08899 42.271 9.23752 42.271 9.42152C42.271 9.60552 42.4189 9.75404 42.5972 9.75404C42.7755 9.75404 42.9233 9.8538 42.9233 9.97573C42.9233 10.0977 43.0821 10.1974 43.2778 10.1974C43.4735 10.1974 43.9562 10.5477 44.3498 10.9733C44.7455 11.3989 45.2087 11.7492 45.3783 11.7492C45.55 11.7492 45.8719 11.9997 46.098 12.3034C46.322 12.6093 46.6286 12.8576 46.7808 12.8576C46.9308 12.8576 47.0548 12.9707 47.0548 13.1103C47.0548 13.4185 47.7093 13.9483 48.1028 13.9594C48.4507 13.9682 49.0117 14.5091 49.0117 14.8372C49.0117 14.968 49.1139 15.0744 49.24 15.0744C49.364 15.0744 49.7119 15.3227 50.0098 15.6286C50.3099 15.9323 50.6469 16.1828 50.7621 16.1828C50.8752 16.1828 51.5558 16.7814 52.2734 17.5129C52.9909 18.2445 53.6889 18.843 53.8237 18.843C53.9586 18.843 54.3934 19.1933 54.787 19.6189C55.1828 20.0446 55.5676 20.3948 55.6437 20.3948C55.8699 20.3948 56.4048 21.0089 56.4048 21.266C56.4048 21.3968 56.5287 21.5032 56.6788 21.5032C56.831 21.5032 57.1376 21.7537 57.3615 22.0574C57.5877 22.3634 57.903 22.6116 58.066 22.6116C58.227 22.6116 59.1946 23.4607 60.2165 24.4959C61.2364 25.5334 62.1801 26.3803 62.3127 26.3803C62.4432 26.3803 62.8737 26.7283 63.2673 27.1561C63.663 27.5818 64.0479 27.932 64.124 27.932C64.3066 27.932 64.885 28.5239 64.885 28.7079C64.885 28.8919 65.4656 29.4838 65.6461 29.4838C65.7222 29.4838 65.9222 29.608 66.0897 29.7609C66.7333 30.3484 67.0464 30.5922 67.1595 30.5922C67.2269 30.5922 67.8575 31.1908 68.5642 31.9223C69.2709 32.6539 69.9558 33.2524 70.0884 33.2524C70.2189 33.2524 70.8125 33.7512 71.4083 34.3608C72.0041 34.9705 72.5477 35.4692 72.6173 35.4692C72.6869 35.4692 72.8913 35.62 73.0718 35.804C73.2522 35.988 73.4892 36.0811 73.6001 36.0124C73.711 35.9436 73.8002 36.0412 73.8002 36.2318C73.8002 36.4225 73.9046 36.5777 74.0329 36.5777C74.3351 36.5777 74.8874 37.1407 74.8874 37.4489C74.8874 37.5797 75.0353 37.6861 75.2136 37.6861C75.3919 37.6861 75.5397 37.7858 75.5397 37.9078C75.5397 38.0297 75.6919 38.1294 75.8768 38.1294C76.0616 38.1294 76.4399 38.3777 76.7161 38.6836C76.9944 38.9874 77.3315 39.2379 77.4663 39.2379C77.6032 39.2379 77.7141 39.3376 77.7141 39.4595C77.7141 39.5815 77.9099 39.6812 78.149 39.6812C78.3904 39.6812 78.5839 39.8298 78.5839 40.0137C78.5839 40.1955 78.6883 40.3463 78.8166 40.3463C78.9449 40.3463 79.1862 40.4704 79.3537 40.6234C80.006 41.2197 80.3104 41.4547 80.4322 41.4547C80.5018 41.4547 80.7692 41.6542 81.0258 41.898C81.2824 42.1419 81.6694 42.3414 81.8869 42.3414C82.1021 42.3414 82.2804 42.4922 82.2804 42.6739C82.2804 42.8557 82.4283 43.0065 82.6066 43.0065C82.7849 43.0065 82.9328 43.1062 82.9328 43.2281C82.9328 43.3501 83.1176 43.4498 83.3437 43.4498C83.5699 43.4498 83.8134 43.6006 83.8808 43.7824C83.9504 43.9664 84.2048 44.1149 84.4483 44.1149C84.6919 44.1149 84.8898 44.2146 84.8898 44.3366C84.8898 44.4585 84.9941 44.5582 85.1224 44.5582C85.2507 44.5582 85.4921 44.6824 85.6595 44.8353C86.3792 45.4937 86.6249 45.6667 86.838 45.6667C86.962 45.6667 87.0642 45.7664 87.0642 45.8883C87.0642 46.0103 87.2621 46.11 87.5056 46.11C87.7491 46.11 88.0035 46.2608 88.0731 46.4425C88.1405 46.6265 88.4319 46.7751 88.7189 46.7751C89.0038 46.7751 89.2386 46.8748 89.2386 46.9968C89.2386 47.1187 89.3843 47.2184 89.5648 47.2184C89.7431 47.2184 90.091 47.4224 90.3345 47.6707C90.6998 48.0431 90.7281 48.1761 90.4976 48.4377C89.8909 49.1227 89.6735 49.422 89.6735 49.5661C89.6735 49.6481 89.343 50.0338 88.9407 50.4218C88.5363 50.8097 88.1383 51.344 88.0557 51.61C87.9731 51.8782 87.8144 52.0955 87.7013 52.0955C87.5904 52.0955 87.4991 52.2462 87.4991 52.428C87.4991 52.6098 87.4012 52.7605 87.2816 52.7605C87.162 52.7605 87.062 52.9356 87.0577 53.1485C87.0533 53.3613 86.9076 53.7293 86.7315 53.9665C86.5554 54.2037 86.4118 54.5783 86.4118 54.7978C86.4118 55.0195 86.314 55.199 86.1944 55.199C86.0748 55.199 85.977 55.598 85.977 56.0858C85.977 56.5735 85.8922 56.9725 85.7878 56.9725C85.6834 56.9725 85.5312 57.571 85.4508 58.3026C85.3703 59.0341 85.2094 59.6327 85.0963 59.6327C84.7593 59.6327 84.8528 63.0355 85.2159 63.9222C85.3942 64.359 85.5421 65.1193 85.5421 65.6115C85.5421 66.1036 85.6399 66.5048 85.7595 66.5048C85.8791 66.5048 85.977 66.8041 85.977 67.1699C85.977 67.5357 86.0748 67.8349 86.1944 67.8349C86.314 67.8349 86.4118 68.0211 86.4118 68.2517C86.4118 68.48 86.5597 68.7926 86.738 68.9434C86.9163 69.0941 87.0642 69.3557 87.0642 69.5242C87.0642 69.6926 87.162 69.8301 87.2816 69.8301C87.4012 69.8301 87.4991 70.0784 87.4991 70.3843C87.4991 70.7301 87.623 70.9385 87.8252 70.9385C88.0035 70.9385 88.1514 71.0892 88.1514 71.271C88.1514 71.4528 88.2492 71.6035 88.3688 71.6035C88.4884 71.6035 88.5863 71.8031 88.5863 72.0469C88.5863 72.293 88.732 72.4903 88.9124 72.4903C89.0907 72.4903 89.2386 72.59 89.2386 72.712C89.2386 72.9359 92.4154 76.2589 92.6307 76.2589C92.6959 76.2589 92.8851 76.383 93.0526 76.536C93.744 77.1678 94.0136 77.3673 94.1789 77.3673C94.2746 77.3673 94.5377 77.6156 94.7617 77.9215C94.9878 78.2274 95.3531 78.4757 95.5749 78.4757C95.7967 78.4757 95.9793 78.5755 95.9793 78.6974C95.9793 78.8193 96.1272 78.9191 96.3055 78.9191C96.4838 78.9191 96.6317 79.0166 96.6317 79.1363C96.6317 79.256 96.8752 79.4156 97.1753 79.4932C97.4732 79.5686 97.7189 79.7216 97.7189 79.8302C97.7189 79.9388 97.9146 80.0275 98.1538 80.0275C98.3929 80.0275 98.5886 80.1162 98.5886 80.2248C98.5886 80.3334 98.8322 80.4864 99.1322 80.5617C99.4301 80.6393 99.6758 80.7989 99.6758 80.9187C99.6758 81.0384 99.9194 81.1359 100.219 81.1359C100.52 81.1359 100.763 81.2357 100.763 81.3576C100.763 81.4795 101 81.5793 101.291 81.5793C101.581 81.5793 101.966 81.73 102.146 81.9118C102.324 82.0958 102.674 82.2443 102.922 82.2443C103.17 82.2443 103.372 82.3441 103.372 82.466C103.372 82.5879 103.69 82.6899 104.079 82.6943C104.468 82.6988 104.975 82.8473 105.208 83.0269C105.44 83.2064 105.953 83.3527 106.349 83.3527C106.745 83.3527 107.069 83.4525 107.069 83.5744C107.069 83.6963 107.643 83.7961 108.356 83.7961C109.172 83.7961 109.674 83.8936 109.73 84.0666C109.828 84.3636 113.201 84.7117 116.093 84.7205C118.487 84.7272 122.155 84.3171 122.249 84.0311C122.294 83.8936 122.994 83.7961 123.938 83.7961C124.869 83.7961 125.552 83.703 125.552 83.5744C125.552 83.4525 126.117 83.3527 126.815 83.3527C127.589 83.3527 128.241 83.2264 128.5 83.0269C128.772 82.8185 129.446 82.6988 130.39 82.6943C131.218 82.6899 131.857 82.5901 131.857 82.466C131.857 82.3396 132.501 82.2443 133.356 82.2443C134.488 82.2443 134.886 82.1623 134.98 81.9118C135.076 81.6591 135.476 81.5793 136.635 81.5793C137.509 81.5793 138.163 81.4839 138.163 81.3576C138.163 81.2334 138.744 81.1359 139.468 81.1359C140.185 81.1359 140.772 81.0495 140.772 80.9453C140.772 80.8411 141.577 80.6992 142.56 80.6305C143.545 80.5617 144.384 80.3977 144.428 80.2669C144.471 80.1317 145.065 80.0275 145.791 80.0275C146.504 80.0275 147.078 79.9277 147.078 79.8058C147.078 79.6817 147.689 79.5841 148.476 79.5841C149.429 79.5841 149.977 79.4777 150.201 79.2516C150.425 79.0233 150.975 78.9191 151.956 78.9191C152.762 78.9191 153.384 78.8238 153.384 78.6974C153.384 78.5732 153.986 78.4713 154.743 78.4668C155.509 78.4624 156.339 78.3228 156.646 78.1432C156.946 77.9681 157.753 77.8217 158.44 77.8195C159.127 77.8151 159.69 77.7109 159.69 77.589C159.69 77.4604 160.379 77.3673 161.321 77.3673C162.217 77.3673 162.952 77.2808 162.952 77.1767C162.952 77.0702 163.608 76.9306 164.413 76.8641C165.215 76.7998 165.909 76.6357 165.952 76.5027C166 76.3542 166.668 76.2589 167.644 76.2589C168.575 76.2589 169.257 76.1658 169.257 76.0372C169.257 75.9153 169.823 75.8155 170.521 75.8155C171.295 75.8155 171.947 75.6892 172.206 75.4896C172.491 75.2702 173.178 75.1616 174.313 75.1571C175.287 75.1527 175.998 75.0574 175.998 74.9288C175.998 74.7891 177.362 74.7071 179.651 74.7071C182.006 74.7071 183.389 74.6207 183.541 74.4655C183.696 74.3081 184.265 74.2726 185.161 74.3679C185.922 74.4477 188.134 74.563 190.078 74.6206C192.1 74.6827 193.611 74.8179 193.611 74.9399C193.611 75.0551 194.287 75.1505 195.116 75.1505C196.055 75.1505 196.651 75.2458 196.703 75.4054C196.749 75.5451 197.345 75.7091 198.025 75.7667C198.708 75.8222 199.265 75.9574 199.265 76.0638C199.265 76.1724 199.712 76.2589 200.258 76.2589C200.852 76.2589 201.385 76.3919 201.578 76.5914C201.759 76.7732 202.191 76.9239 202.541 76.9239C202.891 76.9239 203.179 77.0237 203.179 77.1456C203.179 77.2675 203.522 77.3673 203.94 77.3673C204.357 77.3673 204.701 77.4671 204.701 77.589C204.701 77.7109 204.996 77.8107 205.359 77.8107C205.744 77.8107 206.07 77.9481 206.144 78.1432C206.221 78.3471 206.549 78.4757 206.988 78.4757C207.384 78.4757 207.743 78.5821 207.786 78.7129C207.832 78.8504 208.482 78.9545 209.313 78.9612C210.902 78.9701 211.35 78.6863 212.148 77.17C212.555 76.3941 212.67 74.7071 212.315 74.7071C212.198 74.7071 212.041 74.4566 211.965 74.1529C211.891 73.847 211.759 73.5987 211.672 73.5987C211.585 73.5987 211.385 73.3504 211.224 73.0445C211.063 72.7386 210.802 72.4903 210.643 72.4903C210.485 72.4903 210.354 72.3905 210.354 72.2686C210.354 72.1467 210.152 72.0469 209.904 72.0469C209.656 72.0469 209.306 71.8984 209.128 71.7144C208.947 71.5326 208.562 71.3819 208.273 71.3819C207.982 71.3819 207.745 71.2821 207.745 71.1602C207.745 71.0383 207.401 70.9385 206.984 70.9385C206.566 70.9385 206.223 70.852 206.223 70.7456C206.223 70.6392 205.831 70.4885 205.353 70.4109C204.875 70.3311 204.483 70.1693 204.483 70.0495C204.483 69.9276 204.044 69.8301 203.505 69.8301C202.965 69.8301 202.526 69.7303 202.526 69.6084C202.526 69.4865 202.141 69.3867 201.672 69.3867C201.202 69.3867 200.671 69.2382 200.491 69.0542C200.28 68.8392 199.741 68.7217 198.954 68.7217C198.288 68.7217 197.742 68.6219 197.742 68.5C197.742 68.3758 197.14 68.2739 196.383 68.2694C195.618 68.265 194.787 68.1253 194.481 67.9458C194.074 67.7086 193.07 67.6266 190.499 67.6221C188.264 67.6155 187.109 67.5357 187.196 67.3916C187.283 67.2497 186.546 67.1699 185.144 67.1699C183.83 67.1699 182.956 67.2586 182.956 67.3916C182.956 67.5312 181.65 67.6133 179.471 67.6133C176.864 67.6133 175.787 67.6975 175.205 67.9458C174.767 68.132 173.765 68.2783 172.928 68.2783C172.076 68.2783 171.432 68.3736 171.432 68.5C171.432 68.6219 170.86 68.7217 170.153 68.7217C169.451 68.7217 168.525 68.8724 168.094 69.0542C167.666 69.2382 166.822 69.3867 166.22 69.3867C165.617 69.3867 165.126 69.4865 165.126 69.6084C165.126 69.737 164.443 69.8301 163.513 69.8301C162.625 69.8301 161.869 69.9254 161.827 70.0407C161.788 70.156 161.121 70.3178 160.342 70.3976C159.564 70.4774 158.835 70.6326 158.722 70.7412C158.609 70.8498 157.85 70.9385 157.037 70.9385C156.196 70.9385 155.559 71.0338 155.559 71.1602C155.559 71.2821 154.993 71.3819 154.295 71.3819C153.521 71.3819 152.869 71.5082 152.61 71.7077C152.338 71.9161 151.664 72.0358 150.72 72.0403C149.892 72.0447 149.253 72.1444 149.253 72.2686C149.253 72.395 148.607 72.4903 147.748 72.4903C146.767 72.4903 146.215 72.5834 146.156 72.7585C146.104 72.9226 145.465 73.06 144.508 73.1154C143.649 73.1642 142.947 73.2928 142.947 73.4014C142.947 73.51 142.212 73.5987 141.316 73.5987C140.42 73.5987 139.685 73.6874 139.685 73.7938C139.685 73.9024 139.031 74.0332 138.231 74.0842C137.374 74.1396 136.741 74.2881 136.691 74.4433C136.637 74.6118 136.095 74.7071 135.21 74.7071C134.425 74.7071 133.814 74.8046 133.814 74.9288C133.814 75.0551 133.192 75.1505 132.386 75.1505C131.405 75.1505 130.855 75.2547 130.631 75.483C130.407 75.7091 129.859 75.8155 128.907 75.8155C128.12 75.8155 127.508 75.9131 127.508 76.0372C127.508 76.1636 126.863 76.2589 126.004 76.2589C125.158 76.2589 124.469 76.3586 124.425 76.4894C124.384 76.6158 123.642 76.7798 122.777 76.853C121.912 76.9284 121.203 77.0725 121.203 77.1789C121.203 77.2831 120.37 77.3673 119.354 77.3673C118.267 77.3673 117.506 77.4582 117.506 77.589C117.506 77.7153 116.854 77.8107 115.984 77.8107C115.114 77.8107 114.462 77.7153 114.462 77.589C114.462 77.4582 113.701 77.3673 112.614 77.3673C111.526 77.3673 110.765 77.2764 110.765 77.1456C110.765 77.0237 110.322 76.9239 109.78 76.9239C109.104 76.9239 108.756 76.8197 108.669 76.5914C108.584 76.3653 108.239 76.2589 107.589 76.2589C107.065 76.2589 106.634 76.1591 106.634 76.0372C106.634 75.9153 106.408 75.8155 106.132 75.8155C105.856 75.8155 105.44 75.6692 105.208 75.4896C104.975 75.3101 104.566 75.1616 104.297 75.1571C104.027 75.1527 103.807 75.0507 103.807 74.9288C103.807 74.8069 103.605 74.7071 103.357 74.7071C103.109 74.7071 102.759 74.5586 102.581 74.3746C102.4 74.1928 102.066 74.0421 101.835 74.0421C101.605 74.0421 101.415 73.9423 101.415 73.8204C101.415 73.6984 101.268 73.5987 101.089 73.5987C100.911 73.5987 100.763 73.4989 100.763 73.377C100.763 73.2551 100.52 73.1553 100.219 73.1553C99.8802 73.1553 99.6758 73.029 99.6758 72.8228C99.6758 72.6344 99.4801 72.4903 99.2279 72.4903C98.9822 72.4903 98.8409 72.3905 98.9148 72.2686C98.9887 72.1467 98.8909 72.0469 98.6995 72.0469C98.5082 72.0469 98.1233 71.7986 97.8472 71.4927C97.5688 71.189 97.234 70.9385 97.1013 70.9385C96.7882 70.9385 94.8921 69.0054 94.8921 68.6862C94.8921 68.551 94.6486 68.2096 94.3485 67.9258C94.0506 67.6443 93.8049 67.2586 93.8049 67.0701C93.8049 66.8817 93.7071 66.7265 93.5875 66.7265C93.4679 66.7265 93.37 66.5758 93.37 66.394C93.37 66.2122 93.283 66.0615 93.1765 66.0615C93.0699 66.0615 92.9199 65.7134 92.8416 65.2856C92.7612 64.8577 92.6046 64.5097 92.4894 64.5097C92.3698 64.5097 92.2828 63.2705 92.2828 61.517C92.2828 59.7635 92.3698 58.5243 92.4894 58.5243C92.6046 58.5243 92.7612 58.1762 92.8416 57.7484C92.9199 57.3205 93.0699 56.9725 93.1765 56.9725C93.283 56.9725 93.37 56.7685 93.37 56.5202C93.37 56.2697 93.6135 55.7976 93.9136 55.4695C94.2115 55.1392 94.4572 54.7446 94.4572 54.5916C94.4572 54.4386 94.5551 54.3123 94.6747 54.3123C94.7943 54.3123 94.8921 54.1615 94.8921 53.9798C94.8921 53.798 94.9943 53.6472 95.1204 53.6472C95.2444 53.6472 95.5923 53.3967 95.8902 53.093C96.1902 52.7871 96.5555 52.5388 96.7012 52.5388C96.8491 52.5388 97.1122 52.3393 97.284 52.0955C97.4558 51.8516 97.7232 51.6521 97.8754 51.6521C98.0276 51.6521 98.1538 51.5546 98.1538 51.4348C98.1538 51.3151 98.3995 51.1555 98.6974 51.0779C98.9974 51.0026 99.241 50.8496 99.241 50.741C99.241 50.6324 99.4258 50.5437 99.6519 50.5437C99.8781 50.5437 100.122 50.3929 100.189 50.2112C100.259 50.0272 100.513 49.8786 100.757 49.8786C101 49.8786 101.198 49.7789 101.198 49.6569C101.198 49.535 101.441 49.4353 101.742 49.4353C102.042 49.4353 102.285 49.3355 102.285 49.2136C102.285 49.0917 102.511 48.9919 102.787 48.9919C103.064 48.9919 103.479 48.8456 103.712 48.666C103.944 48.4865 104.451 48.3379 104.84 48.3335C105.229 48.3291 105.547 48.2271 105.547 48.1052C105.547 47.9832 105.969 47.8835 106.484 47.8835C106.999 47.8835 107.61 47.7372 107.843 47.5576C108.076 47.378 108.73 47.2295 109.298 47.2251C109.865 47.2207 110.331 47.1187 110.331 46.9968C110.331 46.8704 110.952 46.7751 111.759 46.7751C112.74 46.7751 113.29 46.6709 113.514 46.4425C113.716 46.2364 114.249 46.11 114.912 46.11C115.501 46.11 115.984 46.0103 115.984 45.8883C115.984 45.7642 116.599 45.6667 117.397 45.6667C118.176 45.6667 118.811 45.578 118.811 45.4716C118.811 45.3629 119.465 45.2322 120.265 45.1812C121.122 45.1258 121.755 44.9772 121.805 44.822C121.862 44.6514 122.425 44.5582 123.394 44.5582C124.253 44.5582 124.899 44.4629 124.899 44.3366C124.899 44.2124 125.482 44.1149 126.21 44.1149C127.176 44.1149 127.554 44.0262 127.648 43.7824C127.739 43.5385 128.115 43.4498 129.055 43.4498C129.763 43.4498 130.335 43.3501 130.335 43.2281C130.335 43.1018 130.981 43.0065 131.84 43.0065C132.779 43.0065 133.375 42.9111 133.427 42.7515C133.473 42.6119 134.069 42.4478 134.749 42.3902C135.432 42.3348 135.989 42.1995 135.989 42.0931C135.989 41.9845 136.576 41.898 137.293 41.898C138.011 41.898 138.598 41.8094 138.598 41.703C138.598 41.5966 139.205 41.4636 139.944 41.4081C140.701 41.3527 141.329 41.1953 141.377 41.049C141.429 40.8894 141.958 40.7896 142.747 40.7896C143.46 40.7896 144.034 40.6899 144.034 40.568C144.034 40.446 144.51 40.3463 145.095 40.3463C145.771 40.3463 146.252 40.2266 146.426 40.0137C146.6 39.8009 147.081 39.6812 147.757 39.6812C148.342 39.6812 148.818 39.5815 148.818 39.4595C148.818 39.3376 149.348 39.2379 149.996 39.2379C150.703 39.2379 151.208 39.1337 151.258 38.9785C151.305 38.8344 151.779 38.6814 152.31 38.6393C152.841 38.595 153.308 38.4642 153.347 38.3445C153.389 38.227 153.902 38.1294 154.489 38.1294C155.078 38.1294 155.559 38.043 155.559 37.9366C155.559 37.8302 156.02 37.6905 156.585 37.6262C157.148 37.5619 157.646 37.3979 157.69 37.2649C157.733 37.1297 158.201 37.021 158.729 37.021C159.257 37.021 159.69 36.9213 159.69 36.7993C159.69 36.6774 160.081 36.5777 160.56 36.5777C161.038 36.5777 161.43 36.4713 161.43 36.3427C161.43 36.2141 161.527 36.1698 161.647 36.2451C161.767 36.3205 161.864 36.2762 161.864 36.1476C161.864 36.019 162.208 35.9126 162.625 35.9126C163.043 35.9126 163.387 35.8129 163.387 35.6909C163.387 35.569 163.865 35.4692 164.45 35.4692C165.152 35.4692 165.554 35.3651 165.628 35.1655C165.691 34.9971 166.018 34.8596 166.35 34.8596C166.683 34.8596 166.994 34.7466 167.037 34.6113C167.083 34.4717 167.59 34.3608 168.188 34.3608C168.777 34.3608 169.257 34.2611 169.257 34.1392C169.257 34.0172 169.494 33.9175 169.786 33.9175C170.075 33.9175 170.46 33.7667 170.64 33.5849C170.819 33.4009 171.267 33.2524 171.634 33.2524C172.002 33.2524 172.302 33.1527 172.302 33.0307C172.302 32.9088 172.693 32.8091 173.171 32.8091C173.8 32.8091 174.041 32.7159 174.041 32.4765C174.041 32.2438 174.272 32.144 174.802 32.144C175.22 32.144 175.563 32.0443 175.563 31.9223C175.563 31.8004 175.907 31.7006 176.324 31.7006C176.742 31.7006 177.085 31.6142 177.085 31.5078C177.085 31.4014 177.477 31.2506 177.955 31.173C178.434 31.0932 178.825 30.9314 178.825 30.8117C178.825 30.6898 179.169 30.5922 179.586 30.5922C180.003 30.5922 180.347 30.4925 180.347 30.3705C180.347 30.2486 180.584 30.1489 180.875 30.1489C181.165 30.1489 181.549 29.9981 181.73 29.8163C181.908 29.6323 182.258 29.4838 182.506 29.4838C182.754 29.4838 182.956 29.3841 182.956 29.2621C182.956 29.1402 183.289 29.0404 183.693 29.0404C184.15 29.0404 184.481 28.9141 184.557 28.7079C184.631 28.5128 184.957 28.3754 185.342 28.3754C185.705 28.3754 186.001 28.2756 186.001 28.1537C186.001 28.0318 186.244 27.932 186.544 27.932C186.844 27.932 187.088 27.8323 187.088 27.7104C187.088 27.5884 187.325 27.4887 187.616 27.4887C187.905 27.4887 188.29 27.3401 188.471 27.1561C188.649 26.9744 188.999 26.8236 189.247 26.8236C189.495 26.8236 189.697 26.7239 189.697 26.6019C189.697 26.48 189.949 26.3803 190.256 26.3803C190.565 26.3803 190.963 26.2295 191.141 26.0477C191.321 25.8637 191.656 25.7152 191.887 25.7152C192.117 25.7152 192.306 25.6154 192.306 25.4935C192.306 25.3716 192.6 25.2718 192.959 25.2718C193.317 25.2718 193.611 25.1743 193.611 25.0546C193.611 24.9349 193.855 24.7753 194.155 24.6977C194.453 24.6223 194.698 24.4693 194.698 24.3607C194.698 24.2521 194.992 24.1634 195.351 24.1634C195.709 24.1634 196.003 24.0748 196.003 23.9661C196.003 23.8575 196.246 23.7045 196.547 23.6292C196.844 23.5516 197.09 23.392 197.09 23.2723C197.09 23.1526 197.334 23.055 197.634 23.055C197.934 23.055 198.177 22.9553 198.177 22.8333C198.177 22.7114 198.421 22.6116 198.721 22.6116C199.021 22.6116 199.265 22.5141 199.265 22.3944C199.265 22.2747 199.508 22.1151 199.808 22.0375C200.106 21.9621 200.352 21.8092 200.352 21.7005C200.352 21.5919 200.595 21.5032 200.895 21.5032C201.195 21.5032 201.439 21.4079 201.439 21.2926C201.439 21.1751 201.783 21.0155 202.2 20.9335C202.618 20.8537 202.961 20.7007 202.961 20.5921C202.961 20.4835 203.205 20.3948 203.505 20.3948C203.805 20.3948 204.048 20.2951 204.048 20.1731C204.048 20.0512 204.251 19.9515 204.498 19.9515C204.746 19.9515 205.096 19.8029 205.275 19.6189C205.455 19.4349 205.84 19.2864 206.129 19.2864C206.421 19.2864 206.658 19.1866 206.658 19.0647C206.658 18.9428 206.86 18.843 207.108 18.843C207.356 18.843 207.706 18.6945 207.884 18.5105C208.064 18.3287 208.449 18.178 208.739 18.178C209.03 18.178 209.267 18.0782 209.267 17.9563C209.267 17.8344 209.61 17.7346 210.028 17.7346C210.445 17.7346 210.789 17.6349 210.789 17.5129C210.789 17.391 211.022 17.2913 211.307 17.2913C211.591 17.2913 211.946 17.1405 212.094 16.9587C212.242 16.7747 212.646 16.6262 212.99 16.6262C213.335 16.6262 213.616 16.5265 213.616 16.4045C213.616 16.2826 213.916 16.1828 214.283 16.1828C214.651 16.1828 215.099 16.0321 215.277 15.8503C215.457 15.6663 215.89 15.5178 216.24 15.5178C216.59 15.5178 216.877 15.418 216.877 15.2961C216.877 15.1742 217.208 15.0744 217.612 15.0744C218.017 15.0744 218.469 14.9259 218.617 14.7419C218.765 14.5601 219.217 14.4094 219.622 14.4094C220.026 14.4094 220.356 14.3096 220.356 14.1877C220.356 14.0658 220.791 13.966 221.322 13.966C221.852 13.966 222.348 13.8663 222.422 13.7443C222.496 13.6224 222.885 13.5227 223.29 13.5227C223.692 13.5227 224.168 13.3741 224.349 13.1901C224.542 12.9906 225.075 12.8576 225.669 12.8576C226.214 12.8576 226.662 12.7578 226.662 12.6359C226.662 12.514 227.11 12.4142 227.656 12.4142C228.25 12.4142 228.782 12.2812 228.976 12.0817C229.178 11.8755 229.711 11.7492 230.374 11.7492C230.963 11.7492 231.446 11.6494 231.446 11.5275C231.446 11.3989 232.129 11.3058 233.059 11.3058C233.947 11.3058 234.703 11.2061 234.745 11.0864C234.784 10.9644 235.721 10.8004 236.828 10.7206C237.935 10.6408 238.839 10.49 238.839 10.3858C238.839 10.2816 240.405 10.1974 242.318 10.1974C244.493 10.1974 245.797 10.1132 245.797 9.97573C245.797 9.83607 247.248 9.75404 249.711 9.75404C252.038 9.75404 253.625 9.8405 253.625 9.96464C253.625 10.0844 255.019 10.2174 256.832 10.2728C260.544 10.3881 263.819 10.7472 264.143 11.0775C264.267 11.2038 264.934 11.3058 265.628 11.3058C266.324 11.3058 266.889 11.4056 266.889 11.5275C266.889 11.6494 267.431 11.7492 268.092 11.7492C268.961 11.7492 269.329 11.8423 269.42 12.0817C269.507 12.3145 269.864 12.4142 270.61 12.4142C271.195 12.4142 271.673 12.514 271.673 12.6359C271.673 12.7578 272.071 12.8576 272.558 12.8576C273.056 12.8576 273.586 13.0039 273.769 13.1901C273.95 13.3741 274.382 13.5227 274.732 13.5227C275.082 13.5227 275.369 13.6224 275.369 13.7443C275.369 13.8663 275.713 13.966 276.13 13.966C276.548 13.966 276.892 14.0658 276.892 14.1877C276.892 14.3096 277.192 14.4094 277.559 14.4094C277.927 14.4094 278.374 14.5579 278.553 14.7419C278.733 14.9237 279.173 15.0744 279.529 15.0744C279.907 15.0744 280.123 15.1675 280.044 15.2961C279.964 15.4291 280.225 15.5178 280.69 15.5178C281.184 15.5178 281.517 15.6397 281.597 15.8503C281.669 16.041 281.993 16.1828 282.352 16.1828C282.697 16.1828 282.98 16.2826 282.98 16.4045C282.98 16.5265 283.273 16.6262 283.632 16.6262C283.991 16.6262 284.285 16.7238 284.285 16.8435C284.285 16.9632 284.528 17.1228 284.828 17.2004C285.128 17.2757 285.372 17.4287 285.372 17.5373C285.372 17.646 285.665 17.7346 286.024 17.7346C286.383 17.7346 286.676 17.8233 286.676 17.9319C286.676 18.0405 286.92 18.1935 287.22 18.2689C287.52 18.3465 287.764 18.5061 287.764 18.6258C287.764 18.7455 288.007 18.843 288.307 18.843C288.607 18.843 288.851 18.9428 288.851 19.0647C288.851 19.1866 289.094 19.2864 289.394 19.2864C289.734 19.2864 289.938 19.4128 289.938 19.6189C289.938 19.8251 290.142 19.9515 290.482 19.9515C290.782 19.9515 291.025 20.0268 291.025 20.1199C291.025 20.213 291.432 20.4879 291.928 20.7296C293.365 21.4323 293.635 21.5986 293.635 21.7781C293.635 21.8712 293.878 21.9466 294.178 21.9466C294.517 21.9466 294.722 22.073 294.722 22.2791C294.722 22.4631 294.915 22.6116 295.157 22.6116C295.396 22.6116 295.592 22.7114 295.592 22.8333C295.592 22.9553 295.737 23.055 295.918 23.055C296.098 23.055 296.244 23.1526 296.244 23.2723C296.244 23.392 296.487 23.5516 296.788 23.6292C297.088 23.7045 297.331 23.8575 297.331 23.9661C297.331 24.0748 297.435 24.1634 297.564 24.1634C297.692 24.1634 297.933 24.2876 298.101 24.4405C298.821 25.0989 299.066 25.2718 299.279 25.2718C299.403 25.2718 299.506 25.3716 299.506 25.4935C299.506 25.6154 299.688 25.7152 299.91 25.7152C300.132 25.7152 300.497 25.9657 300.723 26.2694C300.947 26.5753 301.352 26.8236 301.623 26.8236C301.893 26.8236 302.115 26.93 302.115 27.0608C302.115 27.369 302.667 27.932 302.969 27.932C303.098 27.932 303.202 28.0251 303.202 28.1382C303.202 28.2535 303.42 28.4153 303.685 28.5018C303.952 28.5882 304.583 29.0937 305.092 29.6257C305.598 30.1577 306.211 30.5922 306.455 30.5922C306.699 30.5922 306.899 30.6986 306.899 30.8294C306.899 31.0888 307.434 31.7006 307.66 31.7006C307.886 31.7006 308.421 32.3125 308.421 32.5719C308.421 32.7026 308.623 32.8091 308.869 32.8091C309.114 32.8091 309.256 32.9088 309.182 33.0307C309.108 33.1527 309.249 33.2524 309.495 33.2524C309.747 33.2524 309.943 33.3965 309.943 33.5849C309.943 33.7667 310.049 33.9175 310.18 33.9175C310.31 33.9175 310.845 34.3675 311.367 34.915C311.891 35.4626 312.415 35.9126 312.535 35.9126C312.652 35.9126 312.994 36.1609 313.294 36.4668C313.591 36.7727 313.939 37.021 314.063 37.021C314.189 37.021 314.292 37.1274 314.292 37.2582C314.292 37.5132 314.827 38.1294 315.046 38.1294C315.174 38.1294 315.472 38.3578 316.131 38.9608C316.299 39.1137 316.494 39.2379 316.568 39.2379C316.642 39.2379 316.966 39.4884 317.288 39.7921C317.612 40.098 317.962 40.3463 318.071 40.3463C318.177 40.3463 318.49 40.5946 318.769 40.9005C319.045 41.2064 319.423 41.4547 319.608 41.4547C319.793 41.4547 319.945 41.5544 319.945 41.6764C319.945 41.7983 320.091 41.898 320.271 41.898C320.452 41.898 320.597 41.9756 320.597 42.0687C320.597 42.1641 320.941 42.4279 321.359 42.6584C321.776 42.889 322.12 43.1594 322.12 43.2636C322.12 43.3656 322.363 43.4498 322.663 43.4498C323.002 43.4498 323.207 43.5762 323.207 43.7824C323.207 43.9664 323.4 44.1149 323.642 44.1149C323.881 44.1149 324.077 44.2146 324.077 44.3366C324.077 44.4585 324.222 44.5582 324.403 44.5582C324.583 44.5582 324.729 44.6469 324.729 44.7555C324.729 44.8642 324.972 45.0171 325.272 45.0925C325.573 45.1701 325.816 45.3297 325.816 45.4494C325.816 45.5691 326.06 45.6667 326.36 45.6667C326.66 45.6667 326.903 45.7664 326.903 45.8883C326.903 46.0103 327.101 46.11 327.345 46.11C327.588 46.11 327.843 46.2608 327.912 46.4425C327.98 46.6265 328.278 46.7751 328.571 46.7751C328.871 46.7751 329.045 46.8726 328.969 46.9968C328.893 47.1209 329.067 47.2184 329.367 47.2184C329.66 47.2184 329.958 47.3692 330.026 47.551C330.095 47.735 330.404 47.8835 330.715 47.8835C331.035 47.8835 331.22 47.9788 331.143 48.1052C331.067 48.2315 331.25 48.3269 331.565 48.3269C331.872 48.3269 332.122 48.4222 332.122 48.5374C332.122 48.6549 332.466 48.8146 332.883 48.8966C333.3 48.9764 333.644 49.1293 333.644 49.238C333.644 49.3466 333.888 49.4353 334.188 49.4353C334.488 49.4353 334.731 49.535 334.731 49.6569C334.731 49.7789 334.966 49.8786 335.251 49.8786C335.538 49.8786 335.829 50.0294 335.897 50.2112C335.966 50.3929 336.221 50.5437 336.464 50.5437C336.708 50.5437 336.906 50.6434 336.906 50.7654C336.906 50.8873 337.143 50.987 337.434 50.987C337.723 50.987 338.108 51.1378 338.289 51.3196C338.467 51.5036 338.817 51.6521 339.065 51.6521C339.313 51.6521 339.515 51.7519 339.515 51.8738C339.515 51.9957 339.759 52.0955 340.059 52.0955C340.359 52.0955 340.602 52.1952 340.602 52.3171C340.602 52.4391 340.774 52.541 340.983 52.5455C341.191 52.5499 341.552 52.6984 341.785 52.878C342.018 53.0576 342.433 53.2039 342.709 53.2039C342.985 53.2039 343.212 53.3036 343.212 53.4256C343.212 53.5475 343.455 53.6472 343.755 53.6472C344.094 53.6472 344.299 53.7736 344.299 53.9798C344.299 54.1859 344.503 54.3123 344.842 54.3123C345.142 54.3123 345.386 54.412 345.386 54.534C345.386 54.6559 345.629 54.7557 345.93 54.7557C346.23 54.7557 346.473 54.8621 346.473 54.9906C346.473 55.1192 346.571 55.1635 346.691 55.0882C346.81 55.0128 346.908 55.0571 346.908 55.1857C346.908 55.3143 347.152 55.4207 347.452 55.4207C347.752 55.4207 347.995 55.5205 347.995 55.6424C347.995 55.7643 348.239 55.8641 348.539 55.8641C348.839 55.8641 349.082 55.9638 349.082 56.0858C349.082 56.2077 349.254 56.3096 349.463 56.3141C349.672 56.3185 350.033 56.467 350.265 56.6466C350.498 56.8262 350.865 56.9725 351.081 56.9725C351.298 56.9725 351.474 57.0722 351.474 57.1942C351.474 57.3161 351.722 57.4158 352.024 57.4158C352.327 57.4158 352.631 57.5666 352.701 57.7484C352.768 57.9324 353.059 58.0809 353.346 58.0809C353.631 58.0809 353.866 58.1807 353.866 58.3026C353.866 58.4245 354.068 58.5243 354.316 58.5243C354.564 58.5243 354.914 58.675 355.093 58.8568C355.273 59.0386 355.608 59.1893 355.838 59.1893C356.069 59.1893 356.258 59.2891 356.258 59.411C356.258 59.5329 356.502 59.6327 356.802 59.6327C357.102 59.6327 357.345 59.7324 357.345 59.8544C357.345 59.9763 357.593 60.076 357.895 60.076C358.198 60.076 358.502 60.2268 358.572 60.4086C358.639 60.5926 358.93 60.7411 359.217 60.7411C359.502 60.7411 359.737 60.8408 359.737 60.9628C359.737 61.0847 359.913 61.1845 360.131 61.1845C360.346 61.1845 360.713 61.3308 360.946 61.5103C361.179 61.6899 361.54 61.8384 361.749 61.8428C361.957 61.8473 362.129 61.9493 362.129 62.0712C362.129 62.1931 362.373 62.2929 362.673 62.2929C362.973 62.2929 363.216 62.3882 363.216 62.5035C363.216 62.621 363.56 62.7806 363.977 62.8626C364.395 62.9424 364.738 63.0954 364.738 63.204C364.738 63.3126 364.884 63.4013 365.064 63.4013C365.245 63.4013 365.391 63.552 365.391 63.7338C365.391 63.9156 365.488 64.0663 365.608 64.0663C365.728 64.0663 365.826 64.2459 365.826 64.4676C365.826 64.687 365.969 65.0617 366.145 65.2989C366.321 65.5361 366.467 66.0526 366.471 66.4494C366.476 66.8462 366.576 67.1699 366.695 67.1699C366.832 67.1699 366.913 68.6884 366.913 71.2843C366.913 73.9711 366.837 75.35 366.695 75.2613C366.558 75.1749 366.478 75.6936 366.478 76.6623C366.478 77.5269 366.334 78.5489 366.152 78.9967C365.971 79.4334 365.826 80.1938 365.826 80.6859C365.826 81.178 365.728 81.5793 365.608 81.5793C365.488 81.5793 365.391 82.0692 365.391 82.67C365.391 83.2685 365.286 83.7939 365.16 83.8382C365.032 83.8803 364.873 84.3392 364.804 84.8535C364.736 85.37 364.597 85.7912 364.493 85.7912C364.388 85.7912 364.303 86.1903 364.303 86.678C364.303 87.1657 364.206 87.5647 364.086 87.5647C363.966 87.5647 363.869 87.895 363.869 88.2985C363.869 88.7019 363.725 89.2251 363.549 89.4623C363.373 89.6995 363.227 90.216 363.223 90.6128C363.218 91.0097 363.118 91.3333 362.999 91.3333C362.879 91.3333 362.781 91.5749 362.781 91.872C362.781 92.1668 362.636 92.5592 362.455 92.7432C362.275 92.925 362.129 93.3817 362.129 93.7563C362.129 94.131 362.031 94.4369 361.912 94.4369C361.792 94.4369 361.694 94.7273 361.694 95.0842C361.694 95.4389 361.594 95.7648 361.472 95.8047C361.351 95.8468 361.196 96.1793 361.133 96.5451C361.068 96.9086 360.924 97.2412 360.811 97.2811C360.698 97.3232 360.607 97.5914 360.607 97.8774C360.607 98.1656 360.509 98.4626 360.389 98.538C360.27 98.6134 360.172 98.9215 360.172 99.223C360.172 99.5245 360.026 99.8282 359.846 99.8991C359.665 99.9679 359.52 100.265 359.52 100.558C359.52 100.848 359.422 101.087 359.302 101.087C359.183 101.087 359.085 101.389 359.085 101.759C359.085 102.151 358.95 102.484 358.759 102.559C358.578 102.628 358.432 102.925 358.432 103.218C358.432 103.508 358.335 103.748 358.215 103.748C358.095 103.748 357.998 103.996 357.998 104.302C357.998 104.608 357.911 104.856 357.804 104.856C357.698 104.856 357.547 105.204 357.469 105.632C357.389 106.06 357.232 106.408 357.117 106.408C357.004 106.408 356.91 106.656 356.91 106.962C356.91 107.268 356.813 107.516 356.693 107.516C356.573 107.516 356.475 107.718 356.475 107.966C356.475 108.214 356.33 108.474 356.149 108.545C355.969 108.613 355.823 108.862 355.823 109.092C355.823 109.323 355.725 109.511 355.606 109.511C355.486 109.511 355.388 109.751 355.388 110.041C355.388 110.334 355.243 110.631 355.062 110.7C354.882 110.77 354.736 111.03 354.736 111.278C354.736 111.526 354.638 111.728 354.519 111.728C354.399 111.728 354.301 111.976 354.301 112.282C354.301 112.588 354.205 112.837 354.088 112.837C353.971 112.837 353.814 113.085 353.738 113.391C353.664 113.697 353.514 113.945 353.407 113.945C353.301 113.945 353.214 114.144 353.214 114.388C353.214 114.632 353.127 114.832 353.02 114.832C352.914 114.832 352.764 115.08 352.69 115.386C352.614 115.692 352.457 115.94 352.34 115.94C352.222 115.94 352.127 116.089 352.127 116.273C352.127 116.457 352.029 116.605 351.909 116.605C351.79 116.605 351.692 116.853 351.692 117.159C351.692 117.505 351.568 117.714 351.366 117.714C351.185 117.714 351.039 117.911 351.039 118.157C351.039 118.401 350.942 118.6 350.822 118.6C350.702 118.6 350.605 118.749 350.605 118.933C350.605 119.117 350.507 119.265 350.387 119.265C350.268 119.265 350.17 119.514 350.17 119.82C350.17 120.165 350.046 120.374 349.844 120.374C349.663 120.374 349.517 120.571 349.517 120.817C349.517 121.061 349.419 121.26 349.3 121.26C349.18 121.26 349.082 121.409 349.082 121.593C349.082 121.777 348.937 121.926 348.756 121.926C348.554 121.926 348.43 122.134 348.43 122.48C348.43 122.786 348.348 123.034 348.247 123.034C348.145 123.034 347.88 123.384 347.654 123.81C347.428 124.235 347.169 124.586 347.075 124.586C346.984 124.586 346.908 124.69 346.908 124.816C346.908 124.945 346.664 125.317 346.364 125.645C346.064 125.976 345.821 126.326 345.821 126.428C345.821 126.528 345.477 126.94 345.06 127.343C344.642 127.745 344.299 128.193 344.299 128.337C344.299 128.478 344.055 128.829 343.755 129.11C343.455 129.394 343.212 129.696 343.212 129.782C343.212 130.024 342.618 130.571 342.357 130.571C342.229 130.571 342.124 130.726 342.124 130.917C342.124 131.108 342.026 131.201 341.907 131.125C341.787 131.05 341.689 131.101 341.689 131.238C341.689 131.558 341.141 132.123 340.835 132.123C340.707 132.123 340.602 132.229 340.602 132.36C340.602 132.668 340.05 133.231 339.748 133.231C339.619 133.231 339.515 133.387 339.515 133.577C339.515 133.768 339.417 133.861 339.298 133.786C339.178 133.71 339.08 133.803 339.08 133.994C339.08 134.185 338.976 134.34 338.847 134.34C338.719 134.34 338.478 134.464 338.31 134.617C337.591 135.275 337.345 135.448 337.132 135.448C337.008 135.448 336.906 135.548 336.906 135.67C336.906 135.792 336.703 135.892 336.456 135.892C336.208 135.892 335.858 136.04 335.679 136.224C335.449 136.459 334.886 136.557 333.753 136.557C332.62 136.557 332.057 136.459 331.826 136.224Z" fill="white"/>
</svg>
