<svg width="415" height="415" viewBox="0 0 415 415" fill="none" xmlns="http://www.w3.org/2000/svg">
<path d="M204.504 415C317.449 415 409.009 323.33 409.009 210.249C409.009 170.017 397.419 132.495 377.4 100.848C371.631 100.638 369.159 105.177 366.513 107.557C385.33 137.253 396.227 172.477 396.227 210.249C396.227 316.262 310.39 402.203 204.504 402.203C98.6188 402.203 12.7815 316.262 12.7815 210.249C12.7815 104.236 98.6188 18.2954 204.504 18.2954C242.007 18.2954 276.994 29.076 306.544 47.7109C310.795 46.8433 312.089 43.5035 313.992 37.2836C282.337 17.1555 244.78 5.49847 204.504 5.49847C91.5597 5.49847 0 97.1685 0 210.249C0 323.33 91.5597 415 204.504 415Z" fill="url(#paint0_linear_6004_3899)"/>
<path d="M351.047 105.026C353.347 96.5253 359.691 90.9038 368.439 88.7101C377.186 86.5163 379.394 85.9033 379.394 85.9033L415 76.7815L375.697 66.4437C375.697 66.4437 375.012 66.3337 366.521 64.0303C358.031 61.7269 352.416 55.3758 350.225 46.6173C348.034 37.8589 347.422 35.6486 347.422 35.6486L338.311 0L327.985 39.3505C327.985 39.3505 327.875 40.0361 325.575 48.5369C323.274 57.0377 316.931 62.6592 308.183 64.853C299.435 67.0467 297.227 67.6597 297.227 67.6597L261.622 76.7815L300.925 87.1194C300.925 87.1194 301.609 87.2294 310.1 89.5327C318.591 91.8361 324.205 98.1872 326.397 106.946C328.588 115.704 329.2 117.914 329.2 117.914L338.311 153.563L348.636 114.212C348.636 114.212 348.746 113.527 351.047 105.026Z" fill="url(#paint1_linear_6004_3899)"/>
<path d="M295.675 329.055C297.209 323.388 301.438 319.64 307.27 318.178C313.102 316.715 314.574 316.307 314.574 316.307L338.311 310.226L312.109 303.334C312.109 303.334 311.652 303.26 305.992 301.725C300.332 300.189 296.588 295.955 295.128 290.116C293.667 284.277 293.259 282.804 293.259 282.804L287.185 259.038L280.301 285.272C280.301 285.272 280.228 285.729 278.694 291.396C277.16 297.063 272.931 300.811 267.1 302.273C261.268 303.736 259.796 304.144 259.796 304.144L236.059 310.226L262.261 317.117C262.261 317.117 262.717 317.191 268.378 318.726C274.038 320.262 277.781 324.496 279.242 330.335C280.703 336.174 281.111 337.647 281.111 337.647L287.185 361.413L294.068 335.18C294.068 335.18 294.142 334.722 295.675 329.055Z" fill="url(#paint2_linear_6004_3899)"/>
<path d="M222.278 51.0174C127.037 67.7514 62.9742 124.321 45.5822 228.045C37.7225 120.786 115.359 44.1292 222.278 51.0174Z" fill="url(#paint3_linear_6004_3899)"/>
<path d="M255.845 180.727C254.234 163.955 239.766 158.333 221.5 156.732L221.499 133.468L207.349 133.47L207.35 156.12C203.63 156.12 199.827 156.194 196.049 156.269L196.051 133.469L181.908 133.469L181.903 156.725C178.839 156.788 175.831 156.845 172.897 156.847L172.895 156.775L153.378 156.768L153.382 171.892C153.382 171.892 163.831 171.692 163.658 171.885C169.389 171.887 171.255 175.217 171.797 178.09L171.799 204.592C172.194 204.594 172.71 204.61 173.294 204.691C172.823 204.691 172.318 204.688 171.8 204.692L171.796 241.819C171.544 243.624 170.484 246.502 166.48 246.509C166.661 246.67 156.193 246.506 156.193 246.506L153.382 263.417L171.797 263.417C175.224 263.421 178.595 263.479 181.906 263.5L181.912 287.028L196.047 287.031L196.047 263.751C199.928 263.831 203.684 263.862 207.351 263.859L207.345 287.031L221.495 287.03L221.5 263.543C245.29 262.177 261.941 256.18 264.008 233.824C265.678 215.823 257.216 207.79 243.711 204.545C251.915 200.365 257.045 192.999 255.845 180.727ZM236.047 231.036C236.055 248.619 205.969 246.619 196.379 246.628L196.383 215.454C205.976 215.456 236.049 212.696 236.047 231.036ZM229.466 187.054C229.462 203.051 204.37 201.184 196.382 201.185L196.383 172.912C204.371 172.911 229.464 170.369 229.466 187.054Z" fill="url(#paint4_linear_6004_3899)"/>
<defs>
<linearGradient id="paint0_linear_6004_3899" x1="204.504" y1="5.49847" x2="204.504" y2="415" gradientUnits="userSpaceOnUse">
<stop stop-color="#1AC5EC"/>
<stop offset="0.501419" stop-color="#5475FD"/>
<stop offset="1" stop-color="#091C48"/>
</linearGradient>
<linearGradient id="paint1_linear_6004_3899" x1="338.311" y1="0" x2="338.311" y2="153.563" gradientUnits="userSpaceOnUse">
<stop stop-color="#1AC5EC"/>
<stop offset="0.9999" stop-color="#5475FD"/>
<stop offset="1" stop-color="#091C48"/>
</linearGradient>
<linearGradient id="paint2_linear_6004_3899" x1="287.185" y1="259.038" x2="287.185" y2="361.413" gradientUnits="userSpaceOnUse">
<stop stop-color="#5475FD"/>
<stop offset="0.9999" stop-color="#091C48"/>
<stop offset="1" stop-color="#091C48"/>
</linearGradient>
<linearGradient id="paint3_linear_6004_3899" x1="133.657" y1="50.5877" x2="133.657" y2="228.045" gradientUnits="userSpaceOnUse">
<stop stop-color="#1AC5EC"/>
<stop offset="1" stop-color="#5475FD"/>
</linearGradient>
<linearGradient id="paint4_linear_6004_3899" x1="182.652" y1="133.283" x2="182.81" y2="287.031" gradientUnits="userSpaceOnUse">
<stop stop-color="#FAAC48"/>
<stop offset="1" stop-color="#F87E2D"/>
</linearGradient>
</defs>
</svg>
