<svg xmlns="http://www.w3.org/2000/svg" width="24.499" height="42.441" viewBox="0 0 24.499 42.441">
    <defs>
        <style>
            .cls-1,.cls-3{fill:none;stroke:#1e1240;stroke-linecap:round;stroke-width:1.5px}.cls-1{stroke-miterlimit:10}.cls-3{stroke-linejoin:round}
        </style>
    </defs>
    <g id="Composant_212_7" data-name="Composant 212 – 7" transform="translate(.75 1.058)">
        <ellipse id="Ellipse_152" cx="11.337" cy="12.826" class="cls-1" data-name="Ellipse 152" rx="11.337" ry="12.826" transform="translate(.18 14.98)"/>
        <path id="Tracé_24094" fill="#fe8d8d" d="M288.576 884.907c3.04 0 6.8 1.931 9.314 5.356-1.01-5.531-5.781-8.845-9.314-8.845s-8.3 3.315-9.314 8.845c2.514-3.425 6.274-5.356 9.314-5.356z" data-name="Tracé 24094" transform="translate(-277.076 -864.609)"/>
        <g id="Groupe_9780" data-name="Groupe 9780">
            <g id="Groupe_9776" data-name="Groupe 9776" transform="translate(8.613)">
                <path id="Tracé_24095" d="M303.185 826.4a11.1 11.1 0 0 0-2.885 6.6" class="cls-1" data-name="Tracé 24095" transform="translate(-300.298 -826.404)"/>
            </g>
            <g id="Groupe_9777" data-name="Groupe 9777" transform="translate(9.192 7.361)">
                <path id="Tracé_24096" d="M304.5 850.5a5.91 5.91 0 0 0-2.308 3.933" class="cls-1" data-name="Tracé 24096" transform="translate(-302.193 -850.496)"/>
            </g>
            <path id="Tracé_24097" d="M278.517 863.506a7.736 7.736 0 0 0-6.409-6.776 7.18 7.18 0 0 1 7.244.62" class="cls-3" data-name="Tracé 24097" transform="translate(-272.108 -846.979)"/>
            <path id="Tracé_24098" d="M281.657 845.866a6.906 6.906 0 0 0-5.392-.759s2.652 1.155 3.311 3.238" class="cls-3" data-name="Tracé 24098" transform="translate(-274.995 -839.221)"/>
            <path id="Tracé_24099" d="M287.011 836.159a8.067 8.067 0 0 0-6.572-1.4 5.205 5.205 0 0 1 2.347 3.223" class="cls-3" data-name="Tracé 24099" transform="translate(-277.894 -832.091)"/>
            <g id="Groupe_9778" data-name="Groupe 9778" transform="translate(11.5)">
                <path id="Tracé_24100" d="M309.747 826.4a11.1 11.1 0 0 1 2.887 6.6" class="cls-1" data-name="Tracé 24100" transform="translate(-309.747 -826.404)"/>
            </g>
            <g id="Groupe_9779" data-name="Groupe 9779" transform="translate(11.5 7.361)">
                <path id="Tracé_24101" d="M309.746 850.5a5.91 5.91 0 0 1 2.308 3.933" class="cls-1" data-name="Tracé 24101" transform="translate(-309.746 -850.496)"/>
            </g>
            <path id="Tracé_24102" d="M324.511 863.506a7.736 7.736 0 0 1 6.409-6.776 7.179 7.179 0 0 0-7.244.62" class="cls-3" data-name="Tracé 24102" transform="translate(-307.92 -846.979)"/>
            <path id="Tracé_24103" d="M325.58 845.866a6.907 6.907 0 0 1 5.392-.759s-2.652 1.155-3.312 3.238" class="cls-3" data-name="Tracé 24103" transform="translate(-309.243 -839.221)"/>
            <path id="Tracé_24104" d="M317.545 836.159a8.066 8.066 0 0 1 6.572-1.4 5.205 5.205 0 0 0-2.347 3.223" class="cls-3" data-name="Tracé 24104" transform="translate(-303.663 -832.091)"/>
        </g>
        <g id="Groupe_9781" data-name="Groupe 9781" transform="translate(4.855 33.135)">
            <path id="Tracé_24105" d="M288 934.853c1.375 1.32 2.861 2.623 4.466 3.891a3.547 3.547 0 0 0 4.388 0c1.606-1.268 3.092-2.571 4.467-3.892" class="cls-1" data-name="Tracé 24105" transform="translate(-288 -934.852)"/>
            <path id="Tracé_24106" d="M313.672 937.431a18.3 18.3 0 0 1-3.873-2.291" class="cls-1" data-name="Tracé 24106" transform="translate(-303.139 -935.052)"/>
            <path id="Tracé_24107" d="M297.127 937.431A18.3 18.3 0 0 0 301 935.14" class="cls-1" data-name="Tracé 24107" transform="translate(-294.338 -935.052)"/>
        </g>
        <path id="Tracé_24108" d="M301.7 922.694c1.935-1.486 3.566-2.827 3.566-2.827a28.881 28.881 0 0 1-3.567-2.649 28.9 28.9 0 0 1-3.567 2.649s1.631 1.341 3.566 2.827" class="cls-1" data-name="Tracé 24108" transform="translate(-290.178 -889.473)"/>
    </g>
</svg>
