<svg xmlns="http://www.w3.org/2000/svg" width="41" height="36" viewBox="0 0 41 36"><g><g><g><path fill="none" stroke="#1e1240" stroke-linecap="round" stroke-miterlimit="20" stroke-width="1.25" d="M32.493 20.005c2.224.85 4.321-.608 4.321-.608v0l-2.349-1.553c-.031-.017-.02-.066.016-.068 3.122-.155 5-1.529 5-1.529-1.178-1.447-3.717-2.35-4.411-2.474-.044-.008-.047-.069-.004-.082l2.413-.72c-2.53-1.72-4.025-1.675-5.655-1.622-.035 0-.052-.038-.02-.051 3.678-1.553 4.582-3.48 4.582-3.48v0s-2.202-.904-4.442-.587l.58-1.446a8.866 8.866 0 0 0-2.318-.106c-2.449.217-4.663 1.61-5.962 3.697a4.628 4.628 0 0 0-.151.259"/></g><g><path fill="none" stroke="#1e1240" stroke-linecap="round" stroke-miterlimit="20" stroke-width="1.25" d="M7.988 20.005c-2.224.85-4.32-.608-4.32-.608v0l2.348-1.553c.032-.017.02-.066-.016-.068-3.122-.155-5-1.529-5-1.529 1.178-1.447 3.718-2.35 4.412-2.474.043-.008.047-.069.003-.082l-2.413-.72c2.531-1.72 4.026-1.675 5.655-1.622.035 0 .052-.038.02-.051C5 9.745 4.096 7.818 4.096 7.818v0s2.202-.904 4.443-.587l-.581-1.446a8.864 8.864 0 0 1 2.318-.106c2.449.217 4.663 1.61 5.963 3.697.054.086.104.173.15.259"/></g><g><g><path fill="none" stroke="#1e1240" stroke-linecap="round" stroke-miterlimit="20" stroke-width="1.25" d="M31.935.973v0s-4.364.334-8.472 1.717c-6.223 2.096-12.373.003-12.373.003v0"/></g><g><path fill="none" stroke="#1e1240" stroke-linecap="round" stroke-miterlimit="20" stroke-width="1.25" d="M20.45 8.891v0-1.596c.17-3.875 3.013-4.605 3.013-4.605v0"/></g></g><g><path fill="none" stroke="#1e1240" stroke-linecap="round" stroke-linejoin="round" stroke-miterlimit="20" stroke-width="1.25" d="M20.212 11.187c-19.116 0-10.157 14.743-10.157 14.743 6.142 9.218 10.157 9.044 10.157 9.044v0s4.016.174 10.158-9.044c0 0 8.959-14.743-10.158-14.743z"/></g><g><path fill="none" stroke="#1e1240" stroke-linecap="round" stroke-linejoin="round" stroke-miterlimit="20" stroke-width="1.25" d="M20.212 11.187c-19.116 0-10.157 14.743-10.157 14.743 6.142 9.218 10.157 9.044 10.157 9.044v0s4.016.174 10.158-9.044c0 0 8.959-14.743-10.158-14.743z"/></g><g><g><path fill="none" stroke="#1e1240" stroke-linecap="round" stroke-linejoin="round" stroke-miterlimit="20" stroke-width="1.25" d="M12.193 19.1a.135.135 0 1 1-.27.001.135.135 0 0 1 .27 0z"/></g><g><path fill="none" stroke="#1e1240" stroke-linecap="round" stroke-linejoin="round" stroke-miterlimit="20" stroke-width="1.25" d="M14.879 21.85a.135.135 0 1 1 .27 0 .135.135 0 0 1-.27 0z"/></g><g><path fill="none" stroke="#1e1240" stroke-linecap="round" stroke-linejoin="round" stroke-miterlimit="20" stroke-width="1.25" d="M17.36 18.966a.135.135 0 1 1 .27 0 .135.135 0 0 1-.27 0z"/></g><g><path fill="none" stroke="#1e1240" stroke-linecap="round" stroke-linejoin="round" stroke-miterlimit="20" stroke-width="1.25" d="M20.586 21.714a.135.135 0 1 1-.27 0 .135.135 0 0 1 .27 0z"/></g><g><path fill="none" stroke="#1e1240" stroke-linecap="round" stroke-linejoin="round" stroke-miterlimit="20" stroke-width="1.25" d="M22.796 18.83a.135.135 0 1 1 .27 0 .135.135 0 0 1-.27 0z"/></g><g><path fill="none" stroke="#1e1240" stroke-linecap="round" stroke-linejoin="round" stroke-miterlimit="20" stroke-width="1.25" d="M25.752 21.58a.135.135 0 1 1 .27 0 .135.135 0 0 1-.27 0z"/></g><g><path fill="none" stroke="#1e1240" stroke-linecap="round" stroke-linejoin="round" stroke-miterlimit="20" stroke-width="1.25" d="M14.879 15.617a.135.135 0 1 1 .27 0 .135.135 0 0 1-.27 0z"/></g><g><path fill="none" stroke="#1e1240" stroke-linecap="round" stroke-linejoin="round" stroke-miterlimit="20" stroke-width="1.25" d="M20.586 15.481a.135.135 0 1 1-.27 0 .135.135 0 0 1 .27 0z"/></g><g><path fill="none" stroke="#1e1240" stroke-linecap="round" stroke-linejoin="round" stroke-miterlimit="20" stroke-width="1.25" d="M25.752 15.346a.135.135 0 1 1 .27 0 .135.135 0 0 1-.27 0z"/></g><g><path fill="none" stroke="#1e1240" stroke-linecap="round" stroke-linejoin="round" stroke-miterlimit="20" stroke-width="1.25" d="M28.233 18.695a.135.135 0 1 1 .27 0 .135.135 0 0 1-.27 0z"/></g></g><g><g><path fill="none" stroke="#1e1240" stroke-linecap="round" stroke-linejoin="round" stroke-miterlimit="20" stroke-width="1.25" d="M12.193 19.1a.135.135 0 1 1-.27.001.135.135 0 0 1 .27 0z"/></g><g><path fill="none" stroke="#1e1240" stroke-linecap="round" stroke-linejoin="round" stroke-miterlimit="20" stroke-width="1.25" d="M14.879 21.85a.135.135 0 1 1 .27 0 .135.135 0 0 1-.27 0z"/></g><g><path fill="none" stroke="#1e1240" stroke-linecap="round" stroke-linejoin="round" stroke-miterlimit="20" stroke-width="1.25" d="M17.36 18.966a.135.135 0 1 1 .27 0 .135.135 0 0 1-.27 0z"/></g><g><path fill="none" stroke="#1e1240" stroke-linecap="round" stroke-linejoin="round" stroke-miterlimit="20" stroke-width="1.25" d="M20.586 21.714a.135.135 0 1 1-.27 0 .135.135 0 0 1 .27 0z"/></g><g><path fill="none" stroke="#1e1240" stroke-linecap="round" stroke-linejoin="round" stroke-miterlimit="20" stroke-width="1.25" d="M22.796 18.83a.135.135 0 1 1 .27 0 .135.135 0 0 1-.27 0z"/></g><g><path fill="none" stroke="#1e1240" stroke-linecap="round" stroke-linejoin="round" stroke-miterlimit="20" stroke-width="1.25" d="M25.752 21.58a.135.135 0 1 1 .27 0 .135.135 0 0 1-.27 0z"/></g><g><path fill="none" stroke="#1e1240" stroke-linecap="round" stroke-linejoin="round" stroke-miterlimit="20" stroke-width="1.25" d="M14.879 15.617a.135.135 0 1 1 .27 0 .135.135 0 0 1-.27 0z"/></g><g><path fill="none" stroke="#1e1240" stroke-linecap="round" stroke-linejoin="round" stroke-miterlimit="20" stroke-width="1.25" d="M20.586 15.481a.135.135 0 1 1-.27 0 .135.135 0 0 1 .27 0z"/></g><g><path fill="none" stroke="#1e1240" stroke-linecap="round" stroke-linejoin="round" stroke-miterlimit="20" stroke-width="1.25" d="M25.752 15.346a.135.135 0 1 1 .27 0 .135.135 0 0 1-.27 0z"/></g><g><path fill="none" stroke="#1e1240" stroke-linecap="round" stroke-linejoin="round" stroke-miterlimit="20" stroke-width="1.25" d="M28.233 18.695a.135.135 0 1 1 .27 0 .135.135 0 0 1-.27 0z"/></g></g><g><path fill="#ff4747" d="M20.212 32.624c.467-.1 3.296-.944 7.598-7.096-3.097 1.85-7.723 3.705-13.013 2.843 3.064 3.59 5.032 4.171 5.415 4.253z"/><path fill="none" stroke="#000" stroke-miterlimit="20" stroke-width="1.25" d="M20.212 32.624c.467-.1 3.296-.944 7.598-7.096-3.097 1.85-7.723 3.705-13.013 2.843 3.064 3.59 5.032 4.171 5.415 4.253z"/></g></g></g></svg>