<svg xmlns="http://www.w3.org/2000/svg" width="48.329" height="34.677" viewBox="0 0 48.329 34.677">
    <defs>
        <style>
            .cls-1,.cls-2,.cls-4{fill:none;stroke-linecap:round}.cls-1{stroke:#1e1240}.cls-1,.cls-4{stroke-miterlimit:10}.cls-1,.cls-2,.cls-3,.cls-4{stroke-width:1.25px}.cls-2,.cls-4{stroke:#344154}.cls-2{stroke-linejoin:round}.cls-3{fill:#b3b5f0;stroke:transparent}
        </style>
    </defs>
    <g id="illus_fruitssecs" data-name="illus/fruitssecs" transform="translate(.811 .625)">
        <g id="Groupe_2794" data-name="Groupe 2794" transform="translate(11.877 26.033)">
            <path id="Tracé_20057" d="M841.474 745.919a40.237 40.237 0 0 0 8.549-1.734 21.613 21.613 0 0 1 12.486 0" class="cls-1" data-name="Tracé 20057" transform="translate(-841.474 -738.572)"/>
            <path id="Tracé_20058" d="M870.958 728.781l.017.967c-.171 3.91-3.04 4.647-3.04 4.647" class="cls-1" data-name="Tracé 20058" transform="translate(-859.386 -728.781)"/>
        </g>
        <path id="Tracé_20059" d="M851.095 694.207c4.977 0 9.209-2.19 10.2-7.367a46.919 46.919 0 0 1 2.072-7.6c-2.165.672-4.256 3.547-4.256 3.547a11.261 11.261 0 0 0-1.755-4.494 9.234 9.234 0 0 0-3.509 4.12 15.742 15.742 0 0 0-2.75-4.7 15.743 15.743 0 0 0-2.75 4.7 9.236 9.236 0 0 0-3.509-4.12 11.261 11.261 0 0 0-1.755 4.494s-2.091-2.875-4.256-3.547a46.965 46.965 0 0 1 2.072 7.6c.987 5.176 5.218 7.367 10.196 7.367z" class="cls-2" data-name="Tracé 20059" transform="translate(-827.804 -668.173)"/>
        <path id="Tracé_20060" d="M859.37 710.848c2.729 0 7.455-.768 8.438-5.911 0 0-2.689 2.553-7.99 2.553h-.448c-5.3 0-7.99-2.553-7.99-2.553.983 5.143 5.708 5.911 8.438 5.911z" class="cls-3" data-name="Tracé 20060" transform="translate(-836.303 -686.607)"/>
        <path id="Tracé_20061" d="M865.654 660.5a10.376 10.376 0 0 0-.379-2.211 11.176 11.176 0 0 0-4.532-6.169c-2.732-1.845-5.268-3.924-5.268-3.924s-2.537 2.079-5.269 3.924a11.176 11.176 0 0 0-4.532 6.169 10.4 10.4 0 0 0-.379 2.211" class="cls-2" data-name="Tracé 20061" transform="translate(-832.184 -648.199)"/>
        <path id="Tracé_20062" d="M865.656 660.5a14.767 14.767 0 0 0-2.165 2.309 11.241 11.241 0 0 0-1.753-4.495 9.244 9.244 0 0 0-3.509 4.122 15.745 15.745 0 0 0-2.751-4.7 15.741 15.741 0 0 0-2.751 4.7 9.244 9.244 0 0 0-3.509-4.122 11.24 11.24 0 0 0-1.753 4.495 14.776 14.776 0 0 0-2.165-2.309 10.263 10.263 0 0 1 .376-2.207 11.188 11.188 0 0 1 4.534-6.17c2.733-1.846 5.269-3.924 5.269-3.924s2.535 2.079 5.268 3.924a11.168 11.168 0 0 1 4.531 6.17 10.081 10.081 0 0 1 .378 2.207z" class="cls-2" data-name="Tracé 20062" transform="translate(-832.187 -648.198)"/>
        <path id="Tracé_20063" d="M865.723 663.576a21.055 21.055 0 0 0-1.606-2.206l-1.367-1.611-1.367 1.611a20.989 20.989 0 0 0-1.607 2.206 9.743 9.743 0 0 0-2.375-2.007l-1.36-.8a9.728 9.728 0 0 1 2.443-2.36c1.668-1.127 3.249-2.325 4.264-3.118 1.015.793 2.6 1.992 4.265 3.119a9.718 9.718 0 0 1 2.441 2.36l-1.359.8a9.748 9.748 0 0 0-2.372 2.006z" class="cls-3" data-name="Tracé 20063" transform="translate(-839.46 -652.997)"/>
        <path id="Tracé_20064" d="M820.465 677.9s-2.05 3.5-8.075 2.83l1.168-1.221a10.224 10.224 0 0 1-5.172-.748l3.58-1.832a.191.191 0 0 0-.049-.352 9.827 9.827 0 0 1-6.222-4.957l1.792-.538a11.633 11.633 0 0 1-2.776-4.608s3.4-.341 7.739 2.329c.036.022.067-.034.033-.057a8.783 8.783 0 0 1-3.756-7.155l2.593 1.8a.019.019 0 0 0 .029-.025c-.287-.506-1.872-3.487-1.046-6.108a13.591 13.591 0 0 1 5.178 3.547.044.044 0 0 0 .076-.036l-.583-3.062a6.389 6.389 0 0 1 2.851 2.018" class="cls-4" data-name="Tracé 20064" transform="translate(-804.711 -654.329)"/>
        <path id="Tracé_20065" d="M900.524 677.9s2.05 3.5 8.075 2.83l-1.168-1.221a10.224 10.224 0 0 0 5.172-.748l-3.58-1.832a.191.191 0 0 1 .049-.352 9.827 9.827 0 0 0 6.222-4.957l-1.792-.538a11.634 11.634 0 0 0 2.776-4.608s-3.4-.341-7.739 2.329c-.036.022-.067-.034-.033-.057a8.783 8.783 0 0 0 3.756-7.155l-2.593 1.8a.019.019 0 0 1-.029-.025c.287-.506 1.872-3.487 1.046-6.108a13.591 13.591 0 0 0-5.178 3.547.044.044 0 0 1-.076-.036l.583-3.062a6.389 6.389 0 0 0-2.851 2.018" class="cls-4" data-name="Tracé 20065" transform="translate(-869.57 -654.329)"/>
    </g>
</svg>
