<svg xmlns="http://www.w3.org/2000/svg" width="41.225" height="35.412" viewBox="0 0 41.225 35.412">
    <defs>
        <style>
            .cls-1,.cls-3{fill:none;stroke:#1e1240;stroke-miterlimit:10;stroke-width:1.25px}.cls-3{stroke-linecap:round}
        </style>
    </defs>
    <g id="illus_gourmand" data-name="illus/gourmand" transform="translate(.625 .787)">
        <path id="Tracé_20101" d="M856.952 1153.722c1.906 0 1.906 3.736 3.812 3.736s1.906-3.736 3.811-3.736 1.9 3.736 3.81 3.736l-1.068 4.137a1.5 1.5 0 0 1-1.451 1.124h-17.833a1.5 1.5 0 0 1-1.451-1.124l-1.068-4.137c1.9 0 1.9-3.736 3.81-3.736s1.905 3.736 3.811 3.736 1.906-3.736 3.812-3.736z" class="cls-1" data-name="Tracé 20101" transform="translate(-837.078 -1135.094)"/>
        <path id="Tracé_20102" fill="#b3b5f0" d="M850.907 1164.04a.427.427 0 0 1-.414-.321l-.819-3.171a5.119 5.119 0 0 0 1.573-2.081c.291-.571.654-1.283.951-1.283s.66.712.951 1.283c.528 1.035 1.251 2.453 2.86 2.453s2.332-1.417 2.86-2.453c.292-.571.655-1.283.952-1.283s.666.712.958 1.283c.528 1.035 1.251 2.453 2.859 2.453s2.332-1.417 2.86-2.453c.291-.571.654-1.283.951-1.283s.659.712.951 1.283a5.118 5.118 0 0 0 1.572 2.081l-.818 3.171a.428.428 0 0 1-.414.321z" data-name="Tracé 20102" transform="translate(-839.951 -1137.486)"/>
        <path id="Tracé_20103" d="M865.125 1133.6a1.367 1.367 0 0 0 1.1-.516 1.648 1.648 0 0 0 .353-1.085 13.029 13.029 0 0 0-12.891-12.813A13.029 13.029 0 0 0 840.8 1132a1.648 1.648 0 0 0 .353 1.085 1.367 1.367 0 0 0 1.1.516" class="cls-1" data-name="Tracé 20103" transform="translate(-833.82 -1111.24)"/>
        <path id="Tracé_20104" d="M865.756 1119.189a9.2 9.2 0 0 0-7.493 8.095" class="cls-3" data-name="Tracé 20104" transform="translate(-845.885 -1111.24)"/>
        <path id="Ligne_66" d="M0 0L0 6.288" class="cls-3" data-name="Ligne 66" transform="translate(19.869 7.949)"/>
        <path id="Tracé_20105" d="M882.485 1119.189a9.2 9.2 0 0 1 7.493 8.095" class="cls-3" data-name="Tracé 20105" transform="translate(-862.616 -1111.24)"/>
        <path id="Tracé_20106" d="M879.72 1106.933a2.241 2.241 0 1 0-2.242 2.242 2.241 2.241 0 0 0 2.242-2.242z" class="cls-3" data-name="Tracé 20106" transform="translate(-857.609 -1101.227)"/>
        <path id="Tracé_20107" d="M882.5 1096.95s-.284-2.769 1.869-3.466" class="cls-3" data-name="Tracé 20107" transform="translate(-862.616 -1093.484)"/>
        <path id="Tracé_20108" d="M864.994 1199.5a86.915 86.915 0 0 1-28.972 0" class="cls-3" data-name="Tracé 20108" transform="translate(-830.521 -1166.717)"/>
        <path id="Tracé_20109" d="M849.005 1172.493c5.534.717 9.2 1.969 9.2 3.395 0 2.226-8.949 4.031-19.987 4.031s-19.987-1.8-19.987-4.031c0-1.406 3.568-2.644 8.979-3.365" class="cls-3" data-name="Tracé 20109" transform="translate(-818.232 -1148.061)"/>
    </g>
</svg>
