<?xml version="1.0" encoding="utf-8"?>
<svg version="1.1" xmlns:xlink="http://www.w3.org/1999/xlink" width="32px" height="32px" xmlns="http://www.w3.org/2000/svg">
  <g transform="matrix(1 0 0 1 -868 -1961 )">
    <path d="M 19.7708333333333 19.7708333333333  C 20.8125 18.7291666666667  21.3333333333333 17.4722222222222  21.3333333333333 16  C 21.3333333333333 14.5277777777778  20.8125 13.2708333333333  19.7708333333333 12.2291666666667  C 18.7291666666667 11.1875  17.4722222222222 10.6666666666667  16 10.6666666666667  C 14.5277777777778 10.6666666666667  13.2708333333333 11.1875  12.2291666666667 12.2291666666667  C 11.1875 13.2708333333333  10.6666666666667 14.5277777777778  10.6666666666667 16  C 10.6666666666667 17.4722222222222  11.1875 18.7291666666667  12.2291666666667 19.7708333333333  C 13.2708333333333 20.8125  14.5277777777778 21.3333333333333  16 21.3333333333333  C 17.4722222222222 21.3333333333333  18.7291666666667 20.8125  19.7708333333333 19.7708333333333  Z M 21.8125 10.1875  C 23.4097222222222 11.7847222222222  24.2083333333333 13.7222222222222  24.2083333333333 16  C 24.2083333333333 18.2777777777778  23.4097222222222 20.2152777777778  21.8125 21.8125  C 20.2152777777778 23.4097222222222  18.2777777777778 24.2083333333333  16 24.2083333333333  C 13.7222222222222 24.2083333333333  11.7847222222222 23.4097222222222  10.1875 21.8125  C 8.59027777777778 20.2152777777778  7.79166666666667 18.2777777777778  7.79166666666667 16  C 7.79166666666667 13.7222222222222  8.59027777777778 11.7847222222222  10.1875 10.1875  C 11.7847222222222 8.59027777777778  13.7222222222222 7.79166666666667  16 7.79166666666667  C 18.2777777777778 7.79166666666667  20.2152777777778 8.59027777777778  21.8125 10.1875  Z M 25.8958333333333 6.10416666666667  C 26.2708333333333 6.47916666666667  26.4583333333333 6.93055555555555  26.4583333333333 7.45833333333333  C 26.4583333333333 7.98611111111111  26.2708333333333 8.4375  25.8958333333333 8.8125  C 25.5208333333333 9.1875  25.0694444444444 9.375  24.5416666666667 9.375  C 24.0138888888889 9.375  23.5625 9.1875  23.1875 8.8125  C 22.8125 8.4375  22.625 7.98611111111111  22.625 7.45833333333333  C 22.625 6.93055555555555  22.8125 6.47916666666667  23.1875 6.10416666666667  C 23.5625 5.72916666666667  24.0138888888889 5.54166666666667  24.5416666666667 5.54166666666667  C 25.0694444444444 5.54166666666667  25.5208333333333 5.72916666666667  25.8958333333333 6.10416666666667  Z M 17.59375 2.86458333333333  C 16.6284722222222 2.87152777777778  16.0972222222222 2.875  16 2.875  C 15.9027777777778 2.875  15.3715277777778 2.87152777777778  14.40625 2.86458333333333  C 13.4409722222222 2.85763888888889  12.7083333333333 2.85763888888889  12.2083333333333 2.86458333333333  C 11.7083333333333 2.87152777777778  11.0381944444444 2.89236111111111  10.1979166666667 2.92708333333333  C 9.35763888888889 2.96180555555555  8.64236111111111 3.03125  8.05208333333333 3.13541666666667  C 7.46180555555556 3.23958333333333  6.96527777777778 3.36805555555555  6.5625 3.52083333333333  C 5.86805555555556 3.79861111111111  5.25694444444444 4.20138888888889  4.72916666666667 4.72916666666667  C 4.20138888888889 5.25694444444444  3.79861111111111 5.86805555555555  3.52083333333333 6.5625  C 3.36805555555556 6.96527777777778  3.23958333333333 7.46180555555555  3.13541666666667 8.05208333333333  C 3.03125 8.64236111111111  2.96180555555556 9.35763888888889  2.92708333333333 10.1979166666667  C 2.89236111111111 11.0381944444444  2.87152777777778 11.7083333333333  2.86458333333333 12.2083333333333  C 2.85763888888889 12.7083333333333  2.85763888888889 13.4409722222222  2.86458333333333 14.40625  C 2.87152777777778 15.3715277777778  2.875 15.9027777777778  2.875 16  C 2.875 16.0972222222222  2.87152777777778 16.6284722222222  2.86458333333333 17.59375  C 2.85763888888889 18.5590277777778  2.85763888888889 19.2916666666667  2.86458333333333 19.7916666666667  C 2.87152777777778 20.2916666666667  2.89236111111111 20.9618055555556  2.92708333333333 21.8020833333333  C 2.96180555555556 22.6423611111111  3.03125 23.3576388888889  3.13541666666667 23.9479166666667  C 3.23958333333333 24.5381944444444  3.36805555555556 25.0347222222222  3.52083333333333 25.4375  C 3.79861111111111 26.1319444444444  4.20138888888889 26.7430555555556  4.72916666666667 27.2708333333333  C 5.25694444444444 27.7986111111111  5.86805555555556 28.2013888888889  6.5625 28.4791666666667  C 6.96527777777778 28.6319444444444  7.46180555555556 28.7604166666667  8.05208333333333 28.8645833333333  C 8.64236111111111 28.96875  9.35763888888889 29.0381944444444  10.1979166666667 29.0729166666667  C 11.0381944444444 29.1076388888889  11.7083333333333 29.1284722222222  12.2083333333333 29.1354166666667  C 12.7083333333333 29.1423611111111  13.4409722222222 29.1423611111111  14.40625 29.1354166666667  C 15.3715277777778 29.1284722222222  15.9027777777778 29.125  16 29.125  C 16.0972222222222 29.125  16.6284722222222 29.1284722222222  17.59375 29.1354166666667  C 18.5590277777778 29.1423611111111  19.2916666666667 29.1423611111111  19.7916666666667 29.1354166666667  C 20.2916666666667 29.1284722222222  20.9618055555556 29.1076388888889  21.8020833333333 29.0729166666667  C 22.6423611111111 29.0381944444444  23.3576388888889 28.96875  23.9479166666667 28.8645833333333  C 24.5381944444444 28.7604166666667  25.0347222222222 28.6319444444444  25.4375 28.4791666666667  C 26.1319444444444 28.2013888888889  26.7430555555556 27.7986111111111  27.2708333333333 27.2708333333333  C 27.7986111111111 26.7430555555556  28.2013888888889 26.1319444444444  28.4791666666667 25.4375  C 28.6319444444444 25.0347222222222  28.7604166666667 24.5381944444444  28.8645833333333 23.9479166666667  C 28.96875 23.3576388888889  29.0381944444444 22.6423611111111  29.0729166666667 21.8020833333333  C 29.1076388888889 20.9618055555556  29.1284722222222 20.2916666666667  29.1354166666667 19.7916666666667  C 29.1423611111111 19.2916666666667  29.1423611111111 18.5590277777778  29.1354166666667 17.59375  C 29.1284722222222 16.6284722222222  29.125 16.0972222222222  29.125 16  C 29.125 15.9027777777778  29.1284722222222 15.3715277777778  29.1354166666667 14.40625  C 29.1423611111111 13.4409722222222  29.1423611111111 12.7083333333333  29.1354166666667 12.2083333333333  C 29.1284722222222 11.7083333333333  29.1076388888889 11.0381944444444  29.0729166666667 10.1979166666667  C 29.0381944444444 9.35763888888889  28.96875 8.64236111111111  28.8645833333333 8.05208333333333  C 28.7604166666667 7.46180555555555  28.6319444444444 6.96527777777778  28.4791666666667 6.5625  C 28.2013888888889 5.86805555555555  27.7986111111111 5.25694444444444  27.2708333333333 4.72916666666667  C 26.7430555555556 4.20138888888889  26.1319444444444 3.79861111111111  25.4375 3.52083333333333  C 25.0347222222222 3.36805555555555  24.5381944444444 3.23958333333333  23.9479166666667 3.13541666666667  C 23.3576388888889 3.03125  22.6423611111111 2.96180555555555  21.8020833333333 2.92708333333333  C 20.9618055555556 2.89236111111111  20.2916666666667 2.87152777777778  19.7916666666667 2.86458333333333  C 19.2916666666667 2.85763888888889  18.5590277777778 2.85763888888889  17.59375 2.86458333333333  Z M 31.8958333333333 9.39583333333333  C 31.9652777777778 10.6180555555556  32 12.8194444444444  32 16  C 32 19.1805555555556  31.9652777777778 21.3819444444444  31.8958333333333 22.6041666666667  C 31.7569444444444 25.4930555555556  30.8958333333333 27.7291666666667  29.3125 29.3125  C 27.7291666666667 30.8958333333333  25.4930555555556 31.7569444444444  22.6041666666667 31.8958333333333  C 21.3819444444444 31.9652777777778  19.1805555555556 32  16 32  C 12.8194444444444 32  10.6180555555556 31.9652777777778  9.39583333333333 31.8958333333333  C 6.50694444444445 31.7569444444444  4.27083333333333 30.8958333333333  2.6875 29.3125  C 1.10416666666667 27.7291666666667  0.243055555555556 25.4930555555556  0.104166666666667 22.6041666666667  C 0.0347222222222222 21.3819444444444  0 19.1805555555556  0 16  C 0 12.8194444444444  0.0347222222222222 10.6180555555556  0.104166666666667 9.39583333333333  C 0.243055555555556 6.50694444444444  1.10416666666667 4.27083333333333  2.6875 2.6875  C 4.27083333333333 1.10416666666667  6.50694444444445 0.243055555555554  9.39583333333333 0.104166666666668  C 10.6180555555556 0.0347222222222179  12.8194444444444 0  16 0  C 19.1805555555556 0  21.3819444444444 0.0347222222222179  22.6041666666667 0.104166666666668  C 25.4930555555556 0.243055555555554  27.7291666666667 1.10416666666667  29.3125 2.6875  C 30.8958333333333 4.27083333333333  31.7569444444444 6.50694444444444  31.8958333333333 9.39583333333333  Z " fill-rule="nonzero" fill="#8d8d8d" stroke="none" transform="matrix(1 0 0 1 868 1961 )" />
  </g>
</svg>