<?xml version="1.0" encoding="utf-8"?>
<svg version="1.1" xmlns:xlink="http://www.w3.org/1999/xlink" width="32px" height="26px" xmlns="http://www.w3.org/2000/svg">
  <g transform="matrix(1 0 0 1 -964 -1964 )">
    <path d="M 28.2233502538071 4.103125  C 29.4822335025381 3.96770833333333  30.741116751269 3.62916666666666  32 3.0875  C 31.093062605753 4.41458333333333  29.9966159052453 5.5453125  28.7106598984772 6.4796875  C 28.7241962774958 6.66927083333333  28.7309644670051 6.95364583333333  28.7309644670051 7.3328125  C 28.7309644670051 9.09322916666666  28.4737732656514 10.8502604166667  27.9593908629442 12.60390625  C 27.4450084602369 14.3575520833333  26.663282571912 16.0401041666667  25.6142131979695 17.6515625  C 24.5651438240271 19.2630208333333  23.3164128595601 20.68828125  21.8680203045685 21.92734375  C 20.419627749577 23.16640625  18.673434856176 24.1549479166667  16.6294416243655 24.89296875  C 14.585448392555 25.6309895833333  12.3993231810491 26  10.0710659898477 26  C 6.40270727580372 26  3.04568527918782 25.0182291666667  0 23.0546875  C 0.473773265651438 23.1088541666667  1.00169204737733 23.1359375  1.58375634517767 23.1359375  C 4.62944162436548 23.1359375  7.34348561759729 22.2015625  9.7258883248731 20.3328125  C 8.30456852791878 20.3057291666667  7.03214890016921 19.8690104166667  5.90862944162437 19.02265625  C 4.78510998307953 18.1763020833333  4.01353637901861 17.0963541666667  3.59390862944162 15.7828125  C 4.04060913705584 15.8505208333333  4.45346869712352 15.884375  4.83248730964467 15.884375  C 5.41455160744501 15.884375  5.98984771573604 15.8098958333333  6.55837563451777 15.6609375  C 5.04230118443316 15.3494791666667  3.78680203045685 14.59453125  2.79187817258883 13.39609375  C 1.79695431472081 12.19765625  1.2994923857868 10.80625  1.2994923857868 9.221875  L 1.2994923857868 9.140625  C 2.21996615905245 9.65520833333333  3.20812182741117 9.9328125  4.26395939086294 9.9734375  C 3.37055837563452 9.37760416666666  2.65989847715736 8.59895833333333  2.13197969543147 7.6375  C 1.60406091370558 6.67604166666666  1.34010152284264 5.63333333333333  1.34010152284264 4.509375  C 1.34010152284264 3.31770833333333  1.63790186125212 2.2140625  2.23350253807107 1.1984375  C 3.87140439932318 3.21614583333333  5.86463620981388 4.83098958333333  8.21319796954315 6.04296875  C 10.5617597292724 7.25494791666667  13.0761421319797 7.92864583333333  15.756345177665 8.0640625  C 15.6480541455161 7.54947916666666  15.5939086294416 7.0484375  15.5939086294416 6.5609375  C 15.5939086294416 4.74635416666666  16.2335025380711 3.19921875  17.5126903553299 1.91953125  C 18.7918781725888 0.639843750000001  20.3384094754653 0  22.1522842639594 0  C 24.0473773265651 0  25.6446700507614 0.690625000000001  26.9441624365482 2.071875  C 28.419627749577 1.7875  29.8071065989848 1.259375  31.1065989847716 0.487500000000001  C 30.6057529610829 2.04479166666666  29.6446700507614 3.25  28.2233502538071 4.103125  Z " fill-rule="nonzero" fill="#8d8d8d" stroke="none" transform="matrix(1 0 0 1 964 1964 )" />
  </g>
</svg>