<svg xmlns="http://www.w3.org/2000/svg" viewBox="0 0 374.32 374.37"><defs><style>.cls-1{fill:#fff;}</style></defs><title>discord</title><g id="Layer_2" data-name="Layer 2"><g id="Layer_1-2" data-name="Layer 1"><path d="M0,187.13C0,83.87,83.86,0,187.11,0,290.53,0,374.43,84,374.32,187.41c-.11,103.26-84.05,187-187.3,187S0,290.4,0,187.13Zm90.77,53.12q96.53,54,192.83,0c-11.46,13.36-26.44,20.83-43.53,26.1,4.75,5.75,9.36,11.12,13.69,16.7a6.93,6.93,0,0,0,6.65,2.89c28.53-1.74,53.37-11.69,73.21-32.75a6.33,6.33,0,0,0,1.69-4.14c-.56-9.83-.91-19.7-2.15-29.46-4.63-36.61-16.12-71.07-33.38-103.64a10.5,10.5,0,0,0-3.06-3.64C277.31,98.76,256,90.51,232.27,88.49c-3.2-.28-5.45.55-7.1,3.47,5.35,1.8,10.57,3.42,15.7,5.32s10.24,3.91,15.21,6.2,10.1,4.9,14.95,7.69c4.62,2.66,9,5.73,13.48,8.62l-.4,1C219.43,90.92,154.74,91,90,120.42c17.77-13.74,38-22,59.34-28.37-3.25-3.88-3.25-3.85-7.42-3.5-23.15,1.94-44.12,9.89-63.18,23a14.57,14.57,0,0,0-4.41,4.86,295.62,295.62,0,0,0-22.35,53.73c-7.93,25.5-12.65,51.54-13,78.29a6.72,6.72,0,0,0,1.31,4.31c18.61,19.77,41.68,30,68.56,32.84,7,.74,11.49-1,15.27-6.66,2.94-4.37,6.53-8.3,10-12.66C117,261,102.09,253.47,90.77,240.25Z"/><path class="cls-1" d="M90.77,240.25c11.32,13.22,26.26,20.75,43.36,26-3.48,4.36-7.07,8.29-10,12.66-3.78,5.63-8.23,7.4-15.27,6.66C82,282.76,58.9,272.51,40.29,252.74A6.72,6.72,0,0,1,39,248.43c.31-26.75,5-52.79,13-78.29a295.62,295.62,0,0,1,22.35-53.73,14.57,14.57,0,0,1,4.41-4.86c19.06-13.11,40-21.06,63.18-23,4.17-.35,4.17-.38,7.42,3.5C128,98.38,107.73,106.68,90,120.42c64.78-29.45,129.47-29.5,194.15.36l.4-1c-4.48-2.89-8.86-6-13.48-8.62-4.85-2.79-9.86-5.35-14.95-7.69s-10.08-4.29-15.21-6.2-10.35-3.52-15.7-5.32c1.65-2.92,3.9-3.75,7.1-3.47,23.68,2,45,10.27,64.45,23.78a10.5,10.5,0,0,1,3.06,3.64c17.26,32.57,28.75,67,33.38,103.64,1.24,9.76,1.59,19.63,2.15,29.46a6.33,6.33,0,0,1-1.69,4.14c-19.84,21.06-44.68,31-73.21,32.75a6.93,6.93,0,0,1-6.65-2.89c-4.33-5.58-8.94-10.95-13.69-16.7,17.09-5.27,32.07-12.74,43.53-26.1Q187.15,294.33,90.77,240.25ZM258.6,202.07c.36-14.22-11-26.6-24.62-26.86a26.47,26.47,0,0,0-27.11,26.09,26.13,26.13,0,0,0,25.32,26.58C246.55,228.24,258.24,216.82,258.6,202.07Zm-117,25.83a26.14,26.14,0,0,0,25.82-26.12,26.48,26.48,0,0,0-26.65-26.57c-13.59,0-25.16,12.12-25.11,26.39A26,26,0,0,0,141.64,227.9Z"/><path d="M258.6,202.07c-.36,14.75-12.05,26.17-26.41,25.81a26.13,26.13,0,0,1-25.32-26.58A26.47,26.47,0,0,1,234,175.21C247.61,175.47,259,187.85,258.6,202.07Z"/><path d="M141.64,227.9a26,26,0,0,1-25.94-26.3c0-14.27,11.52-26.43,25.11-26.39a26.48,26.48,0,0,1,26.65,26.57A26.14,26.14,0,0,1,141.64,227.9Z"/></g></g></svg>