<svg xmlns="http://www.w3.org/2000/svg" viewBox="0 0 409.6 411.02"><defs><style>.cls-1{fill:#fff;}</style></defs><title>github</title><g id="Layer_2" data-name="Layer 2"><g id="Layer_1-2" data-name="Layer 1"><circle class="cls-1" cx="205" cy="227.02" r="184"/><path d="M409.6,215.59c-.75,6.44-1.4,12.89-2.28,19.32a199,199,0,0,1-29.48,80.2c-19.29,30.42-44.76,54.39-76.63,71.28a278.91,278.91,0,0,1-30.31,13.27c-8.92,3.45-15.2-1.36-15.21-11.12,0-17.57.18-35.13.22-52.7,0-9.8-1.06-19.45-5.6-28.3-2-4-4.78-7.54-7.3-11.44,7.16-1.27,14.53-2.27,21.75-3.93,20.33-4.7,38.46-13.3,51.66-30.23,9.58-12.29,14.59-26.5,17-41.63a130.2,130.2,0,0,0,1.06-37.76A75,75,0,0,0,317.07,143c-2.09-2.47-2.28-4.46-1.39-7.43,4.93-16.46,3.09-32.63-2.93-48.43-.42-1.13-3-2.26-4.42-2-6.54,1-13.43,1.56-19.39,4.11-10.23,4.38-19.81,10.23-29.79,15.21a10.49,10.49,0,0,1-6.59,1,199.53,199.53,0,0,0-95.77,0,9,9,0,0,1-6.19-1C138.81,97.08,126.89,90,113.26,86.69a89.69,89.69,0,0,0-13-1.69c-2-.2-3.23.85-4,3-5.56,16.27-7.2,32.63-1.91,49.32a5.07,5.07,0,0,1-.79,4.17c-17.37,20.08-21.3,43.69-18.64,69.14,1.33,12.64,3.91,24.91,9.31,36.51,8.89,19.07,23.59,31.8,42.9,39.61,11.45,4.63,23.41,7.09,35.59,8.72,1.3.17,2.58.46,3.55.64-2.76,4.76-5.64,9.3-8.07,14.08a24.54,24.54,0,0,0-2.6,8.31c-.44,4.24-2.65,6.12-6.49,7.3-12.77,3.92-25.34,5.06-37.54-1.81A43.37,43.37,0,0,1,96,308.32c-4.52-7.38-10-13.83-17.63-18.11-5.77-3.23-11.89-5.6-18.66-4.31-1.88.36-4.32,1.52-5,3-.5,1,1.33,3.41,2.48,4.91a13.41,13.41,0,0,0,3.68,3c11.81,7.25,18.69,18.29,23.81,30.68,8.14,19.7,23.68,28.8,44.19,30,8,.46,16.18-.76,24.64-1.23a18.61,18.61,0,0,1,.28,2.32c.13,9.72.27,19.43.33,29.15.06,10.77-6.34,15.18-16.48,11.55Q69.65,375,31.13,314.1A197.66,197.66,0,0,1,1.56,229.37c-.51-4.59-1-9.19-1.56-13.78V193.23a21.21,21.21,0,0,0,.67-3.08c1.42-21.68,6-42.73,14.73-62.57,31.86-72.2,86.84-115,165.3-125.71,46-6.28,89.5,3.33,129.13,27.57,53,32.4,85.15,79.5,96.58,140.54,1.44,7.68,2.14,15.5,3.19,23.25Z"/></g></g></svg>