<svg xmlns="http://www.w3.org/2000/svg" viewBox="0 0 374.32 374.38"><defs><style>.cls-1{fill:#fff;}</style></defs><title>instagram</title><g id="Layer_2" data-name="Layer 2"><g id="Layer_1-2" data-name="Layer 1"><path d="M187.11,374.38C83.71,374.35-.12,290.33,0,186.85.12,83.65,84.13-.12,187.4,0s187,84,186.92,187.33S290.37,374.41,187.11,374.38Zm115.32-187h.34c0-14,.1-27.94,0-41.91a119.61,119.61,0,0,0-1.07-16.4C298,105.1,286.21,87.24,263,78.17a82.79,82.79,0,0,0-30-5.41q-44-.17-87.94,0a116.79,116.79,0,0,0-18.6,1.42c-23.59,3.93-41.07,16-49.81,39a82.05,82.05,0,0,0-5.07,29.32c0,29.07-.06,58.14,0,87.2a107.11,107.11,0,0,0,1.11,16c3.45,22.23,14.08,39.47,35.17,49.07a79.24,79.24,0,0,0,32.71,6.82q46.59.27,93.18,0c12-.09,23.82-2.34,34.72-7.8,22.38-11.2,32.25-30.64,33.73-54.44C303.3,222.08,302.43,204.69,302.43,187.35Z"/><path class="cls-1" d="M302.43,187.35c0,17.34.87,34.73-.21,52-1.48,23.8-11.35,43.24-33.73,54.44-10.9,5.46-22.67,7.71-34.72,7.8q-46.59.32-93.18,0a79.24,79.24,0,0,1-32.71-6.82c-21.09-9.6-31.72-26.84-35.17-49.07a107.11,107.11,0,0,1-1.11-16c-.1-29.06-.06-58.13,0-87.2a82.05,82.05,0,0,1,5.07-29.32c8.74-23,26.22-35,49.81-38.95A116.79,116.79,0,0,1,145,72.79q44-.23,87.94,0a82.79,82.79,0,0,1,30,5.41C286.21,87.24,298,105.1,301.65,129a119.61,119.61,0,0,1,1.07,16.4c.15,14,0,27.94,0,41.91Zm-115.17-93V94c-3,0-6-.06-9,0-15.2.33-30.46.06-45.61,1.21-17.49,1.31-30.48,10.09-36.26,27.18A66.22,66.22,0,0,0,93,142.54c-.37,28.83-.19,57.66-.13,86.48a103.8,103.8,0,0,0,.7,11.56c2.51,22.07,17.28,37,39.3,38.6,14.41,1.05,28.91,1.12,43.37,1.08,21.82-.07,43.68.05,65.45-1.16,17.52-1,30.5-10.07,36.27-27.15a69.25,69.25,0,0,0,3.4-20.87c.37-28.7.18-57.41.12-86.11a103.22,103.22,0,0,0-.77-12.3c-2.35-18.84-14.22-32.23-32.59-36.42a73.1,73.1,0,0,0-15.18-1.77C217.7,94.25,202.48,94.39,187.26,94.39Z"/><path d="M187.26,94.39c15.22,0,30.44-.14,45.66.09a73.1,73.1,0,0,1,15.18,1.77c18.37,4.19,30.24,17.58,32.59,36.42a103.22,103.22,0,0,1,.77,12.3c.06,28.7.25,57.41-.12,86.11a69.25,69.25,0,0,1-3.4,20.87c-5.77,17.08-18.75,26.17-36.27,27.15-21.77,1.21-43.63,1.09-65.45,1.16-14.46,0-29,0-43.37-1.08-22-1.6-36.79-16.53-39.3-38.6a103.8,103.8,0,0,1-.7-11.56c-.06-28.82-.24-57.65.13-86.48a66.22,66.22,0,0,1,3.42-20.12c5.78-17.09,18.77-25.87,36.26-27.18,15.15-1.15,30.41-.88,45.61-1.21,3-.07,6,0,9,0ZM186.93,248a60.84,60.84,0,1,0-60.6-61.46A60.68,60.68,0,0,0,186.93,248Zm61.64-109.29A12.11,12.11,0,1,0,236.2,127,12.09,12.09,0,0,0,248.57,138.74Z"/><path class="cls-1" d="M186.93,248A60.84,60.84,0,1,1,248,187.81,60.69,60.69,0,0,1,186.93,248ZM187.69,148a39.16,39.16,0,0,0-39.77,38.71c-.47,21.53,16.86,39.33,38.71,39.77,21.61.43,39.3-16.79,39.77-38.71A39.12,39.12,0,0,0,187.69,148Z"/><path class="cls-1" d="M248.57,138.74a12.11,12.11,0,1,1,11.94-12.22A12,12,0,0,1,248.57,138.74Z"/><path d="M187.69,148a39.12,39.12,0,0,1,38.71,39.77c-.47,21.92-18.16,39.14-39.77,38.71-21.85-.44-39.18-18.24-38.71-39.77A39.16,39.16,0,0,1,187.69,148Z"/></g></g></svg>