<svg xmlns="http://www.w3.org/2000/svg" viewBox="0 0 383.12 383.33"><defs><style>.cls-1{fill:#fff;}</style></defs><title>medium</title><g id="Layer_2" data-name="Layer 2"><g id="Layer_1-2" data-name="Layer 1"><path d="M180.27,0h23.2a20.63,20.63,0,0,0,2.89.61c28.78,2.17,55.84,10.21,80.64,25,51,30.31,82.21,74.65,93.18,133,1.31,7,2,14,2.94,21.05v23.2c-.21,1.2-.45,2.4-.64,3.61-1.53,9.83-2.4,19.83-4.69,29.49-27.21,114.87-151.32,178-260,132.5-83-34.76-130.1-120.89-115-210.06C15.86,81.43,77,18.75,153.68,3.83,162.46,2.13,171.4,1.26,180.27,0Zm35.67,286.26h95.61c-1.13-2.36-1.59-4.44-2.85-5.75-5.19-5.39-10.78-10.4-15.88-15.86a10.55,10.55,0,0,1-2.71-6.5q-.23-66.61,0-133.22a10.31,10.31,0,0,1,2.83-6.44c5.17-5.4,10.82-10.34,16.08-15.66,1.34-1.36,1.9-3.48,3.26-6.08h-5.46c-19.21,0-38.42.07-57.63-.07-3.08,0-4.53.88-5.69,3.79q-21.78,54.66-43.81,109.22c-.52,1.29-1.09,2.56-1.86,4.34-.81-1.71-1.36-2.82-1.88-3.94q-25.08-54.87-50.11-109.79c-1.19-2.61-2.48-3.66-5.5-3.64-20.45.17-40.91.09-61.37.09H73.91c1.1,2.61,1.51,4.7,2.7,6.18,6.48,8.07,13,16.07,19.81,23.91A14.64,14.64,0,0,1,100.14,137c0,35.3.1,70.6-.09,105.9a15.64,15.64,0,0,1-3.29,8.78c-7.52,9.63-15.51,18.89-23.18,28.4-1.17,1.45-1.55,3.53-2.51,5.82h72.55c-.92-2.3-1.26-4.41-2.43-5.86-7.74-9.62-15.81-19-23.4-28.7a15.74,15.74,0,0,1-3.28-8.79c-.22-29.32-.11-58.63-.09-88v-3.14a9.47,9.47,0,0,1,2.35,3.42q29.42,64,58.7,128c1.51,3.33,3.63,2.88,6.18,3.14,2.74.27,3.24-1.48,4-3.39q25-63.42,50.07-126.82c.52-1.32,1.14-2.61,2.12-4.86.13,1.79.22,2.5.22,3.21,0,34.68,0,69.36-.11,104a9.93,9.93,0,0,1-2.62,6.16c-5.24,5.5-10.92,10.59-16.25,16C217.78,281.77,217.23,283.81,215.94,286.26Z"/><path class="cls-1" d="M215.94,286.26c1.29-2.45,1.84-4.49,3.13-5.8,5.33-5.43,11-10.52,16.25-16a9.93,9.93,0,0,0,2.62-6.16c.16-34.68.12-69.36.11-104,0-.71-.09-1.42-.22-3.21-1,2.25-1.6,3.54-2.12,4.86q-25.05,63.41-50.07,126.82c-.75,1.91-1.25,3.66-4,3.39-2.55-.26-4.67.19-6.18-3.14q-29.15-64.12-58.7-128a9.47,9.47,0,0,0-2.35-3.42v3.14c0,29.32-.13,58.63.09,88a15.74,15.74,0,0,0,3.28,8.79c7.59,9.73,15.66,19.08,23.4,28.7,1.17,1.45,1.51,3.56,2.43,5.86H71.07c1-2.29,1.34-4.37,2.51-5.82,7.67-9.51,15.66-18.77,23.18-28.4a15.64,15.64,0,0,0,3.29-8.78c.19-35.3,0-70.6.09-105.9a14.64,14.64,0,0,0-3.72-10.19C89.66,119,83.09,111,76.61,102.93c-1.19-1.48-1.6-3.57-2.7-6.18H79c20.46,0,40.92.08,61.37-.09,3,0,4.31,1,5.5,3.64q25,54.95,50.11,109.79c.52,1.12,1.07,2.23,1.88,3.94.77-1.78,1.34-3.05,1.86-4.34q21.95-54.58,43.81-109.22c1.16-2.91,2.61-3.82,5.69-3.79,19.21.14,38.42.07,57.63.07h5.46c-1.36,2.6-1.92,4.72-3.26,6.08-5.26,5.32-10.91,10.26-16.08,15.66a10.31,10.31,0,0,0-2.83,6.44q-.25,66.6,0,133.22a10.55,10.55,0,0,0,2.71,6.5c5.1,5.46,10.69,10.47,15.88,15.86,1.26,1.31,1.72,3.39,2.85,5.75Z"/></g></g></svg>