<svg xmlns="http://www.w3.org/2000/svg" viewBox="0 0 375.13 374.33"><defs><style>.cls-1{fill:#fff;}</style></defs><title>twitter</title><g id="Layer_2" data-name="Layer 2"><g id="Layer_1-2" data-name="Layer 1"><path d="M0,187.11C0,83.89,84,0,187.52,0,291.16,0,375.24,84,375.13,187.39c-.12,103.26-84.23,187-187.71,186.94S0,290.4,0,187.11Zm60.56,78.67c1.71,1,3.38,2,5.11,2.92q47.65,25.24,100.91,16.56c36.88-6,67.55-23.17,90.83-52.57,21.46-27.1,31.27-58.39,32.12-92.66a7,7,0,0,1,2.93-5.88c5.1-4.2,10-8.66,14.74-13.27,2.95-2.87,5.47-6.2,8.33-9.48l-27.28,7.44-.49-1c9.57-7,17.37-15.4,21.44-27.45-2.85,1.24-5,2.28-7.19,3.1-7.82,2.93-15.64,5.85-23.54,8.57a4.68,4.68,0,0,1-3.92-.75c-8.69-8.17-19-12.51-30.78-14.1-28.6-3.87-55.39,16.67-58.51,45.31-.6,5.6-.08,11.32-.08,17.32-43-3.39-79.28-20.34-108.61-53.05-12.21,26.69-7,48.75,15.3,67l-.56,1.11-22.07-6.33a48.5,48.5,0,0,0,7.08,24.81C84,196.08,95.2,204,109.64,207.53l-.15,1.05-21.81,1a48.67,48.67,0,0,0,11.81,18.56c9.93,10,22.14,15,36.2,16.16C113.17,260.19,88.69,268.65,60.56,265.78Z"/><path class="cls-1" d="M60.56,265.78c28.13,2.87,52.61-5.59,75.13-21.47-14.06-1.2-26.27-6.19-36.2-16.16a48.67,48.67,0,0,1-11.81-18.56l21.81-1,.15-1.05C95.2,204,84,196.08,76.32,183.36a48.5,48.5,0,0,1-7.08-24.81l22.07,6.33.56-1.11c-22.33-18.24-27.51-40.3-15.3-67,29.33,32.71,65.65,49.66,108.61,53.05,0-6-.52-11.72.08-17.32,3.12-28.64,29.91-49.18,58.51-45.31,11.76,1.59,22.09,5.93,30.78,14.1a4.68,4.68,0,0,0,3.92.75c7.9-2.72,15.72-5.64,23.54-8.57,2.21-.82,4.34-1.86,7.19-3.1-4.07,12.05-11.87,20.42-21.44,27.45l.49,1,27.28-7.44c-2.86,3.28-5.38,6.61-8.33,9.48-4.74,4.61-9.64,9.07-14.74,13.27a7,7,0,0,0-2.93,5.88c-.85,34.27-10.66,65.56-32.12,92.66-23.28,29.4-54,46.54-90.83,52.57q-53.16,8.69-100.91-16.56C63.94,267.78,62.27,266.76,60.56,265.78Z"/></g></g></svg>