<svg xmlns="http://www.w3.org/2000/svg" width="22.047" height="55.528"><defs><style>.cls-2{fill:none;stroke:#1e1240;stroke-linecap:round;stroke-linejoin:round;stroke-width:1.5px}</style></defs><g id="picto_verre_de_vin" data-name="picto/verre de vin" transform="translate(.806 .908)"><path id="Tracé_20527" fill="#ffe6e6" d="M1101.98 402.061a3.894 3.894 0 01-1.683-.428 6.054 6.054 0 01-3.232-4.658 31.488 31.488 0 01-.115-6.688h10.061a31.458 31.458 0 01-.116 6.687 6.054 6.054 0 01-3.232 4.659 3.9 3.9 0 01-1.683.428z" data-name="Tracé 20527" transform="translate(-1093.352 -379.71)"/><path id="Ligne_69" d="M0 0v24.918" class="cls-2" data-name="Ligne 69" transform="translate(8.629 25.828)"/><path id="Tracé_20528" d="M1107.618 375.882s2.552 10.328 1.46 17.77a9.55 9.55 0 01-5.162 7.286 6.98 6.98 0 01-6.389 0 9.554 9.554 0 01-5.162-7.286c-1.093-7.441 1.459-17.77 1.459-17.77" class="cls-2" data-name="Tracé 20528" transform="translate(-1092.093 -375.882)"/><path id="Tracé_20529" d="M1100.77 441.612c6.552 0 11.862 1.255 11.862 2.8s-5.311 2.8-11.862 2.8h-8.495" class="cls-2" data-name="Tracé 20529" transform="translate(-1092.141 -393.349)"/></g></svg>