<svg xmlns="http://www.w3.org/2000/svg" width="21" height="49" viewBox="0 0 21 49"><g><g><g><path fill="none" stroke="#1e1240" stroke-linecap="round" stroke-linejoin="round" stroke-miterlimit="20" stroke-width="1.5" d="M4.617 26.778h2.796"/></g><g><path fill="none" stroke="#1e1240" stroke-linecap="round" stroke-linejoin="round" stroke-miterlimit="20" stroke-width="1.5" d="M4.617 21.844h2.796"/></g><g><path fill="none" stroke="#1e1240" stroke-linecap="round" stroke-linejoin="round" stroke-miterlimit="20" stroke-width="1.5" d="M4.617 16.91h2.796"/></g><g><path fill="none" stroke="#1e1240" stroke-linecap="round" stroke-linejoin="round" stroke-miterlimit="20" stroke-width="1.5" d="M10.11 6.91V38.16"/></g><g><path fill="none" stroke="#1e1240" stroke-linecap="round" stroke-miterlimit="20" stroke-width="1.5" d="M10.11.826v0a5.493 5.493 0 0 0-5.493 5.493V30.53a9.375 9.375 0 1 0 10.986 0V6.282v0"/></g><g><path fill="none" stroke="#1e1240" stroke-linecap="round" stroke-miterlimit="20" stroke-width="1.5" d="M10.11.826v0a5.493 5.493 0 0 1 5.493 5.493"/></g><g><path fill="#ff4747" d="M10.11 45.346c3.97 0 7.2-3.221 7.218-7.187h-2.942a4.277 4.277 0 0 1-8.552 0H2.89c.019 3.966 3.249 7.187 7.218 7.187z"/></g></g></g></svg>