<svg xmlns="http://www.w3.org/2000/svg" width="45" height="45" viewBox="0 0 45 45"><g><g><g><g><g><path fill="#35b0cb" d="M22.472 7.434l-.05-.002-.072.002z"/><path fill="none" stroke="#707070" stroke-miterlimit="20" stroke-width="1.5" d="M22.472 7.434l-.05-.002-.072.002v0z"/></g></g><g><path fill="none" stroke="#42210b" stroke-linecap="round" stroke-miterlimit="20" stroke-width="1.5" d="M25.088 22.422a2.666 2.666 0 1 0-5.332 0 2.666 2.666 0 0 0 5.332 0z"/></g><g><path fill="none" stroke="#42210b" stroke-linecap="round" stroke-miterlimit="20" stroke-width="1.5" d="M22.421 19.756L22.35 7.434"/></g><g><path fill="none" stroke="#42210b" stroke-linecap="round" stroke-miterlimit="20" stroke-width="1.5" d="M43.844 22.422C43.844 10.591 34.254 1 22.421 1 10.591 1 1 10.591 1 22.422c0 11.831 9.59 21.422 21.421 21.422 11.832 0 21.423-9.591 21.423-21.422z"/></g><g><g><path fill="#35b0cb" d="M22.472 7.434l-.05-.002-.072.002z"/><path fill="none" stroke="#707070" stroke-miterlimit="20" stroke-width="1.5" d="M22.472 7.434l-.05-.002-.072.002v0z"/></g><g><path fill="none" stroke="#42210b" stroke-linecap="round" stroke-miterlimit="20" stroke-width="1.5" d="M22.35 7.434v0l1.459.136c4.635.431 8.845 2.956 11.32 6.898a14.911 14.911 0 0 1 2.283 7.954 14.93 14.93 0 0 1-4.391 10.6 15.066 15.066 0 0 1-1.63 1.412 14.923 14.923 0 0 1-8.969 2.978c-8.278 0-14.99-6.711-14.99-14.99l.002-.072"/></g></g></g><g><path fill="none" stroke="#ef6a6b" stroke-miterlimit="20" stroke-width="3" d="M22.422 40.472c9.934 0 17.987-8.052 17.987-17.986 0-9.933-8.053-17.986-17.987-17.986"/></g></g></g></svg>