<svg width="73" height="13" viewBox="0 0 73 13" fill="none" xmlns="http://www.w3.org/2000/svg">
<g clip-path="url(#clip0_169_27)">
<path d="M12.6445 4.94766C12.6324 4.90541 12.6091 4.86748 12.5772 4.8381C12.5454 4.80873 12.5062 4.78907 12.4641 4.78134L8.36652 4.13905L6.53187 0.136555C6.51457 0.0959131 6.48615 0.0613457 6.4501 0.0370743C6.41405 0.0128029 6.37192 -0.00012207 6.32886 -0.00012207C6.2858 -0.00012207 6.24367 0.0128029 6.20762 0.0370743C6.17157 0.0613457 6.14316 0.0959131 6.12585 0.136555L4.29318 4.13973L0.198192 4.78134C0.155635 4.78861 0.115914 4.80806 0.083558 4.83746C0.0512018 4.86687 0.0275114 4.90505 0.0151871 4.94766C0.00200067 4.9908 0.000341473 5.0368 0.0103842 5.08082C0.020427 5.12484 0.0418001 5.16526 0.0722532 5.19782L3.03772 8.31395L2.33522 12.714C2.32795 12.7584 2.33247 12.8041 2.34829 12.8461C2.3641 12.8881 2.39064 12.9249 2.42508 12.9527C2.45872 12.9796 2.49932 12.9957 2.54179 12.9989C2.58426 13.0022 2.62671 12.9924 2.66384 12.9709L6.32919 10.8939L9.99323 12.9689C10.0304 12.9901 10.0728 12.9997 10.1152 12.9965C10.1577 12.9932 10.1982 12.9773 10.232 12.9506C10.2665 12.9229 10.2931 12.8861 10.3089 12.8441C10.3247 12.8021 10.3292 12.7564 10.3218 12.712L9.62197 8.31192L12.5874 5.19579C12.6175 5.16339 12.6386 5.12332 12.6486 5.07971C12.6587 5.0361 12.6572 4.99052 12.6445 4.94766Z" fill="#808080"/>
<path d="M27.7304 4.94766C27.7183 4.90541 27.695 4.86748 27.6632 4.8381C27.6313 4.80873 27.5921 4.78907 27.5501 4.78134L23.4525 4.13905L21.6178 0.136555C21.6005 0.0959131 21.5721 0.0613457 21.536 0.0370743C21.5 0.0128029 21.4579 -0.00012207 21.4148 -0.00012207C21.3717 -0.00012207 21.3296 0.0128029 21.2936 0.0370743C21.2575 0.0613457 21.2291 0.0959131 21.2118 0.136555L19.3791 4.13973L15.2841 4.78134C15.2416 4.78861 15.2019 4.80806 15.1695 4.83746C15.1371 4.86687 15.1134 4.90505 15.1011 4.94766C15.0879 4.9908 15.0863 5.0368 15.0963 5.08082C15.1064 5.12484 15.1277 5.16526 15.1582 5.19782L18.1237 8.31395L17.4212 12.714C17.4139 12.7584 17.4184 12.8041 17.4342 12.8461C17.45 12.8881 17.4766 12.9249 17.511 12.9527C17.5447 12.9796 17.5853 12.9957 17.6277 12.9989C17.6702 13.0022 17.7127 12.9924 17.7498 12.9709L21.4151 10.8939L25.0792 12.9689C25.1164 12.9901 25.1588 12.9997 25.2012 12.9965C25.2436 12.9932 25.2842 12.9773 25.3179 12.9506C25.3524 12.9229 25.379 12.8861 25.3948 12.8441C25.4106 12.8021 25.4151 12.7564 25.4078 12.712L24.7079 8.31192L27.6734 5.19579C27.7034 5.16339 27.7246 5.12332 27.7346 5.07971C27.7446 5.0361 27.7432 4.99052 27.7304 4.94766Z" fill="#808080"/>
<path d="M42.8164 4.94766C42.8043 4.90541 42.781 4.86748 42.7491 4.8381C42.7172 4.80873 42.6781 4.78907 42.636 4.78134L38.5384 4.13905L36.7037 0.136555C36.6864 0.0959131 36.658 0.0613457 36.622 0.0370743C36.5859 0.0128029 36.5438 -0.00012207 36.5007 -0.00012207C36.4577 -0.00012207 36.4155 0.0128029 36.3795 0.0370743C36.3434 0.0613457 36.315 0.0959131 36.2977 0.136555L34.4651 4.13973L30.3701 4.78134C30.3275 4.78861 30.2878 4.80806 30.2554 4.83746C30.2231 4.86687 30.1994 4.90505 30.1871 4.94766C30.1739 4.9908 30.1722 5.0368 30.1823 5.08082C30.1923 5.12484 30.2137 5.16526 30.2441 5.19782L33.2096 8.31395L32.5071 12.714C32.4998 12.7584 32.5043 12.8041 32.5202 12.8461C32.536 12.8881 32.5625 12.9249 32.597 12.9527C32.6306 12.9796 32.6712 12.9957 32.7137 12.9989C32.7561 13.0022 32.7986 12.9924 32.8357 12.9709L36.5011 10.8939L40.1651 12.9689C40.2023 12.9901 40.2447 12.9997 40.2871 12.9965C40.3295 12.9932 40.3701 12.9773 40.4039 12.9506C40.4384 12.9229 40.4649 12.8861 40.4808 12.8441C40.4966 12.8021 40.5011 12.7564 40.4937 12.712L39.7938 8.31192L42.7593 5.19579C42.7894 5.16339 42.8105 5.12332 42.8205 5.07971C42.8305 5.0361 42.8291 4.99052 42.8164 4.94766Z" fill="#808080"/>
<path d="M57.9023 4.94766C57.8902 4.90541 57.8669 4.86748 57.835 4.8381C57.8032 4.80873 57.764 4.78907 57.7219 4.78134L53.6243 4.13905L51.7897 0.136555C51.7724 0.0959131 51.744 0.0613457 51.7079 0.0370743C51.6719 0.0128029 51.6297 -0.00012207 51.5867 -0.00012207C51.5436 -0.00012207 51.5015 0.0128029 51.4654 0.0370743C51.4294 0.0613457 51.401 0.0959131 51.3837 0.136555L49.551 4.13973L45.456 4.78134C45.4134 4.78861 45.3737 4.80806 45.3414 4.83746C45.309 4.86687 45.2853 4.90505 45.273 4.94766C45.2598 4.9908 45.2582 5.0368 45.2682 5.08082C45.2782 5.12484 45.2996 5.16526 45.3301 5.19782L48.2955 8.31395L47.593 12.714C47.5858 12.7584 47.5903 12.8041 47.6061 12.8461C47.6219 12.8881 47.6484 12.9249 47.6829 12.9527C47.7165 12.9796 47.7571 12.9957 47.7996 12.9989C47.8421 13.0022 47.8845 12.9924 47.9217 12.9709L51.587 10.8939L55.251 12.9689C55.2882 12.9901 55.3306 12.9997 55.3731 12.9965C55.4155 12.9932 55.456 12.9773 55.4898 12.9506C55.5243 12.9229 55.5509 12.8861 55.5667 12.8441C55.5825 12.8021 55.587 12.7564 55.5797 12.712L54.8798 8.31192L57.8452 5.19579C57.8753 5.16339 57.8964 5.12332 57.9064 5.07971C57.9165 5.0361 57.915 4.99052 57.9023 4.94766Z" fill="#808080"/>
<path d="M72.9922 4.94766C72.98 4.90541 72.9567 4.86748 72.9249 4.8381C72.893 4.80873 72.8539 4.78907 72.8118 4.78134L68.7142 4.13905L66.8795 0.136555C66.8622 0.0959131 66.8338 0.0613457 66.7978 0.0370743C66.7617 0.0128029 66.7196 -0.00012207 66.6765 -0.00012207C66.6335 -0.00012207 66.5913 0.0128029 66.5553 0.0370743C66.5192 0.0613457 66.4908 0.0959131 66.4735 0.136555L64.6408 4.13973L60.5458 4.78134C60.5033 4.78861 60.4636 4.80806 60.4312 4.83746C60.3989 4.86687 60.3752 4.90505 60.3628 4.94766C60.3497 4.9908 60.348 5.0368 60.358 5.08082C60.3681 5.12484 60.3895 5.16526 60.4199 5.19782L63.3854 8.31395L62.6829 12.714C62.6756 12.7584 62.6801 12.8041 62.6959 12.8461C62.7118 12.8881 62.7383 12.9249 62.7727 12.9527C62.8064 12.9796 62.847 12.9957 62.8894 12.9989C62.9319 13.0022 62.9744 12.9924 63.0115 12.9709L66.6768 10.8939L70.3409 12.9689C70.3781 12.9901 70.4205 12.9997 70.4629 12.9965C70.5053 12.9932 70.5459 12.9773 70.5796 12.9506C70.6141 12.9229 70.6407 12.8861 70.6565 12.8441C70.6724 12.8021 70.6768 12.7564 70.6695 12.712L69.9696 8.31192L72.9351 5.19579C72.9651 5.16339 72.9863 5.12332 72.9963 5.07971C73.0063 5.0361 73.0049 4.99052 72.9922 4.94766Z" fill="#808080"/>
</g>
<defs>
<clipPath id="clip0_169_27">
<rect width="73" height="13" fill="white"/>
</clipPath>
</defs>
</svg>
