<svg width="24" height="24" viewBox="0 0 24 24" fill="none" xmlns="http://www.w3.org/2000/svg">
<g id="Document duplicate">
<mask id="mask0_0_281" style="mask-type:luminance" maskUnits="userSpaceOnUse" x="0" y="0" width="24" height="24">
<rect id="Document duplicate (Background/Mask)" width="24" height="24" fill="white"/>
</mask>
<g mask="url(#mask0_0_281)">
<path id="Icon" d="M15.5939 3.55883L16.3066 2.85731L16.3066 2.85731L15.5939 3.55883ZM19.4564 7.48258L18.7437 8.1841V8.1841L19.4564 7.48258ZM18 8.85405H19C19 8.59156 18.8968 8.3396 18.7127 8.15254L18 8.85405ZM14.2062 5L14.9188 4.29848C14.7309 4.10753 14.4741 4 14.2062 4V5ZM10.25 2C8.14774 2 6.5 3.72282 6.5 5.77778H8.5C8.5 4.7943 9.28511 4 10.25 4V2ZM14.2626 2H10.25V4H14.2626V2ZM16.3066 2.85731C15.77 2.3122 15.0354 2 14.2626 2V4C14.4945 4 14.7171 4.09359 14.8813 4.26035L16.3066 2.85731ZM20.169 6.78106L16.3066 2.85731L14.8813 4.26035L18.7437 8.1841L20.169 6.78106ZM21 8.81263C21 8.05661 20.7047 7.32522 20.169 6.78106L18.7437 8.1841C18.9078 8.35074 19 8.57681 19 8.81263H21ZM21 14.6667V8.81263H19V14.6667H21ZM17.25 18.4444C19.3523 18.4444 21 16.7216 21 14.6667H19C19 15.6501 18.2149 16.4444 17.25 16.4444V18.4444ZM15.5 18.4444H17.25V16.4444H15.5V18.4444ZM10.25 18.4444H15.5V16.4444H10.25V18.4444ZM6.5 14.6667C6.5 16.7216 8.14774 18.4444 10.25 18.4444V16.4444C9.28511 16.4444 8.5 15.6501 8.5 14.6667H6.5ZM6.5 7.55556V14.6667H8.5V7.55556H6.5ZM6.5 5.77778V7.55556H8.5V5.77778H6.5ZM10.5 5.77778C10.5 5.87661 10.4118 6 10.25 6V4C9.28934 4 8.5 4.79002 8.5 5.77778H10.5ZM10.5 7.55556V5.77778H8.5V7.55556H10.5ZM10.5 14.6667V7.55556H8.5V14.6667H10.5ZM10.25 14.4444C10.4118 14.4444 10.5 14.5678 10.5 14.6667H8.5C8.5 15.6544 9.28934 16.4444 10.25 16.4444V14.4444ZM15.5 14.4444H10.25V16.4444H15.5V14.4444ZM17.25 14.4444H15.5V16.4444H17.25V14.4444ZM17 14.6667C17 14.5678 17.0882 14.4444 17.25 14.4444V16.4444C18.2107 16.4444 19 15.6544 19 14.6667H17ZM17 8.85405V14.6667H19V8.85405H17ZM13.4935 5.70152L17.2873 9.55557L18.7127 8.15254L14.9188 4.29848L13.4935 5.70152ZM10.25 6H14.2062V4H10.25V6ZM7 5.55556C4.79086 5.55556 3 7.34642 3 9.55556H5C5 8.45099 5.89543 7.55556 7 7.55556V5.55556ZM8.5 5.55556H7V7.55556H8.5V5.55556ZM10.5 7.55556C10.5 6.45099 9.60457 5.55556 8.5 5.55556V7.55556H10.5ZM8.5 9.55556C9.60457 9.55556 10.5 8.66013 10.5 7.55556H8.5V7.55556V9.55556ZM7 9.55556H8.5V7.55556H7V9.55556ZM7 9.55556V9.55556V7.55556C5.89543 7.55556 5 8.45099 5 9.55556H7ZM7 18.2222V9.55556H5V18.2222H7ZM6.75 18C6.91181 18 7 18.1234 7 18.2222H5C5 19.21 5.78934 20 6.75 20V18ZM13.5 18H6.75V20H13.5V18ZM13.5 18V20C14.6046 20 15.5 19.1046 15.5 18H13.5ZM13.5 16.4444V18H15.5V16.4444H13.5ZM15.5 14.4444C14.3954 14.4444 13.5 15.3399 13.5 16.4444H15.5V14.4444ZM17.5 16.4444C17.5 15.3399 16.6046 14.4444 15.5 14.4444V16.4444H17.5ZM17.5 18V16.4444H15.5V18H17.5ZM13.5 22C15.7091 22 17.5 20.2091 17.5 18H15.5C15.5 19.1046 14.6046 20 13.5 20V22ZM6.75 22H13.5V20H6.75V22ZM3 18.2222C3 20.2772 4.64774 22 6.75 22V20C5.78511 20 5 19.2057 5 18.2222H3ZM3 9.55556V18.2222H5V9.55556H3Z" fill="#9CA3AF"/>
</g>
</g>
</svg>
