<svg width="20" height="20" viewBox="0 0 20 20" fill="none" xmlns="http://www.w3.org/2000/svg">
<g id="Trash">
<mask id="mask0_0_273" style="mask-type:luminance" maskUnits="userSpaceOnUse" x="0" y="0" width="20" height="20">
<rect id="Trash (Background/Mask)" width="20" height="20" fill="white"/>
</mask>
<g mask="url(#mask0_0_273)">
<path id="Icon" d="M5.81008 6.26386L6.80767 6.19438V6.19438L5.81008 6.26386ZM4.74303 5.33575L4.8125 6.33333H4.8125L4.74303 5.33575ZM6.51478 16.3826L5.5172 16.4521V16.4521L6.51478 16.3826ZM14.4852 16.3826L13.4876 16.3131L14.4852 16.3826ZM15.1899 6.26386L16.1875 6.33333V6.33333L15.1899 6.26386ZM16.257 5.33575L16.1875 6.33333H16.1875L16.257 5.33575ZM17.1851 6.40281L16.1875 6.33333V6.33333L17.1851 6.40281ZM16.4804 16.5216L15.4828 16.4521L16.4804 16.5216ZM4.51961 16.5216L5.5172 16.4521L4.51961 16.5216ZM3.81492 6.40281L4.8125 6.33333L3.81492 6.40281ZM11.9375 4H12.9375C12.9375 3.44772 12.4898 3 11.9375 3V4ZM9.0625 4V3C8.51022 3 8.0625 3.44772 8.0625 4H9.0625ZM6.80767 6.19438C6.73093 5.09248 5.77545 4.26143 4.67355 4.33817L4.8125 6.33333H4.8125L6.80767 6.19438ZM7.51237 16.3131L6.80767 6.19438L4.8125 6.33333L5.5172 16.4521L7.51237 16.3131ZM7.13807 16C7.36987 16 7.50248 16.1712 7.51237 16.3131L5.5172 16.4521C5.57857 17.3333 6.2944 18 7.13807 18V16ZM13.8619 16H7.13807V18H13.8619V16ZM13.4876 16.3131C13.4975 16.1712 13.6301 16 13.8619 16V18C14.7056 18 15.4214 17.3333 15.4828 16.4521L13.4876 16.3131ZM14.1923 6.19438L13.4876 16.3131L15.4828 16.4521L16.1875 6.33333L14.1923 6.19438ZM16.3264 4.33817C15.2245 4.26143 14.2691 5.09248 14.1923 6.19439L16.1875 6.33333L16.1875 6.33333L16.3264 4.33817ZM18.1827 6.47228C18.2594 5.37038 17.4284 4.41491 16.3264 4.33817L16.1875 6.33333V6.33333L18.1827 6.47228ZM17.478 16.591L18.1827 6.47228L16.1875 6.33333L15.4828 16.4521L17.478 16.591ZM13.8619 20C15.8098 20 17.3474 18.4661 17.478 16.591L15.4828 16.4521C15.4219 17.3265 14.7123 18 13.8619 18V20ZM7.13807 20H13.8619V18H7.13807V20ZM3.52203 16.591C3.65262 18.4661 5.19016 20 7.13807 20V18C6.28768 18 5.57809 17.3265 5.5172 16.4521L3.52203 16.591ZM2.81733 6.47228L3.52203 16.591L5.5172 16.4521L4.8125 6.33333L2.81733 6.47228ZM4.67355 4.33817C3.57165 4.41491 2.74059 5.37038 2.81733 6.47228L4.8125 6.33333H4.8125L4.67355 4.33817ZM10.875 9.66667C10.875 8.5621 9.97957 7.66667 8.875 7.66667V9.66667H10.875ZM10.875 14.6667V9.66667H8.875V14.6667H10.875ZM8.875 16.6667C9.97957 16.6667 10.875 15.7712 10.875 14.6667H8.875V16.6667ZM6.875 14.6667C6.875 15.7712 7.77043 16.6667 8.875 16.6667V14.6667H6.875ZM6.875 9.66667V14.6667H8.875V9.66667H6.875ZM8.875 7.66667C7.77043 7.66667 6.875 8.5621 6.875 9.66667H8.875V7.66667ZM14.125 9.66667C14.125 8.5621 13.2296 7.66667 12.125 7.66667V9.66667H14.125ZM14.125 14.6667V9.66667H12.125V14.6667H14.125ZM12.125 16.6667C13.2296 16.6667 14.125 15.7712 14.125 14.6667H12.125V16.6667ZM10.125 14.6667C10.125 15.7712 11.0204 16.6667 12.125 16.6667V14.6667H10.125ZM10.125 9.66667V14.6667H12.125V9.66667H10.125ZM12.125 7.66667C11.0204 7.66667 10.125 8.5621 10.125 9.66667H12.125V7.66667ZM8.875 1C7.27037 1 6.0625 2.32057 6.0625 3.83333H8.0625C8.0625 3.36909 8.43017 3 8.875 3V1ZM12.125 1H8.875V3H12.125V1ZM14.9375 3.83333C14.9375 2.32057 13.7296 1 12.125 1V3C12.5698 3 12.9375 3.36909 12.9375 3.83333H14.9375ZM14.9375 6.33333V3.83333H12.9375V6.33333H14.9375ZM12.9375 8.33333C14.0421 8.33333 14.9375 7.4379 14.9375 6.33333H12.9375V6.33333V8.33333ZM10.9375 6.33333C10.9375 7.4379 11.8329 8.33333 12.9375 8.33333V6.33333V6.33333H10.9375ZM10.9375 4V6.33333H12.9375V4H10.9375ZM9.0625 5H11.9375V3H9.0625V5ZM10.0625 6.33333V4H8.0625V6.33333H10.0625ZM8.0625 8.33333C9.16707 8.33333 10.0625 7.4379 10.0625 6.33333H8.0625V6.33333V8.33333ZM6.0625 6.33333C6.0625 7.4379 6.95793 8.33333 8.0625 8.33333V6.33333V6.33333H6.0625ZM6.0625 3.83333V6.33333H8.0625V3.83333H6.0625ZM4 4.33333C2.89543 4.33333 2 5.22876 2 6.33333H4V4.33333ZM17 4.33333H4V6.33333H17V4.33333ZM19 6.33333C19 5.22876 18.1046 4.33333 17 4.33333V6.33333H19ZM17 8.33333C18.1046 8.33333 19 7.4379 19 6.33333H17V6.33333V8.33333ZM4 8.33333H17V6.33333H4V8.33333ZM2 6.33333C2 7.4379 2.89543 8.33333 4 8.33333V6.33333V6.33333H2Z" fill="#9CA3AF"/>
</g>
</g>
</svg>
