<svg xmlns="http://www.w3.org/2000/svg" width="43.207" height="38.388" viewBox="0 0 43.207 38.388">
    <defs>
        <style>
            .cls-1{fill:#ff6d3b}.cls-2,.cls-3,.cls-4{fill:none;stroke:#1e1240;stroke-width:1.5px}.cls-2,.cls-3{stroke-linecap:round}.cls-2{stroke-linejoin:round}.cls-3,.cls-4{stroke-miterlimit:10}
        </style>
    </defs>
    <g id="Composant_226_2" data-name="Composant 226 – 2" transform="translate(.75 .75)">
        <path id="Tracé_20527" d="M1099.032 395.32a1.665 1.665 0 0 1-.719-.183 2.588 2.588 0 0 1-1.382-1.991 13.456 13.456 0 0 1-.049-2.859h4.3a13.451 13.451 0 0 1-.049 2.858 2.588 2.588 0 0 1-1.382 1.991 1.666 1.666 0 0 1-.719.184z" class="cls-1" data-name="Tracé 20527" transform="translate(-1062.397 -371.906)"/>
        <path id="Ligne_69" d="M0 0L0 10.651" class="cls-2" data-name="Ligne 69" transform="translate(36.636 24.901)"/>
        <path id="Tracé_20528" d="M1098.729 375.882a24.3 24.3 0 0 1 .624 7.6 4.082 4.082 0 0 1-2.207 3.114 2.984 2.984 0 0 1-2.731 0 4.084 4.084 0 0 1-2.206-3.114 24.3 24.3 0 0 1 .624-7.6" class="cls-2" data-name="Tracé 20528" transform="translate(-1059.145 -362.021)"/>
        <path id="Tracé_20529" d="M1095.907 441.612c2.8 0 5.071.536 5.071 1.2s-2.27 1.2-5.071 1.2h-3.631" class="cls-2" data-name="Tracé 20529" transform="translate(-1059.27 -407.12)"/>
        <path id="Tracé_20530" d="M1005.564 368.609a18.444 18.444 0 1 1 2.889-36.662" class="cls-3" data-name="Tracé 20530" transform="translate(-987.12 -331.722)"/>
        <path id="Tracé_20531" d="M1012.672 372.466a15.192 15.192 0 1 1 0-30.384 15.4 15.4 0 0 1 1.553.078" class="cls-3" data-name="Tracé 20531" transform="translate(-994.227 -338.829)"/>
        <g id="Groupe_5128" data-name="Groupe 5128" transform="translate(20.5 1.268)">
            <path id="Tracé_20532" d="M1065.706 337.306v-1.152a.393.393 0 0 0-.393-.393h-1.892a.393.393 0 0 0-.392.393v1.152" class="cls-3" data-name="Tracé 20532" transform="translate(-1059.704 -335.762)"/>
            <path id="Tracé_20533" d="M1059.513 341.965v-.471a.812.812 0 0 1 .811-.811h3.261a.811.811 0 0 1 .811.811v.471" class="cls-3" data-name="Tracé 20533" transform="translate(-1057.291 -339.138)"/>
            <path id="Tracé_20534" d="M1058.36 344.54v3.41s-.144 2.013 1.63 6.137a25.841 25.841 0 0 1 1.771 7.788V375.6a1.793 1.793 0 0 1-1.745 1.8h-5.837a1.793 1.793 0 0 1-1.745-1.8v-13.725a25.845 25.845 0 0 1 1.771-7.788c1.774-4.124 1.63-6.137 1.63-6.137v-3.41" class="cls-4" data-name="Tracé 20534" transform="translate(-1052.434 -341.785)"/>
            <path id="Ligne_70" d="M9.486 0L0 0" class="cls-4" data-name="Ligne 70" transform="translate(0 27.37)"/>
            <path id="Ligne_71" d="M0 0L9.486 0" class="cls-4" data-name="Ligne 71" transform="translate(0 20.488)"/>
            <path id="Rectangle_813" d="M0 0H4.204V6.727H0z" class="cls-1" data-name="Rectangle 813" transform="rotate(90 -6.88 14.908)"/>
        </g>
        <g id="Groupe_5129" data-name="Groupe 5129" transform="translate(3.252 10.907)">
            <path id="Ligne_72" d="M14.745 0L0 0" class="cls-3" data-name="Ligne 72" transform="translate(2)"/>
            <path id="Ligne_73" d="M14.961 0L0 0" class="cls-3" data-name="Ligne 73" transform="translate(0 7.576)"/>
            <path id="Ligne_74" d="M12.916 0L0 0" class="cls-3" data-name="Ligne 74" transform="translate(2.045 15.153)"/>
        </g>
    </g>
</svg>
