<svg xmlns="http://www.w3.org/2000/svg" width="37.408" height="37.651" viewBox="0 0 37.408 37.651">
    <defs>
        <style>
            .cls-1{fill:#b3b5f0}.cls-2,.cls-3{fill:none;stroke:#1e1240;stroke-miterlimit:10;stroke-width:1.5px}.cls-3{stroke-linecap:round}
        </style>
    </defs>
    <g id="Composant_231_2" data-name="Composant 231 – 2" transform="translate(.752 .75)">
        <path id="Tracé_20478" d="M157.5 360.905a2.089 2.089 0 0 0-2.136-.338c.019-.025.037-.051.058-.076a1.853 1.853 0 0 1 2.829 2.395c-.021.025-.043.046-.065.069a2.089 2.089 0 0 0-.686-2.05z" class="cls-1" data-name="Tracé 20478" transform="translate(-135.775 -339.791)"/>
        <path id="Tracé_20479" d="M120.685 360.547a2.089 2.089 0 0 1 2.142-.295c-.019-.026-.036-.052-.056-.077a1.854 1.854 0 1 0-2.877 2.338c.021.025.043.047.064.071a2.088 2.088 0 0 1 .727-2.037z" class="cls-1" data-name="Tracé 20479" transform="translate(-109.999 -339.543)"/>
        <path id="Tracé_20480" d="M118.924 340.047a2.089 2.089 0 0 1 2.142-.3c-.019-.026-.036-.052-.056-.077a1.853 1.853 0 1 0-2.877 2.338c.02.025.043.047.064.071a2.088 2.088 0 0 1 .727-2.032z" class="cls-1" data-name="Tracé 20480" transform="translate(-108.735 -324.818)"/>
        <path id="Tracé_20481" d="M120.41 356.154a3.382 3.382 0 1 0-2.4 5.794" class="cls-2" data-name="Tracé 20481" transform="translate(-106.536 -336.449)"/>
        <path id="Tracé_20482" d="M131.31 358.7a3.382 3.382 0 1 0 3.416-3.348 3.382 3.382 0 0 0-3.416 3.348z" class="cls-2" data-name="Tracé 20482" transform="translate(-118.496 -336.568)"/>
        <path id="Tracé_20483" d="M154.012 362.281a3.382 3.382 0 1 0-2.288-5.841" class="cls-2" data-name="Tracé 20483" transform="translate(-133.158 -336.688)"/>
        <path id="Tracé_20484" d="M151.731 383.37a3.383 3.383 0 0 0-.918-6.7" class="cls-2" data-name="Tracé 20484" transform="translate(-132.504 -351.865)"/>
        <path id="Tracé_20485" d="M125.823 376.492a3.467 3.467 0 0 0-.384-.025 3.382 3.382 0 0 0-.635 6.71" class="cls-2" data-name="Tracé 20485" transform="translate(-111.826 -351.734)"/>
        <path id="Tracé_20486" d="M130.933 396.334a3.382 3.382 0 1 0 3.416-3.348 3.382 3.382 0 0 0-3.416 3.348z" class="cls-2" data-name="Tracé 20486" transform="translate(-118.226 -363.6)"/>
        <path id="Tracé_20487" d="M131.551 334.694a3.382 3.382 0 1 0 3.415-3.348 3.381 3.381 0 0 0-3.415 3.348z" class="cls-2" data-name="Tracé 20487" transform="translate(-118.669 -319.328)"/>
        <path id="Tracé_20488" d="M138.839 337.6a2.088 2.088 0 0 0-1.86 1.1v-.095a1.854 1.854 0 1 1 3.707.037c0 .032 0 .064-.006.1a2.088 2.088 0 0 0-1.841-1.142z" class="cls-1" data-name="Tracé 20488" transform="translate(-122.566 -323.223)"/>
        <path id="Tracé_20489" d="M138.6 361.6a2.089 2.089 0 0 0-1.86 1.1v-.1a1.853 1.853 0 0 1 3.707.037c0 .032 0 .063-.006.095a2.088 2.088 0 0 0-1.841-1.132z" class="cls-1" data-name="Tracé 20489" transform="translate(-122.393 -340.465)"/>
        <path id="Tracé_20490" d="M138.225 398.9a2.088 2.088 0 0 0-1.86 1.1v-.095a1.853 1.853 0 0 1 3.707.037c0 .032 0 .063-.006.095a2.09 2.09 0 0 0-1.841-1.137z" class="cls-1" data-name="Tracé 20490" transform="translate(-122.125 -367.254)"/>
        <path id="Tracé_20491" d="M149.514 382.347a2.088 2.088 0 0 0-2.136-.338c.019-.025.037-.051.057-.076a1.853 1.853 0 0 1 2.83 2.395c-.021.025-.043.047-.065.07a2.089 2.089 0 0 0-.686-2.051z" class="cls-1" data-name="Tracé 20491" transform="translate(-130.037 -355.191)"/>
        <path id="Tracé_20492" d="M128.243 382.144a2.088 2.088 0 0 1 2.142-.3c-.019-.026-.036-.052-.056-.077a1.853 1.853 0 0 0-2.877 2.337c.021.025.043.047.064.071a2.087 2.087 0 0 1 .727-2.031z" class="cls-1" data-name="Tracé 20492" transform="translate(-115.428 -355.055)"/>
        <path id="Tracé_20493" d="M158.315 342.019a3.382 3.382 0 1 0-3.715-5.571" class="cls-2" data-name="Tracé 20493" transform="translate(-135.225 -322.371)"/>
        <path id="Tracé_20494" d="M118.187 335.358a3.382 3.382 0 1 0-3.731 5.5" class="cls-2" data-name="Tracé 20494" transform="translate(-104.93 -321.504)"/>
        <path id="Tracé_20495" d="M159.671 340.762a2.088 2.088 0 0 0-2.136-.338c.019-.025.037-.051.058-.076a1.853 1.853 0 0 1 2.829 2.395c-.021.025-.043.046-.065.07a2.089 2.089 0 0 0-.686-2.051z" class="cls-1" data-name="Tracé 20495" transform="translate(-137.332 -325.322)"/>
        <path id="Ligne_68" d="M0.023 0L0 2.274" class="cls-3" data-name="Ligne 68" transform="translate(16.138 25.547)"/>
        <path id="Tracé_20496" d="M159.889 328.253s1.67-3.293 7.51-2.584l-1.146 1.173a9.917 9.917 0 0 1 5.012.776l-3.492 1.743a.185.185 0 0 0 .044.342 9.537 9.537 0 0 1 5.989 4.871l-1.744.5a11.291 11.291 0 0 1 2.649 4.5 13.152 13.152 0 0 1-7.488-2.335c-.034-.021-.066.033-.033.055a8.523 8.523 0 0 1 3.575 6.98l-2.5-1.773a.019.019 0 0 0-.028.024c.273.494 1.783 3.4.956 5.937a13.188 13.188 0 0 1-4.99-3.492.042.042 0 0 0-.074.034l.362 2.315a9.932 9.932 0 0 1-2.325-1.584" class="cls-3" data-name="Tracé 20496" transform="translate(-139.024 -315.178)"/>
        <path id="Tracé_20497" d="M130.423 308.349c.522.158 1.053.337 1.578.538a16.814 16.814 0 0 0 9.707.392" class="cls-3" data-name="Tracé 20497" transform="translate(-117.86 -302.811)"/>
        <path id="Tracé_20498" d="M138.2 314.716l.043-.751c-.01-3.045-2.218-3.708-2.218-3.708" class="cls-3" data-name="Tracé 20498" transform="translate(-121.883 -304.18)"/>
        <rect id="Rectangle_812" width="4.485" height="3.409" class="cls-3" data-name="Rectangle 812" rx="1.705" transform="translate(4.718)"/>
        <path id="Tracé_20499" d="M94.471 307.889v-7.1h-3.356v7.1s-.177 4.805-3.934 6.889a2.727 2.727 0 0 0-1.344 2.549l.826 14.9a14.4 14.4 0 0 0 6.13 1.06h3.414" class="cls-3" data-name="Tracé 20499" transform="translate(-85.833 -297.379)"/>
        <path id="Tracé_20500" d="M95.881 393.987a29 29 0 0 1-7.8-.661" class="cls-3" data-name="Tracé 20500" transform="translate(-87.447 -363.844)"/>
        <path id="Tracé_20501" d="M86.385 368.338s2.788.357 5.6.447" class="cls-3" data-name="Tracé 20501" transform="translate(-86.23 -345.896)"/>
        <path id="Tracé_20502" fill="#ff6161" d="M99.631 377.046a3.044 3.044 0 0 1-1.854-1.724c-1.558-.026-3.714-.144-4.922-.256l.254 3.74a27.342 27.342 0 0 0 4.726.412c.281 0 1.126-.01 1.407-.018a3.257 3.257 0 0 1 .389-2.154z" data-name="Tracé 20502" transform="translate(-90.876 -350.73)"/>
    </g>
</svg>
