<svg xmlns="http://www.w3.org/2000/svg" viewBox="0 0 396.2 474.05"><defs><style>.cls-1{fill:#231f20;}</style></defs><title>black-conquer-logo</title><g id="Layer_2" data-name="Layer 2"><g id="Capa_3" data-name="Capa 3"><path class="cls-1" d="M252.34,217.15H396.2V106.84L198.1,0,0,106.84V367.21L198.1,474.05,396.2,367.21V256.31h-144a103.38,103.38,0,0,0,67,78c-5.32,6.62-48.14,58.11-121.17,58.11S82.25,340.93,76.93,334.3a103.13,103.13,0,0,0,0-194.55c5.82-7.19,46.88-56.19,117-58.06,75.08-2,120.18,51.7,125.33,58.06A103.38,103.38,0,0,0,252.34,217.15Z"/><path class="cls-1" d="M149.38,151.06h45.37a3.5,3.5,0,0,1,0,7H154.66a137,137,0,0,1,7.4,11.66,138.25,138.25,0,0,1,6.67,13.53h26.06a3.5,3.5,0,0,1,0,7h-23.3a136.86,136.86,0,0,1,6.78,26.94h39.66a130.06,130.06,0,0,1,47.54-85.12,124.76,124.76,0,0,0-134.73,0A137.21,137.21,0,0,1,149.38,151.06Z"/><path class="cls-1" d="M247,323.15H201.53a3.5,3.5,0,1,1,0-7h40.13c-.7-1-1.4-2-2.09-3a138.55,138.55,0,0,1-12.22-22.44H201.56a3.5,3.5,0,0,1,0-7h23a144,144,0,0,1-7.15-27.38h-39a139.5,139.5,0,0,1-22.81,58.42A136.92,136.92,0,0,1,130.74,342a124.76,124.76,0,0,0,134.73,0A140.08,140.08,0,0,1,247,323.15Z"/></g></g></svg>