<svg xmlns="http://www.w3.org/2000/svg" width="108" height="72" viewBox="0 0 108 72"><g><g><g transform="rotate(-.172 37.595 54.495)"><path fill="#212121" d="M35.806 62.527v-16.07h3.574v16.07z"/></g><g transform="rotate(-.203 37.545 39.3)"><path fill="#212121" d="M35.76 46.444V32.163h3.573v14.281z"/></g><g><path fill="#212121" d="M58.962 9.287a3.574 3.574 0 1 1-.002 7.148 3.574 3.574 0 0 1 .002-7.148zm0 10.72a7.148 7.148 0 1 0-.003-14.295 7.148 7.148 0 0 0 .003 14.296z"/></g><g><path fill="#212121" d="M77.542 16.397l-2.426-5.56a1.443 1.443 0 0 1 1.787-1.833c.456.15.812.507.965.962l4.085 8.327a1.812 1.812 0 0 1-.909 2.286l-8.642 4.646a1.786 1.786 0 0 0-.64 2.563l3.574 5.36c.333.5.893.798 1.492.795h12.507c.987 0 1.787.8 1.787 1.787v14.294c0 .474.187.928.523 1.263l.523.524h-4.62V39.303c0-.986-.8-1.786-1.786-1.786H72.54a3.546 3.546 0 0 1-2.943-1.546l-5.222-8.38a1.787 1.787 0 0 1 .603-2.544l11.768-6.374a1.787 1.787 0 0 0 .796-2.284zm17.153 19.476l6.03 4.824c.379.3.863.436 1.342.377l-1.105 2.764-6.267-3.759zM73.612 16.31l-10.343 5.605a5.36 5.36 0 0 0-1.889 7.613l5.223 8.38a7.143 7.143 0 0 0 5.937 3.18h11.434v12.508c0 .987.8 1.787 1.788 1.787h10.72a1.787 1.787 0 0 0 1.263-3.05l-3.05-3.05v-5.038l6.226 3.735a1.787 1.787 0 0 0 2.58-.867l3.574-8.933a1.786 1.786 0 0 0-2.458-2.272l-2.552 1.276-6.574-5.26a7.17 7.17 0 0 0-4.466-1.564H77.784l-1.954-2.93 6.867-3.697a5.418 5.418 0 0 0 2.53-6.899L81.14 8.51a5.012 5.012 0 0 0-9.355 3.595z"/></g><g><path fill="#212121" d="M3.573 51.81c0-1.974 1.6-3.572 3.573-3.572h66.109a3.572 3.572 0 0 1 3.573 3.573v8.933h-3.752a8.933 8.933 0 0 0-17.51 0H24.835a8.853 8.853 0 0 0-2.46-4.552 9.022 9.022 0 0 0-6.326-2.595 8.935 8.935 0 0 0-8.724 7.147H3.573zm19.475-16.518a3.598 3.598 0 0 1 2.828-1.43l9.859.05.042 10.752H16.068zm27.818-1.32h.014a3.587 3.587 0 0 1 2.858 1.43l6.995 9.262H39.35l-.042-10.739zM64.34 67.89h-.02a5.36 5.36 0 0 1-.02-10.72h.02a5.36 5.36 0 0 1 .02 10.72zm-48.241 0h-.02a5.36 5.36 0 0 1-.02-10.72h.02a5.361 5.361 0 0 1 .02 10.72zM1.787 64.317h5.538a8.936 8.936 0 0 0 8.756 7.148h.032a8.933 8.933 0 0 0 8.722-7.148h30.731a8.936 8.936 0 0 0 8.756 7.148h.031a8.933 8.933 0 0 0 8.723-7.148h5.538c.988 0 1.787-.8 1.787-1.787V51.81c0-3.946-3.2-7.146-7.146-7.146h-8.04l-8.623-11.417a7.175 7.175 0 0 0-5.696-2.849h-.029l-24.987-.1a7.191 7.191 0 0 0-5.686 2.858l-8.58 11.508H7.146A7.147 7.147 0 0 0 0 51.811v10.72c0 .986.8 1.786 1.787 1.786z"/></g><g><path fill="#212121" d="M20.52 22.967l8.933 5.361 1.84-3.062-5.846-3.507 5.591-2.236a1.785 1.785 0 0 0 1.031-2.224l-2.443-7.325 7.325 2.443c.897.3 1.873-.152 2.224-1.03l2.434-6.088 5.23 6.539 2.791-2.233L42.484.672a1.787 1.787 0 0 0-3.055.451l-2.947 7.372-9.123-3.04a1.788 1.788 0 0 0-2.26 2.261l3.037 9.123-7.37 2.947a1.787 1.787 0 0 0-.255 3.19z"/></g></g></g></svg>