<svg xmlns="http://www.w3.org/2000/svg" width="14" height="14" viewBox="0 0 14 14"><g><g><path fill="#fff" d="M13.125.733v11.66a.733.733 0 0 1-.205.513.692.692 0 0 1-.527.22h-3.34V8.026h1.699l.264-1.963H9.053v-1.26c0-.331.058-.565.176-.703.156-.175.419-.263.79-.263h1.055V2.05c-.41-.04-.918-.058-1.523-.058-.762 0-1.377.224-1.846.673-.47.45-.703 1.094-.703 1.933v1.465h-1.7v1.963h1.7v5.098H.732A.729.729 0 0 1 0 12.392V.732A.71.71 0 0 1 .205.206.712.712 0 0 1 .732 0h11.66c.196 0 .367.068.513.205.147.137.22.312.22.528z"/></g></g></svg>