<svg xmlns="http://www.w3.org/2000/svg" width="35" height="35" viewBox="0 0 35 35"><defs><mask id="7miub" width="2" height="2" x="-1" y="-1"><path fill="#fff" d="M5 2h25v26H5z"/><path d="M25.483 16.272a.497.497 0 0 1 .367-.147h2.075a.497.497 0 0 1 .512.513v5.225c0 .13-.048.248-.146.354a.477.477 0 0 1-.366.158H25.85a.478.478 0 0 1-.367-.158.513.513 0 0 1-.146-.354v-5.225c0-.146.049-.27.146-.366zm-16.308-.147a.497.497 0 0 1 .512.513v5.249a.506.506 0 0 1-.146.354.478.478 0 0 1-.366.159h-2.1a.478.478 0 0 1-.366-.16.508.508 0 0 1-.147-.353v-5.25c0-.145.049-.268.147-.365a.497.497 0 0 1 .366-.147zM30 16.052c0-.26-.016-.761-.05-1.501a24.961 24.961 0 0 0-.097-1.526 12.535 12.535 0 0 0-1.318-4.395 11.972 11.972 0 0 0-2.685-3.48 12.418 12.418 0 0 0-3.76-2.281 12.288 12.288 0 0 0-4.517-.831c-1.676 0-3.247.306-4.712.916a12.48 12.48 0 0 0-3.87 2.515 12.502 12.502 0 0 0-2.697 3.796C5.61 10.73 5.22 12.309 5.122 14c0 .082-.012.33-.037.745-.024.415-.036.777-.036 1.086v.367c-.017.065-.03.134-.037.207a2.128 2.128 0 0 0-.012.232v5.249c0 .57.203 1.058.61 1.465.407.407.895.61 1.465.61h2.1c.586 0 1.078-.203 1.477-.61a2.02 2.02 0 0 0 .598-1.465v-5.25c0-.568-.2-1.057-.598-1.464a1.99 1.99 0 0 0-1.477-.61h-2.1a1.897 1.897 0 0 0-.415.049c0-.13.004-.24.012-.33.008-.09.013-.15.013-.183.08-1.497.418-2.885 1.013-4.163a10.932 10.932 0 0 1 2.356-3.32 10.944 10.944 0 0 1 3.393-2.21c1.286-.537 2.66-.805 4.126-.805 1.4 0 2.718.24 3.955.72a10.63 10.63 0 0 1 3.284 2.002 10.68 10.68 0 0 1 3.479 6.873c.016.13.032.325.049.586l.049.83a2.149 2.149 0 0 0-.464-.049H25.85c-.586 0-1.08.204-1.477.61-.4.407-.6.896-.6 1.465v5.225c0 .39.103.744.307 1.062.203.317.467.565.793.744l-5.03 1.978v-.122a.744.744 0 0 0-.231-.562.775.775 0 0 0-.55-.22h-2.343a.774.774 0 0 0-.55.22.74.74 0 0 0-.232.562v.78a.75.75 0 0 0 .232.55.75.75 0 0 0 .55.232h2.368l1.39-.024 8.058-3.15a.592.592 0 0 0 .147-.073.444.444 0 0 0 .122-.122c.357-.162.647-.411.866-.745.22-.333.33-.703.33-1.11v-5.225c0-.065-.004-.13-.012-.195a1.001 1.001 0 0 0-.037-.171.492.492 0 0 0 .049-.22z"/></mask><filter id="7miua" width="57" height="61" x="-11" y="-14" filterUnits="userSpaceOnUse"><feOffset dy="3" in="SourceGraphic" result="FeOffset1545Out"/><feGaussianBlur in="FeOffset1545Out" result="FeGaussianBlur1546Out" stdDeviation="2.4 2.4"/></filter></defs><g><g><g filter="url(#7miua)"><path fill="none" d="M25.483 16.272a.497.497 0 0 1 .367-.147h2.075a.497.497 0 0 1 .512.513v5.225c0 .13-.048.248-.146.354a.477.477 0 0 1-.366.158H25.85a.478.478 0 0 1-.367-.158.513.513 0 0 1-.146-.354v-5.225c0-.146.049-.27.146-.366zm-16.308-.147a.497.497 0 0 1 .512.513v5.249a.506.506 0 0 1-.146.354.478.478 0 0 1-.366.159h-2.1a.478.478 0 0 1-.366-.16.508.508 0 0 1-.147-.353v-5.25c0-.145.049-.268.147-.365a.497.497 0 0 1 .366-.147zM30 16.052c0-.26-.016-.761-.05-1.501a24.961 24.961 0 0 0-.097-1.526 12.535 12.535 0 0 0-1.318-4.395 11.972 11.972 0 0 0-2.685-3.48 12.418 12.418 0 0 0-3.76-2.281 12.288 12.288 0 0 0-4.517-.831c-1.676 0-3.247.306-4.712.916a12.48 12.48 0 0 0-3.87 2.515 12.502 12.502 0 0 0-2.697 3.796C5.61 10.73 5.22 12.309 5.122 14c0 .082-.012.33-.037.745-.024.415-.036.777-.036 1.086v.367c-.017.065-.03.134-.037.207a2.128 2.128 0 0 0-.012.232v5.249c0 .57.203 1.058.61 1.465.407.407.895.61 1.465.61h2.1c.586 0 1.078-.203 1.477-.61a2.02 2.02 0 0 0 .598-1.465v-5.25c0-.568-.2-1.057-.598-1.464a1.99 1.99 0 0 0-1.477-.61h-2.1a1.897 1.897 0 0 0-.415.049c0-.13.004-.24.012-.33.008-.09.013-.15.013-.183.08-1.497.418-2.885 1.013-4.163a10.932 10.932 0 0 1 2.356-3.32 10.944 10.944 0 0 1 3.393-2.21c1.286-.537 2.66-.805 4.126-.805 1.4 0 2.718.24 3.955.72a10.63 10.63 0 0 1 3.284 2.002 10.68 10.68 0 0 1 3.479 6.873c.016.13.032.325.049.586l.049.83a2.149 2.149 0 0 0-.464-.049H25.85c-.586 0-1.08.204-1.477.61-.4.407-.6.896-.6 1.465v5.225c0 .39.103.744.307 1.062.203.317.467.565.793.744l-5.03 1.978v-.122a.744.744 0 0 0-.231-.562.775.775 0 0 0-.55-.22h-2.343a.774.774 0 0 0-.55.22.74.74 0 0 0-.232.562v.78a.75.75 0 0 0 .232.55.75.75 0 0 0 .55.232h2.368l1.39-.024 8.058-3.15a.592.592 0 0 0 .147-.073.444.444 0 0 0 .122-.122c.357-.162.647-.411.866-.745.22-.333.33-.703.33-1.11v-5.225c0-.065-.004-.13-.012-.195a1.001 1.001 0 0 0-.037-.171.492.492 0 0 0 .049-.22z" mask="url(&quot;#7miub&quot;)"/><path fill-opacity=".64" d="M25.483 16.272a.497.497 0 0 1 .367-.147h2.075a.497.497 0 0 1 .512.513v5.225c0 .13-.048.248-.146.354a.477.477 0 0 1-.366.158H25.85a.478.478 0 0 1-.367-.158.513.513 0 0 1-.146-.354v-5.225c0-.146.049-.27.146-.366zm-16.308-.147a.497.497 0 0 1 .512.513v5.249a.506.506 0 0 1-.146.354.478.478 0 0 1-.366.159h-2.1a.478.478 0 0 1-.366-.16.508.508 0 0 1-.147-.353v-5.25c0-.145.049-.268.147-.365a.497.497 0 0 1 .366-.147zM30 16.052c0-.26-.016-.761-.05-1.501a24.961 24.961 0 0 0-.097-1.526 12.535 12.535 0 0 0-1.318-4.395 11.972 11.972 0 0 0-2.685-3.48 12.418 12.418 0 0 0-3.76-2.281 12.288 12.288 0 0 0-4.517-.831c-1.676 0-3.247.306-4.712.916a12.48 12.48 0 0 0-3.87 2.515 12.502 12.502 0 0 0-2.697 3.796C5.61 10.73 5.22 12.309 5.122 14c0 .082-.012.33-.037.745-.024.415-.036.777-.036 1.086v.367c-.017.065-.03.134-.037.207a2.128 2.128 0 0 0-.012.232v5.249c0 .57.203 1.058.61 1.465.407.407.895.61 1.465.61h2.1c.586 0 1.078-.203 1.477-.61a2.02 2.02 0 0 0 .598-1.465v-5.25c0-.568-.2-1.057-.598-1.464a1.99 1.99 0 0 0-1.477-.61h-2.1a1.897 1.897 0 0 0-.415.049c0-.13.004-.24.012-.33.008-.09.013-.15.013-.183.08-1.497.418-2.885 1.013-4.163a10.932 10.932 0 0 1 2.356-3.32 10.944 10.944 0 0 1 3.393-2.21c1.286-.537 2.66-.805 4.126-.805 1.4 0 2.718.24 3.955.72a10.63 10.63 0 0 1 3.284 2.002 10.68 10.68 0 0 1 3.479 6.873c.016.13.032.325.049.586l.049.83a2.149 2.149 0 0 0-.464-.049H25.85c-.586 0-1.08.204-1.477.61-.4.407-.6.896-.6 1.465v5.225c0 .39.103.744.307 1.062.203.317.467.565.793.744l-5.03 1.978v-.122a.744.744 0 0 0-.231-.562.775.775 0 0 0-.55-.22h-2.343a.774.774 0 0 0-.55.22.74.74 0 0 0-.232.562v.78a.75.75 0 0 0 .232.55.75.75 0 0 0 .55.232h2.368l1.39-.024 8.058-3.15a.592.592 0 0 0 .147-.073.444.444 0 0 0 .122-.122c.357-.162.647-.411.866-.745.22-.333.33-.703.33-1.11v-5.225c0-.065-.004-.13-.012-.195a1.001 1.001 0 0 0-.037-.171.492.492 0 0 0 .049-.22z"/></g><path fill="#fff" d="M25.483 16.272a.497.497 0 0 1 .367-.147h2.075a.497.497 0 0 1 .512.513v5.225c0 .13-.048.248-.146.354a.477.477 0 0 1-.366.158H25.85a.478.478 0 0 1-.367-.158.513.513 0 0 1-.146-.354v-5.225c0-.146.049-.27.146-.366zm-16.308-.147a.497.497 0 0 1 .512.513v5.249a.506.506 0 0 1-.146.354.478.478 0 0 1-.366.159h-2.1a.478.478 0 0 1-.366-.16.508.508 0 0 1-.147-.353v-5.25c0-.145.049-.268.147-.365a.497.497 0 0 1 .366-.147zM30 16.052c0-.26-.016-.761-.05-1.501a24.961 24.961 0 0 0-.097-1.526 12.535 12.535 0 0 0-1.318-4.395 11.972 11.972 0 0 0-2.685-3.48 12.418 12.418 0 0 0-3.76-2.281 12.288 12.288 0 0 0-4.517-.831c-1.676 0-3.247.306-4.712.916a12.48 12.48 0 0 0-3.87 2.515 12.502 12.502 0 0 0-2.697 3.796C5.61 10.73 5.22 12.309 5.122 14c0 .082-.012.33-.037.745-.024.415-.036.777-.036 1.086v.367c-.017.065-.03.134-.037.207a2.128 2.128 0 0 0-.012.232v5.249c0 .57.203 1.058.61 1.465.407.407.895.61 1.465.61h2.1c.586 0 1.078-.203 1.477-.61a2.02 2.02 0 0 0 .598-1.465v-5.25c0-.568-.2-1.057-.598-1.464a1.99 1.99 0 0 0-1.477-.61h-2.1a1.897 1.897 0 0 0-.415.049c0-.13.004-.24.012-.33.008-.09.013-.15.013-.183.08-1.497.418-2.885 1.013-4.163a10.932 10.932 0 0 1 2.356-3.32 10.944 10.944 0 0 1 3.393-2.21c1.286-.537 2.66-.805 4.126-.805 1.4 0 2.718.24 3.955.72a10.63 10.63 0 0 1 3.284 2.002 10.68 10.68 0 0 1 3.479 6.873c.016.13.032.325.049.586l.049.83a2.149 2.149 0 0 0-.464-.049H25.85c-.586 0-1.08.204-1.477.61-.4.407-.6.896-.6 1.465v5.225c0 .39.103.744.307 1.062.203.317.467.565.793.744l-5.03 1.978v-.122a.744.744 0 0 0-.231-.562.775.775 0 0 0-.55-.22h-2.343a.774.774 0 0 0-.55.22.74.74 0 0 0-.232.562v.78a.75.75 0 0 0 .232.55.75.75 0 0 0 .55.232h2.368l1.39-.024 8.058-3.15a.592.592 0 0 0 .147-.073.444.444 0 0 0 .122-.122c.357-.162.647-.411.866-.745.22-.333.33-.703.33-1.11v-5.225c0-.065-.004-.13-.012-.195a1.001 1.001 0 0 0-.037-.171.492.492 0 0 0 .049-.22z"/></g></g></svg>