<svg xmlns="http://www.w3.org/2000/svg" width="14" height="14" viewBox="0 0 14 14"><g><g><path fill="#fff" d="M13.125 13.125H10.4V8.848c0-.703-.058-1.212-.175-1.524-.215-.527-.635-.79-1.26-.79s-1.065.233-1.32.702c-.194.352-.291.87-.291 1.554v4.335H4.658v-8.76h2.608v1.202h.029c.195-.391.508-.713.937-.968.469-.312 1.016-.468 1.64-.468 1.27 0 2.159.4 2.667 1.202.39.643.586 1.64.586 2.988zm-10.195 0H.205v-8.76H2.93zm-1.348-9.96c-.43 0-.801-.158-1.113-.47a1.52 1.52 0 0 1-.47-1.112C0 1.153.157.78.47.469A1.52 1.52 0 0 1 1.582 0c.429 0 .8.157 1.113.469.313.313.469.683.469 1.114 0 .428-.156.8-.47 1.113a1.523 1.523 0 0 1-1.112.469z"/></g></g></svg>