<svg xmlns="http://www.w3.org/2000/svg" width="146" height="75" viewBox="0 0 146 75"><g><g><g><path fill="#fff" d="M145.263 22.651h-11.325c6.255 0 11.325 5.07 11.325 11.324 0 3.127-1.268 5.958-3.316 8.009a11.297 11.297 0 0 1-8.009 3.316h-33.553V22.651h11.325c-6.253 0-11.325-5.072-11.325-11.325a11.29 11.29 0 0 1 3.318-8.01A11.288 11.288 0 0 1 111.71 0h33.553z"/></g><g><path fill="#fff" d="M47.04 22.65C47.04 10.14 57.182 0 69.692 0h22.227v45.3H69.69c-12.51 0-22.65-10.14-22.65-22.65z"/></g><g><path fill="#fff" d="M44.924 22.65c0 12.51-10.141 22.65-22.65 22.65H.045V0h22.227c12.51 0 22.65 10.14 22.65 22.65z"/></g><g><path fill="#fff" d="M94.035 45.3v-4.273h4.233v4.274z"/></g><g><path fill="#fff" d="M.046 52.961v-3.32h145.217v3.32z"/></g><g><g><g><path fill="#fff" d="M2.472 68.017l.053-8.374 1.839.012c.716.004 1.346.108 1.89.312.546.203 1 .488 1.36.855.362.366.633.808.812 1.325.178.517.266 1.09.262 1.722a5.141 5.141 0 0 1-.284 1.718 3.464 3.464 0 0 1-.827 1.315 3.691 3.691 0 0 1-1.371.838c-.547.197-1.179.293-1.895.289zM0 70.332l4.406.027c1.031.007 1.96-.145 2.788-.455a6.077 6.077 0 0 0 2.12-1.316 5.723 5.723 0 0 0 1.35-2.049c.315-.799.476-1.684.482-2.655.006-.958-.143-1.84-.448-2.643a5.818 5.818 0 0 0-1.325-2.074 6.022 6.022 0 0 0-2.103-1.351c-.824-.32-1.751-.484-2.782-.49l-4.406-.029z"/></g><g><path fill="#fff" d="M14.296 65.39c.02-.544.182-1.006.485-1.387.301-.38.7-.634 1.192-.763.353-.092.669-.118.949-.078.28.04.526.12.74.24.213.12.388.262.525.426.138.166.232.323.283.472zm4.976 1.26c-.104.416-.299.79-.582 1.12-.283.332-.69.567-1.218.704-.27.071-.544.102-.822.093a2.187 2.187 0 0 1-.81-.183 2.27 2.27 0 0 1-.712-.492 2.502 2.502 0 0 1-.527-.831l6.499-1.698a1.014 1.014 0 0 1-.033-.198 1.204 1.204 0 0 1-.033-.199l-.055-.211a5.733 5.733 0 0 0-.751-1.723 4.245 4.245 0 0 0-1.203-1.22 3.9 3.9 0 0 0-1.605-.596c-.6-.088-1.247-.042-1.94.14a4.48 4.48 0 0 0-1.708.84c-.481.39-.867.846-1.158 1.367a4.658 4.658 0 0 0-.551 1.705 4.878 4.878 0 0 0 .127 1.858c.175.67.45 1.253.825 1.75a4.53 4.53 0 0 0 1.34 1.203 4.533 4.533 0 0 0 1.703.58 4.913 4.913 0 0 0 1.913-.132c.974-.255 1.742-.688 2.304-1.298.562-.61.95-1.321 1.166-2.13z"/></g><g><path fill="#fff" d="M21.574 61.547l2.712.017 2.186 5.694h.127l2.275-5.665 2.694.017-3.897 8.896-2.348-.015z"/></g><g><path fill="#fff" d="M36.603 68.65a2.272 2.272 0 0 1-.9-.188 2.372 2.372 0 0 1-1.275-1.319 2.672 2.672 0 0 1-.194-1.057c.003-.388.071-.74.207-1.054.135-.315.313-.58.533-.798.22-.217.472-.385.758-.505a2.38 2.38 0 0 1 1.802.002c.285.118.536.286.753.505.217.22.391.488.523.805.131.317.196.675.194 1.075-.003.4-.072.759-.207 1.073-.136.315-.314.58-.533.798a2.25 2.25 0 0 1-.759.496c-.286.113-.587.17-.902.167zm2.373 1.926l2.239.014.082-13.034-2.385-.015-.025 3.914.138 1.275h-.146c-.216-.378-.554-.702-1.013-.972-.46-.27-1.03-.407-1.709-.411a3.86 3.86 0 0 0-1.631.345 4.354 4.354 0 0 0-1.372.974 4.663 4.663 0 0 0-.947 1.496 5.142 5.142 0 0 0-.358 1.91c-.004.691.107 1.33.334 1.913.227.584.536 1.087.928 1.508.392.421.845.751 1.36.991.513.24 1.056.362 1.627.366.68.004 1.25-.126 1.713-.39.463-.264.805-.584 1.026-.959l.145.002z"/></g><g><path fill="#fff" d="M44.934 65.583c.02-.545.182-1.007.484-1.387.302-.38.7-.635 1.193-.763.353-.093.669-.118.948-.079.28.04.527.12.74.24.213.12.39.262.526.427.137.165.231.322.283.472zm4.976 1.26c-.104.415-.299.79-.582 1.12-.283.332-.69.566-1.218.704-.27.07-.544.101-.822.092a2.185 2.185 0 0 1-.81-.183 2.262 2.262 0 0 1-.712-.491 2.506 2.506 0 0 1-.527-.832l6.5-1.698a1.004 1.004 0 0 1-.034-.198 1.224 1.224 0 0 1-.033-.198l-.055-.212a5.732 5.732 0 0 0-.751-1.723 4.243 4.243 0 0 0-1.203-1.219 3.903 3.903 0 0 0-1.605-.597c-.6-.088-1.246-.041-1.94.14a4.475 4.475 0 0 0-1.708.842 4.666 4.666 0 0 0-1.158 1.365 4.659 4.659 0 0 0-.551 1.706 4.875 4.875 0 0 0 .127 1.858c.175.669.45 1.253.824 1.75.375.499.822.9 1.34 1.203a4.533 4.533 0 0 0 1.704.58 4.91 4.91 0 0 0 1.913-.133c.974-.254 1.742-.687 2.304-1.298.562-.61.95-1.32 1.165-2.13z"/></g><g><path fill="#fff" d="M56.905 70.98a5.096 5.096 0 0 1-1.555-.228 4.292 4.292 0 0 1-1.18-.58 3.92 3.92 0 0 1-1.363-1.766l2.135-.897c.204.463.478.807.823 1.034.344.227.728.341 1.153.344.437.003.783-.074 1.04-.23.255-.156.384-.344.385-.562a.697.697 0 0 0-.315-.594c-.211-.153-.578-.292-1.099-.417l-1.254-.28a4.375 4.375 0 0 1-.863-.297 3.361 3.361 0 0 1-.807-.515 2.58 2.58 0 0 1-.596-.75 2.105 2.105 0 0 1-.23-1.02c.003-.438.099-.825.29-1.164.19-.339.45-.626.778-.86.33-.235.716-.414 1.16-.539.444-.125.92-.185 1.43-.182.85.005 1.607.177 2.272.515.666.338 1.154.872 1.465 1.602l-2.062.825a1.576 1.576 0 0 0-.742-.77 2.255 2.255 0 0 0-.981-.243 1.831 1.831 0 0 0-.894.204c-.256.138-.384.316-.385.535-.002.206.103.37.315.493.211.123.5.234.863.333l1.363.337c.909.224 1.583.577 2.023 1.06.44.481.658 1.05.654 1.705a2.385 2.385 0 0 1-.28 1.11c-.184.35-.444.66-.78.932-.335.271-.737.484-1.205.639-.468.154-.988.23-1.558.226z"/></g><g><path fill="#fff" d="M62.222 70.722l.056-8.92 2.385.015-.056 8.92zm1.247-10.114a1.51 1.51 0 0 1-.59-.122 1.532 1.532 0 0 1-.814-.815 1.494 1.494 0 0 1-.115-.602 1.49 1.49 0 0 1 .452-1.08 1.521 1.521 0 0 1 1.086-.44c.425.003.788.154 1.09.454.301.3.451.661.448 1.086a1.462 1.462 0 0 1-.462 1.08c-.305.296-.67.442-1.095.44z"/></g><g><path fill="#fff" d="M70.92 68.63a2.377 2.377 0 0 1-.855-.167 2.23 2.23 0 0 1-.744-.478 2.356 2.356 0 0 1-.523-.772 2.574 2.574 0 0 1-.193-1.047c.002-.394.07-.742.206-1.045.136-.303.313-.56.533-.774.22-.213.47-.372.75-.478a2.36 2.36 0 0 1 1.72.011 2.217 2.217 0 0 1 1.276 1.26c.131.31.196.662.193 1.055a2.583 2.583 0 0 1-.206 1.045 2.361 2.361 0 0 1-.533.765c-.22.207-.473.363-.759.469a2.441 2.441 0 0 1-.866.155zM70.788 75a5.257 5.257 0 0 0 1.922-.325 4.198 4.198 0 0 0 1.49-.955c.415-.417.74-.924.974-1.524.235-.599.354-1.275.359-2.027l.052-8.283-2.276-.014-.006.964h-.145a2.924 2.924 0 0 0-1.096-.927c-.454-.227-.99-.343-1.609-.347a3.908 3.908 0 0 0-1.559.315c-.505.213-.952.52-1.343.92s-.71.885-.956 1.454a4.812 4.812 0 0 0-.376 1.9c-.005.697.113 1.328.352 1.895.24.566.552 1.052.937 1.457.386.405.83.717 1.333.937a3.9 3.9 0 0 0 1.554.334c.62.004 1.157-.105 1.613-.327a2.92 2.92 0 0 0 1.108-.912h.145l-.004.62c-.005.855-.228 1.526-.668 2.012-.44.485-1.036.726-1.788.721a2.269 2.269 0 0 1-1.29-.4 2.165 2.165 0 0 1-.831-1.106l-2.281.896c.107.316.281.632.522.95.24.317.542.607.905.87.362.263.789.479 1.279.646.49.166 1.051.252 1.683.256z"/></g><g><path fill="#fff" d="M79.856 63.078h.146c.282-.447.66-.8 1.135-1.057.475-.258 1.016-.385 1.623-.382.558.004 1.049.098 1.473.283.423.185.77.445 1.042.78.27.336.474.738.611 1.205.137.469.203.988.2 1.558l-.034 5.407-2.385-.015.032-5.115c.004-.643-.136-1.12-.419-1.432-.283-.311-.698-.469-1.244-.472a1.738 1.738 0 0 0-.866.204c-.25.138-.463.324-.64.56a2.553 2.553 0 0 0-.407.835c-.093.321-.14.664-.142 1.028l-.028 4.369-2.384-.015.056-8.92 2.238.014z"/></g><g><path fill="#fff" d="M89.456 70.894a1.554 1.554 0 0 1-1.117-.456c-.308-.3-.46-.661-.458-1.083.003-.422.16-.778.471-1.07.312-.29.686-.434 1.123-.432a1.54 1.54 0 0 1 1.108.447c.3.295.45.653.448 1.075a1.462 1.462 0 0 1-.462 1.078 1.524 1.524 0 0 1-1.113.44z"/></g><g><path fill="#fff" d="M97.19 71.233a5.393 5.393 0 0 1-1.6-.246c-.508-.161-.974-.4-1.397-.719a4.91 4.91 0 0 1-1.103-1.163 5.595 5.595 0 0 1-.737-1.598l2.318-.895c.166.656.46 1.201.882 1.634.422.434.979.653 1.67.657.255.002.501-.03.739-.095.237-.065.45-.16.638-.287.19-.127.34-.286.45-.48.11-.193.166-.418.168-.673a1.626 1.626 0 0 0-.124-.656 1.535 1.535 0 0 0-.424-.549 3.82 3.82 0 0 0-.78-.496 11.91 11.91 0 0 0-1.19-.5l-.799-.295a6.11 6.11 0 0 1-1.06-.498 4.663 4.663 0 0 1-.97-.753 3.679 3.679 0 0 1-.713-1.033 3.066 3.066 0 0 1-.274-1.34 3.43 3.43 0 0 1 1.173-2.587c.372-.33.816-.59 1.333-.774a4.992 4.992 0 0 1 1.723-.271c.655.004 1.222.096 1.7.274.478.18.883.406 1.215.682.332.275.6.577.805.906.204.329.354.639.45.93l-2.173.898a2.31 2.31 0 0 0-.658-.988c-.32-.293-.76-.441-1.317-.445-.534-.003-.978.119-1.332.365-.353.247-.531.57-.534.97-.002.389.166.72.504.996.338.275.876.542 1.615.802l.818.278c.52.185.995.398 1.425.637.428.24.797.524 1.105.854.307.33.541.704.703 1.124.161.42.24.902.236 1.449-.004.68-.144 1.264-.42 1.754a3.75 3.75 0 0 1-1.055 1.204 4.542 4.542 0 0 1-1.442.7 5.509 5.509 0 0 1-1.567.228z"/></g><g><path fill="#fff" d="M103.953 64.103l-1.565-.01.012-2.039 1.566.01.017-2.73 2.385.014-.017 2.731 2.184.014-.012 2.039-2.185-.014-.022 3.564a2.6 2.6 0 0 0 .06.592.959.959 0 0 0 .242.46c.17.202.411.304.727.306.206 0 .37-.02.492-.061.121-.042.237-.098.347-.17l.66 2.097c-.28.132-.581.23-.903.295a5.25 5.25 0 0 1-1.065.093 3.256 3.256 0 0 1-1.21-.221 2.573 2.573 0 0 1-.897-.591c-.567-.561-.847-1.356-.84-2.384z"/></g><g><path fill="#fff" d="M116.405 69.898l-.145-.001c-.282.447-.66.8-1.136 1.058-.475.258-1.016.385-1.622.38-1.129-.006-1.968-.357-2.515-1.053-.548-.695-.818-1.619-.811-2.772l.034-5.407 2.385.015-.033 5.115c-.004.644.136 1.121.42 1.433.282.31.697.468 1.243.472.328.002.617-.066.866-.204.25-.138.464-.325.641-.56a2.56 2.56 0 0 0 .406-.836c.093-.32.14-.663.143-1.027l.027-4.37 2.385.016-.056 8.92-2.24-.014z"/></g><g><path fill="#fff" d="M124.857 69.205a2.282 2.282 0 0 1-.9-.188 2.372 2.372 0 0 1-1.275-1.32 2.672 2.672 0 0 1-.194-1.056c.003-.389.071-.74.207-1.055a2.376 2.376 0 0 1 1.291-1.303 2.381 2.381 0 0 1 1.802.002c.285.118.536.286.753.506.217.22.392.488.523.804.132.317.196.675.194 1.076a2.74 2.74 0 0 1-.207 1.073c-.136.314-.313.58-.533.797-.22.217-.473.383-.759.496-.286.114-.586.17-.902.167zm2.373 1.926l2.24.014.081-13.034-2.385-.016-.025 3.914.138 1.276-.146-.001c-.216-.378-.554-.702-1.013-.972-.46-.27-1.03-.407-1.709-.41a3.863 3.863 0 0 0-1.631.344 4.356 4.356 0 0 0-1.372.974 4.658 4.658 0 0 0-.947 1.497 5.14 5.14 0 0 0-.358 1.909c-.004.692.107 1.33.334 1.914a4.67 4.67 0 0 0 .928 1.507c.392.421.845.752 1.36.992.514.24 1.056.361 1.627.365.68.004 1.25-.126 1.713-.39.463-.263.805-.583 1.026-.958h.146z"/></g><g><path fill="#fff" d="M131.653 71.159l.056-8.92 2.385.014-.056 8.92zm1.247-10.115a1.502 1.502 0 0 1-.591-.122 1.534 1.534 0 0 1-.814-.815 1.491 1.491 0 0 1-.115-.601 1.492 1.492 0 0 1 .453-1.08 1.52 1.52 0 0 1 .494-.325c.188-.078.386-.116.592-.115.424.003.788.154 1.09.453.3.3.45.661.448 1.086a1.463 1.463 0 0 1-.462 1.08c-.305.296-.67.442-1.095.44z"/></g><g><path fill="#fff" d="M140.367 69.302a2.262 2.262 0 0 1-1.634-.684 2.36 2.36 0 0 1-.514-.804 2.849 2.849 0 0 1-.184-1.076c.002-.4.068-.758.197-1.073.13-.314.304-.58.524-.798a2.272 2.272 0 0 1 1.643-.663c.303.002.597.062.881.179.285.117.536.285.753.505.217.22.388.488.514.804.125.317.187.675.184 1.076-.003.4-.068.758-.198 1.073a2.37 2.37 0 0 1-.524.797 2.328 2.328 0 0 1-1.642.663zm.046-7.3a4.967 4.967 0 0 0-1.905.343 4.503 4.503 0 0 0-1.499.973 4.481 4.481 0 0 0-.992 1.496 5.029 5.029 0 0 0-.367 1.91 5.03 5.03 0 0 0 .343 1.913c.233.584.557 1.087.973 1.508.416.421.912.752 1.487.993a4.97 4.97 0 0 0 1.9.366 4.961 4.961 0 0 0 1.905-.343 4.506 4.506 0 0 0 1.499-.973 4.49 4.49 0 0 0 .992-1.496c.24-.58.362-1.217.367-1.91a5.03 5.03 0 0 0-.343-1.913 4.483 4.483 0 0 0-.974-1.508 4.505 4.505 0 0 0-1.486-.992 4.96 4.96 0 0 0-1.9-.368z"/></g></g></g></g></g></svg>