<svg xmlns="http://www.w3.org/2000/svg" width="97" height="50" viewBox="0 0 97 50"><g><g><g><path fill="#cf9455" d="M96.843 15.1h-7.55a7.55 7.55 0 1 1 0 15.1h-22.37V15.1h7.55a7.552 7.552 0 0 1-5.337-12.89A7.526 7.526 0 0 1 74.474 0h22.369z"/></g><g><path fill="#cf9455" d="M31.36 15.1c0-8.34 6.761-15.1 15.1-15.1H61.28v30.2H46.46c-8.34 0-15.1-6.76-15.1-15.1z"/></g><g><path fill="#cf9455" d="M29.95 15.1c0 8.34-6.761 15.1-15.101 15.1H.031V0h14.818c8.34 0 15.1 6.76 15.1 15.1z"/></g><g><path fill="#cf9455" d="M62.69 30.2v-2.849h2.823v2.85z"/></g><g><path fill="#cf9455" d="M.03 35.307v-2.213h96.812v2.213z"/></g><g><g><g><path fill="#cf9455" d="M1.648 45.345l.035-5.583 1.226.008c.477.003.898.072 1.26.208.364.136.666.326.908.57.24.244.421.538.54.883.12.345.178.728.175 1.148-.003.42-.066.803-.19 1.146a2.31 2.31 0 0 1-.551.876 2.461 2.461 0 0 1-.914.559 3.657 3.657 0 0 1-1.263.192zM0 46.888l2.937.018c.688.005 1.307-.097 1.859-.303a4.051 4.051 0 0 0 1.413-.878c.39-.377.691-.833.9-1.366.21-.532.317-1.122.321-1.77a4.844 4.844 0 0 0-.298-1.761 3.879 3.879 0 0 0-.883-1.383 4.013 4.013 0 0 0-1.403-.901c-.548-.214-1.167-.323-1.854-.327l-2.937-.019z"/></g><g><path fill="#cf9455" d="M9.53 43.594c.015-.363.122-.672.324-.925.201-.253.466-.423.795-.51.235-.06.445-.078.632-.051a1.4 1.4 0 0 1 .494.16c.141.08.258.174.35.284.091.11.154.215.189.315zm3.318.839c-.07.277-.199.527-.388.747-.189.221-.46.378-.812.47-.18.047-.363.067-.548.061a1.459 1.459 0 0 1-.54-.122 1.513 1.513 0 0 1-.474-.328 1.667 1.667 0 0 1-.352-.554l4.333-1.132a.676.676 0 0 1-.022-.132.804.804 0 0 1-.022-.132l-.037-.141a3.822 3.822 0 0 0-.5-1.149 2.83 2.83 0 0 0-.803-.813 2.599 2.599 0 0 0-1.07-.397 3.237 3.237 0 0 0-1.292.092 2.987 2.987 0 0 0-1.14.562c-.32.26-.578.563-.771.91a3.105 3.105 0 0 0-.368 1.137c-.052.411-.023.824.085 1.239.116.446.3.835.55 1.167.25.332.547.6.893.801.345.203.724.332 1.136.387.411.056.836.026 1.275-.088.65-.17 1.161-.459 1.536-.866a3.33 3.33 0 0 0 .777-1.42z"/></g><g><path fill="#cf9455" d="M14.383 41.031l1.808.011 1.457 3.796.085.001 1.516-3.777 1.796.011-2.598 5.93-1.565-.01z"/></g><g><path fill="#cf9455" d="M24.402 45.767a1.514 1.514 0 0 1-.6-.125 1.581 1.581 0 0 1-.85-.88 1.783 1.783 0 0 1-.13-.704c.003-.26.048-.494.139-.704a1.578 1.578 0 0 1 .861-.868 1.59 1.59 0 0 1 1.201.001c.19.079.357.19.502.337.145.147.26.326.349.537.087.21.13.45.129.717a1.826 1.826 0 0 1-.138.715c-.091.21-.21.387-.356.531a1.498 1.498 0 0 1-.506.331c-.19.076-.39.113-.601.112zm1.582 1.284l1.493.01.054-8.69-1.59-.01-.016 2.609.092.85h-.098c-.144-.252-.369-.468-.675-.648-.306-.18-.686-.271-1.14-.274a2.572 2.572 0 0 0-1.087.23c-.345.155-.65.372-.914.65-.265.277-.476.61-.631.997a3.43 3.43 0 0 0-.24 1.273 3.43 3.43 0 0 0 .224 1.276c.15.389.357.724.618 1.005.261.28.563.5.906.66.343.16.705.242 1.085.244.453.003.834-.084 1.143-.26.308-.176.536-.389.683-.639l.097.001z"/></g><g><path fill="#cf9455" d="M29.956 43.722c.014-.363.121-.671.323-.925.201-.253.467-.423.795-.509a1.61 1.61 0 0 1 .633-.052 1.4 1.4 0 0 1 .493.16c.142.08.259.175.35.284.092.11.154.215.189.315zm3.318.84c-.07.277-.2.526-.388.747-.19.22-.46.377-.812.469-.18.047-.363.068-.549.062a1.458 1.458 0 0 1-.54-.123 1.511 1.511 0 0 1-.474-.327 1.67 1.67 0 0 1-.352-.555l4.333-1.131a.678.678 0 0 1-.022-.133.806.806 0 0 1-.022-.132l-.037-.14a3.821 3.821 0 0 0-.5-1.15 2.827 2.827 0 0 0-.802-.812 2.602 2.602 0 0 0-1.07-.398 3.24 3.24 0 0 0-1.293.093 2.985 2.985 0 0 0-1.14.561 3.11 3.11 0 0 0-.771.91 3.105 3.105 0 0 0-.368 1.138 3.25 3.25 0 0 0 .085 1.238c.117.446.3.835.55 1.167.25.332.547.6.893.802a3.02 3.02 0 0 0 1.136.387c.411.055.836.026 1.275-.089.65-.17 1.162-.458 1.536-.865.375-.407.634-.88.777-1.42z"/></g><g><path fill="#cf9455" d="M37.937 47.32a3.396 3.396 0 0 1-1.037-.152 2.86 2.86 0 0 1-.786-.387 2.611 2.611 0 0 1-.909-1.177l1.423-.598c.136.308.319.538.548.69.23.15.486.227.77.229.29.001.522-.05.692-.154.171-.104.257-.229.257-.374a.465.465 0 0 0-.21-.396c-.14-.102-.385-.195-.732-.278l-.836-.187a2.913 2.913 0 0 1-.575-.198 2.242 2.242 0 0 1-.538-.343 1.722 1.722 0 0 1-.398-.5 1.403 1.403 0 0 1-.153-.68c.002-.292.066-.55.193-.777.126-.225.3-.416.52-.573a2.47 2.47 0 0 1 .772-.359c.296-.083.614-.124.954-.121.566.003 1.07.118 1.515.343.443.225.768.581.976 1.068l-1.375.55a1.052 1.052 0 0 0-.494-.513 1.504 1.504 0 0 0-.655-.162 1.22 1.22 0 0 0-.595.136c-.17.092-.257.21-.258.356 0 .138.07.247.21.329.142.082.334.156.576.222l.909.224c.606.15 1.055.385 1.349.707.293.321.438.7.435 1.137a1.59 1.59 0 0 1-.186.74 1.989 1.989 0 0 1-.52.621c-.224.181-.492.323-.804.426a3.23 3.23 0 0 1-1.038.151z"/></g><g><path fill="#cf9455" d="M41.482 47.148l.037-5.947 1.59.01-.037 5.947zm.831-6.743a1.008 1.008 0 0 1-.394-.081 1.003 1.003 0 0 1-.543-.544.995.995 0 0 1-.076-.4.992.992 0 0 1 .302-.72 1.014 1.014 0 0 1 .724-.294c.283.002.525.103.726.302.2.2.3.441.299.724a.975.975 0 0 1-.308.72 1.004 1.004 0 0 1-.73.293z"/></g><g><path fill="#cf9455" d="M46.71 45.642a1.489 1.489 0 0 1-.496-.319 1.572 1.572 0 0 1-.348-.515 1.716 1.716 0 0 1-.13-.698 1.642 1.642 0 0 1 .493-1.212c.147-.142.314-.248.5-.318a1.574 1.574 0 0 1 1.147.007 1.476 1.476 0 0 1 .85.839c.088.207.131.442.13.704a1.72 1.72 0 0 1-.138.696c-.09.202-.209.372-.355.51a1.472 1.472 0 0 1-.506.313 1.586 1.586 0 0 1-1.147-.007zM47.193 50c.469.003.896-.07 1.281-.217a2.8 2.8 0 0 0 .993-.637c.277-.277.494-.616.65-1.015.156-.4.236-.85.24-1.352l.034-5.522-1.517-.01-.004.644h-.097a1.95 1.95 0 0 0-.73-.618c-.303-.152-.66-.229-1.073-.232a2.605 2.605 0 0 0-1.04.21 2.719 2.719 0 0 0-.895.613 3.207 3.207 0 0 0-.888 2.236 3.165 3.165 0 0 0 .86 2.235c.257.27.553.479.888.625.334.146.68.22 1.036.223.413.002.771-.07 1.076-.218.304-.148.55-.35.738-.609l.097.001-.003.413c-.003.57-.152 1.017-.445 1.341-.294.324-.691.484-1.193.481a1.512 1.512 0 0 1-.86-.266 1.444 1.444 0 0 1-.554-.738l-1.52.597c.071.21.187.422.348.634.16.21.361.404.603.58.242.175.526.319.853.43.327.111.7.168 1.122.17z"/></g><g><path fill="#cf9455" d="M53.238 42.052h.097c.188-.298.44-.533.757-.705a2.2 2.2 0 0 1 1.082-.254c.372.002.699.065.982.188.282.123.514.297.694.52.18.224.317.492.408.804.09.312.135.658.133 1.039l-.023 3.604-1.59-.01.022-3.41c.002-.429-.09-.747-.28-.955-.188-.207-.465-.312-.829-.314a1.16 1.16 0 0 0-.577.136 1.344 1.344 0 0 0-.427.373 1.705 1.705 0 0 0-.271.557 2.512 2.512 0 0 0-.095.685l-.019 2.913-1.59-.01.038-5.947 1.493.01z"/></g><g><path fill="#cf9455" d="M59.638 47.262a1.036 1.036 0 0 1-.745-.303.965.965 0 0 1-.305-.723.947.947 0 0 1 .314-.712c.207-.194.457-.29.748-.289.291.002.537.102.739.298.2.197.3.436.299.717a.975.975 0 0 1-.308.718c-.204.198-.451.296-.742.294z"/></g><g><path fill="#cf9455" d="M64.794 47.489a3.597 3.597 0 0 1-1.067-.165 3.08 3.08 0 0 1-.931-.479 3.267 3.267 0 0 1-.736-.775 3.73 3.73 0 0 1-.49-1.065l1.544-.597c.11.437.307.8.588 1.09.281.289.653.435 1.114.438.17 0 .334-.02.492-.064.158-.043.3-.107.426-.192a.901.901 0 0 0 .412-.768 1.082 1.082 0 0 0-.083-.437 1.023 1.023 0 0 0-.283-.366 2.539 2.539 0 0 0-.52-.331 7.949 7.949 0 0 0-.793-.333l-.532-.197a4.068 4.068 0 0 1-.708-.332 3.11 3.11 0 0 1-.646-.502 2.451 2.451 0 0 1-.475-.689 2.045 2.045 0 0 1-.183-.893 2.288 2.288 0 0 1 .782-1.725c.248-.22.544-.393.889-.516a3.328 3.328 0 0 1 1.148-.18c.437.002.815.063 1.133.182.32.12.59.271.81.455.222.183.4.384.537.604.136.219.236.426.3.62l-1.448.598a1.539 1.539 0 0 0-.44-.658c-.212-.195-.505-.294-.877-.297-.356-.002-.652.08-.888.244-.236.164-.354.38-.356.647-.002.259.11.48.336.663.225.184.584.362 1.077.535l.545.185c.347.124.663.265.95.425.285.16.531.35.736.57.205.219.361.468.469.748.107.28.16.602.158.966-.003.454-.097.843-.28 1.17a2.498 2.498 0 0 1-.704.802 3.027 3.027 0 0 1-.961.468 3.673 3.673 0 0 1-1.045.151z"/></g><g><path fill="#cf9455" d="M69.302 42.735l-1.043-.006.008-1.36 1.044.007.011-1.82 1.59.01-.011 1.82 1.456.01-.008 1.358-1.457-.009-.015 2.377c0 .141.013.273.04.394a.64.64 0 0 0 .162.307c.113.135.274.202.485.203.137.001.246-.012.327-.04.081-.028.159-.066.232-.114l.44 1.399a2.634 2.634 0 0 1-.602.196 3.502 3.502 0 0 1-.71.063 2.172 2.172 0 0 1-.807-.148 1.715 1.715 0 0 1-.598-.394c-.378-.374-.565-.904-.56-1.59z"/></g><g><path fill="#cf9455" d="M77.604 46.598h-.097c-.188.298-.44.533-.757.705a2.2 2.2 0 0 1-1.082.254c-.752-.005-1.311-.239-1.676-.702-.366-.464-.546-1.08-.541-1.848l.023-3.605 1.59.01-.022 3.41c-.003.43.09.748.28.955.188.207.465.313.829.315.218.001.41-.044.577-.136.166-.092.309-.217.427-.374s.209-.342.27-.556c.063-.214.095-.443.096-.686l.018-2.912 1.59.01-.037 5.947-1.493-.01z"/></g><g><path fill="#cf9455" d="M83.238 46.136a1.522 1.522 0 0 1-.6-.125 1.581 1.581 0 0 1-.85-.88 1.783 1.783 0 0 1-.129-.704c.002-.259.048-.493.138-.703a1.584 1.584 0 0 1 .861-.868 1.588 1.588 0 0 1 1.201.001c.19.078.358.19.502.337.145.147.261.325.349.536.087.211.13.45.13.717a1.827 1.827 0 0 1-.139.715c-.09.21-.209.387-.355.532a1.495 1.495 0 0 1-.506.33c-.19.076-.391.113-.602.112zm1.582 1.284l1.493.01.055-8.69-1.59-.01-.017 2.61.092.85h-.097c-.144-.253-.37-.468-.675-.649-.307-.18-.687-.27-1.14-.274a2.575 2.575 0 0 0-1.087.23c-.345.156-.65.372-.915.65-.264.277-.475.61-.631.997a3.428 3.428 0 0 0-.239 1.273c-.003.461.071.887.223 1.276.151.39.357.724.618 1.005.262.28.564.501.907.661.343.16.704.241 1.085.244.453.002.833-.084 1.142-.26.309-.176.536-.39.684-.64l.097.001z"/></g><g><path fill="#cf9455" d="M87.769 47.439l.037-5.947 1.59.01-.037 5.947zm.831-6.743a1 1 0 0 1-.394-.081 1.002 1.002 0 0 1-.542-.544.994.994 0 0 1-.077-.4.994.994 0 0 1 .302-.721 1.014 1.014 0 0 1 .724-.293c.283.002.525.103.726.302.201.2.301.44.3.724a.976.976 0 0 1-.309.72 1.004 1.004 0 0 1-.73.293z"/></g><g><path fill="#cf9455" d="M93.579 46.201a1.512 1.512 0 0 1-1.09-.456 1.574 1.574 0 0 1-.343-.536 1.898 1.898 0 0 1-.122-.717c.001-.267.045-.505.131-.715.087-.21.203-.387.35-.532a1.515 1.515 0 0 1 1.095-.442 1.56 1.56 0 0 1 1.09.456c.144.146.258.325.342.536a1.9 1.9 0 0 1 .123.717 1.898 1.898 0 0 1-.132.715c-.087.21-.203.387-.35.532a1.552 1.552 0 0 1-1.095.442zm.03-4.867a3.31 3.31 0 0 0-1.27.229 3.001 3.001 0 0 0-.999.65c-.281.276-.502.609-.662.996-.16.388-.242.812-.244 1.273-.003.461.073.887.228 1.276.156.39.372.724.65 1.005.277.281.607.502.99.662.384.16.806.242 1.267.245.461.003.884-.074 1.27-.229a3.001 3.001 0 0 0 1-.65c.28-.277.5-.609.661-.996.16-.388.242-.812.244-1.273a3.355 3.355 0 0 0-.228-1.276 2.988 2.988 0 0 0-.65-1.005 3.004 3.004 0 0 0-.99-.662 3.309 3.309 0 0 0-1.267-.245z"/></g></g></g></g></g></svg>