<svg xmlns="http://www.w3.org/2000/svg" width="72" height="72" viewBox="0 0 72 72"><g><g><g><g><path fill="#212121" d="M7.202 68.416a1.2 1.2 0 1 1-2.402 0 1.2 1.2 0 0 1 2.402 0zm3.601-3.6H2.401v-9.603a1.2 1.2 0 1 0-2.401 0v10.803a1.2 1.2 0 0 0 1.2 1.2h1.417a3.6 3.6 0 1 0 6.77 0h1.416a1.2 1.2 0 0 0 0-2.4z"/></g><g><path fill="#212121" d="M58.813 36.009H46.811v-2.401h12.002zm0 9.6h-2.4v-7.2h2.4zm-4.8 0H46.81v-2.398h3.6a1.2 1.2 0 1 0 0-2.401h-3.6v-2.4h7.201zm4.8 21.607a1.2 1.2 0 1 1 .001 2.4 1.2 1.2 0 0 1 0-2.4zm-12.002 2.4a1.2 1.2 0 1 1 0-2.4 1.2 1.2 0 0 1 0 2.4zm-2.4-57.613v2.401h-4.802v-2.4zm0 7.201h-4.802v-2.4h4.802zm20.404 18.005a1.2 1.2 0 1 0 0 2.4h6.002a1.2 1.2 0 0 0 1.2-1.2v-6.001a1.2 1.2 0 0 0-1.2-1.2H54.012V7.201h8.402v3.601a1.2 1.2 0 0 0 2.401 0V6.002a1.2 1.2 0 0 0-1.2-1.2h-9.603V1.2a1.2 1.2 0 1 0-2.4 0v3.601H42.01a1.2 1.2 0 0 0-1.2 1.2v3.602h-2.401a1.2 1.2 0 0 0-1.2 1.2v9.601a1.2 1.2 0 0 0 1.2 1.2h2.4v4.802c0 3.037-.817 5.88-2.228 8.34v4.121a19.165 19.165 0 0 0 4.63-12.461v-4.801h2.4a1.2 1.2 0 0 0 1.2-1.2v-9.602a1.2 1.2 0 0 0-1.2-1.2h-2.4V7.202h8.4v24.005h-6a1.2 1.2 0 0 0-1.2 1.2V46.81a1.2 1.2 0 0 0 1.2 1.2h6v13.204h-4.8a1.2 1.2 0 0 0-1.2 1.2v2.617a3.6 3.6 0 1 0 2.4 6.79 3.599 3.599 0 0 0 0-6.79v-1.416h9.602v1.416a3.6 3.6 0 1 0 2.4 0v-2.616a1.2 1.2 0 0 0-1.2-1.2h-4.8V48.01h3.6v5.27c-.006 6.362 5.147 11.528 11.51 11.534h1.694a1.2 1.2 0 0 0 0-2.4h-1.669a9.146 9.146 0 0 1-9.134-9.135v-5.27a1.2 1.2 0 0 0 1.2-1.2v-3.6a2.4 2.4 0 0 1 2.4 2.4v8.402a4.802 4.802 0 0 0 4.802 4.802h2.4a1.2 1.2 0 0 0 0-2.401h-2.4a2.4 2.4 0 0 1-2.4-2.4V45.61a4.8 4.8 0 0 0-4.802-4.8v-7.202h8.402v3.6z"/></g><g><path fill="#212121" d="M27.606 69.617a1.2 1.2 0 1 1 .001-2.402 1.2 1.2 0 0 1 0 2.402zm10.803-9.603h-1.2v-3.601a6.002 6.002 0 0 0-4.993-5.894 3.602 3.602 0 0 0-3.41-2.508h-.215c.14-.385.213-.79.216-1.2a3.492 3.492 0 0 0-.456-1.717 19.132 19.132 0 0 0 7.469-3.574v-3.17a16.749 16.749 0 0 1-11.815 4.86h-2.399v-3.6c0-1.89-.89-3.668-2.4-4.802a6.003 6.003 0 0 0-7.203-9.602 6.001 6.001 0 0 0-2.4 4.801c.007.507.076 1.01.204 1.5a1.201 1.201 0 1 0 2.329-.6 3.293 3.293 0 0 1-.133-.9 3.6 3.6 0 1 1 3.601 3.601 1.2 1.2 0 0 0 0 2.4 3.6 3.6 0 0 1 3.601 3.602v4.8a1.2 1.2 0 0 0 1.2 1.2h4.8a1.2 1.2 0 1 1 0 2.4h-6a2.4 2.4 0 0 1-2.4-2.4v-6a1.2 1.2 0 1 0-2.401 0v6c.004.846.235 1.676.672 2.4h-3.073V37.21a3.6 3.6 0 0 0-3.6-3.601H3.6A3.6 3.6 0 0 0 0 37.208v13.203a1.2 1.2 0 0 0 2.4 0V37.21a1.2 1.2 0 0 1 1.201-1.2h4.801a1.2 1.2 0 0 1 1.2 1.2v24.005a1.2 1.2 0 0 0 2.401 0V50.411h16.804a1.2 1.2 0 0 1 1.2 1.2v13.204H15.604a1.2 1.2 0 1 0 0 2.4h8.617a3.6 3.6 0 1 0 6.77 0h.216a1.2 1.2 0 0 0 1.2-1.2V53.029a3.601 3.601 0 0 1 2.401 3.385v4.801a1.2 1.2 0 0 0 1.2 1.2h2.401a1.2 1.2 0 0 1 1.2 1.2v1.201h-3.6a1.2 1.2 0 1 0 0 2.4h4.801a1.2 1.2 0 0 0 1.2-1.2v-2.4a3.6 3.6 0 0 0-3.6-3.601z"/></g></g></g></g></svg>