<svg xmlns="http://www.w3.org/2000/svg" width="76" height="72" viewBox="0 0 76 72"><g><g><g><path fill="#212121" d="M7.12 67.323a1.182 1.182 0 0 1-.013-2.363h.013a1.181 1.181 0 1 1 0 2.363z"/></g><g><path fill="#212121" d="M72.029 54.883a1.181 1.181 0 0 1-.593-2.202 3.544 3.544 0 0 0-1.772-6.612 1.181 1.181 0 1 1 0-2.362 5.903 5.903 0 0 1 2.955 11.017c-.18.104-.383.16-.59.16z"/></g><g><path fill="#212121" d="M40.146 72.046a1.18 1.18 0 0 1-.56-2.221l31.88-17.165a1.18 1.18 0 0 1 1.119 2.08l-31.88 17.164a1.171 1.171 0 0 1-.557.142z"/></g><g><path fill="#212121" d="M40.146 72.045c-.05 0-.101-.003-.153-.011l-27.157-3.542a1.18 1.18 0 1 1 .273-2.344l.032.004 27.157 3.542a1.181 1.181 0 0 1-.152 2.351z"/></g><g><path fill="#212121" d="M2.361 38.984h9.447v29.518H2.361zm10.63 31.88c.65 0 1.179-.528 1.178-1.18V37.8c0-.653-.529-1.179-1.181-1.179H1.178A1.18 1.18 0 0 0 0 37.803v31.883c0 .65.53 1.178 1.18 1.178z"/></g><g><path fill="#212121" d="M46.049 49.611a1.183 1.183 0 0 1-1.185-1.177 1.183 1.183 0 0 1 1.009-1.172l22.809-3.473a1.18 1.18 0 0 1 .392 2.329l-.037.005-22.81 3.474c-.06.009-.119.014-.178.014z"/></g><g><path fill="#212121" d="M41.326 54.334a1.181 1.181 0 0 1 0-2.362 3.542 3.542 0 1 0 .611-7.032 1.18 1.18 0 0 1 .402-2.326 5.902 5.902 0 0 1-1.013 11.72z"/></g><g><path fill="#212121" d="M42.138 44.956c-.076 0-.152-.007-.227-.021l-18.523-3.613a1.18 1.18 0 0 1 .453-2.317l18.523 3.611a1.181 1.181 0 0 1-.226 2.34z"/></g><g><path fill="#212121" d="M23.614 41.345H12.988a1.18 1.18 0 1 1 0-2.36h10.626a1.181 1.181 0 0 1 0 2.36z"/></g><g><path fill="#212121" d="M40.83 54.305c-.029 0-.061 0-.092-.003l-14.853-1.153a1.181 1.181 0 0 1 .183-2.354l14.852 1.152a1.182 1.182 0 0 1-.09 2.358z"/></g><g><path fill="#212121" d="M68.856 46.135a1.182 1.182 0 0 1-.194-2.346 6.097 6.097 0 0 1 1.002-.082 1.181 1.181 0 0 1 0 2.36c-.204 0-.41.018-.612.052a1.23 1.23 0 0 1-.196.016z"/></g><g><path fill="#212121" d="M41.326 54.334a5.39 5.39 0 0 1-.626-.036 1.182 1.182 0 0 1-1.041-1.305 1.163 1.163 0 0 1 1.268-1.045l.036.006c.121.013.242.019.363.019a1.182 1.182 0 1 1 0 2.36z"/></g><g><path fill="#212121" d="M28.357 42.229a1.181 1.181 0 0 1-1.173-1.321 3.542 3.542 0 0 1 3.515-3.115 1.181 1.181 0 1 1 0 2.362 1.175 1.175 0 0 0-1.17 1.033 1.183 1.183 0 0 1-1.172 1.04z"/></g><g><path fill="#212121" d="M54.316 42.517a1.18 1.18 0 0 1-1.181-1.18v-.001a1.18 1.18 0 0 0-1.18-1.181 1.18 1.18 0 0 1 0-2.362 3.548 3.548 0 0 1 3.542 3.543c0 .65-.527 1.18-1.178 1.181z"/></g><g><path fill="#212121" d="M54.316 48.436a1.179 1.179 0 0 1-1.181-1.178V41.336a1.181 1.181 0 0 1 2.362 0v5.92a1.18 1.18 0 0 1-1.18 1.18z"/></g><g><path fill="#212121" d="M51.954 40.155H30.7a1.181 1.181 0 0 1 0-2.362h21.255a1.18 1.18 0 0 1 0 2.362z"/></g><g><path fill="#212121" d="M39.557 40.152a1.179 1.179 0 0 1-1.181-1.178V8.265a1.18 1.18 0 0 1 2.36 0V38.97a1.178 1.178 0 0 1-1.176 1.181z"/></g><g><path fill="#212121" d="M43.097 40.152a1.18 1.18 0 0 1-1.18-1.177V8.265a1.18 1.18 0 0 1 2.362 0V38.97a1.18 1.18 0 0 1-1.179 1.181z"/></g><g><path fill="#212121" d="M43.098 4.132a1.18 1.18 0 0 1-1.181-1.177v-.004a.59.59 0 0 0-1.182 0 1.18 1.18 0 1 1-2.36 0 2.951 2.951 0 1 1 5.904 0c0 .652-.527 1.181-1.179 1.181z"/></g><g><path fill="#212121" d="M58.466 9.446a1.181 1.181 0 0 1 0-2.361.591.591 0 0 0 0-1.181 1.181 1.181 0 0 1 0-2.362 2.952 2.952 0 0 1 0 5.904z"/></g><g><path fill="#212121" d="M24.22 9.446a2.952 2.952 0 1 1 0-5.904 1.181 1.181 0 0 1 0 2.362.59.59 0 1 0 0 1.18 1.18 1.18 0 1 1 0 2.362z"/></g><g><path fill="#212121" d="M58.466 5.906H24.3a1.181 1.181 0 0 1 0-2.362h34.166a1.181 1.181 0 0 1 0 2.362z"/></g><g><path fill="#212121" d="M58.466 9.446H24.3a1.181 1.181 0 1 1 0-2.361h34.166a1.18 1.18 0 1 1 0 2.36z"/></g><g><path fill="#212121" d="M39.556 5.906a1.18 1.18 0 0 1-1.181-1.178V2.95a1.18 1.18 0 0 1 2.36 0v1.774a1.18 1.18 0 0 1-1.177 1.181z"/></g><g><path fill="#212121" d="M43.097 5.904a1.18 1.18 0 0 1-1.18-1.179V2.951a1.18 1.18 0 0 1 2.362 0v1.772c0 .65-.527 1.18-1.179 1.18z"/></g><g><path fill="#212121" d="M24.812 31.888a7.092 7.092 0 0 1-7.085-7.085 1.18 1.18 0 1 1 2.361 0 4.724 4.724 0 0 0 9.448 0 1.181 1.181 0 0 1 2.362 0 7.095 7.095 0 0 1-7.086 7.085z"/></g><g><path fill="#212121" d="M30.717 25.984h-11.81a1.18 1.18 0 0 1 0-2.362h11.81a1.181 1.181 0 0 1 0 2.362z"/></g><g><path fill="#212121" d="M18.907 25.984a1.183 1.183 0 0 1-1.111-1.577l5.906-16.539a1.18 1.18 0 0 1 2.222.794L20.019 25.2a1.18 1.18 0 0 1-1.112.785z"/></g><g><path fill="#212121" d="M30.717 25.984c-.499 0-.944-.314-1.11-.785L23.703 8.662a1.18 1.18 0 0 1 2.222-.794l5.904 16.539a1.183 1.183 0 0 1-1.112 1.577z"/></g><g><path fill="#212121" d="M57.905 33.087a7.11 7.11 0 0 1-7.102-7.103 1.18 1.18 0 1 1 2.36 0 4.742 4.742 0 0 0 9.485 0 1.181 1.181 0 0 1 2.362 0 7.112 7.112 0 0 1-7.105 7.103z"/></g><g><path fill="#212121" d="M63.81 27.164H52a1.18 1.18 0 1 1 0-2.361h11.81a1.181 1.181 0 1 1 0 2.36z"/></g><g><path fill="#212121" d="M52 27.164a1.181 1.181 0 0 1-1.119-1.555l5.907-17.718a1.18 1.18 0 1 1 2.251.714l-.012.033-5.906 17.719c-.161.481-.613.807-1.12.807z"/></g><g><path fill="#212121" d="M63.81 27.164a1.176 1.176 0 0 1-1.119-.807l-5.903-17.72a1.18 1.18 0 0 1 2.23-.779l.01.033L64.93 25.61a1.181 1.181 0 0 1-.746 1.493c-.12.04-.247.06-.374.06z"/></g></g></g></svg>