<svg xmlns="http://www.w3.org/2000/svg" width="15" height="13" viewBox="0 0 15 13"><g><g><path fill="#fff" d="M15 1.436a6.77 6.77 0 0 1-1.553 1.61c.02.079.03.206.03.382 0 1.406-.342 2.764-1.026 4.072-.703 1.387-1.689 2.49-2.959 3.31-1.387.919-2.978 1.378-4.775 1.378A8.536 8.536 0 0 1 0 10.81c.215.019.459.029.732.029A6.098 6.098 0 0 0 4.57 9.522c-.684 0-1.284-.2-1.8-.601a3.053 3.053 0 0 1-1.071-1.51c.195.02.381.03.557.03.273 0 .546-.03.82-.087A3.103 3.103 0 0 1 1.318 6.27a2.955 2.955 0 0 1-.703-1.934v-.058c.43.254.889.39 1.377.41a3.41 3.41 0 0 1-.996-1.114 2.953 2.953 0 0 1-.381-1.48c0-.536.147-1.05.44-1.537a8.466 8.466 0 0 0 2.798 2.285 8.528 8.528 0 0 0 3.53.938 4.177 4.177 0 0 1-.059-.704c0-.546.137-1.06.41-1.538A3.022 3.022 0 0 1 10.371 0c.45 0 .864.088 1.245.264.381.176.718.41 1.011.703A6.288 6.288 0 0 0 14.59.235a3.057 3.057 0 0 1-1.348 1.699A6.604 6.604 0 0 0 15 1.436z"/></g></g></svg>