<svg xmlns="http://www.w3.org/2000/svg" width="64" height="72" viewBox="0 0 64 72"><g><g><path fill="#212121" d="M17.29 37.703h1.827c.028.516.237 1.006.592 1.384l6.277 6.67a2.202 2.202 0 0 0 3.432-.28l2.144-3.185.811 1.206-9.253 9.072H2.095c.19-8.26 6.935-14.858 15.197-14.869zm3.944-.206l2.72-2.615 6.647 5.099a1.12 1.12 0 0 0-.073.097l-2.847 4.231a.112.112 0 0 1-.154.03l-.02-.016-6.276-6.671a.11.11 0 0 1 .005-.156zm10.314-2.912c2.343.003 4.64-.648 6.636-1.876V33l-6.625 5.08-6.646-5.103v-.27a12.637 12.637 0 0 0 6.636 1.877zM21.03 23.166a1.047 1.047 0 0 0-.987-.921c-1.123-.057-2.652-1.55-3.147-3.072-.514-1.581.1-3.202 1.366-3.614a.789.789 0 0 1 .242-.052c.152 0 .318.086.548.41.264.37.737.527 1.171.388 1.089-.263.645-2.424.728-3.233a4.025 4.025 0 0 1 4.02-4.023h13.157a4.024 4.024 0 0 1 4.02 4.02c.144.969-.48 2.697.727 3.235.434.138.906-.019 1.17-.39.355-.5.556-.432.79-.358.61.215 1.093.688 1.318 1.293.291.744.308 1.567.049 2.321-.495 1.524-2.024 3.017-3.147 3.073-.51.026-.927.415-.987.92a10.595 10.595 0 0 1-10.518 9.328 10.722 10.722 0 0 1-7.256-2.877 10.534 10.534 0 0 1-3.264-6.448zm15.114 31.495a8.233 8.233 0 0 1 8.224 8.224v5.89a.596.596 0 0 1-.595.595H26.39l9.137-14.709zm3.025-19.78l2.72 2.615a.11.11 0 0 1 .003.156l-6.277 6.67a.107.107 0 0 1-.09.033.11.11 0 0 1-.084-.048l-2.847-4.232a1.414 1.414 0 0 0-.073-.097zm-20.51 23.528c.404.414 1.067.42 1.479.016l13.425-13.162.144.213a2.19 2.19 0 0 0 1.83.972 2.187 2.187 0 0 0 1.601-.693l4.291-4.56-17.502 28.173H8.975l7.873-7.72a1.047 1.047 0 0 0-1.465-1.494L5.986 69.37H2.091V54.661h18.897l-2.315 2.27a1.046 1.046 0 0 0-.014 1.478zm37.855-19.086a1.047 1.047 0 0 0-1.298 1.642 15.124 15.124 0 0 1 5.788 11.937V69.37H46.392a2.6 2.6 0 0 0 .069-.594v-5.89a10.33 10.33 0 0 0-9.648-10.293l9.25-14.89c1.795.028 3.573.375 5.247 1.026a1.045 1.045 0 0 0 .758-1.95 17.206 17.206 0 0 0-6.263-1.17h-2.86l-2.669-2.563V31.1a12.632 12.632 0 0 0 3.754-6.92c1.897-.563 3.573-2.552 4.161-4.362a5.458 5.458 0 0 0-.104-3.768 4.24 4.24 0 0 0-2.605-2.483 2.822 2.822 0 0 0-1.244-.124v-.754C44.234 5.678 38.546-.004 31.534 0c-1.496 0-2.979.265-4.383.782a1.046 1.046 0 1 0 .725 1.964 10.605 10.605 0 0 1 12.96 4.848 6.055 6.055 0 0 0-2.71-.635H24.97a6.066 6.066 0 0 0-2.706.632 10.581 10.581 0 0 1 2.067-2.663 1.046 1.046 0 0 0-1.385-1.568l-.04.037a12.736 12.736 0 0 0-4.048 9.293v.753a2.847 2.847 0 0 0-1.242.124c-2.363.77-3.58 3.573-2.71 6.252.59 1.81 2.263 3.798 4.16 4.362a12.637 12.637 0 0 0 3.754 6.92v1.97L20.18 35.61h-2.886C7.746 35.62.012 43.357 0 52.903V69.58a1.886 1.886 0 0 0 1.884 1.884h59.33a1.886 1.886 0 0 0 1.884-1.884V52.9a17.207 17.207 0 0 0-6.584-13.578z"/></g></g></svg>