<svg xmlns="http://www.w3.org/2000/svg" width="78" height="72" viewBox="0 0 78 72"><g><g><g><g><g><path fill="#212121" d="M76.672 68.865H1.3a1.3 1.3 0 0 0 0 2.6h75.373a1.3 1.3 0 0 0 0-2.6z"/></g></g></g><g><g><g><path fill="#212121" d="M17.672 58.39a1.3 1.3 0 0 0-.372 1.15l.297 1.751-1.572-.827a1.302 1.302 0 0 0-1.207 0l-1.573.827.299-1.75a1.3 1.3 0 0 0-.373-1.152L11.9 57.151l1.758-.261c.424-.062.79-.326.98-.71l.785-1.593.786 1.592c.19.384.556.65.98.71l1.757.261zm5.296-2.548a1.298 1.298 0 0 0-1.05-.884l-3.688-.536-1.648-3.341a1.3 1.3 0 0 0-2.33 0l-1.646 3.34-3.69.538a1.3 1.3 0 0 0-.72 2.21l2.667 2.598-.63 3.674a1.299 1.299 0 0 0 1.884 1.371l3.3-1.734 3.295 1.74a1.3 1.3 0 0 0 1.888-1.372l-.63-3.671 2.669-2.6a1.3 1.3 0 0 0 .33-1.333z"/></g></g></g><g><g><g><path fill="#212121" d="M62.963 39.068a2.36 2.36 0 0 1-3.339-.007l-8.02-8.012a1.297 1.297 0 0 0-1.835 0h-.002l-6.493 6.497a1.299 1.299 0 0 0 0 1.837l6.108 6.115v15.57a2.6 2.6 0 0 1-5.198.076V48.853a1.3 1.3 0 0 0-.381-.92L20.412 24.543a1.301 1.301 0 0 0-1.838 0 8.659 8.659 0 0 0 0 12.234l.492.492a1.457 1.457 0 0 1-2.061 2.06l-.492-.49c-4.516-4.518-4.516-11.84 0-16.357l1.143-1.141a16.866 16.866 0 0 1 12.01-4.976 6.728 6.728 0 0 0 6.72-6.715 1.3 1.3 0 1 1 2.6 0v.222a9.106 9.106 0 0 1-9.096 9.1 1.3 1.3 0 0 0-1.3 1.298v1.3c0 .345.137.676.382.918l10.396 10.397c.508.508 1.33.508 1.838 0l9.478-9.475 12.299 12.298a2.377 2.377 0 0 1-.018 3.361zm-52.57-26.596a5.199 5.199 0 1 1 5.199 5.198 5.197 5.197 0 0 1-5.195-5.198zM64.824 33.87l-13.22-13.216a1.297 1.297 0 0 0-1.835 0h-.002l-9.482 9.475-8.682-8.683a11.713 11.713 0 0 0 9.982-11.571V9.65a3.898 3.898 0 1 0-7.798-.004v.004a4.127 4.127 0 0 1-4.12 4.122 19.584 19.584 0 0 0-6.691 1.19 7.797 7.797 0 1 0-7.893 5.282l-.398.408c-5.531 5.531-5.531 14.499 0 20.03l.491.492a4.055 4.055 0 0 0 5.727-5.739l-.491-.49a6.065 6.065 0 0 1-.82-7.54l18.074 18.07H27.292a1.3 1.3 0 0 0 0 2.6h12.97l1.325 1.325v11.667c.001.913.245 1.81.703 2.6h-8.503a1.3 1.3 0 0 0 0 2.599h12.994a5.199 5.199 0 0 0 5.2-5.198V44.954a1.307 1.307 0 0 0-.384-.919l-5.58-5.58 4.661-4.65 7.107 7.1a4.975 4.975 0 1 0 7.035-7.035z"/></g></g></g><g><g><g><path fill="#212121" d="M28.59 63.667h-2.6a1.3 1.3 0 0 0 0 2.6h2.6a1.3 1.3 0 0 0 0-2.6z"/></g></g></g><g><g><g><path fill="#212121" d="M22.093 45.473h-2.6a1.3 1.3 0 1 0 0 2.6h2.6a1.3 1.3 0 0 0 0-2.6z"/></g></g></g><g><g><g><path fill="#212121" d="M74.304 20.11a7.515 7.515 0 0 1-3.494 3.067l-1.935.828V3.47a13.166 13.166 0 0 0 6.497 1.14l.005 11.599c0 1.372-.371 2.72-1.073 3.899zm-8.023 3.895l-1.927-.83a7.51 7.51 0 0 1-3.494-3.065 7.64 7.64 0 0 1-1.075-3.899v-11.6a13.166 13.166 0 0 0 6.497-1.14zM76.672 1.819a1.27 1.27 0 0 0-.26.025h.009c-2.608.528-5.32.055-7.598-1.322l-.57-.344a1.212 1.212 0 0 0-.11-.049 1.298 1.298 0 0 0-1.008-.05c-.039.017-.077.032-.114.05-.038.014-.074.031-.11.049l-.57.344a10.612 10.612 0 0 1-7.6 1.322 1.3 1.3 0 0 0-1.562 1.274v13.087c0 1.843.498 3.652 1.442 5.236a10.089 10.089 0 0 0 4.7 4.12l3.74 1.611c.326.14.695.14 1.022 0l3.741-1.612a10.098 10.098 0 0 0 4.699-4.122 10.221 10.221 0 0 0 1.448-5.236V3.118c0-.717-.58-1.3-1.299-1.3z"/></g></g></g></g></g></svg>