<svg xmlns="http://www.w3.org/2000/svg" width="72" height="72" viewBox="0 0 72 72"><g><g><g><g><path fill="#212121" d="M68.88 69.934H3.166a1.055 1.055 0 1 1 0-2.11H68.88a1.055 1.055 0 1 1 0 2.11zM36.023 53.128a15.378 15.378 0 0 0 7.581 12.585H28.443a15.393 15.393 0 0 0 7.58-12.585zm1.636-35.673a5.414 5.414 0 0 1 10.83 0v5.74H43.58a3.4 3.4 0 0 0 0 6.8h4.908v2.15c0 .967-.783 1.75-1.75 1.752H39.41a1.754 1.754 0 0 1-1.75-1.752v-14.69zm10.83 10.43H43.58a1.29 1.29 0 0 1 0-2.58h4.908zm20.39 37.828h-9.737c.401-.235.792-.49 1.174-.763a15.304 15.304 0 0 0 6.168-9.723l.007-.033 2.82-18.568a1.056 1.056 0 0 0-2.087-.316L64.405 54.86c-1.329 7.197-8.241 11.955-15.44 10.626A13.253 13.253 0 0 1 38.177 51.24l1.22-15.233h7.341a3.867 3.867 0 0 0 3.861-3.863v-14.69a7.528 7.528 0 0 0-8.717-7.43l.76-5.16a3.21 3.21 0 0 1 3.565-2.727c1.172.157 1.934.737 2.326 1.775.208.58.301 1.193.275 1.807l-.624 4.223c-.204 1.387 1.883 1.701 2.09.308L50.9 6l.005-.038c.609-3.312 4.014-2.1 3.693.07l-.209 1.42-.002.015-.722 4.888c-.204 1.388 1.884 1.699 2.09.307l.698-4.734a1.83 1.83 0 0 1 3.438 1.116l-.471 3.187-.005.035-.546 3.7c-.205 1.388 1.882 1.7 2.088.309l.524-3.552a1.83 1.83 0 0 1 3.383 1.213l-.606 4.109-.003.032-.488 3.305c-.206 1.388 1.882 1.7 2.088.308l.477-3.233a1.831 1.831 0 0 1 3.512.952l-1.612 10.924c-.074.497-.16.995-.257 1.48a1.056 1.056 0 0 0 2.07.412c.103-.518.196-1.051.275-1.584l1.613-10.924a3.942 3.942 0 0 0-5.15-4.324l.17-1.147A3.945 3.945 0 0 0 61.9 9.885l.079-.53a3.939 3.939 0 0 0-5.306-4.27 3.946 3.946 0 0 0-3.305-3.231c-1.14-.171-2.2.1-3.047.878C49.773 1.59 48.676.338 46.485.046c-2.846-.38-5.506 1.643-5.931 4.51l-.915 6.204a7.532 7.532 0 0 0-4.09 6.694v14.691a3.862 3.862 0 0 0 1.78 3.251c-1.386 17.291-1.287 15.958-1.306 16.408-.018-.425.167 1.968-2.688-33.65a32.287 32.287 0 0 0-.31-3.21L31.492 4.557c-.423-2.868-3.085-4.89-5.933-4.51-2.048.273-3.212 1.41-3.83 2.687-.713-.66-1.708-1.079-3.049-.88a3.95 3.95 0 0 0-3.306 3.231 3.94 3.94 0 0 0-5.307 4.27l.079.53a3.946 3.946 0 0 0-5.054 4.36l.169 1.148A3.943 3.943 0 0 0 .113 19.72l1.614 10.922c.13.882.298 1.768.5 2.635l3.33 21.917.005.033a15.258 15.258 0 0 0 2.597 6.147 1.055 1.055 0 1 0 1.719-1.225 13.17 13.17 0 0 1-2.237-5.288L4.309 32.92a1.425 1.425 0 0 0-.017-.084 31.241 31.241 0 0 1-.479-2.501L2.201 19.41a1.832 1.832 0 0 1 3.514-.95l.477 3.23c.207 1.406 2.29 1.062 2.088-.308l-.493-3.337-.001-.005-.606-4.104a1.83 1.83 0 0 1 3.385-1.213l.524 3.552c.207 1.406 2.29 1.062 2.088-.308l-.551-3.735-.47-3.188a1.83 1.83 0 0 1 3.437-1.115l.7 4.734c.207 1.407 2.29 1.063 2.088-.307l-.722-4.888v-.001l-.212-1.434a1.84 1.84 0 0 1 1.542-2.092c.743-.11 1.258.13 1.669.78.237.392.402.824.486 1.274l.63 4.255c.206 1.406 2.29 1.062 2.087-.308l-.624-4.22c-.03-.432-.12-3.22 2.603-3.584a3.208 3.208 0 0 1 3.564 2.726l1.533 10.388c.148 1 .245 2.007.292 3.017l.001.036 2.642 32.947c.666 7.288-4.702 13.737-11.99 14.404A13.256 13.256 0 0 1 12.8 63.12a1.056 1.056 0 1 0-1.253 1.696c.436.323.889.622 1.356.897H3.166a3.166 3.166 0 0 0 0 6.332H68.88a3.166 3.166 0 0 0 0-6.332z"/></g><g><path fill="#212121" d="M42.952 15.85a1.688 1.688 0 1 1 .002 3.377 1.688 1.688 0 0 1-.002-3.377zm0 5.487a3.8 3.8 0 1 0 0-7.6 3.8 3.8 0 0 0 0 7.6z"/></g></g></g></g></svg>