<svg xmlns="http://www.w3.org/2000/svg" width="16" height="12" viewBox="0 0 16 12"><g><g><path fill="#fff" d="M6.358 8.027V3.252l4.189 2.373zm9.316-6.269a2.03 2.03 0 0 0-.527-.908 2.037 2.037 0 0 0-.908-.528C13.731.186 12.54.088 10.665.029L7.999 0 5.332.029C3.457.088 2.266.186 1.758.322A2.037 2.037 0 0 0 .85.85c-.254.254-.43.556-.527.908C.186 2.285.088 3.086.03 4.16.01 4.707 0 5.195 0 5.625L.03 7.09c.058 1.094.156 1.904.293 2.431.097.333.273.625.527.879s.557.43.908.528c.508.136 1.699.234 3.574.293l2.667.029 2.666-.029c1.875-.059 3.066-.157 3.574-.293.351-.098.654-.274.908-.528a2.04 2.04 0 0 0 .527-.879c.137-.527.235-1.337.293-2.431l.03-1.465-.03-1.465c-.058-1.074-.156-1.875-.293-2.402z"/></g></g></svg>