<svg xmlns="http://www.w3.org/2000/svg" width="42.787" height="50.425"><defs><style>.cls-1,.cls-2{fill:none;stroke:#1e1240;stroke-miterlimit:10;stroke-width:1.5px}.cls-1{stroke-linecap:round}</style></defs><g id="Composant_222_2" data-name="Composant 222 – 2" transform="translate(.75 .761)"><g id="Groupe_3255" data-name="Groupe 3255"><g id="Groupe_3254" data-name="Groupe 3254"><path id="Rectangle_516" d="M3.091 0h4.183a2.249 2.249 0 012.25 2.249v1.684a2.249 2.249 0 01-2.25 2.249H3.091A3.091 3.091 0 010 3.091 3.091 3.091 0 013.091 0z" class="cls-1" data-name="Rectangle 516" transform="translate(31.764 25.808)"/><rect id="Rectangle_517" width="7.036" height="4.606" class="cls-1" data-name="Rectangle 517" rx="2.303" transform="translate(31.764 31.99)"/><rect id="Rectangle_518" width="7.036" height="4.606" class="cls-1" data-name="Rectangle 518" rx="2.303" transform="translate(31.764 36.596)"/><rect id="Rectangle_519" width="7.036" height="4.606" class="cls-1" data-name="Rectangle 519" rx="2.303" transform="translate(31.764 41.202)"/><path id="Tracé_14631" d="M498.775 696.9v5.97a1.118 1.118 0 00.7 1.024 14.4 14.4 0 012.461 1.418 1.193 1.193 0 001.524-.14l3.125-3.236a1 1 0 00-.074-1.484 28.828 28.828 0 00-6.523-4.257.842.842 0 00-1.213.705z" class="cls-1" data-name="Tracé 14631" transform="translate(-478.131 -696.113)"/><path id="Tracé_14632" d="M510.183 714.219l2.711-2.807a1.526 1.526 0 012.1-.062 25.111 25.111 0 012.507 2.66 1.294 1.294 0 01-.322 1.919l-3.377 2.223a1.521 1.521 0 01-1.993-.284 29.527 29.527 0 00-1.621-1.839 1.286 1.286 0 01-.005-1.81z" class="cls-1" data-name="Tracé 14632" transform="translate(-484.682 -705.344)"/><path id="Tracé_14633" d="M518.589 725.976l3.4-2.236a1.518 1.518 0 012.063.376c.519.758 1.2 1.789 1.779 2.814a1.32 1.32 0 01-.765 1.9l-3.934 1.4a1.5 1.5 0 01-1.782-.6 73.477 73.477 0 00-1.159-1.85 1.3 1.3 0 01.398-1.804z" class="cls-1" data-name="Tracé 14633" transform="translate(-489.527 -713.131)"/><path id="Tracé_14634" d="M523.876 740.369a11.175 11.175 0 01.419 1.733 1.421 1.421 0 001.436 1.156h4.306a1.389 1.389 0 001.443-1.512 16.4 16.4 0 00-.93-3.634 1.48 1.48 0 00-1.884-.8l-3.921 1.4a1.331 1.331 0 00-.869 1.657z" class="cls-1" data-name="Tracé 14634" transform="translate(-492.991 -721.667)"/><path id="Rectangle_520" d="M2.109 0h2.474a2.384 2.384 0 012.384 2.384 1.834 1.834 0 01-1.834 1.833h-3.3A1.834 1.834 0 010 2.384v-.275A2.109 2.109 0 012.109 0z" class="cls-1" data-name="Rectangle 520" transform="translate(31.764 21.591)"/><path id="Rectangle_521" d="M3.091 0h4.184a2.249 2.249 0 012.249 2.249v1.684a2.249 2.249 0 01-2.249 2.249H3.091A3.091 3.091 0 010 3.091 3.091 3.091 0 013.091 0z" class="cls-1" data-name="Rectangle 521" transform="rotate(180 4.762 15.995)"/><rect id="Rectangle_522" width="7.036" height="4.606" class="cls-1" data-name="Rectangle 522" rx="2.303" transform="translate(2.488 31.99)"/><rect id="Rectangle_523" width="7.036" height="4.606" class="cls-1" data-name="Rectangle 523" rx="2.303" transform="translate(2.488 36.596)"/><rect id="Rectangle_524" width="7.036" height="4.606" class="cls-1" data-name="Rectangle 524" rx="2.303" transform="translate(2.488 41.202)"/><path id="Tracé_14635" d="M486.946 696.9v5.97a1.118 1.118 0 01-.7 1.024 14.4 14.4 0 00-2.461 1.418 1.193 1.193 0 01-1.524-.14l-3.125-3.236a1 1 0 01.074-1.484 28.824 28.824 0 016.523-4.257.842.842 0 011.213.705z" class="cls-1" data-name="Tracé 14635" transform="translate(-466.302 -696.113)"/><path id="Tracé_14636" d="M475.716 714.219L473 711.412a1.526 1.526 0 00-2.1-.062 25.111 25.111 0 00-2.507 2.66 1.294 1.294 0 00.322 1.919l3.377 2.223a1.521 1.521 0 001.993-.284c.42-.517.978-1.171 1.621-1.839a1.286 1.286 0 00.01-1.81z" class="cls-1" data-name="Tracé 14636" transform="translate(-459.93 -705.344)"/><path id="Tracé_14637" d="M467.249 725.976l-3.4-2.236a1.518 1.518 0 00-2.063.376c-.519.758-1.2 1.789-1.779 2.814a1.32 1.32 0 00.765 1.9l3.934 1.4a1.5 1.5 0 001.782-.6c.318-.524.73-1.191 1.159-1.85a1.3 1.3 0 00-.398-1.804z" class="cls-1" data-name="Tracé 14637" transform="translate(-455.024 -713.131)"/><path id="Tracé_14638" d="M462.463 740.369a11.175 11.175 0 00-.419 1.733 1.421 1.421 0 01-1.436 1.156H456.3a1.389 1.389 0 01-1.443-1.512 16.408 16.408 0 01.93-3.634 1.48 1.48 0 011.884-.8l3.921 1.4a1.33 1.33 0 01.871 1.657z" class="cls-1" data-name="Tracé 14638" transform="translate(-452.061 -721.667)"/><path id="Rectangle_525" d="M1.834 0h3.3a1.834 1.834 0 011.833 1.834 2.384 2.384 0 01-2.384 2.383H2.109A2.109 2.109 0 010 2.109v-.275A1.834 1.834 0 011.834 0z" class="cls-1" data-name="Rectangle 525" transform="rotate(180 4.762 12.904)"/><path id="Tracé_14639" d="M490.354 819.989v-1.147a1.741 1.741 0 00-1.8-1.675H455.91a1.741 1.741 0 00-1.8 1.675v1.147" class="cls-1" data-name="Tracé 14639" transform="translate(-451.623 -771.359)"/><path id="Ligne_36" d="M0 0h14.276" class="cls-1" data-name="Ligne 36" transform="translate(13.471 48.914)"/></g></g><g id="Groupe_3256" data-name="Groupe 3256" transform="translate(17.067 12.18)"><path id="Tracé_8154" d="M725.033 325.239v-.93a.318.318 0 00-.318-.317h-1.532a.318.318 0 00-.318.317v.93" class="cls-1" data-name="Tracé 8154" transform="translate(-720.173 -323.992)"/><path id="Tracé_8155" d="M718.834 330.67v-.381a.656.656 0 01.657-.655h2.64a.656.656 0 01.657.655v.381" class="cls-1" data-name="Tracé 8155" transform="translate(-717.035 -328.387)"/><path id="Tracé_8156" d="M715.513 334.059v2.753s-.117 1.626 1.32 4.956a20.826 20.826 0 011.434 6.29v11.084a1.449 1.449 0 01-1.413 1.457h-4.726a1.45 1.45 0 01-1.413-1.457v-11.084a20.826 20.826 0 011.434-6.29c1.436-3.33 1.32-4.956 1.32-4.956v-2.753" class="cls-2" data-name="Tracé 8156" transform="translate(-710.715 -331.834)"/><path id="Ligne_17" d="M7.68 0H0" class="cls-2" data-name="Ligne 17" transform="translate(0 22.104)"/><path id="Ligne_18" d="M0 0h7.68" class="cls-2" data-name="Ligne 18" transform="translate(0 16.546)"/><path id="Rectangle_293" fill="#614dd4" d="M0 0h3.395v5.447H0z" data-name="Rectangle 293" transform="rotate(90 -5.548 12.047)"/></g></g></svg>