<svg xmlns="http://www.w3.org/2000/svg" width="51.352" height="39.323"><defs><style>.cls-1{fill:none;stroke:#1e1240;stroke-linecap:round;stroke-width:1.5px;stroke-linejoin:round}</style></defs><g id="Composant_223_2" data-name="Composant 223 – 2" transform="translate(.75 .908)"><g id="Groupe_3259" data-name="Groupe 3259" transform="translate(0 11.421)"><path id="Tracé_14640" d="M434.031 1368.349H409.35v-17.5h32.583v17.5z" class="cls-1" data-name="Tracé 14640" transform="translate(-409.35 -1345.377)"/><path id="Tracé_14641" d="M417.718 1335.947s3.575-1.261 8.354-2.775a5.673 5.673 0 012.722-.176l18.949 3.426" class="cls-1" data-name="Tracé 14641" transform="translate(-415.161 -1332.907)"/><path id="Tracé_14642" d="M469.14 1350.853a2.871 2.871 0 005.741 0" class="cls-1" data-name="Tracé 14642" transform="translate(-450.869 -1345.377)"/><path id="Tracé_14643" d="M467.584 1361.8a4.737 4.737 0 006.692 0" class="cls-1" data-name="Tracé 14643" transform="translate(-449.788 -1352.986)"/><path id="Tracé_14644" d="M424.4 1392.874a4.409 4.409 0 00-6.228 0" class="cls-1" data-name="Tracé 14644" transform="translate(-415.476 -1373.681)"/><path id="Tracé_14645" d="M437.774 1367.677a2.065 2.065 0 11-2.065-2.062 2.063 2.063 0 012.065 2.062z" class="cls-1" data-name="Tracé 14645" transform="translate(-426.221 -1355.635)"/><path id="Tracé_24093" fill="none" stroke="#1e1240" stroke-linecap="round" stroke-width="1.5" d="M16.917 17.027a2.728 2.728 0 112.028 3.278 2.731 2.731 0 01-2.028-3.278z" data-name="Tracé 24093"/><path id="Tracé_14647" d="M418.828 1401.566a2.913 2.913 0 015.826 0" class="cls-1" data-name="Tracé 14647" transform="translate(-415.931 -1378.594)"/><path id="Tracé_14648" d="M498.181 1373.892a1.522 1.522 0 11-1.522-1.52 1.521 1.521 0 011.522 1.52z" class="cls-1" data-name="Tracé 14648" transform="translate(-468.92 -1360.33)"/></g><path id="Ligne_37" d="M0 0v17.65" class="cls-1" data-name="Ligne 37" transform="translate(41.437 18.296)"/><g id="Groupe_3258" data-name="Groupe 3258" transform="translate(35.316)"><path id="Tracé_14652" d="M533.575 1280.519s1.811 7.316 1.036 12.587a6.767 6.767 0 01-3.662 5.16 4.959 4.959 0 01-4.533 0 6.766 6.766 0 01-3.662-5.16c-.776-5.271 1.036-12.587 1.036-12.587" class="cls-1" data-name="Tracé 14652" transform="translate(-522.562 -1280.519)"/><path id="Tracé_14653" fill="#ff6161" d="M531.882 1306.584a3.428 3.428 0 01-1.484-.369 4.956 4.956 0 01-2.663-3.8 27.338 27.338 0 01.121-6.956h8.052a27.335 27.335 0 01.121 6.956 4.955 4.955 0 01-2.663 3.8 3.428 3.428 0 01-1.484.369z" data-name="Tracé 14653" transform="translate(-525.761 -1290.086)"/></g><path id="Tracé_14654" d="M526.442 1374.248c4.648 0 8.416.889 8.416 1.986s-3.768 1.985-8.416 1.985a21.345 21.345 0 01-7.382-1.031" class="cls-1" data-name="Tracé 14654" transform="translate(-485.005 -1340.554)"/></g></svg>