<svg xmlns="http://www.w3.org/2000/svg" width="52.49" height="36.334"><g data-name="Composant 225 – 2"><g data-name="Groupe 9765"><path fill="none" stroke="#1e1240" stroke-linecap="round" stroke-miterlimit="10" stroke-width="1.5" d="M23.518 12.354a4.315 4.315 0 01-2.05.36c-5.062-.284-9.799 3.71-10.71 9.573-.298 1.917-.073 6.328-4.323 8.11 11.9 5.339 19.174-4.836 17.81-13.402a1.443 1.443 0 01.791-1.556l.077-.035a1.365 1.365 0 011.651.433c5.27 6.779 17.48 8.021 21.595-4.66-4.13 2.059-7.163-1.064-8.746-2.118-4.845-3.224-10.896-2.274-14.08 1.792a4.45 4.45 0 01-1.63 1.328z" data-name="Tracé 24013"/><path fill="#ff4747" d="M44.773 13.987a11.7 11.7 0 01-5.66-2.63 18.98 18.98 0 00-.65-.477 9.43 9.43 0 00-3.73-1.481 16.874 16.874 0 011.933 6.12 13.138 13.138 0 01-.001 3.163 8.837 8.837 0 003.869-.775 9.88 9.88 0 004.239-3.92z" data-name="Tracé 24014"/></g></g></svg>