<svg xmlns="http://www.w3.org/2000/svg" width="35.658" height="40.851"><defs><style>.cls-1{fill:none;stroke:#1e1240;stroke-linecap:round;stroke-linejoin:round;stroke-width:1.5px}</style></defs><g id="picto_port_offert" data-name="picto/port offert" transform="translate(.75 .741)"><g id="Groupe_5753" data-name="Groupe 5753"><path id="Tracé_21082" d="M1223.6 594.588v20.943a2.011 2.011 0 01-2.01 2.011h-24.258a2.011 2.011 0 01-2.011-2.011v-20.943" class="cls-1" data-name="Tracé 21082" transform="translate(-1192.38 -578.182)"/><path id="Tracé_21083" d="M1193.81 565.138h-13.04a1.743 1.743 0 01-1.743-1.743v-3a1.743 1.743 0 011.743-1.743" class="cls-1" data-name="Tracé 21083" transform="translate(-1179.027 -548.732)"/><path id="Tracé_21084" d="M1324.947 558.655a1.743 1.743 0 011.743 1.743v3a1.743 1.743 0 01-1.743 1.743h-7.426" class="cls-1" data-name="Tracé 21084" transform="translate(-1292.536 -548.732)"/><path id="Ligne_84" d="M0 22.953V0" class="cls-1" data-name="Ligne 84" transform="translate(13.837 16.407)"/><path id="Ligne_85" d="M0 0v15.735" class="cls-1" data-name="Ligne 85" transform="translate(20.321 23.625)"/><path id="Tracé_21085" d="M1289.918 507.064a19.816 19.816 0 015-2.9 4.587 4.587 0 012.881-.4 1.863 1.863 0 011.39 2.237c-.2.52-.686.874-.954 1.361-.622 1.135.118 2.513.869 3.568s1.574 2.344 1.1 3.547a2.647 2.647 0 01-2.82 1.375 9.146 9.146 0 01-3.108-1.269 7.28 7.28 0 00-2.48-.924" class="cls-1" data-name="Tracé 21085" transform="translate(-1269.91 -503.659)"/><path id="Tracé_21086" d="M1210.235 507.156a19.827 19.827 0 00-5.112-3 4.587 4.587 0 00-2.881-.4 1.863 1.863 0 00-1.39 2.237c.2.52.686.874.954 1.361.622 1.135-.118 2.513-.868 3.568s-1.574 2.344-1.1 3.547a2.647 2.647 0 002.82 1.375 9.144 9.144 0 003.108-1.269 7.274 7.274 0 012.48-.924" class="cls-1" data-name="Tracé 21086" transform="translate(-1195.97 -503.659)"/><path id="Tracé_21087" d="M1274.39 588.611a6.175 6.175 0 01-.588 2.324 2.182 2.182 0 01-2.215 1.155c-1.194-.263-1.689-1.821-1.295-2.979a3.469 3.469 0 013.818-2.21 4.5 4.5 0 013.245 3.948 11.189 11.189 0 01-.97 5.316" class="cls-1" data-name="Tracé 21087" transform="translate(-1253.716 -571.835)"/><path id="Tracé_21088" d="M1263.716 534.84v-2.017a2.152 2.152 0 00-2.152-2.153h-1.323a2.152 2.152 0 00-2.152 2.153v2.017a.88.88 0 00.88.88h.875a4.486 4.486 0 014.021 2.121 5.668 5.668 0 01.676 3.1" class="cls-1" data-name="Tracé 21088" transform="translate(-1243.823 -525.796)"/></g><path id="Tracé_21089" fill="#ff4747" stroke="#707070" stroke-width="1.5" d="M29.234 37.349v-5.546l-5.576 5.576h5.55a.026.026 0 00.026-.03z" data-name="Tracé 21089"/></g></svg>